M48
; DRILL file {KiCad 8.0.5} date 2024-09-21T22:11:28+0200
; FORMAT={-:-/ absolute / metric / decimal}
; #@! TF.CreationDate,2024-09-21T22:11:28+02:00
; #@! TF.GenerationSoftware,Kicad,Pcbnew,8.0.5
; #@! TF.FileFunction,Plated,1,2,PTH
FMAT,2
METRIC
; #@! TA.AperFunction,Plated,PTH,ComponentDrill
T1C0.700
; #@! TA.AperFunction,Plated,PTH,ComponentDrill
T2C1.000
; #@! TA.AperFunction,Plated,PTH,ComponentDrill
T3C1.400
%
G90
G05
T1
X111.078Y-76.236
X111.078Y-83.856
X116.666Y-76.236
X116.666Y-83.856
X122.0Y-76.236
X122.0Y-83.856
T2
X122.936Y-101.854
X122.936Y-104.394
X122.936Y-106.934
X122.936Y-109.474
X122.936Y-112.014
X122.936Y-114.554
X122.936Y-117.094
X122.936Y-119.634
X128.341Y-78.666
X128.341Y-81.206
X128.341Y-83.746
X128.341Y-86.286
X128.341Y-88.826
X128.341Y-91.366
X128.341Y-93.906
X128.341Y-96.446
X128.341Y-98.986
X128.341Y-101.526
X128.341Y-104.066
X128.341Y-106.606
X128.341Y-109.146
X128.341Y-111.686
X128.341Y-114.226
X143.581Y-78.666
X143.581Y-81.206
X143.581Y-83.746
X143.581Y-86.286
X143.581Y-88.826
X143.581Y-91.366
X143.581Y-93.906
X143.581Y-96.446
X143.581Y-98.986
X143.581Y-101.526
X143.581Y-104.066
X143.581Y-106.606
X143.581Y-109.146
X143.581Y-111.686
X143.581Y-114.226
X148.0Y-75.735
X148.0Y-78.275
X148.07Y-83.994
X148.07Y-86.534
X148.082Y-97.79
X148.082Y-100.33
X148.082Y-102.87
X148.088Y-90.96
X148.088Y-93.5
T3
X111.078Y-87.92
X111.078Y-98.08
X116.666Y-87.92
X116.666Y-98.08
X122.0Y-87.92
X122.0Y-98.08
M30
