G04 #@! TF.GenerationSoftware,KiCad,Pcbnew,8.0.5*
G04 #@! TF.CreationDate,2024-10-14T16:15:43+02:00*
G04 #@! TF.ProjectId,Pipboy2,50697062-6f79-4322-9e6b-696361645f70,rev?*
G04 #@! TF.SameCoordinates,Original*
G04 #@! TF.FileFunction,Soldermask,Top*
G04 #@! TF.FilePolarity,Negative*
%FSLAX46Y46*%
G04 Gerber Fmt 4.6, Leading zero omitted, Abs format (unit mm)*
G04 Created by KiCad (PCBNEW 8.0.5) date 2024-10-14 16:15:43*
%MOMM*%
%LPD*%
G01*
G04 APERTURE LIST*
%ADD10R,1.700000X1.700000*%
%ADD11O,1.700000X1.700000*%
%ADD12C,3.200000*%
%ADD13O,2.000000X1.905000*%
%ADD14R,2.000000X1.905000*%
%ADD15R,2.000000X2.000000*%
%ADD16O,2.000000X2.000000*%
%ADD17R,2.800000X2.800000*%
%ADD18O,2.800000X2.800000*%
%ADD19C,1.400000*%
%ADD20O,1.400000X1.400000*%
%ADD21R,1.600000X1.600000*%
%ADD22O,1.600000X1.600000*%
G04 APERTURE END LIST*
D10*
X149860000Y-120396000D03*
D11*
X147320000Y-120396000D03*
D12*
X161500000Y-121000000D03*
X108000000Y-121000000D03*
X108000000Y-72000000D03*
X161500000Y-72000000D03*
D13*
X154000000Y-82500000D03*
X154000000Y-79960000D03*
D14*
X154000000Y-77420000D03*
D15*
X155500000Y-88000000D03*
D16*
X155500000Y-103000000D03*
D15*
X155257500Y-106000000D03*
D16*
X155257500Y-121000000D03*
D17*
X116666000Y-98080000D03*
D18*
X116666000Y-87920000D03*
D10*
X148000000Y-78275000D03*
D11*
X148000000Y-75735000D03*
D17*
X122000000Y-98080000D03*
D18*
X122000000Y-87920000D03*
D10*
X148082000Y-102870000D03*
D11*
X148082000Y-100330000D03*
X148082000Y-97790000D03*
D19*
X122000000Y-83856000D03*
D20*
X122000000Y-76236000D03*
D21*
X128341000Y-78666000D03*
D22*
X128341000Y-81206000D03*
X128341000Y-83746000D03*
X128341000Y-86286000D03*
X128341000Y-88826000D03*
X128341000Y-91366000D03*
X128341000Y-93906000D03*
X128341000Y-96446000D03*
X128341000Y-98986000D03*
X128341000Y-101526000D03*
X128341000Y-104066000D03*
X128341000Y-106606000D03*
X128341000Y-109146000D03*
X128341000Y-111686000D03*
X128341000Y-114226000D03*
X143581000Y-114226000D03*
X143581000Y-111686000D03*
X143581000Y-109146000D03*
X143581000Y-106606000D03*
X143581000Y-104066000D03*
X143581000Y-101526000D03*
X143581000Y-98986000D03*
X143581000Y-96446000D03*
X143581000Y-93906000D03*
X143581000Y-91366000D03*
X143581000Y-88826000D03*
X143581000Y-86286000D03*
X143581000Y-83746000D03*
X143581000Y-81206000D03*
X143581000Y-78666000D03*
D19*
X116666000Y-83856000D03*
D20*
X116666000Y-76236000D03*
D10*
X122936000Y-119634000D03*
D11*
X122936000Y-117094000D03*
X122936000Y-114554000D03*
X122936000Y-112014000D03*
X122936000Y-109474000D03*
X122936000Y-106934000D03*
X122936000Y-104394000D03*
X122936000Y-101854000D03*
D10*
X148087651Y-90960000D03*
D11*
X148087651Y-93500000D03*
D17*
X111078000Y-98080000D03*
D18*
X111078000Y-87920000D03*
D10*
X148069781Y-83993993D03*
D11*
X148069781Y-86533993D03*
D20*
X111078000Y-76236000D03*
D19*
X111078000Y-83856000D03*
M02*
