G04 #@! TF.GenerationSoftware,KiCad,Pcbnew,8.0.5*
G04 #@! TF.CreationDate,2024-09-21T22:11:10+02:00*
G04 #@! TF.ProjectId,Pipboy2,50697062-6f79-4322-9e6b-696361645f70,rev?*
G04 #@! TF.SameCoordinates,Original*
G04 #@! TF.FileFunction,Legend,Top*
G04 #@! TF.FilePolarity,Positive*
%FSLAX46Y46*%
G04 Gerber Fmt 4.6, Leading zero omitted, Abs format (unit mm)*
G04 Created by KiCad (PCBNEW 8.0.5) date 2024-09-21 22:11:10*
%MOMM*%
%LPD*%
G01*
G04 APERTURE LIST*
%ADD10C,0.090000*%
%ADD11C,0.150000*%
%ADD12C,0.120000*%
%ADD13R,2.800000X2.800000*%
%ADD14O,2.800000X2.800000*%
%ADD15R,1.700000X1.700000*%
%ADD16O,1.700000X1.700000*%
%ADD17C,1.400000*%
%ADD18O,1.400000X1.400000*%
%ADD19R,1.600000X1.600000*%
%ADD20O,1.600000X1.600000*%
G04 APERTURE END LIST*
D10*
X112689565Y-110406234D02*
X112646437Y-110449362D01*
X116583076Y-110176735D02*
X116696065Y-110170975D01*
X109797877Y-116387045D02*
X109807258Y-115524059D01*
X109605769Y-117134947D02*
X109656113Y-117134947D01*
X110003709Y-102586254D02*
X110008252Y-102206641D01*
X113200485Y-110476002D02*
X113207712Y-110494830D01*
X118422047Y-112145387D02*
X118406316Y-112107412D01*
X114702339Y-111047397D02*
X114678694Y-110982630D01*
X113091415Y-110388040D02*
X113064738Y-110388225D01*
X112976511Y-110935135D02*
X112948610Y-110954683D01*
X115034157Y-112200139D02*
X114961578Y-112142203D01*
X114913738Y-112104040D01*
X113473835Y-110332092D02*
X113532637Y-110330112D01*
X113371510Y-111792195D02*
X113362114Y-111718500D01*
X110520501Y-112748855D02*
X110374165Y-112515573D01*
X114411184Y-110548381D02*
X114500800Y-110538190D01*
X114503659Y-110538229D01*
X119251531Y-111650019D02*
X119229220Y-111636416D01*
X112711366Y-110885423D02*
X113370064Y-111463090D01*
X113293377Y-111001401D02*
X113253722Y-111036756D01*
X113284851Y-111698891D02*
X113212320Y-111754809D01*
X113212250Y-111757547D01*
X114101172Y-111064683D02*
X113977896Y-111028579D01*
X119372977Y-111522856D02*
X119345005Y-111596560D01*
X117810249Y-110331967D02*
X117760119Y-110310259D01*
X112599390Y-111294492D02*
X112622225Y-111317330D01*
X116663397Y-112803379D02*
X116702940Y-112795468D01*
X116162511Y-112622970D02*
X116183251Y-112622970D01*
X115615383Y-111974607D02*
X115608858Y-111991639D01*
X117154625Y-109344549D02*
X117227662Y-109397519D01*
X117222535Y-109460215D01*
X113773066Y-110275095D02*
X113831581Y-110320680D01*
X110067714Y-109565584D02*
X110066777Y-109464555D01*
X110066001Y-109364207D01*
X110065372Y-109266397D01*
X110064823Y-109157023D01*
X110064435Y-109039797D01*
X110064297Y-108948957D01*
X110064288Y-108918430D01*
X116527848Y-112434970D02*
X116586845Y-112401303D01*
X109797871Y-103308889D02*
X109994549Y-103446105D01*
X117218258Y-109660258D02*
X117126816Y-109658484D01*
X117033059Y-109656926D01*
X116999582Y-109656568D01*
X109948822Y-114308429D02*
X109943681Y-114213426D01*
X109939244Y-114109476D01*
X109936363Y-114012801D01*
X109934803Y-113911035D01*
X109934658Y-113863574D01*
X112264410Y-111223652D02*
X112223730Y-111196488D01*
X112662241Y-110929883D02*
X112686803Y-110907653D01*
X118629475Y-111543313D02*
X118604338Y-111530760D01*
X113886151Y-111780995D02*
X113850862Y-111814802D01*
X119089980Y-111077023D02*
X119129607Y-111085384D01*
X110461035Y-113251945D02*
X110538822Y-113215342D01*
X112661687Y-110862193D02*
X112617172Y-110889706D01*
X112686803Y-110907653D02*
X113081669Y-110550292D01*
X114031354Y-111869712D02*
X114014301Y-111849163D01*
X112942999Y-110510202D02*
X112963630Y-110541693D01*
X116302478Y-110663576D02*
X116302498Y-110663588D01*
X110534230Y-116996763D02*
X110370660Y-116911875D01*
X116271778Y-110551756D02*
X116258395Y-110462131D01*
X116252651Y-110446873D01*
X118356107Y-110577339D02*
X118429047Y-110612178D01*
X110380040Y-116574186D02*
X109726419Y-116083582D01*
X114479623Y-111493084D02*
X114435559Y-111551965D01*
X112138165Y-111115602D02*
X112093288Y-111061885D01*
X118500114Y-109800150D02*
X118504164Y-109779270D01*
X116661583Y-110570174D02*
X116667604Y-110659427D01*
X118610472Y-109899744D02*
X118553268Y-109860387D01*
X114637499Y-110903304D02*
X114612145Y-110853201D01*
X116324376Y-111003308D02*
X116329767Y-110937473D01*
X116497849Y-109317999D02*
X116520944Y-109266852D01*
X117799705Y-110174710D02*
X117864260Y-110110594D01*
X117933471Y-110052116D01*
X117958257Y-110036983D01*
X112528953Y-111965124D02*
X112542184Y-111872890D01*
X112543448Y-111855662D01*
X116310759Y-109271334D02*
X116384151Y-109284231D01*
X110367583Y-119534812D02*
X110374084Y-119922897D01*
X117780758Y-111423484D02*
X117690000Y-111409700D01*
X117623830Y-111404376D01*
X116801467Y-112307845D02*
X116820857Y-112345344D01*
X117744527Y-110264188D02*
X117744697Y-110231203D01*
X116649369Y-112545594D02*
X116618298Y-112553397D01*
X118521219Y-110545795D02*
X118475814Y-110574550D01*
X119252935Y-110328535D02*
X119257975Y-110417977D01*
X118421094Y-111982644D02*
X118472142Y-111873708D01*
X113658062Y-111591711D02*
X113703011Y-111552245D01*
X116281514Y-111609832D02*
X116281804Y-111544544D01*
X118686450Y-109999023D02*
X118669395Y-109972986D01*
X114364521Y-110606323D02*
X114369021Y-110582941D01*
X116175106Y-112587876D02*
X116104035Y-112649322D01*
X116080948Y-112660869D01*
X116958276Y-109184880D02*
X117032163Y-109200504D01*
X110502218Y-113329692D02*
X110378743Y-113677286D01*
X114497339Y-111405341D02*
X114479623Y-111493084D01*
X116106044Y-110277931D02*
X116162337Y-110340544D01*
X116075441Y-112722078D02*
X116118976Y-112696392D01*
X110008250Y-104548353D02*
X110082358Y-104491539D01*
X110176987Y-104429546D01*
X110262449Y-104375278D01*
X110345031Y-104323650D01*
X110427957Y-104272380D01*
X110470196Y-104246482D01*
X117777580Y-110356609D02*
X117829648Y-110364799D01*
X109999130Y-103711369D02*
X109797871Y-103587894D01*
X110380040Y-116574186D02*
X109957342Y-116194750D01*
X112543448Y-111855662D02*
X112548812Y-111772575D01*
X113580124Y-111631178D02*
X113613113Y-111631178D01*
X116930528Y-109691509D02*
X116949575Y-109802137D01*
X112772845Y-110219524D02*
X112858949Y-110190399D01*
X112867517Y-110187313D01*
X112675201Y-110555130D02*
X112688486Y-110590221D01*
X114894580Y-111506240D02*
X114861074Y-111518986D01*
X115678096Y-112616666D02*
X115623045Y-112585279D01*
X110127182Y-104758732D02*
X110077330Y-104680551D01*
X110029187Y-104598886D01*
X110008250Y-104548353D01*
X119274966Y-111217558D02*
X119251179Y-111241343D01*
X109921381Y-104873082D02*
X109980807Y-105764911D01*
X113207712Y-110494830D02*
X113249914Y-110501310D01*
X114265925Y-110766954D02*
X114321537Y-110804502D01*
X114588003Y-111737537D02*
X114517667Y-111681043D01*
X118604338Y-111530760D02*
X118586959Y-111530760D01*
X116852982Y-112784592D02*
X116770992Y-112827458D01*
X116689777Y-112863019D01*
X114033097Y-111675887D02*
X114041161Y-111696890D01*
X118700615Y-110113192D02*
X118713233Y-110120932D01*
X116577372Y-111844602D02*
X116556667Y-111813001D01*
X116840249Y-112382842D02*
X116880745Y-112386793D01*
X116067350Y-112754290D02*
X116075441Y-112722078D01*
X116553930Y-112845142D02*
X116560419Y-112828217D01*
X113903119Y-110417970D02*
X113927503Y-110496837D01*
X112684966Y-110736917D02*
X112674511Y-110828123D01*
X112673327Y-110831575D01*
X117415239Y-109655488D02*
X117322872Y-109660892D01*
X117227667Y-109660439D01*
X117218258Y-109660258D01*
X116556667Y-111813001D02*
X116535963Y-111781401D01*
X109473136Y-107489179D02*
X109468741Y-107620251D01*
X109465942Y-107749370D01*
X109462848Y-107911739D01*
X109461216Y-108003251D01*
X109459540Y-108100506D01*
X109457830Y-108202646D01*
X109456098Y-108308815D01*
X109454351Y-108418156D01*
X109452602Y-108529813D01*
X109450859Y-108642929D01*
X109449133Y-108756647D01*
X109447434Y-108870110D01*
X109445772Y-108982462D01*
X109444156Y-109092846D01*
X109442598Y-109200405D01*
X109441106Y-109304283D01*
X109439692Y-109403623D01*
X109438364Y-109497567D01*
X109436011Y-109665845D01*
X109434126Y-109802263D01*
X109432790Y-109899966D01*
X109431992Y-109958941D01*
X113532637Y-110330112D02*
X113591438Y-110328132D01*
X118307158Y-110538684D02*
X118312279Y-110554056D01*
X116832854Y-111794429D02*
X116744329Y-111826418D01*
X116651221Y-111843201D01*
X116626686Y-111844602D01*
X109898478Y-117400212D02*
X109903059Y-118589330D01*
X115252367Y-112359301D02*
X115219564Y-112338760D01*
X115977786Y-110154622D02*
X116005700Y-110207038D01*
X119229220Y-111636416D02*
X119185489Y-111579922D01*
X115289985Y-111126187D02*
X115472022Y-111120940D01*
X110360694Y-115993073D02*
X110384144Y-115233270D01*
X109614081Y-115420502D02*
X109582140Y-115507577D01*
X109570831Y-115599055D01*
X115227225Y-111078047D02*
X115155991Y-111077798D01*
X114881971Y-110916489D02*
X114881971Y-110963811D01*
X117028742Y-112537582D02*
X117028742Y-112579812D01*
X115503451Y-112514449D02*
X115422108Y-112465292D01*
X115382241Y-112442668D01*
X116712856Y-112735264D02*
X116708536Y-112753402D01*
X115283410Y-112377721D02*
X115252367Y-112359301D01*
X112623590Y-112032906D02*
X112561216Y-112032906D01*
X117829648Y-110364799D02*
X117837127Y-110352703D01*
X116256697Y-111524047D02*
X116146847Y-111528322D01*
X115621908Y-111957579D02*
X115615383Y-111974607D01*
X116804115Y-112644421D02*
X116760653Y-112680770D01*
X109989967Y-113334273D02*
X110070214Y-113389055D01*
X110148730Y-113454163D01*
X110216603Y-113513500D01*
X110295722Y-113586447D01*
X110363340Y-113656020D01*
X110378743Y-113677286D01*
X118892361Y-110396769D02*
X118879140Y-110457114D01*
X113802300Y-111022556D02*
X113777107Y-111069776D01*
X116234670Y-110495059D02*
X116242518Y-110575375D01*
X114915597Y-111057115D02*
X114989803Y-111080599D01*
X112881753Y-110392734D02*
X112846264Y-110363106D01*
X109441150Y-117102923D02*
X109439271Y-117193104D01*
X109438459Y-117296127D01*
X109438121Y-117390629D01*
X109437993Y-117497536D01*
X109437991Y-117516411D01*
X112865103Y-110470161D02*
X112922369Y-110478711D01*
X115972106Y-111883265D02*
X115881164Y-111898337D01*
X115847464Y-111908011D01*
X116541808Y-109190280D02*
X116630796Y-109169359D01*
X116696076Y-109160706D01*
X113790628Y-111140518D02*
X113829342Y-111179232D01*
X116221210Y-111769268D02*
X116174132Y-111801848D01*
X109953366Y-114838961D02*
X110671455Y-115438120D01*
X114699945Y-111325694D02*
X114701142Y-111186546D01*
X116429920Y-111868296D02*
X116363648Y-111871320D01*
X110282676Y-108381046D02*
X110345578Y-108445855D01*
X110378743Y-108504519D01*
X112494208Y-111073694D02*
X112492624Y-111116274D01*
X114355900Y-111656568D02*
X114291453Y-111723574D01*
X114277196Y-111738923D01*
X114861074Y-111518986D02*
X114795137Y-111582031D01*
X114781665Y-111620291D01*
X114112150Y-111448038D02*
X114101172Y-111064683D01*
X115470631Y-111077455D02*
X115373723Y-111077624D01*
X115278652Y-111077837D01*
X115227225Y-111078047D01*
X116664675Y-112352616D02*
X116721169Y-112329036D01*
X119087645Y-111350868D02*
X119036804Y-111349041D01*
X115040744Y-109844972D02*
X115114500Y-109791929D01*
X115137303Y-109779344D01*
X113412207Y-111508132D02*
X113419480Y-111531031D01*
X109437996Y-117516411D02*
X109438082Y-117635096D01*
X109438326Y-117761568D01*
X109438706Y-117893697D01*
X109439198Y-118029351D01*
X109439781Y-118166400D01*
X109440431Y-118302711D01*
X109441127Y-118436155D01*
X109441845Y-118564600D01*
X109442562Y-118685915D01*
X109443258Y-118797968D01*
X109443908Y-118898630D01*
X109444750Y-119023599D01*
X109445503Y-119130463D01*
X109445694Y-119156466D01*
X114342864Y-110776224D02*
X114364191Y-110747946D01*
X109784167Y-115049380D02*
X109948822Y-115154572D01*
X115420648Y-111631800D02*
X115481084Y-111617667D01*
X116329767Y-110937473D02*
X116332159Y-110847211D01*
X116330388Y-110778389D01*
X116231544Y-112888358D02*
X116160605Y-112855749D01*
X114881971Y-111011133D02*
X114898784Y-111034123D01*
X116299060Y-110941127D02*
X116267105Y-110970764D01*
X118085570Y-109947181D02*
X118165150Y-109903641D01*
X118192281Y-109888339D01*
X109943271Y-116518369D02*
X109797877Y-116387045D01*
X115828802Y-112691993D02*
X115795250Y-112670023D01*
X112807839Y-110461611D02*
X112865103Y-110470161D01*
X109796752Y-104148719D02*
X109796809Y-104256177D01*
X109796999Y-104361687D01*
X109797348Y-104462172D01*
X109797885Y-104554557D01*
X109798861Y-104653963D01*
X109800891Y-104752362D01*
X109802450Y-104781597D01*
X109980807Y-105764911D02*
X110061989Y-105819156D01*
X110138748Y-105885968D01*
X110219946Y-105961889D01*
X110292602Y-106033412D01*
X110355255Y-106100442D01*
X110360423Y-106107963D01*
X114492990Y-111591572D02*
X114522986Y-111504989D01*
X114550305Y-111489329D01*
X118553268Y-109860387D02*
X118496064Y-109821030D01*
X112295055Y-111468374D02*
X112302462Y-111389703D01*
X114014301Y-111849163D02*
X113941699Y-111804805D01*
X112597072Y-111507582D02*
X112623709Y-111460504D01*
X116182522Y-110400676D02*
X116183719Y-110454379D01*
X118560468Y-109777830D02*
X118660698Y-109789792D01*
X118767572Y-109828261D01*
X118854559Y-109875789D01*
X118940149Y-109936283D01*
X119021832Y-110007966D01*
X119097098Y-110089062D01*
X119163436Y-110177795D01*
X119192473Y-110224470D01*
X113375333Y-111009670D02*
X113375334Y-111009690D01*
X113009475Y-110532468D02*
X113089679Y-110524188D01*
X119208924Y-111117848D02*
X119248614Y-111141940D01*
X116325627Y-110685140D02*
X116302478Y-110663576D01*
X112732692Y-110363106D02*
X112689565Y-110406234D01*
X118669395Y-109972986D02*
X118662555Y-109946949D01*
X118662555Y-109946949D02*
X118636509Y-109940109D01*
X112617172Y-110889706D02*
X112572657Y-110917219D01*
X119175818Y-111749175D02*
X119163002Y-111788024D01*
X109939662Y-107630973D02*
X109802448Y-107983147D01*
X116767984Y-112734401D02*
X116833029Y-112673335D01*
X112948610Y-110984662D02*
X112948610Y-111014623D01*
X109604383Y-118920374D02*
X110367583Y-119534812D01*
X114861267Y-110731855D02*
X114812011Y-110656786D01*
X116237853Y-111582747D02*
X116237853Y-111676008D01*
X112571965Y-111530744D02*
X112584518Y-111530744D01*
X118860564Y-110460714D02*
X118841988Y-110464314D01*
X116760653Y-112680770D02*
X116712856Y-112735264D01*
X109934658Y-113863574D02*
X109935718Y-113764950D01*
X109939695Y-113650583D01*
X109945980Y-113555112D01*
X109956048Y-113461205D01*
X109974152Y-113366296D01*
X109989967Y-113334273D01*
X118574927Y-112226062D02*
X118520449Y-112234459D01*
X116160605Y-112855749D02*
X116080493Y-112810416D01*
X116074462Y-112804821D01*
X116294047Y-110900132D02*
X116299060Y-110941127D01*
X119242251Y-111276875D02*
X119303154Y-111303458D01*
X110657714Y-115735409D02*
X110826950Y-115836019D01*
X119084396Y-111890038D02*
X119015067Y-111954539D01*
X118947023Y-112014415D01*
X118875527Y-112072769D01*
X118839263Y-112095694D01*
X117744697Y-110231203D02*
X117799705Y-110174710D01*
X117380271Y-110262523D02*
X117475364Y-110283454D01*
X117566190Y-110305403D01*
X117658378Y-110329130D01*
X117687850Y-110337376D01*
X117760119Y-110310259D02*
X117744357Y-110297182D01*
X118817696Y-110824852D02*
X118897478Y-110871966D01*
X118971824Y-110925414D01*
X119039856Y-110985679D01*
X119081970Y-111045175D01*
X114612145Y-110853201D02*
X114604342Y-110817660D01*
X114701150Y-111712507D02*
X114633478Y-111759116D01*
X116049751Y-110215318D02*
X116106044Y-110277931D01*
X112823678Y-111744155D02*
X112835928Y-111776358D01*
X115614347Y-112006216D02*
X115639276Y-111979458D01*
X116235151Y-111000401D02*
X116249744Y-111009428D01*
X117115616Y-109330950D02*
X117154625Y-109344549D01*
X118705260Y-110027265D02*
X118686450Y-109999023D01*
X115796142Y-111920316D02*
X115742700Y-111939147D01*
X118727093Y-110324152D02*
X118711127Y-110362708D01*
X116768518Y-110997020D02*
X116755012Y-110871477D01*
X119395260Y-111414363D02*
X119400930Y-111448833D01*
X114435559Y-111551965D02*
X114381556Y-111627687D01*
X114355900Y-111656568D01*
X110538820Y-110878213D02*
X110538578Y-110764159D01*
X110538247Y-110633169D01*
X110537748Y-110463160D01*
X110537429Y-110365936D01*
X110537061Y-110261851D01*
X110536641Y-110151871D01*
X110536167Y-110036959D01*
X110535635Y-109918082D01*
X110535044Y-109796203D01*
X110534392Y-109672288D01*
X110533674Y-109547301D01*
X110532890Y-109422206D01*
X110532036Y-109297969D01*
X110531110Y-109175554D01*
X110530110Y-109055926D01*
X110529032Y-108940051D01*
X110527875Y-108828891D01*
X110526636Y-108723413D01*
X110525313Y-108624581D01*
X110523902Y-108533359D01*
X110520809Y-108377607D01*
X110517338Y-108263875D01*
X110511377Y-108188948D01*
X116673625Y-110748671D02*
X116695751Y-110791241D01*
X114633478Y-111759116D02*
X114588003Y-111737537D01*
X117416247Y-109610434D02*
X117429008Y-109647028D01*
X116999582Y-109656568D02*
X116964122Y-109656616D01*
X116228336Y-112508447D02*
X116201721Y-112542283D01*
X113582039Y-112020442D02*
X113482155Y-112022386D01*
X116281804Y-111544544D02*
X116269251Y-111534295D01*
X113825258Y-110986583D02*
X113802300Y-111022556D01*
X114067271Y-111663694D02*
X114104385Y-111596309D01*
X116146847Y-111528322D02*
X116054174Y-111536339D01*
X116120847Y-111549569D01*
X116059259Y-112786502D02*
X116067350Y-112754290D01*
X110831530Y-115008198D02*
X110525081Y-114788657D01*
X116341744Y-112396993D02*
X116380804Y-112397178D01*
X110378743Y-110370542D02*
X110387866Y-110750160D01*
X119303154Y-111303458D02*
X119349207Y-111318282D01*
X113966340Y-110978800D02*
X113966328Y-110978798D01*
X113965549Y-111047410D02*
X113977896Y-111028579D01*
X113831581Y-110320680D02*
X113890095Y-110366265D01*
X116195830Y-110341843D02*
X116181325Y-110346973D01*
X114938883Y-109925549D02*
X115011695Y-109868750D01*
X115040744Y-109844972D01*
X115650785Y-109509441D02*
X115685450Y-109490613D01*
X116708536Y-112753402D02*
X116620693Y-112770458D01*
X112561216Y-112032906D02*
X112540512Y-112012204D01*
X115177039Y-111573363D02*
X115126823Y-111551356D01*
X112454939Y-110438122D02*
X112582709Y-110313385D01*
X109802451Y-102032862D02*
X109797871Y-103308889D01*
X116204663Y-111549569D02*
X116221258Y-111566158D01*
X112622225Y-111317330D02*
X112622127Y-111345576D01*
X116833029Y-112673335D02*
X116818572Y-112658878D01*
X113144234Y-110380930D02*
X113091415Y-110388040D01*
X118807086Y-110427882D02*
X118772184Y-110391459D01*
X110355842Y-107050097D02*
X110278895Y-107001633D01*
X110195827Y-106938637D01*
X110123740Y-106882352D01*
X110041275Y-106816945D01*
X109968205Y-106758279D01*
X109967103Y-106757388D01*
X118509127Y-110656260D02*
X118593379Y-110706329D01*
X118675769Y-110750348D01*
X118757860Y-110793537D01*
X118817696Y-110824852D01*
X113268054Y-111819493D02*
X113305254Y-111819493D01*
X115814785Y-111995748D02*
X115878823Y-112061861D01*
X119100200Y-111530190D02*
X119125445Y-111584575D01*
X113282323Y-111087018D02*
X113318960Y-111116333D01*
X109802450Y-113091870D02*
X109801664Y-113189112D01*
X109800762Y-113289501D01*
X109799593Y-113417024D01*
X109798209Y-113566147D01*
X109796665Y-113731336D01*
X109795013Y-113907056D01*
X109794164Y-113997137D01*
X109793308Y-114087775D01*
X109792452Y-114178279D01*
X109790767Y-114356118D01*
X109789162Y-114525121D01*
X109787692Y-114679752D01*
X109786408Y-114814480D01*
X109785366Y-114923768D01*
X109784372Y-115027898D01*
X109784167Y-115049380D01*
X115481084Y-111617667D02*
X115581404Y-111614867D01*
X115692956Y-111609577D01*
X115802453Y-111602766D01*
X115896612Y-111595401D01*
X115985772Y-111582886D01*
X115980512Y-111581264D01*
X113374830Y-110375526D02*
X113412179Y-110375526D01*
X114034059Y-111351839D02*
X114041657Y-111445295D01*
X114042474Y-111535790D01*
X114035031Y-111595949D01*
X119400930Y-111448833D02*
X119372977Y-111522856D01*
X116241053Y-112350046D02*
X116234681Y-112429246D01*
X113362117Y-111718501D02*
X113131842Y-111554520D01*
X118841988Y-110464314D02*
X118807086Y-110427882D01*
X114818313Y-111664987D02*
X114830701Y-111632407D01*
X116476090Y-110260876D02*
X116540087Y-110312815D01*
X112803290Y-111982686D02*
X112735183Y-112007795D01*
X116091954Y-112239017D02*
X116241053Y-112350046D01*
X114479623Y-111493084D02*
X114112150Y-111448038D01*
X113057214Y-110425890D02*
X113049689Y-110463555D01*
X119081970Y-111045175D02*
X119089980Y-111077023D01*
X112548812Y-111772575D02*
X112491540Y-111705010D01*
X113936535Y-111133473D02*
X114101172Y-111064683D01*
X119261790Y-111179749D02*
X119274966Y-111217558D01*
X116975386Y-112682507D02*
X116922031Y-112742970D01*
X113482155Y-112022386D02*
X113369168Y-112003077D01*
X113663180Y-110275095D02*
X113718123Y-110275095D01*
X116657766Y-112559170D02*
X116649369Y-112545594D01*
X113245685Y-111057703D02*
X113282323Y-111087018D01*
X109690234Y-115436161D02*
X109614081Y-115420502D01*
X113703011Y-111552245D02*
X113698881Y-111532078D01*
X113718123Y-110275095D02*
X113773066Y-110275095D01*
X118475814Y-110574550D02*
X118427057Y-110557171D01*
X112644003Y-111254552D02*
X112637658Y-111072515D01*
X109726419Y-116083582D02*
X109759062Y-115992919D01*
X109770086Y-115898064D01*
X109770942Y-115798837D01*
X109769749Y-115772502D01*
X113352587Y-111116380D02*
X113386215Y-111116427D01*
X112572161Y-111449142D02*
X112572063Y-111489943D01*
X112622127Y-111345576D02*
X112597103Y-111411475D01*
X118636509Y-109940109D02*
X118610472Y-109933269D01*
X114800066Y-110784100D02*
X114837918Y-110865841D01*
X114857274Y-110893485D01*
X113627310Y-110301609D02*
X113663180Y-110275095D01*
X112519809Y-111991500D02*
X112528953Y-111965124D01*
X113323672Y-111691124D02*
X113284851Y-111698891D01*
X116759206Y-111158264D02*
X116768518Y-110997020D01*
X112735183Y-112007795D02*
X112685965Y-112032906D01*
X116279179Y-111850058D02*
X116260982Y-111825771D01*
X114503659Y-110538229D02*
X114558471Y-110539219D01*
X118971175Y-110537808D02*
X118930711Y-110504022D01*
X110136323Y-110704432D02*
X109999115Y-110580945D01*
X112643254Y-110277808D02*
X112728313Y-110236442D01*
X112772845Y-110219524D01*
X115490581Y-112045499D02*
X115589418Y-112032974D01*
X113486942Y-111592554D02*
X113547134Y-111631178D01*
X110355843Y-114646901D02*
X109948822Y-114308429D01*
X110365004Y-109826308D02*
X110067714Y-109565584D01*
X113698881Y-111532078D02*
X113694750Y-111511912D01*
X116380804Y-112397178D02*
X116471037Y-112415200D01*
X116473856Y-112416165D01*
X114898784Y-111034123D02*
X114915597Y-111057115D01*
X110008251Y-103926327D02*
X109999130Y-103711369D01*
X113829342Y-111179232D02*
X113852744Y-111179232D01*
X110529538Y-115341142D02*
X110534230Y-116996763D01*
X116162511Y-112646838D02*
X116162511Y-112622970D01*
X114593231Y-110470597D02*
X114516512Y-110421244D01*
X114495769Y-110407525D01*
X110218669Y-105412774D02*
X110138703Y-105359249D01*
X110108899Y-105316707D01*
X116276056Y-110202124D02*
X116333105Y-110188840D01*
X115391142Y-112008361D02*
X115378878Y-112020625D01*
X112572657Y-110917219D02*
X112534225Y-110974162D01*
X110378743Y-113677286D02*
X110386819Y-113787147D01*
X110386288Y-113888160D01*
X110383556Y-114008197D01*
X110379255Y-114138484D01*
X110374020Y-114270249D01*
X110368484Y-114394717D01*
X110363280Y-114503116D01*
X110357952Y-114607488D01*
X110355843Y-114646901D01*
X118905582Y-110336424D02*
X118892361Y-110396769D01*
X109431992Y-109958941D02*
X109587487Y-110073292D01*
X112922369Y-110478711D02*
X112942999Y-110510202D01*
X116252651Y-110446873D02*
X116225713Y-110384530D01*
X109500883Y-116617731D02*
X109482468Y-116710488D01*
X109467170Y-116809534D01*
X109455148Y-116910048D01*
X109446922Y-117003024D01*
X109441150Y-117102923D01*
X109445694Y-119156466D02*
X109592068Y-119261656D01*
X113072403Y-110909335D02*
X113081669Y-110550292D01*
X115137303Y-109779344D02*
X115217400Y-109734960D01*
X115283817Y-109694897D01*
X115153607Y-112287346D02*
X115077769Y-112233777D01*
X115034157Y-112200139D01*
X109884777Y-109428410D02*
X109587487Y-109167684D01*
X112673327Y-110831575D02*
X112661687Y-110862193D01*
X112093288Y-111061885D02*
X112101352Y-111029527D01*
X116717259Y-110585809D02*
X116693066Y-110552878D01*
X116263255Y-110671226D02*
X116281459Y-110759686D01*
X116282587Y-110772950D01*
X118666538Y-111555867D02*
X118629475Y-111543313D01*
X109584062Y-108520531D02*
X109584158Y-108429020D01*
X109584470Y-108338835D01*
X109585280Y-108223356D01*
X109586613Y-108116727D01*
X109588549Y-108022660D01*
X109591938Y-107928395D01*
X109601228Y-107845934D01*
X114767554Y-110697727D02*
X114800066Y-110784100D01*
X116986367Y-112512581D02*
X117028742Y-112537582D01*
X116287680Y-109283682D02*
X116310759Y-109271334D01*
X114552415Y-110929384D02*
X114593203Y-111000115D01*
X116620693Y-112770458D02*
X116527610Y-112786570D01*
X116476354Y-112793620D01*
X116512957Y-112552796D02*
X116438686Y-112544399D01*
X115472022Y-111120940D02*
X115562249Y-111117638D01*
X115653095Y-111112446D01*
X115684121Y-111109060D01*
X114369021Y-110582941D02*
X114373521Y-110559568D01*
X116074462Y-112804821D02*
X116059259Y-112786502D01*
X116820857Y-112345344D02*
X116840249Y-112382842D01*
X115377484Y-111630811D02*
X115395134Y-111645458D01*
X116696076Y-109160706D02*
X116796510Y-109151481D01*
X116595619Y-112899826D02*
X116526571Y-112907026D01*
X113389785Y-111455521D02*
X113131842Y-111554520D01*
X113386215Y-111116427D02*
X113405943Y-111096699D01*
X119249631Y-110542107D02*
X119236194Y-110576631D01*
X115366614Y-112032889D02*
X115379181Y-112045457D01*
X115714185Y-111102409D02*
X115701562Y-111089786D01*
X116974504Y-111731615D02*
X116931737Y-111756724D01*
X116118976Y-112696392D02*
X116162511Y-112670707D01*
X109802448Y-107983147D02*
X110081456Y-108243833D01*
X115379181Y-112045457D02*
X115391749Y-112058024D01*
X115623045Y-112585279D02*
X115575129Y-112562491D01*
X116932616Y-112439153D02*
X116943992Y-112487579D01*
X113425672Y-111032359D02*
X113072403Y-110909335D01*
X115382241Y-112442668D02*
X115303459Y-112394015D01*
X115283410Y-112377721D01*
X112685965Y-112032906D02*
X112623590Y-112032906D01*
X115018993Y-111021874D02*
X114957067Y-111001300D01*
X117311019Y-109534393D02*
X117368079Y-109566100D01*
X109601228Y-107845934D02*
X109688559Y-107883594D01*
X109760357Y-107946462D01*
X109802448Y-107983147D01*
X118765074Y-110248592D02*
X118757964Y-110105727D01*
X116249992Y-112571637D02*
X116295990Y-112520305D01*
X116561743Y-110286985D02*
X116560492Y-110243380D01*
X114035881Y-110574885D02*
X114108555Y-110631496D01*
X114110429Y-110632827D01*
X116724033Y-111066064D02*
X116730189Y-111298317D01*
X116755012Y-110871477D02*
X116744529Y-110780527D01*
X116732831Y-110689790D01*
X116729384Y-110665873D01*
X109802448Y-107983147D02*
X109865328Y-108047955D01*
X109898478Y-108106619D01*
X112711366Y-110885423D02*
X112702834Y-110784383D01*
X118504366Y-111605527D02*
X118422332Y-111588176D01*
X114781665Y-111620291D02*
X114768822Y-111665901D01*
X109967103Y-106757388D02*
X109963414Y-106657759D01*
X109959953Y-106550090D01*
X109957108Y-106446439D01*
X109954620Y-106333456D01*
X109952882Y-106216896D01*
X109952286Y-106102518D01*
X109952362Y-106074940D01*
X110064289Y-108918430D02*
X110064385Y-108826919D01*
X110064697Y-108736734D01*
X110065507Y-108621255D01*
X110066840Y-108514626D01*
X110068776Y-108420559D01*
X110072166Y-108326295D01*
X110081456Y-108243833D01*
X116363365Y-112829017D02*
X116455767Y-112855138D01*
X116477891Y-112853089D01*
X118619264Y-109989496D02*
X118671788Y-110040841D01*
X113777107Y-111069776D02*
X113751915Y-111101805D01*
X116560419Y-112828217D02*
X116566908Y-112811290D01*
X114605142Y-110567308D02*
X114680030Y-110621649D01*
X114709683Y-110646562D01*
X116018178Y-112691206D02*
X115923490Y-112691600D01*
X112127672Y-110976913D02*
X112174246Y-110888062D01*
X112212791Y-110798290D01*
X112247529Y-110707838D01*
X112257659Y-110678147D01*
X116237853Y-111676008D02*
X116237853Y-111769268D01*
X118479112Y-112208911D02*
X118437775Y-112183363D01*
X118422332Y-111588176D02*
X118324096Y-111551394D01*
X118232243Y-111519925D01*
X118138575Y-111493629D01*
X118049370Y-111474114D01*
X117989156Y-111462629D01*
X112491540Y-111705010D02*
X112430645Y-111632460D01*
X112372049Y-111561872D01*
X112364662Y-111552910D01*
X109948822Y-115154572D02*
X109953366Y-114838961D01*
X116294356Y-111010868D02*
X116324376Y-111003308D01*
X112303439Y-110586533D02*
X112368349Y-110522771D01*
X112435273Y-110457327D01*
X112454939Y-110438122D01*
X113938867Y-110523999D02*
X113967880Y-110532999D01*
X109994549Y-103446105D02*
X110008251Y-103231138D01*
X112689637Y-110678102D02*
X112689632Y-110678107D01*
X119257975Y-110417977D02*
X119263015Y-110507419D01*
X118406316Y-112107412D02*
X118413705Y-112045028D01*
X114632218Y-110205313D02*
X114696055Y-110141684D01*
X114765557Y-110077029D01*
X114839616Y-110010091D01*
X114912344Y-109946842D01*
X114938883Y-109925549D01*
X112963630Y-110541693D02*
X113009475Y-110532468D01*
X115727030Y-111987603D02*
X115814785Y-111995748D01*
X114321537Y-110804502D02*
X114342864Y-110776224D01*
X118476295Y-110639106D02*
X118509127Y-110656260D01*
X113073375Y-110871670D02*
X113060573Y-110893639D01*
X115684121Y-111109060D02*
X115714185Y-111102409D01*
X109952363Y-106074940D02*
X109952362Y-106074940D01*
X119163254Y-111682923D02*
X119175818Y-111749175D01*
X118917732Y-110340384D02*
X118905582Y-110336424D01*
X116667604Y-110659427D02*
X116673625Y-110748671D01*
X109999115Y-110580945D02*
X109994542Y-112250313D01*
X116526571Y-112907026D02*
X116457522Y-112914226D01*
X114036040Y-111255248D02*
X114024976Y-111254544D01*
X117202884Y-109481923D02*
X117246126Y-109496197D01*
X114035031Y-111595949D02*
X114033097Y-111675887D01*
X113124039Y-110525178D02*
X113137200Y-110500590D01*
X113249914Y-110501310D02*
X113284438Y-110480403D01*
X118312279Y-110554056D02*
X118356107Y-110577339D01*
X116234681Y-112429246D02*
X116228336Y-112508447D01*
X117844615Y-110340607D02*
X117810249Y-110331967D01*
X115742700Y-111939147D02*
X115718332Y-111957579D01*
X118437775Y-112183363D02*
X118422047Y-112145387D01*
X113820182Y-111954856D02*
X113803420Y-111975053D01*
X109802450Y-104781597D02*
X109854622Y-104858680D01*
X109921381Y-104873082D01*
X117403486Y-109573840D02*
X117416247Y-109610434D01*
X113890095Y-110366265D02*
X113903119Y-110417970D01*
X115219564Y-112338760D02*
X115153607Y-112287346D01*
X118688839Y-111603431D02*
X118710601Y-111594494D01*
X114957067Y-111001300D02*
X114942433Y-110974102D01*
X118879140Y-110457114D02*
X118860564Y-110460714D01*
X115878823Y-112061861D02*
X115946790Y-112123494D01*
X116021122Y-112184445D01*
X116091954Y-112239017D01*
X116422566Y-110208928D02*
X116476090Y-110260876D01*
X119298268Y-111623290D02*
X119251531Y-111650019D01*
X113848216Y-110965802D02*
X113825258Y-110986583D01*
X115670120Y-111957579D02*
X115621908Y-111957579D01*
X109578327Y-109730240D02*
X109657288Y-109796123D01*
X109738636Y-109861671D01*
X109837613Y-109940875D01*
X109909584Y-109998272D01*
X109983680Y-110057251D01*
X110057615Y-110116015D01*
X110129104Y-110172770D01*
X110226755Y-110250205D01*
X110306052Y-110313019D01*
X110378743Y-110370542D01*
X109796753Y-104148719D02*
X109796752Y-104148719D01*
X113190906Y-110309713D02*
X113170377Y-110373910D01*
X112512432Y-111138338D02*
X112554397Y-111216029D01*
X115718332Y-111957579D02*
X115670120Y-111957579D01*
X119049980Y-111444372D02*
X119097932Y-111520711D01*
X119100200Y-111530190D01*
X115688940Y-111077164D02*
X115470631Y-111077455D01*
X114678694Y-110982630D02*
X114637499Y-110903304D01*
X116574405Y-112574230D02*
X116666163Y-112572745D01*
X110868095Y-105069722D02*
X110868095Y-104415718D01*
X116884378Y-110176276D02*
X116976801Y-110189609D01*
X117053861Y-110200477D01*
X119248614Y-111141940D02*
X119261790Y-111179749D01*
X116586845Y-112401303D02*
X116663632Y-112353430D01*
X116664675Y-112352616D01*
X115575129Y-112562491D02*
X115503451Y-112514449D01*
X113212250Y-111757547D02*
X113212250Y-111780406D01*
X113150362Y-110476002D02*
X113175422Y-110476002D01*
X116201721Y-112542283D02*
X116175106Y-112587876D01*
X113412179Y-110375526D02*
X113449529Y-110375526D01*
X116333105Y-110188840D02*
X116377836Y-110198884D01*
X116174132Y-111801848D02*
X116097598Y-111855963D01*
X116001806Y-111879204D01*
X115972106Y-111883265D01*
X118504164Y-109779270D02*
X118560468Y-109777830D01*
X113613113Y-111631178D02*
X113658062Y-111591711D01*
X118695841Y-111555867D02*
X118666538Y-111555867D01*
X112654168Y-110484705D02*
X112675201Y-110555130D01*
X119163002Y-111788024D02*
X119150186Y-111826871D01*
X113253722Y-111036756D02*
X113245685Y-111057703D01*
X109570831Y-115599055D02*
X109569336Y-115698395D01*
X109576484Y-115800331D01*
X109591532Y-115898199D01*
X109613742Y-115985333D01*
X115589418Y-112032974D02*
X115614347Y-112006216D01*
X116347657Y-112427954D02*
X116341744Y-112396993D01*
X116473856Y-112416165D02*
X116527848Y-112434970D01*
X117744357Y-110297182D02*
X117744527Y-110264188D01*
X113525630Y-111519785D02*
X113457707Y-111487654D01*
X110406188Y-107612652D02*
X110488771Y-107562664D01*
X110518370Y-107473334D01*
X110520501Y-107461737D01*
X117315359Y-111443106D02*
X117317186Y-111489516D01*
X112992539Y-111889942D02*
X112918646Y-111836299D01*
X112860995Y-111765852D01*
X112860719Y-111763490D01*
X116571172Y-110188255D02*
X116583076Y-110176735D01*
X118711127Y-110362708D02*
X118695152Y-110401264D01*
X116338275Y-109860953D02*
X116310210Y-109880726D01*
X116457522Y-112914226D02*
X116344533Y-112901299D01*
X116249744Y-111009428D02*
X116294356Y-111010868D01*
X113895131Y-110965802D02*
X113848216Y-110965802D01*
X118472142Y-111873708D02*
X118523190Y-111764772D01*
X116005700Y-110207038D02*
X116049751Y-110215318D01*
X110378743Y-108504519D02*
X110377841Y-108600402D01*
X110376596Y-108722625D01*
X110375556Y-108823246D01*
X110374395Y-108934800D01*
X110373154Y-109053537D01*
X110371873Y-109175704D01*
X110370592Y-109297549D01*
X110369351Y-109415321D01*
X110368190Y-109525267D01*
X110367150Y-109623637D01*
X110365905Y-109741277D01*
X110365004Y-109826308D01*
X113936535Y-111133473D02*
X113979823Y-111115386D01*
X112492624Y-111116274D02*
X112512432Y-111138338D01*
X117320930Y-111384725D02*
X117315359Y-111443106D01*
X113047795Y-110915587D02*
X113026104Y-110915587D01*
X114178151Y-110693676D02*
X114247983Y-110754212D01*
X114265925Y-110766954D01*
X115500000Y-112000000D02*
X115391142Y-112008361D01*
X118369429Y-109826914D02*
X118440144Y-109856731D01*
X116476354Y-112793620D02*
X116391613Y-112805745D01*
X116964122Y-109656616D02*
X116947325Y-109674058D01*
X110522844Y-119120863D02*
X110050661Y-118726312D01*
X113751915Y-111101805D02*
X113790628Y-111140518D01*
X118192281Y-109888339D02*
X118275873Y-109849520D01*
X118317432Y-109836859D01*
X116355416Y-112529206D02*
X116431171Y-112554448D01*
X115795250Y-112670023D02*
X115740472Y-112648054D01*
X113979823Y-111115386D02*
X113972686Y-111081398D01*
X118695152Y-110401264D02*
X118630901Y-110459152D01*
X118929882Y-110344344D02*
X118917732Y-110340384D01*
X114505532Y-110727424D02*
X114437939Y-110666578D01*
X114385622Y-110621758D01*
X116975385Y-112682510D02*
X116975386Y-112682507D01*
X119236194Y-110576631D02*
X119215269Y-110577066D01*
X118429047Y-110612178D02*
X118476295Y-110639106D01*
X113850862Y-111814802D02*
X113815574Y-111848611D01*
X114558471Y-110539219D02*
X114605142Y-110567308D01*
X117623830Y-111404376D02*
X117533717Y-111398109D01*
X117445315Y-111388152D01*
X113852744Y-111179232D02*
X113884698Y-111165394D01*
X113425672Y-111032359D02*
X113375333Y-111009670D01*
X116237853Y-111769268D02*
X116221210Y-111769268D01*
X116200177Y-110224624D02*
X116276056Y-110202124D01*
X113381272Y-111500365D02*
X113412207Y-111508132D01*
X118020623Y-109992721D02*
X118085570Y-109947181D01*
X112554397Y-111216029D02*
X112599390Y-111294492D01*
X113967880Y-110532999D02*
X114035881Y-110574885D01*
X116183251Y-112622970D02*
X116203992Y-112622970D01*
X112101352Y-111029527D02*
X112127672Y-110976913D01*
X113425672Y-111054666D02*
X113425672Y-111032359D01*
X116279347Y-110642024D02*
X116271778Y-110551756D01*
X110017410Y-107694980D02*
X109982740Y-107778740D01*
X109980807Y-107791049D01*
X116168169Y-110323588D02*
X116177673Y-110270236D01*
X110282676Y-107836773D02*
X110212117Y-107780549D01*
X110133523Y-107717632D01*
X110052794Y-107676167D01*
X110017410Y-107694980D01*
X116626686Y-111844602D02*
X116577372Y-111844602D01*
X114857274Y-110893485D02*
X114881971Y-110916489D01*
X117989156Y-111462629D02*
X117895533Y-111445189D01*
X117802229Y-111427581D01*
X117780758Y-111423484D01*
X116696065Y-110170975D02*
X116809053Y-110165215D01*
X116880745Y-112386793D02*
X116921240Y-112390726D01*
X118839263Y-112095694D02*
X118790438Y-112125394D01*
X116809053Y-110165215D02*
X116884378Y-110176276D01*
X113419480Y-111531031D02*
X113426752Y-111553930D01*
X116749894Y-111319509D02*
X116759206Y-111158264D01*
X115274715Y-111611807D02*
X115359834Y-111616163D01*
X116780148Y-112314154D02*
X116804115Y-112644421D01*
X109921381Y-104873082D02*
X109921381Y-105202394D01*
X115395134Y-111645458D02*
X115420648Y-111631800D01*
X119129607Y-111085384D02*
X119208924Y-111117848D01*
X118542463Y-111606087D02*
X118504366Y-111605527D01*
X118772184Y-110391459D02*
X118765074Y-110248592D01*
X119150186Y-111826871D02*
X119084396Y-111890038D01*
X113461682Y-110353809D02*
X113473835Y-110332092D01*
X113362117Y-111718501D02*
X113362114Y-111718500D01*
X112710246Y-110541621D02*
X112732005Y-110493021D01*
X119072943Y-110591205D02*
X118988785Y-110550589D01*
X118971175Y-110537808D01*
X116181345Y-110233841D02*
X116200177Y-110224624D01*
X116310210Y-109880726D02*
X116229466Y-109932260D01*
X116149683Y-109994519D01*
X116069308Y-110062482D01*
X115997851Y-110129977D01*
X115977786Y-110154622D01*
X118610472Y-109916502D02*
X118610472Y-109899744D01*
X115155991Y-111077798D02*
X115109865Y-111077322D01*
X115013834Y-111603275D02*
X115101714Y-111605372D01*
X110868095Y-104415718D02*
X110003709Y-102586254D01*
X117246126Y-109496197D02*
X117311019Y-109534393D01*
X113610194Y-111515852D02*
X113525630Y-111519785D01*
X110063593Y-117549127D02*
X110059278Y-117445716D01*
X110054858Y-117354184D01*
X110049111Y-117251358D01*
X110042189Y-117149063D01*
X110034243Y-117059122D01*
X110018330Y-116967019D01*
X112637658Y-111072515D02*
X112649949Y-111001199D01*
X118564711Y-111568423D02*
X118542463Y-111606087D01*
X115847464Y-111908011D02*
X115796142Y-111920316D01*
X116740042Y-111308913D02*
X116749894Y-111319509D01*
X112702834Y-110784383D02*
X112692888Y-110692834D01*
X112689632Y-110678107D01*
X119345005Y-111596560D02*
X119298268Y-111623290D01*
X113977896Y-111028579D02*
X113425672Y-111032359D01*
X119369394Y-111349087D02*
X119395260Y-111414363D01*
X116896951Y-109911482D02*
X116790517Y-109808082D01*
X119251179Y-111241343D02*
X119227401Y-111265127D01*
X115391749Y-112058024D02*
X115490581Y-112045499D01*
X118713233Y-110120932D02*
X118720163Y-110222542D01*
X117368079Y-109566100D02*
X117403486Y-109573840D01*
X115109865Y-111077322D02*
X115095392Y-111059883D01*
X117445315Y-111388152D02*
X117328319Y-111372762D01*
X118720163Y-110222542D02*
X118727093Y-110324152D01*
X109898478Y-108106619D02*
X109897579Y-108202503D01*
X109896337Y-108324726D01*
X109895300Y-108425347D01*
X109894142Y-108536901D01*
X109892905Y-108655638D01*
X109891627Y-108777805D01*
X109890349Y-108899651D01*
X109889112Y-109017423D01*
X109887954Y-109127369D01*
X109886917Y-109225739D01*
X109885675Y-109343379D01*
X109884777Y-109428410D01*
X116922031Y-112742970D02*
X116852982Y-112784592D01*
X114517667Y-111681043D02*
X114492805Y-111646129D01*
X113318960Y-111116333D02*
X113352587Y-111116380D01*
X113137200Y-110500590D02*
X113150362Y-110476002D01*
X114115390Y-111562121D02*
X114112150Y-111448038D01*
X112582709Y-110313385D02*
X112643254Y-110277808D01*
X116730189Y-111298317D02*
X116740042Y-111308913D01*
X114373521Y-110559568D02*
X114411184Y-110548381D01*
X114989803Y-111080599D02*
X115081792Y-111101593D01*
X115171107Y-111114537D01*
X115176996Y-111115135D01*
X113060593Y-110893617D02*
X113047795Y-110915587D01*
X113026104Y-110915587D02*
X112976511Y-110935135D01*
X116203992Y-112622970D02*
X116249992Y-112571637D01*
X116559116Y-110359894D02*
X116588865Y-110446977D01*
X116631161Y-110530563D01*
X116645735Y-110551346D01*
X119215269Y-110577066D02*
X119164293Y-110594166D01*
X112650348Y-111436589D02*
X112644003Y-111254552D01*
X109930503Y-107242195D02*
X110007398Y-107308942D01*
X110076690Y-107367871D01*
X110156126Y-107433875D01*
X110237612Y-107499235D01*
X110313053Y-107556235D01*
X110397178Y-107609174D01*
X110406188Y-107612652D01*
X116271110Y-111750446D02*
X116279622Y-111659179D01*
X116281514Y-111609832D01*
X116302498Y-110663588D02*
X116279347Y-110642024D01*
X113815574Y-111848611D02*
X113817878Y-111901734D01*
X112572063Y-111489943D02*
X112571965Y-111530744D01*
X116790517Y-109808082D02*
X116684083Y-109704681D01*
X113211436Y-110245516D02*
X113190906Y-110309713D01*
X116344533Y-112901299D02*
X116231544Y-112888358D01*
X114495769Y-110407525D02*
X114534873Y-110320606D01*
X114570142Y-110274298D01*
X112689637Y-110678102D02*
X112684966Y-110736917D01*
X109797871Y-103587894D02*
X109797517Y-103689820D01*
X109797259Y-103780885D01*
X109797012Y-103891726D01*
X109796856Y-103990603D01*
X109796765Y-104095219D01*
X109796753Y-104148719D01*
X113927503Y-110496837D02*
X113938867Y-110523999D01*
X109834473Y-105261821D02*
X109821361Y-105386865D01*
X109818132Y-105487344D01*
X109815875Y-105609343D01*
X109814468Y-105747984D01*
X109813791Y-105898389D01*
X109813724Y-106055681D01*
X109814146Y-106214984D01*
X109814937Y-106371419D01*
X109815975Y-106520109D01*
X109817141Y-106656177D01*
X109818314Y-106774746D01*
X109819373Y-106870937D01*
X109820485Y-106962599D01*
X109820733Y-106981510D01*
X114913738Y-112104040D02*
X114830408Y-112033689D01*
X114761201Y-111961953D01*
X114717958Y-111880830D01*
X114736193Y-111788554D01*
X114756091Y-111760155D01*
X118790438Y-112125394D02*
X118708302Y-112177805D01*
X118620287Y-112214823D01*
X118574927Y-112226062D01*
X112623709Y-111460504D02*
X112650348Y-111436589D01*
X119349207Y-111318282D02*
X119369394Y-111349087D01*
X116921240Y-112390726D02*
X116932616Y-112439153D01*
X110370660Y-116911875D02*
X110380040Y-116574186D01*
X116540087Y-110312815D02*
X116559116Y-110359894D01*
X114153823Y-111843075D02*
X114109882Y-111869617D01*
X113170377Y-110373910D02*
X113144234Y-110380930D01*
X110470196Y-104246482D02*
X110868095Y-105069722D01*
X114588979Y-111469522D02*
X114644463Y-111397608D01*
X109807258Y-115524059D02*
X110360694Y-115993073D01*
X114830701Y-111632407D02*
X114901049Y-111599129D01*
X116666163Y-112572745D02*
X116657766Y-112559170D01*
X115740472Y-112648054D02*
X115678096Y-112616666D01*
X112257659Y-110678147D02*
X112296829Y-110594578D01*
X112303439Y-110586533D01*
X114425349Y-110778267D02*
X114486506Y-110808588D01*
X114041161Y-111696890D02*
X114067271Y-111663694D01*
X110525081Y-114788657D02*
X110538822Y-113960835D01*
X116260982Y-111825771D02*
X116271110Y-111750446D01*
X110278098Y-103779995D02*
X110008251Y-103926327D01*
X113240151Y-111799949D02*
X113268054Y-111819493D01*
X114548471Y-111194965D02*
X114548475Y-111195057D01*
X118679888Y-110073115D02*
X118700615Y-110113192D01*
X115803238Y-109447998D02*
X115893206Y-109406514D01*
X115992398Y-109368724D01*
X116079592Y-109338532D01*
X116172232Y-109309948D01*
X116238332Y-109296030D01*
X112223730Y-111196488D02*
X112156033Y-111135677D01*
X112138165Y-111115602D01*
X110511377Y-108188948D02*
X110469387Y-108106714D01*
X110420060Y-108014419D01*
X110368722Y-107932325D01*
X110302328Y-107853139D01*
X110282676Y-107836773D01*
X113786657Y-111995250D02*
X113755985Y-111995250D01*
X116363365Y-112811766D02*
X116363365Y-112829017D01*
X113284438Y-110480403D02*
X113355721Y-110419696D01*
X113363022Y-110403777D01*
X113426752Y-111553930D02*
X113486942Y-111592554D01*
X116693066Y-110552878D02*
X116660814Y-110479150D01*
X114499060Y-110833698D02*
X114543962Y-110914692D01*
X114552415Y-110929384D01*
X115095392Y-111059883D02*
X115018993Y-111021874D01*
X116477891Y-112853089D02*
X116553930Y-112845142D01*
X116721169Y-112329036D02*
X116780148Y-112314154D01*
X117222535Y-109460215D02*
X117202884Y-109481923D01*
X113212250Y-111780406D02*
X113240151Y-111799949D01*
X113803420Y-111975053D02*
X113786657Y-111995250D01*
X113324996Y-110986992D02*
X113293377Y-111001401D01*
X116438686Y-112526766D02*
X116438686Y-112509133D01*
X112540512Y-112012204D02*
X112519809Y-111991500D01*
X116702940Y-112795468D02*
X116767984Y-112734401D01*
X114881971Y-110963811D02*
X114881971Y-111011133D01*
X116297377Y-111874344D02*
X116279179Y-111850058D01*
X116363648Y-111871320D02*
X116297377Y-111874344D01*
X112835928Y-111776358D02*
X112849500Y-111866703D01*
X112832487Y-111955948D01*
X112803290Y-111982686D01*
X114701142Y-111186546D02*
X114702339Y-111047397D01*
X118427057Y-110557171D02*
X118342730Y-110539243D01*
X115359834Y-111616163D02*
X115377484Y-111630811D01*
X114070618Y-111869665D02*
X114031354Y-111869712D01*
X110050661Y-118726312D02*
X110063593Y-117549127D01*
X109656113Y-117134947D02*
X109730956Y-117197856D01*
X109802022Y-117256793D01*
X109861914Y-117304143D01*
X110520501Y-107461737D02*
X110519935Y-107358987D01*
X110519214Y-107216331D01*
X110518659Y-107096659D01*
X110518089Y-106962475D01*
X110517547Y-106818189D01*
X110517071Y-106668207D01*
X110516703Y-106516939D01*
X110516482Y-106368793D01*
X110516448Y-106228178D01*
X110516642Y-106099502D01*
X110517105Y-105987173D01*
X110517875Y-105895599D01*
X110520501Y-105792353D01*
X116384151Y-109284231D02*
X116473149Y-109307683D01*
X116497849Y-109317999D01*
X119150690Y-111616672D02*
X119163254Y-111682923D01*
X116840451Y-109160391D02*
X116930261Y-109178975D01*
X116958276Y-109184880D01*
X112309869Y-111311032D02*
X112287140Y-111267342D01*
X115566222Y-111575531D02*
X115177039Y-111573363D01*
X113375334Y-111009690D02*
X113324996Y-110986992D01*
X109861914Y-117304143D02*
X109896624Y-117387773D01*
X109898478Y-117400212D01*
X116660814Y-110479150D02*
X116629909Y-110389090D01*
X116584454Y-110309844D01*
X116582000Y-110307244D01*
X116560492Y-110243380D02*
X116571172Y-110188255D01*
X115126823Y-111551356D02*
X115039990Y-111526974D01*
X114985592Y-111517796D01*
X114104385Y-111596309D02*
X114115390Y-111562121D01*
X112364662Y-111552910D02*
X112295055Y-111468374D01*
X113036479Y-111912510D02*
X112992539Y-111889942D01*
X109587487Y-110073292D02*
X109578327Y-109730240D01*
X109437996Y-117516411D02*
X109437991Y-117516411D01*
X118317432Y-109836859D02*
X118369429Y-109826914D01*
X114108883Y-111333956D02*
X114077987Y-111294943D01*
X114992615Y-111584561D02*
X115013834Y-111603275D01*
X116818572Y-112658878D02*
X116804115Y-112644421D01*
X110671455Y-115438120D02*
X110657714Y-115735409D01*
X110535776Y-120032860D02*
X110522844Y-119120863D01*
X116295990Y-112520305D02*
X116355416Y-112529206D01*
X112846264Y-110363106D02*
X112789478Y-110363106D01*
X118930297Y-110424183D02*
X118929882Y-110344344D01*
X114364191Y-110747946D02*
X114425349Y-110778267D01*
X114644463Y-111397608D02*
X114699945Y-111325694D01*
X116689777Y-112863019D02*
X116595619Y-112899826D01*
X110502218Y-113329692D02*
X110461035Y-113251945D01*
X115176996Y-111115135D02*
X115289985Y-111126187D01*
X113305254Y-111819493D02*
X113342453Y-111819493D01*
X118440144Y-109856731D02*
X118520307Y-109899101D01*
X118594316Y-109965211D01*
X118619264Y-109989496D01*
X116221258Y-111566158D02*
X116237853Y-111582747D01*
X113972686Y-111081398D02*
X113965549Y-111047410D01*
X109592068Y-119261656D02*
X109623994Y-118376904D01*
X114548475Y-111195057D02*
X114505487Y-111317598D01*
X110008251Y-103231138D02*
X110278098Y-103779995D01*
X110131750Y-112350933D02*
X110136323Y-110704432D01*
X114901049Y-111599129D02*
X114971396Y-111565848D01*
X118930711Y-110504022D02*
X118930297Y-110424183D01*
X112597103Y-111411475D02*
X112572161Y-111449142D01*
X117958257Y-110036983D02*
X118020623Y-109992721D01*
X116162337Y-110340544D02*
X116168169Y-110323588D01*
X116520944Y-109266852D02*
X116487975Y-109210593D01*
X117073889Y-109265727D02*
X117115616Y-109330950D01*
X113884698Y-111165394D02*
X113936535Y-111133473D01*
X116947325Y-109674058D02*
X116930528Y-109691509D01*
X110278097Y-113004961D02*
X110192049Y-112973452D01*
X110108759Y-112919885D01*
X110020344Y-112862218D01*
X109940189Y-112819264D01*
X109889359Y-112808282D01*
X113049689Y-110463555D02*
X113023643Y-110463555D01*
X114570142Y-110274298D02*
X114631129Y-110206612D01*
X114632218Y-110205313D01*
X114277196Y-111738923D02*
X114212574Y-111802389D01*
X114153823Y-111843075D01*
X113199433Y-110231053D02*
X113211436Y-110245516D01*
X119125445Y-111584575D02*
X119150690Y-111616672D01*
X110392448Y-112744275D02*
X110382534Y-112839262D01*
X110350775Y-112926786D01*
X110289229Y-113000224D01*
X110278097Y-113004961D01*
X114709683Y-110646562D02*
X114767554Y-110697727D01*
X112649949Y-111001199D02*
X112662241Y-110929883D01*
X110384144Y-115233270D02*
X110529538Y-115341142D01*
X116582000Y-110307244D02*
X116561743Y-110286985D01*
X110108899Y-105316707D02*
X110121403Y-105221805D01*
X110125325Y-105107404D01*
X110126904Y-105005191D01*
X110127506Y-104906945D01*
X110127454Y-104808657D01*
X110127182Y-104758732D01*
X113175422Y-110476002D02*
X113200485Y-110476002D01*
X112789478Y-110363106D02*
X112732692Y-110363106D01*
X115283817Y-109694897D02*
X115375084Y-109641547D01*
X115461089Y-109595109D01*
X115542571Y-109553929D01*
X115625019Y-109516886D01*
X115650785Y-109509441D01*
X116438686Y-112509133D02*
X116396128Y-112484024D01*
X118703221Y-111575180D02*
X118695841Y-111555867D01*
X113977896Y-111028579D02*
X113966340Y-110978800D01*
X114109882Y-111869617D02*
X114070618Y-111869665D01*
X114385622Y-110621758D02*
X114364521Y-110606323D01*
X116391613Y-112805745D02*
X116363365Y-112811766D01*
X116535963Y-111781401D02*
X116482941Y-111824849D01*
X115701562Y-111089786D02*
X115688940Y-111077164D01*
X116645735Y-110551346D02*
X116661583Y-110570174D01*
X109633212Y-107329104D02*
X109538786Y-107346536D01*
X109485284Y-107425578D01*
X109473136Y-107489179D01*
X109903059Y-118589330D02*
X109623994Y-118376904D01*
X117053861Y-110200477D02*
X117146174Y-110215411D01*
X117235897Y-110232769D01*
X116487975Y-109210593D02*
X116541808Y-109190280D01*
X116181325Y-110346973D02*
X116182522Y-110400676D01*
X115685450Y-109490613D02*
X115701081Y-109471785D01*
X113369168Y-112003077D02*
X113278491Y-111986231D01*
X113186217Y-111965685D01*
X113094447Y-111939345D01*
X113036479Y-111912510D01*
X118671788Y-110040841D02*
X118679888Y-110073115D01*
X109636711Y-116585400D02*
X109548914Y-116564015D01*
X109500883Y-116617731D01*
X109769749Y-115772502D02*
X109761335Y-115681435D01*
X109744651Y-115585501D01*
X109718508Y-115494890D01*
X109690234Y-115436161D01*
X116925784Y-109919132D02*
X116896951Y-109911482D01*
X112287140Y-111267342D02*
X112264410Y-111223652D01*
X119227401Y-111265127D02*
X119242251Y-111276875D01*
X114077987Y-111294943D02*
X114078002Y-111294953D01*
X112302462Y-111389703D02*
X112309869Y-111311032D01*
X115608858Y-111991639D02*
X115500000Y-112000000D01*
X116931737Y-111756724D02*
X116872635Y-111781833D01*
X118413705Y-112045028D02*
X118421094Y-111982644D01*
X116183719Y-110454379D02*
X116209195Y-110474719D01*
X113547134Y-111631178D02*
X113580124Y-111631178D01*
X117028742Y-112622047D02*
X116975385Y-112682510D01*
X112860719Y-111763490D02*
X112860719Y-111744155D01*
X109613742Y-115985333D02*
X109651712Y-116070121D01*
X109726419Y-116083582D01*
X119036804Y-111349041D02*
X119049980Y-111444372D01*
X109820733Y-106981510D02*
X109841519Y-107072096D01*
X109877738Y-107157734D01*
X109926536Y-107236996D01*
X109930503Y-107242195D01*
X116238332Y-109296030D02*
X116287680Y-109283682D01*
X113941699Y-111804805D02*
X113886151Y-111780995D01*
X113089679Y-110524188D02*
X113124039Y-110525178D01*
X112842197Y-111744155D02*
X112823678Y-111744155D01*
X112584518Y-111530744D02*
X112597072Y-111507582D01*
X113817878Y-111901734D02*
X113820182Y-111954856D01*
X115101714Y-111605372D02*
X115194658Y-111608343D01*
X115274715Y-111611807D01*
X116482941Y-111824849D02*
X116429920Y-111868296D01*
X115378878Y-112020625D02*
X115366614Y-112032889D01*
X109584062Y-108520531D02*
X109584061Y-108520531D01*
X113370064Y-111463090D02*
X113381272Y-111500365D01*
X116872635Y-111781833D02*
X116832854Y-111794429D01*
X116949575Y-109802137D02*
X116962477Y-109895094D01*
X116925784Y-109919132D01*
X116120847Y-111549569D02*
X116204663Y-111549569D01*
X112948610Y-111014623D02*
X112975765Y-111033642D01*
X114486506Y-110808588D02*
X114499060Y-110833698D01*
X109939662Y-107630973D02*
X109888484Y-107547509D01*
X109827600Y-107471462D01*
X109755138Y-107397827D01*
X109680146Y-107344513D01*
X109633212Y-107329104D01*
X116269251Y-111534295D02*
X116256697Y-111524047D01*
X117687850Y-110337376D02*
X117777580Y-110356609D01*
X116242518Y-110575375D02*
X116259794Y-110664813D01*
X116263255Y-110671226D01*
X116209195Y-110474719D02*
X116234670Y-110495059D01*
X112495792Y-111031114D02*
X112494208Y-111073694D01*
X110538822Y-113215342D02*
X110520501Y-112748855D01*
X116431171Y-112554448D02*
X116520804Y-112574828D01*
X116574405Y-112574230D01*
X116282587Y-110772950D02*
X116290513Y-110866390D01*
X116294047Y-110900132D01*
X117235897Y-110232769D02*
X117324256Y-110251403D01*
X117380271Y-110262523D01*
X116717877Y-110833811D02*
X116724033Y-111066064D01*
X109596647Y-118356087D02*
X109596704Y-118246529D01*
X109596845Y-118126879D01*
X109597011Y-118030916D01*
X109597251Y-117925983D01*
X109597577Y-117815496D01*
X109598004Y-117702871D01*
X109598545Y-117591526D01*
X109599213Y-117484878D01*
X109600023Y-117386343D01*
X109601530Y-117261226D01*
X109604159Y-117154690D01*
X109605769Y-117134947D01*
X109587487Y-109167684D02*
X109586550Y-109066655D01*
X109585774Y-108966308D01*
X109585145Y-108868498D01*
X109584596Y-108759124D01*
X109584208Y-108641898D01*
X109584070Y-108551058D01*
X109584061Y-108520531D01*
X117257714Y-111544656D02*
X117182317Y-111603597D01*
X117103451Y-111657831D01*
X117020452Y-111709788D01*
X116974504Y-111731615D01*
X116162511Y-112670707D02*
X116162511Y-112646838D01*
X114110429Y-110632827D02*
X114178151Y-110693676D01*
X116210334Y-110336803D02*
X116195830Y-110341843D01*
X118630901Y-110459152D02*
X118561145Y-110517072D01*
X118521219Y-110545795D01*
X116377836Y-110198884D02*
X116422566Y-110208928D01*
X114756091Y-111760155D02*
X114808021Y-111685273D01*
X114818313Y-111664987D01*
X114593203Y-111000115D02*
X114592333Y-111036249D01*
X118595136Y-111688568D02*
X118661500Y-111623957D01*
X118688839Y-111603431D01*
X110826950Y-115836019D02*
X110831530Y-115008198D01*
X110018330Y-116967019D02*
X109962341Y-116888289D01*
X109899865Y-116812717D01*
X109826552Y-116731964D01*
X109750988Y-116658612D01*
X109669431Y-116598079D01*
X109636711Y-116585400D01*
X117328319Y-111372762D02*
X117320930Y-111384725D01*
X117028742Y-112579812D02*
X117028742Y-112622047D01*
X110374084Y-119922897D02*
X110535776Y-120032860D01*
X113060573Y-110893639D02*
X113060593Y-110893617D01*
X118710601Y-111594494D02*
X118703221Y-111575180D01*
X110360423Y-106107963D02*
X110363788Y-106201832D01*
X110364307Y-106296464D01*
X110364199Y-106411286D01*
X110363579Y-106537594D01*
X110362559Y-106666684D01*
X110361253Y-106789849D01*
X110359774Y-106898386D01*
X110357727Y-107005300D01*
X110355842Y-107050097D01*
X114492805Y-111646129D02*
X114492990Y-111591572D01*
X119192473Y-110224470D02*
X119252935Y-110328535D01*
X110520501Y-105792353D02*
X110487154Y-105701842D01*
X110429019Y-105624013D01*
X110358658Y-105546354D01*
X110290516Y-105478702D01*
X110222159Y-105415830D01*
X110218669Y-105412774D01*
X116177673Y-110270236D02*
X116181345Y-110233841D01*
X113363022Y-110403777D02*
X113374830Y-110375526D01*
X116780148Y-112314154D02*
X116801467Y-112307845D01*
X118520449Y-112234459D02*
X118479112Y-112208911D01*
X109994542Y-112250313D02*
X110131750Y-112350933D01*
X112860719Y-111744155D02*
X112842197Y-111744155D01*
X110064289Y-108918430D02*
X110064288Y-108918430D01*
X116438686Y-112544399D02*
X116438686Y-112526766D01*
X118610472Y-109933269D02*
X118610472Y-109916502D01*
X116652420Y-109708371D02*
X116561872Y-109742922D01*
X116466663Y-109787661D01*
X116381747Y-109831602D01*
X116338275Y-109860953D01*
X113755985Y-111995250D02*
X113703619Y-112006867D01*
X119164293Y-110594166D02*
X119134242Y-110610816D01*
X112688486Y-110590221D02*
X112710246Y-110541621D01*
X113694750Y-111511912D02*
X113610194Y-111515852D01*
X118523190Y-111764772D02*
X118595136Y-111688568D01*
X113064738Y-110388225D02*
X113057214Y-110425890D01*
X119185489Y-111579922D02*
X119142168Y-111490037D01*
X119103809Y-111402076D01*
X119087645Y-111350868D01*
X109952363Y-106074940D02*
X109953523Y-105981152D01*
X109956927Y-105886931D01*
X109966488Y-105793390D01*
X109980807Y-105764911D01*
X116396128Y-112484024D02*
X116353570Y-112458915D01*
X114971396Y-111565848D02*
X114992615Y-111584561D01*
X112867517Y-110187313D02*
X112964391Y-110181594D01*
X113058381Y-110191037D01*
X113154425Y-110210414D01*
X113199433Y-110231053D01*
X110008252Y-102206641D02*
X109802451Y-102032862D01*
X114918278Y-110902966D02*
X114896428Y-110812584D01*
X114861267Y-110731855D01*
X112769923Y-110477316D02*
X112807839Y-110461611D01*
X110374165Y-112515573D02*
X110383112Y-112605668D01*
X110390349Y-112702932D01*
X110392448Y-112744275D01*
X116595381Y-112811290D02*
X116663397Y-112803379D01*
X114604342Y-110817660D02*
X114505532Y-110727424D01*
X116330388Y-110778389D02*
X116325627Y-110685140D01*
X113457707Y-111487654D02*
X113389785Y-111455521D01*
X118496064Y-109821030D02*
X118500114Y-109800150D01*
X117032163Y-109200504D02*
X117073889Y-109265727D01*
X116695751Y-110791241D02*
X116717877Y-110833811D01*
X116353570Y-112458915D02*
X116347657Y-112427954D01*
X115732587Y-109471785D02*
X115803238Y-109447998D01*
X109921381Y-105202394D02*
X109845072Y-105252883D01*
X109834473Y-105261821D01*
X116729384Y-110665873D02*
X116717259Y-110585809D01*
X119263015Y-110507419D02*
X119249578Y-110541943D01*
X116080948Y-112660869D02*
X116018178Y-112691206D01*
X116796510Y-109151481D02*
X116840451Y-109160391D01*
X113449529Y-110375526D02*
X113461682Y-110353809D01*
X114078002Y-111294953D02*
X114036040Y-111255248D01*
X112646437Y-110449362D02*
X112654168Y-110484705D01*
X112732005Y-110493021D02*
X112769923Y-110477316D01*
X118757964Y-110105727D02*
X118735896Y-110080617D01*
X116267105Y-110970764D02*
X116235151Y-111000401D01*
X115701081Y-109471785D02*
X115732587Y-109471785D01*
X115923490Y-112691600D02*
X115828802Y-112691993D01*
X119249578Y-110541943D02*
X119249631Y-110542107D01*
X114505487Y-111317598D02*
X114497339Y-111405341D01*
X114024976Y-111254544D02*
X114034059Y-111351839D01*
X115639276Y-111979458D02*
X115727030Y-111987603D01*
X113966328Y-110978798D02*
X113895131Y-110965802D01*
X116684083Y-109704681D02*
X116652420Y-109708371D01*
X113023643Y-110463555D02*
X112939098Y-110432564D01*
X112881753Y-110392734D01*
X114942433Y-110974102D02*
X114918278Y-110902966D01*
X112948610Y-110954683D02*
X112948610Y-110984662D01*
X113591438Y-110328132D02*
X113627310Y-110301609D01*
X116225713Y-110384530D02*
X116210334Y-110336803D01*
X113342453Y-111819493D02*
X113371510Y-111792195D01*
X110387866Y-110750160D02*
X110538820Y-110878213D01*
X112534225Y-110974162D02*
X112495792Y-111031114D01*
X116618298Y-112553397D02*
X116524587Y-112553981D01*
X116512957Y-112552796D01*
X118735896Y-110080617D02*
X118705260Y-110027265D01*
X113405943Y-111096699D02*
X113425672Y-111054666D01*
X118342730Y-110539243D02*
X118307158Y-110538684D01*
X116566908Y-112811290D02*
X116595381Y-112811290D01*
X110081456Y-108243833D02*
X110168787Y-108281493D01*
X110240585Y-108344362D01*
X110282676Y-108381046D01*
X109889359Y-112808282D02*
X109827016Y-112879196D01*
X109808279Y-112972526D01*
X109802620Y-113066928D01*
X109802450Y-113091870D01*
X114550305Y-111489329D02*
X114588979Y-111469522D01*
X117429008Y-109647028D02*
X117415239Y-109655488D01*
X109980807Y-107791049D02*
X109956700Y-107697701D01*
X109939662Y-107630973D01*
X119134242Y-110610816D02*
X119072943Y-110591205D01*
X114592333Y-111036249D02*
X114570846Y-111126295D01*
X114548471Y-111194965D01*
X112975765Y-111033642D02*
X113054552Y-110987414D01*
X113072403Y-110909335D01*
X110538822Y-113960835D02*
X110535675Y-113870580D01*
X110532063Y-113776814D01*
X110527379Y-113667560D01*
X110521838Y-113555518D01*
X110515654Y-113453391D01*
X110507348Y-113359027D01*
X110502218Y-113329692D01*
X114985592Y-111517796D02*
X114894580Y-111506240D01*
X114768822Y-111665901D02*
X114701150Y-111712507D01*
X116943992Y-112487579D02*
X116986367Y-112512581D01*
X109957342Y-116194750D02*
X109943271Y-116518369D01*
X117837127Y-110352703D02*
X117844615Y-110340607D01*
X114812011Y-110656786D02*
X114748569Y-110583883D01*
X114673861Y-110524807D01*
X114593231Y-110470597D01*
X118586959Y-111530760D02*
X118564711Y-111568423D01*
X115980512Y-111581264D02*
X115887935Y-111578698D01*
X115787728Y-111577353D01*
X115682755Y-111576338D01*
X115586203Y-111575648D01*
X115566222Y-111575531D01*
X113703619Y-112006867D02*
X113612637Y-112019336D01*
X113582039Y-112020442D01*
X117317186Y-111489516D02*
X117257714Y-111544656D01*
D11*
X116954819Y-101738094D02*
X115954819Y-101738094D01*
X115954819Y-101738094D02*
X115954819Y-101499999D01*
X115954819Y-101499999D02*
X116002438Y-101357142D01*
X116002438Y-101357142D02*
X116097676Y-101261904D01*
X116097676Y-101261904D02*
X116192914Y-101214285D01*
X116192914Y-101214285D02*
X116383390Y-101166666D01*
X116383390Y-101166666D02*
X116526247Y-101166666D01*
X116526247Y-101166666D02*
X116716723Y-101214285D01*
X116716723Y-101214285D02*
X116811961Y-101261904D01*
X116811961Y-101261904D02*
X116907200Y-101357142D01*
X116907200Y-101357142D02*
X116954819Y-101499999D01*
X116954819Y-101499999D02*
X116954819Y-101738094D01*
X116050057Y-100785713D02*
X116002438Y-100738094D01*
X116002438Y-100738094D02*
X115954819Y-100642856D01*
X115954819Y-100642856D02*
X115954819Y-100404761D01*
X115954819Y-100404761D02*
X116002438Y-100309523D01*
X116002438Y-100309523D02*
X116050057Y-100261904D01*
X116050057Y-100261904D02*
X116145295Y-100214285D01*
X116145295Y-100214285D02*
X116240533Y-100214285D01*
X116240533Y-100214285D02*
X116383390Y-100261904D01*
X116383390Y-100261904D02*
X116954819Y-100833332D01*
X116954819Y-100833332D02*
X116954819Y-100214285D01*
X114720819Y-99261904D02*
X113720819Y-99261904D01*
X114720819Y-98690476D02*
X114149390Y-99119047D01*
X113720819Y-98690476D02*
X114292247Y-99261904D01*
X150049054Y-75881148D02*
X150191911Y-75928767D01*
X150191911Y-75928767D02*
X150430006Y-75928767D01*
X150430006Y-75928767D02*
X150525244Y-75881148D01*
X150525244Y-75881148D02*
X150572863Y-75833528D01*
X150572863Y-75833528D02*
X150620482Y-75738290D01*
X150620482Y-75738290D02*
X150620482Y-75643052D01*
X150620482Y-75643052D02*
X150572863Y-75547814D01*
X150572863Y-75547814D02*
X150525244Y-75500195D01*
X150525244Y-75500195D02*
X150430006Y-75452576D01*
X150430006Y-75452576D02*
X150239530Y-75404957D01*
X150239530Y-75404957D02*
X150144292Y-75357338D01*
X150144292Y-75357338D02*
X150096673Y-75309719D01*
X150096673Y-75309719D02*
X150049054Y-75214481D01*
X150049054Y-75214481D02*
X150049054Y-75119243D01*
X150049054Y-75119243D02*
X150096673Y-75024005D01*
X150096673Y-75024005D02*
X150144292Y-74976386D01*
X150144292Y-74976386D02*
X150239530Y-74928767D01*
X150239530Y-74928767D02*
X150477625Y-74928767D01*
X150477625Y-74928767D02*
X150620482Y-74976386D01*
X150953816Y-74928767D02*
X151191911Y-75928767D01*
X151191911Y-75928767D02*
X151382387Y-75214481D01*
X151382387Y-75214481D02*
X151572863Y-75928767D01*
X151572863Y-75928767D02*
X151810959Y-74928767D01*
X152715720Y-75928767D02*
X152144292Y-75928767D01*
X152430006Y-75928767D02*
X152430006Y-74928767D01*
X152430006Y-74928767D02*
X152334768Y-75071624D01*
X152334768Y-75071624D02*
X152239530Y-75166862D01*
X152239530Y-75166862D02*
X152144292Y-75214481D01*
X125454819Y-94238094D02*
X124454819Y-94238094D01*
X124454819Y-94238094D02*
X124454819Y-93999999D01*
X124454819Y-93999999D02*
X124502438Y-93857142D01*
X124502438Y-93857142D02*
X124597676Y-93761904D01*
X124597676Y-93761904D02*
X124692914Y-93714285D01*
X124692914Y-93714285D02*
X124883390Y-93666666D01*
X124883390Y-93666666D02*
X125026247Y-93666666D01*
X125026247Y-93666666D02*
X125216723Y-93714285D01*
X125216723Y-93714285D02*
X125311961Y-93761904D01*
X125311961Y-93761904D02*
X125407200Y-93857142D01*
X125407200Y-93857142D02*
X125454819Y-93999999D01*
X125454819Y-93999999D02*
X125454819Y-94238094D01*
X124454819Y-93333332D02*
X124454819Y-92714285D01*
X124454819Y-92714285D02*
X124835771Y-93047618D01*
X124835771Y-93047618D02*
X124835771Y-92904761D01*
X124835771Y-92904761D02*
X124883390Y-92809523D01*
X124883390Y-92809523D02*
X124931009Y-92761904D01*
X124931009Y-92761904D02*
X125026247Y-92714285D01*
X125026247Y-92714285D02*
X125264342Y-92714285D01*
X125264342Y-92714285D02*
X125359580Y-92761904D01*
X125359580Y-92761904D02*
X125407200Y-92809523D01*
X125407200Y-92809523D02*
X125454819Y-92904761D01*
X125454819Y-92904761D02*
X125454819Y-93190475D01*
X125454819Y-93190475D02*
X125407200Y-93285713D01*
X125407200Y-93285713D02*
X125359580Y-93333332D01*
X119954819Y-99261904D02*
X118954819Y-99261904D01*
X119954819Y-98690476D02*
X119383390Y-99119047D01*
X118954819Y-98690476D02*
X119526247Y-99261904D01*
X145904761Y-106454819D02*
X145571428Y-105978628D01*
X145333333Y-106454819D02*
X145333333Y-105454819D01*
X145333333Y-105454819D02*
X145714285Y-105454819D01*
X145714285Y-105454819D02*
X145809523Y-105502438D01*
X145809523Y-105502438D02*
X145857142Y-105550057D01*
X145857142Y-105550057D02*
X145904761Y-105645295D01*
X145904761Y-105645295D02*
X145904761Y-105788152D01*
X145904761Y-105788152D02*
X145857142Y-105883390D01*
X145857142Y-105883390D02*
X145809523Y-105931009D01*
X145809523Y-105931009D02*
X145714285Y-105978628D01*
X145714285Y-105978628D02*
X145333333Y-105978628D01*
X146190476Y-105454819D02*
X146523809Y-106454819D01*
X146523809Y-106454819D02*
X146857142Y-105454819D01*
X147714285Y-106454819D02*
X147142857Y-106454819D01*
X147428571Y-106454819D02*
X147428571Y-105454819D01*
X147428571Y-105454819D02*
X147333333Y-105597676D01*
X147333333Y-105597676D02*
X147238095Y-105692914D01*
X147238095Y-105692914D02*
X147142857Y-105740533D01*
X120534819Y-80212666D02*
X120058628Y-80545999D01*
X120534819Y-80784094D02*
X119534819Y-80784094D01*
X119534819Y-80784094D02*
X119534819Y-80403142D01*
X119534819Y-80403142D02*
X119582438Y-80307904D01*
X119582438Y-80307904D02*
X119630057Y-80260285D01*
X119630057Y-80260285D02*
X119725295Y-80212666D01*
X119725295Y-80212666D02*
X119868152Y-80212666D01*
X119868152Y-80212666D02*
X119963390Y-80260285D01*
X119963390Y-80260285D02*
X120011009Y-80307904D01*
X120011009Y-80307904D02*
X120058628Y-80403142D01*
X120058628Y-80403142D02*
X120058628Y-80784094D01*
X119534819Y-79879332D02*
X119534819Y-79260285D01*
X119534819Y-79260285D02*
X119915771Y-79593618D01*
X119915771Y-79593618D02*
X119915771Y-79450761D01*
X119915771Y-79450761D02*
X119963390Y-79355523D01*
X119963390Y-79355523D02*
X120011009Y-79307904D01*
X120011009Y-79307904D02*
X120106247Y-79260285D01*
X120106247Y-79260285D02*
X120344342Y-79260285D01*
X120344342Y-79260285D02*
X120439580Y-79307904D01*
X120439580Y-79307904D02*
X120487200Y-79355523D01*
X120487200Y-79355523D02*
X120534819Y-79450761D01*
X120534819Y-79450761D02*
X120534819Y-79736475D01*
X120534819Y-79736475D02*
X120487200Y-79831713D01*
X120487200Y-79831713D02*
X120439580Y-79879332D01*
X129865761Y-73755104D02*
X130341951Y-73755104D01*
X129770523Y-74040819D02*
X130103856Y-73040819D01*
X130103856Y-73040819D02*
X130437189Y-74040819D01*
X130770523Y-74040819D02*
X130770523Y-73374152D01*
X130770523Y-73564628D02*
X130818142Y-73469390D01*
X130818142Y-73469390D02*
X130865761Y-73421771D01*
X130865761Y-73421771D02*
X130960999Y-73374152D01*
X130960999Y-73374152D02*
X131056237Y-73374152D01*
X131818142Y-74040819D02*
X131818142Y-73040819D01*
X131818142Y-73993200D02*
X131722904Y-74040819D01*
X131722904Y-74040819D02*
X131532428Y-74040819D01*
X131532428Y-74040819D02*
X131437190Y-73993200D01*
X131437190Y-73993200D02*
X131389571Y-73945580D01*
X131389571Y-73945580D02*
X131341952Y-73850342D01*
X131341952Y-73850342D02*
X131341952Y-73564628D01*
X131341952Y-73564628D02*
X131389571Y-73469390D01*
X131389571Y-73469390D02*
X131437190Y-73421771D01*
X131437190Y-73421771D02*
X131532428Y-73374152D01*
X131532428Y-73374152D02*
X131722904Y-73374152D01*
X131722904Y-73374152D02*
X131818142Y-73421771D01*
X132722904Y-73374152D02*
X132722904Y-74040819D01*
X132294333Y-73374152D02*
X132294333Y-73897961D01*
X132294333Y-73897961D02*
X132341952Y-73993200D01*
X132341952Y-73993200D02*
X132437190Y-74040819D01*
X132437190Y-74040819D02*
X132580047Y-74040819D01*
X132580047Y-74040819D02*
X132675285Y-73993200D01*
X132675285Y-73993200D02*
X132722904Y-73945580D01*
X133199095Y-74040819D02*
X133199095Y-73374152D01*
X133199095Y-73040819D02*
X133151476Y-73088438D01*
X133151476Y-73088438D02*
X133199095Y-73136057D01*
X133199095Y-73136057D02*
X133246714Y-73088438D01*
X133246714Y-73088438D02*
X133199095Y-73040819D01*
X133199095Y-73040819D02*
X133199095Y-73136057D01*
X133675285Y-73374152D02*
X133675285Y-74040819D01*
X133675285Y-73469390D02*
X133722904Y-73421771D01*
X133722904Y-73421771D02*
X133818142Y-73374152D01*
X133818142Y-73374152D02*
X133960999Y-73374152D01*
X133960999Y-73374152D02*
X134056237Y-73421771D01*
X134056237Y-73421771D02*
X134103856Y-73517009D01*
X134103856Y-73517009D02*
X134103856Y-74040819D01*
X134722904Y-74040819D02*
X134627666Y-73993200D01*
X134627666Y-73993200D02*
X134580047Y-73945580D01*
X134580047Y-73945580D02*
X134532428Y-73850342D01*
X134532428Y-73850342D02*
X134532428Y-73564628D01*
X134532428Y-73564628D02*
X134580047Y-73469390D01*
X134580047Y-73469390D02*
X134627666Y-73421771D01*
X134627666Y-73421771D02*
X134722904Y-73374152D01*
X134722904Y-73374152D02*
X134865761Y-73374152D01*
X134865761Y-73374152D02*
X134960999Y-73421771D01*
X134960999Y-73421771D02*
X135008618Y-73469390D01*
X135008618Y-73469390D02*
X135056237Y-73564628D01*
X135056237Y-73564628D02*
X135056237Y-73850342D01*
X135056237Y-73850342D02*
X135008618Y-73945580D01*
X135008618Y-73945580D02*
X134960999Y-73993200D01*
X134960999Y-73993200D02*
X134865761Y-74040819D01*
X134865761Y-74040819D02*
X134722904Y-74040819D01*
X136246714Y-74040819D02*
X136246714Y-73040819D01*
X136246714Y-73040819D02*
X136818142Y-74040819D01*
X136818142Y-74040819D02*
X136818142Y-73040819D01*
X137722904Y-74040819D02*
X137722904Y-73517009D01*
X137722904Y-73517009D02*
X137675285Y-73421771D01*
X137675285Y-73421771D02*
X137580047Y-73374152D01*
X137580047Y-73374152D02*
X137389571Y-73374152D01*
X137389571Y-73374152D02*
X137294333Y-73421771D01*
X137722904Y-73993200D02*
X137627666Y-74040819D01*
X137627666Y-74040819D02*
X137389571Y-74040819D01*
X137389571Y-74040819D02*
X137294333Y-73993200D01*
X137294333Y-73993200D02*
X137246714Y-73897961D01*
X137246714Y-73897961D02*
X137246714Y-73802723D01*
X137246714Y-73802723D02*
X137294333Y-73707485D01*
X137294333Y-73707485D02*
X137389571Y-73659866D01*
X137389571Y-73659866D02*
X137627666Y-73659866D01*
X137627666Y-73659866D02*
X137722904Y-73612247D01*
X138199095Y-73374152D02*
X138199095Y-74040819D01*
X138199095Y-73469390D02*
X138246714Y-73421771D01*
X138246714Y-73421771D02*
X138341952Y-73374152D01*
X138341952Y-73374152D02*
X138484809Y-73374152D01*
X138484809Y-73374152D02*
X138580047Y-73421771D01*
X138580047Y-73421771D02*
X138627666Y-73517009D01*
X138627666Y-73517009D02*
X138627666Y-74040819D01*
X139246714Y-74040819D02*
X139151476Y-73993200D01*
X139151476Y-73993200D02*
X139103857Y-73945580D01*
X139103857Y-73945580D02*
X139056238Y-73850342D01*
X139056238Y-73850342D02*
X139056238Y-73564628D01*
X139056238Y-73564628D02*
X139103857Y-73469390D01*
X139103857Y-73469390D02*
X139151476Y-73421771D01*
X139151476Y-73421771D02*
X139246714Y-73374152D01*
X139246714Y-73374152D02*
X139389571Y-73374152D01*
X139389571Y-73374152D02*
X139484809Y-73421771D01*
X139484809Y-73421771D02*
X139532428Y-73469390D01*
X139532428Y-73469390D02*
X139580047Y-73564628D01*
X139580047Y-73564628D02*
X139580047Y-73850342D01*
X139580047Y-73850342D02*
X139532428Y-73945580D01*
X139532428Y-73945580D02*
X139484809Y-73993200D01*
X139484809Y-73993200D02*
X139389571Y-74040819D01*
X139389571Y-74040819D02*
X139246714Y-74040819D01*
X140675286Y-73374152D02*
X140913381Y-74040819D01*
X140913381Y-74040819D02*
X141151476Y-73374152D01*
X141437191Y-73040819D02*
X142056238Y-73040819D01*
X142056238Y-73040819D02*
X141722905Y-73421771D01*
X141722905Y-73421771D02*
X141865762Y-73421771D01*
X141865762Y-73421771D02*
X141961000Y-73469390D01*
X141961000Y-73469390D02*
X142008619Y-73517009D01*
X142008619Y-73517009D02*
X142056238Y-73612247D01*
X142056238Y-73612247D02*
X142056238Y-73850342D01*
X142056238Y-73850342D02*
X142008619Y-73945580D01*
X142008619Y-73945580D02*
X141961000Y-73993200D01*
X141961000Y-73993200D02*
X141865762Y-74040819D01*
X141865762Y-74040819D02*
X141580048Y-74040819D01*
X141580048Y-74040819D02*
X141484810Y-73993200D01*
X141484810Y-73993200D02*
X141437191Y-73945580D01*
X134699095Y-113680819D02*
X134699095Y-114490342D01*
X134699095Y-114490342D02*
X134746714Y-114585580D01*
X134746714Y-114585580D02*
X134794333Y-114633200D01*
X134794333Y-114633200D02*
X134889571Y-114680819D01*
X134889571Y-114680819D02*
X135080047Y-114680819D01*
X135080047Y-114680819D02*
X135175285Y-114633200D01*
X135175285Y-114633200D02*
X135222904Y-114585580D01*
X135222904Y-114585580D02*
X135270523Y-114490342D01*
X135270523Y-114490342D02*
X135270523Y-113680819D01*
X135699095Y-114633200D02*
X135841952Y-114680819D01*
X135841952Y-114680819D02*
X136080047Y-114680819D01*
X136080047Y-114680819D02*
X136175285Y-114633200D01*
X136175285Y-114633200D02*
X136222904Y-114585580D01*
X136222904Y-114585580D02*
X136270523Y-114490342D01*
X136270523Y-114490342D02*
X136270523Y-114395104D01*
X136270523Y-114395104D02*
X136222904Y-114299866D01*
X136222904Y-114299866D02*
X136175285Y-114252247D01*
X136175285Y-114252247D02*
X136080047Y-114204628D01*
X136080047Y-114204628D02*
X135889571Y-114157009D01*
X135889571Y-114157009D02*
X135794333Y-114109390D01*
X135794333Y-114109390D02*
X135746714Y-114061771D01*
X135746714Y-114061771D02*
X135699095Y-113966533D01*
X135699095Y-113966533D02*
X135699095Y-113871295D01*
X135699095Y-113871295D02*
X135746714Y-113776057D01*
X135746714Y-113776057D02*
X135794333Y-113728438D01*
X135794333Y-113728438D02*
X135889571Y-113680819D01*
X135889571Y-113680819D02*
X136127666Y-113680819D01*
X136127666Y-113680819D02*
X136270523Y-113728438D01*
X137032428Y-114157009D02*
X137175285Y-114204628D01*
X137175285Y-114204628D02*
X137222904Y-114252247D01*
X137222904Y-114252247D02*
X137270523Y-114347485D01*
X137270523Y-114347485D02*
X137270523Y-114490342D01*
X137270523Y-114490342D02*
X137222904Y-114585580D01*
X137222904Y-114585580D02*
X137175285Y-114633200D01*
X137175285Y-114633200D02*
X137080047Y-114680819D01*
X137080047Y-114680819D02*
X136699095Y-114680819D01*
X136699095Y-114680819D02*
X136699095Y-113680819D01*
X136699095Y-113680819D02*
X137032428Y-113680819D01*
X137032428Y-113680819D02*
X137127666Y-113728438D01*
X137127666Y-113728438D02*
X137175285Y-113776057D01*
X137175285Y-113776057D02*
X137222904Y-113871295D01*
X137222904Y-113871295D02*
X137222904Y-113966533D01*
X137222904Y-113966533D02*
X137175285Y-114061771D01*
X137175285Y-114061771D02*
X137127666Y-114109390D01*
X137127666Y-114109390D02*
X137032428Y-114157009D01*
X137032428Y-114157009D02*
X136699095Y-114157009D01*
X115200819Y-80212666D02*
X114724628Y-80545999D01*
X115200819Y-80784094D02*
X114200819Y-80784094D01*
X114200819Y-80784094D02*
X114200819Y-80403142D01*
X114200819Y-80403142D02*
X114248438Y-80307904D01*
X114248438Y-80307904D02*
X114296057Y-80260285D01*
X114296057Y-80260285D02*
X114391295Y-80212666D01*
X114391295Y-80212666D02*
X114534152Y-80212666D01*
X114534152Y-80212666D02*
X114629390Y-80260285D01*
X114629390Y-80260285D02*
X114677009Y-80307904D01*
X114677009Y-80307904D02*
X114724628Y-80403142D01*
X114724628Y-80403142D02*
X114724628Y-80784094D01*
X114296057Y-79831713D02*
X114248438Y-79784094D01*
X114248438Y-79784094D02*
X114200819Y-79688856D01*
X114200819Y-79688856D02*
X114200819Y-79450761D01*
X114200819Y-79450761D02*
X114248438Y-79355523D01*
X114248438Y-79355523D02*
X114296057Y-79307904D01*
X114296057Y-79307904D02*
X114391295Y-79260285D01*
X114391295Y-79260285D02*
X114486533Y-79260285D01*
X114486533Y-79260285D02*
X114629390Y-79307904D01*
X114629390Y-79307904D02*
X115200819Y-79879332D01*
X115200819Y-79879332D02*
X115200819Y-79260285D01*
X125166666Y-119954819D02*
X125166666Y-120669104D01*
X125166666Y-120669104D02*
X125119047Y-120811961D01*
X125119047Y-120811961D02*
X125023809Y-120907200D01*
X125023809Y-120907200D02*
X124880952Y-120954819D01*
X124880952Y-120954819D02*
X124785714Y-120954819D01*
X125595238Y-120050057D02*
X125642857Y-120002438D01*
X125642857Y-120002438D02*
X125738095Y-119954819D01*
X125738095Y-119954819D02*
X125976190Y-119954819D01*
X125976190Y-119954819D02*
X126071428Y-120002438D01*
X126071428Y-120002438D02*
X126119047Y-120050057D01*
X126119047Y-120050057D02*
X126166666Y-120145295D01*
X126166666Y-120145295D02*
X126166666Y-120240533D01*
X126166666Y-120240533D02*
X126119047Y-120383390D01*
X126119047Y-120383390D02*
X125547619Y-120954819D01*
X125547619Y-120954819D02*
X126166666Y-120954819D01*
X150666666Y-92454819D02*
X150666666Y-93169104D01*
X150666666Y-93169104D02*
X150619047Y-93311961D01*
X150619047Y-93311961D02*
X150523809Y-93407200D01*
X150523809Y-93407200D02*
X150380952Y-93454819D01*
X150380952Y-93454819D02*
X150285714Y-93454819D01*
X151666666Y-93454819D02*
X151095238Y-93454819D01*
X151380952Y-93454819D02*
X151380952Y-92454819D01*
X151380952Y-92454819D02*
X151285714Y-92597676D01*
X151285714Y-92597676D02*
X151190476Y-92692914D01*
X151190476Y-92692914D02*
X151095238Y-92740533D01*
X108562819Y-94238094D02*
X107562819Y-94238094D01*
X107562819Y-94238094D02*
X107562819Y-93999999D01*
X107562819Y-93999999D02*
X107610438Y-93857142D01*
X107610438Y-93857142D02*
X107705676Y-93761904D01*
X107705676Y-93761904D02*
X107800914Y-93714285D01*
X107800914Y-93714285D02*
X107991390Y-93666666D01*
X107991390Y-93666666D02*
X108134247Y-93666666D01*
X108134247Y-93666666D02*
X108324723Y-93714285D01*
X108324723Y-93714285D02*
X108419961Y-93761904D01*
X108419961Y-93761904D02*
X108515200Y-93857142D01*
X108515200Y-93857142D02*
X108562819Y-93999999D01*
X108562819Y-93999999D02*
X108562819Y-94238094D01*
X108562819Y-92714285D02*
X108562819Y-93285713D01*
X108562819Y-92999999D02*
X107562819Y-92999999D01*
X107562819Y-92999999D02*
X107705676Y-93095237D01*
X107705676Y-93095237D02*
X107800914Y-93190475D01*
X107800914Y-93190475D02*
X107848533Y-93285713D01*
X109132819Y-98341904D02*
X108132819Y-98341904D01*
X109132819Y-97770476D02*
X108561390Y-98199047D01*
X108132819Y-97770476D02*
X108704247Y-98341904D01*
X150049054Y-87945464D02*
X150191911Y-87993083D01*
X150191911Y-87993083D02*
X150430006Y-87993083D01*
X150430006Y-87993083D02*
X150525244Y-87945464D01*
X150525244Y-87945464D02*
X150572863Y-87897844D01*
X150572863Y-87897844D02*
X150620482Y-87802606D01*
X150620482Y-87802606D02*
X150620482Y-87707368D01*
X150620482Y-87707368D02*
X150572863Y-87612130D01*
X150572863Y-87612130D02*
X150525244Y-87564511D01*
X150525244Y-87564511D02*
X150430006Y-87516892D01*
X150430006Y-87516892D02*
X150239530Y-87469273D01*
X150239530Y-87469273D02*
X150144292Y-87421654D01*
X150144292Y-87421654D02*
X150096673Y-87374035D01*
X150096673Y-87374035D02*
X150049054Y-87278797D01*
X150049054Y-87278797D02*
X150049054Y-87183559D01*
X150049054Y-87183559D02*
X150096673Y-87088321D01*
X150096673Y-87088321D02*
X150144292Y-87040702D01*
X150144292Y-87040702D02*
X150239530Y-86993083D01*
X150239530Y-86993083D02*
X150477625Y-86993083D01*
X150477625Y-86993083D02*
X150620482Y-87040702D01*
X150953816Y-86993083D02*
X151191911Y-87993083D01*
X151191911Y-87993083D02*
X151382387Y-87278797D01*
X151382387Y-87278797D02*
X151572863Y-87993083D01*
X151572863Y-87993083D02*
X151810959Y-86993083D01*
X152144292Y-87088321D02*
X152191911Y-87040702D01*
X152191911Y-87040702D02*
X152287149Y-86993083D01*
X152287149Y-86993083D02*
X152525244Y-86993083D01*
X152525244Y-86993083D02*
X152620482Y-87040702D01*
X152620482Y-87040702D02*
X152668101Y-87088321D01*
X152668101Y-87088321D02*
X152715720Y-87183559D01*
X152715720Y-87183559D02*
X152715720Y-87278797D01*
X152715720Y-87278797D02*
X152668101Y-87421654D01*
X152668101Y-87421654D02*
X152096673Y-87993083D01*
X152096673Y-87993083D02*
X152715720Y-87993083D01*
X113454819Y-80166666D02*
X112978628Y-80499999D01*
X113454819Y-80738094D02*
X112454819Y-80738094D01*
X112454819Y-80738094D02*
X112454819Y-80357142D01*
X112454819Y-80357142D02*
X112502438Y-80261904D01*
X112502438Y-80261904D02*
X112550057Y-80214285D01*
X112550057Y-80214285D02*
X112645295Y-80166666D01*
X112645295Y-80166666D02*
X112788152Y-80166666D01*
X112788152Y-80166666D02*
X112883390Y-80214285D01*
X112883390Y-80214285D02*
X112931009Y-80261904D01*
X112931009Y-80261904D02*
X112978628Y-80357142D01*
X112978628Y-80357142D02*
X112978628Y-80738094D01*
X113454819Y-79214285D02*
X113454819Y-79785713D01*
X113454819Y-79499999D02*
X112454819Y-79499999D01*
X112454819Y-79499999D02*
X112597676Y-79595237D01*
X112597676Y-79595237D02*
X112692914Y-79690475D01*
X112692914Y-79690475D02*
X112740533Y-79785713D01*
D12*
X114696000Y-88430000D02*
X115026000Y-88430000D01*
X114696000Y-95995000D02*
X118636000Y-95995000D01*
X114696000Y-96115000D02*
X118636000Y-96115000D01*
X114696000Y-96235000D02*
X118636000Y-96235000D01*
X114696000Y-97570000D02*
X114696000Y-88430000D01*
X115026000Y-97570000D02*
X114696000Y-97570000D01*
X118306000Y-97570000D02*
X118636000Y-97570000D01*
X118636000Y-88430000D02*
X118306000Y-88430000D01*
X118636000Y-97570000D02*
X118636000Y-88430000D01*
X146670000Y-77005000D02*
X146670000Y-74405000D01*
X149330000Y-74405000D02*
X146670000Y-74405000D01*
X149330000Y-77005000D02*
X146670000Y-77005000D01*
X149330000Y-77005000D02*
X149330000Y-74405000D01*
X149330000Y-78275000D02*
X149330000Y-79605000D01*
X149330000Y-79605000D02*
X148000000Y-79605000D01*
X120030000Y-88430000D02*
X120360000Y-88430000D01*
X120030000Y-95995000D02*
X123970000Y-95995000D01*
X120030000Y-96115000D02*
X123970000Y-96115000D01*
X120030000Y-96235000D02*
X123970000Y-96235000D01*
X120030000Y-97570000D02*
X120030000Y-88430000D01*
X120360000Y-97570000D02*
X120030000Y-97570000D01*
X123640000Y-97570000D02*
X123970000Y-97570000D01*
X123970000Y-88430000D02*
X123640000Y-88430000D01*
X123970000Y-97570000D02*
X123970000Y-88430000D01*
X146752000Y-101600000D02*
X146752000Y-96460000D01*
X149412000Y-96460000D02*
X146752000Y-96460000D01*
X149412000Y-101600000D02*
X146752000Y-101600000D01*
X149412000Y-101600000D02*
X149412000Y-96460000D01*
X149412000Y-102870000D02*
X149412000Y-104200000D01*
X149412000Y-104200000D02*
X148082000Y-104200000D01*
X121080000Y-78126000D02*
X121080000Y-81966000D01*
X121080000Y-81966000D02*
X122920000Y-81966000D01*
X122000000Y-77176000D02*
X122000000Y-78126000D01*
X122000000Y-82916000D02*
X122000000Y-81966000D01*
X122920000Y-78126000D02*
X121080000Y-78126000D01*
X122920000Y-81966000D02*
X122920000Y-78126000D01*
X126941000Y-74726000D02*
X126941000Y-77396000D01*
X126941000Y-79936000D02*
X126941000Y-118166000D01*
X126941000Y-118166000D02*
X132021000Y-118166000D01*
X129611000Y-77396000D02*
X126941000Y-77396000D01*
X129611000Y-79936000D02*
X126941000Y-79936000D01*
X129611000Y-79936000D02*
X129611000Y-77396000D01*
X129611000Y-79936000D02*
X129611000Y-115496000D01*
X129611000Y-115496000D02*
X126941000Y-115496000D01*
X132021000Y-110286000D02*
X139901000Y-110286000D01*
X132021000Y-120706000D02*
X132021000Y-110286000D01*
X139901000Y-110286000D02*
X139901000Y-120706000D01*
X139901000Y-120706000D02*
X132021000Y-120706000D01*
X142311000Y-77396000D02*
X142311000Y-115496000D01*
X142311000Y-77396000D02*
X144981000Y-77396000D01*
X142311000Y-115496000D02*
X144981000Y-115496000D01*
X144981000Y-74726000D02*
X126941000Y-74726000D01*
X144981000Y-118166000D02*
X139901000Y-118166000D01*
X144981000Y-118166000D02*
X144981000Y-74726000D01*
X115746000Y-78126000D02*
X115746000Y-81966000D01*
X115746000Y-81966000D02*
X117586000Y-81966000D01*
X116666000Y-77176000D02*
X116666000Y-78126000D01*
X116666000Y-82916000D02*
X116666000Y-81966000D01*
X117586000Y-78126000D02*
X115746000Y-78126000D01*
X117586000Y-81966000D02*
X117586000Y-78126000D01*
X121606000Y-118364000D02*
X121606000Y-100524000D01*
X124266000Y-100524000D02*
X121606000Y-100524000D01*
X124266000Y-118364000D02*
X121606000Y-118364000D01*
X124266000Y-118364000D02*
X124266000Y-100524000D01*
X124266000Y-119634000D02*
X124266000Y-120964000D01*
X124266000Y-120964000D02*
X122936000Y-120964000D01*
X146757651Y-89630000D02*
X148087651Y-89630000D01*
X146757651Y-90960000D02*
X146757651Y-89630000D01*
X146757651Y-92230000D02*
X146757651Y-94830000D01*
X146757651Y-92230000D02*
X149417651Y-92230000D01*
X146757651Y-94830000D02*
X149417651Y-94830000D01*
X149417651Y-92230000D02*
X149417651Y-94830000D01*
X109108000Y-88430000D02*
X109438000Y-88430000D01*
X109108000Y-95995000D02*
X113048000Y-95995000D01*
X109108000Y-96115000D02*
X113048000Y-96115000D01*
X109108000Y-96235000D02*
X113048000Y-96235000D01*
X109108000Y-97570000D02*
X109108000Y-88430000D01*
X109438000Y-97570000D02*
X109108000Y-97570000D01*
X112718000Y-97570000D02*
X113048000Y-97570000D01*
X113048000Y-88430000D02*
X112718000Y-88430000D01*
X113048000Y-97570000D02*
X113048000Y-88430000D01*
X146739781Y-82663993D02*
X148069781Y-82663993D01*
X146739781Y-83993993D02*
X146739781Y-82663993D01*
X146739781Y-85263993D02*
X146739781Y-87863993D01*
X146739781Y-85263993D02*
X149399781Y-85263993D01*
X146739781Y-87863993D02*
X149399781Y-87863993D01*
X149399781Y-85263993D02*
X149399781Y-87863993D01*
X110158000Y-78126000D02*
X110158000Y-81966000D01*
X110158000Y-81966000D02*
X111998000Y-81966000D01*
X111078000Y-77176000D02*
X111078000Y-78126000D01*
X111078000Y-82916000D02*
X111078000Y-81966000D01*
X111998000Y-78126000D02*
X110158000Y-78126000D01*
X111998000Y-81966000D02*
X111998000Y-78126000D01*
%LPC*%
D13*
X116666000Y-98080000D03*
D14*
X116666000Y-87920000D03*
D15*
X148000000Y-78275000D03*
D16*
X148000000Y-75735000D03*
D13*
X122000000Y-98080000D03*
D14*
X122000000Y-87920000D03*
D15*
X148082000Y-102870000D03*
D16*
X148082000Y-100330000D03*
X148082000Y-97790000D03*
D17*
X122000000Y-83856000D03*
D18*
X122000000Y-76236000D03*
D19*
X128341000Y-78666000D03*
D20*
X128341000Y-81206000D03*
X128341000Y-83746000D03*
X128341000Y-86286000D03*
X128341000Y-88826000D03*
X128341000Y-91366000D03*
X128341000Y-93906000D03*
X128341000Y-96446000D03*
X128341000Y-98986000D03*
X128341000Y-101526000D03*
X128341000Y-104066000D03*
X128341000Y-106606000D03*
X128341000Y-109146000D03*
X128341000Y-111686000D03*
X128341000Y-114226000D03*
X143581000Y-114226000D03*
X143581000Y-111686000D03*
X143581000Y-109146000D03*
X143581000Y-106606000D03*
X143581000Y-104066000D03*
X143581000Y-101526000D03*
X143581000Y-98986000D03*
X143581000Y-96446000D03*
X143581000Y-93906000D03*
X143581000Y-91366000D03*
X143581000Y-88826000D03*
X143581000Y-86286000D03*
X143581000Y-83746000D03*
X143581000Y-81206000D03*
X143581000Y-78666000D03*
D17*
X116666000Y-83856000D03*
D18*
X116666000Y-76236000D03*
D15*
X122936000Y-119634000D03*
D16*
X122936000Y-117094000D03*
X122936000Y-114554000D03*
X122936000Y-112014000D03*
X122936000Y-109474000D03*
X122936000Y-106934000D03*
X122936000Y-104394000D03*
X122936000Y-101854000D03*
D15*
X148087651Y-90960000D03*
D16*
X148087651Y-93500000D03*
D13*
X111078000Y-98080000D03*
D14*
X111078000Y-87920000D03*
D15*
X148069781Y-83993993D03*
D16*
X148069781Y-86533993D03*
D17*
X111078000Y-83856000D03*
D18*
X111078000Y-76236000D03*
%LPD*%
M02*
