G04 #@! TF.GenerationSoftware,KiCad,Pcbnew,8.0.5*
G04 #@! TF.CreationDate,2024-10-14T16:15:43+02:00*
G04 #@! TF.ProjectId,Pipboy2,50697062-6f79-4322-9e6b-696361645f70,rev?*
G04 #@! TF.SameCoordinates,Original*
G04 #@! TF.FileFunction,Copper,L1,Top*
G04 #@! TF.FilePolarity,Positive*
%FSLAX46Y46*%
G04 Gerber Fmt 4.6, Leading zero omitted, Abs format (unit mm)*
G04 Created by KiCad (PCBNEW 8.0.5) date 2024-10-14 16:15:43*
%MOMM*%
%LPD*%
G01*
G04 APERTURE LIST*
G04 #@! TA.AperFunction,ComponentPad*
%ADD10R,1.700000X1.700000*%
G04 #@! TD*
G04 #@! TA.AperFunction,ComponentPad*
%ADD11O,1.700000X1.700000*%
G04 #@! TD*
G04 #@! TA.AperFunction,ComponentPad*
%ADD12O,2.000000X1.905000*%
G04 #@! TD*
G04 #@! TA.AperFunction,ComponentPad*
%ADD13R,2.000000X1.905000*%
G04 #@! TD*
G04 #@! TA.AperFunction,ComponentPad*
%ADD14R,2.000000X2.000000*%
G04 #@! TD*
G04 #@! TA.AperFunction,ComponentPad*
%ADD15O,2.000000X2.000000*%
G04 #@! TD*
G04 #@! TA.AperFunction,ComponentPad*
%ADD16R,2.800000X2.800000*%
G04 #@! TD*
G04 #@! TA.AperFunction,ComponentPad*
%ADD17O,2.800000X2.800000*%
G04 #@! TD*
G04 #@! TA.AperFunction,ComponentPad*
%ADD18C,1.400000*%
G04 #@! TD*
G04 #@! TA.AperFunction,ComponentPad*
%ADD19O,1.400000X1.400000*%
G04 #@! TD*
G04 #@! TA.AperFunction,ComponentPad*
%ADD20R,1.600000X1.600000*%
G04 #@! TD*
G04 #@! TA.AperFunction,ComponentPad*
%ADD21O,1.600000X1.600000*%
G04 #@! TD*
G04 #@! TA.AperFunction,Conductor*
%ADD22C,0.400000*%
G04 #@! TD*
G04 APERTURE END LIST*
D10*
X149860000Y-120396000D03*
D11*
X147320000Y-120396000D03*
D12*
X154000000Y-82500000D03*
X154000000Y-79960000D03*
D13*
X154000000Y-77420000D03*
D14*
X155500000Y-88000000D03*
D15*
X155500000Y-103000000D03*
D14*
X155257500Y-106000000D03*
D15*
X155257500Y-121000000D03*
D16*
X116666000Y-98080000D03*
D17*
X116666000Y-87920000D03*
D10*
X148000000Y-78275000D03*
D11*
X148000000Y-75735000D03*
D16*
X122000000Y-98080000D03*
D17*
X122000000Y-87920000D03*
D10*
X148082000Y-102870000D03*
D11*
X148082000Y-100330000D03*
X148082000Y-97790000D03*
D18*
X122000000Y-83856000D03*
D19*
X122000000Y-76236000D03*
D20*
X128341000Y-78666000D03*
D21*
X128341000Y-81206000D03*
X128341000Y-83746000D03*
X128341000Y-86286000D03*
X128341000Y-88826000D03*
X128341000Y-91366000D03*
X128341000Y-93906000D03*
X128341000Y-96446000D03*
X128341000Y-98986000D03*
X128341000Y-101526000D03*
X128341000Y-104066000D03*
X128341000Y-106606000D03*
X128341000Y-109146000D03*
X128341000Y-111686000D03*
X128341000Y-114226000D03*
X143581000Y-114226000D03*
X143581000Y-111686000D03*
X143581000Y-109146000D03*
X143581000Y-106606000D03*
X143581000Y-104066000D03*
X143581000Y-101526000D03*
X143581000Y-98986000D03*
X143581000Y-96446000D03*
X143581000Y-93906000D03*
X143581000Y-91366000D03*
X143581000Y-88826000D03*
X143581000Y-86286000D03*
X143581000Y-83746000D03*
X143581000Y-81206000D03*
X143581000Y-78666000D03*
D18*
X116666000Y-83856000D03*
D19*
X116666000Y-76236000D03*
D10*
X122936000Y-119634000D03*
D11*
X122936000Y-117094000D03*
X122936000Y-114554000D03*
X122936000Y-112014000D03*
X122936000Y-109474000D03*
X122936000Y-106934000D03*
X122936000Y-104394000D03*
X122936000Y-101854000D03*
D10*
X148087651Y-90960000D03*
D11*
X148087651Y-93500000D03*
D16*
X111078000Y-98080000D03*
D17*
X111078000Y-87920000D03*
D10*
X148069781Y-83993993D03*
D11*
X148069781Y-86533993D03*
D19*
X111078000Y-76236000D03*
D18*
X111078000Y-83856000D03*
D22*
X145500000Y-88205000D02*
X143581000Y-86286000D01*
X145500000Y-95208000D02*
X145500000Y-88205000D01*
X148082000Y-97790000D02*
X145500000Y-95208000D01*
X144272000Y-120396000D02*
X143510000Y-119634000D01*
X147320000Y-120396000D02*
X144272000Y-120396000D01*
X149860000Y-118140000D02*
X149860000Y-120396000D01*
X160000000Y-108000000D02*
X149860000Y-118140000D01*
X160000000Y-92500000D02*
X160000000Y-108000000D01*
X155500000Y-88000000D02*
X160000000Y-92500000D01*
X133424000Y-101526000D02*
X128341000Y-101526000D01*
X144500000Y-77000000D02*
X142500000Y-77000000D01*
X146304000Y-78804000D02*
X144500000Y-77000000D01*
X140716000Y-94234000D02*
X133424000Y-101526000D01*
X142500000Y-77000000D02*
X140716000Y-78784000D01*
X148069781Y-82061781D02*
X146304000Y-80296000D01*
X146304000Y-80296000D02*
X146304000Y-78804000D01*
X148069781Y-83993993D02*
X148069781Y-82061781D01*
X140716000Y-78784000D02*
X140716000Y-94234000D01*
X152500000Y-103242500D02*
X152500000Y-95372349D01*
X152500000Y-95372349D02*
X148370493Y-91242842D01*
X155257500Y-106000000D02*
X152500000Y-103242500D01*
X150622000Y-111500000D02*
X150622000Y-100330000D01*
X150622000Y-112522000D02*
X150622000Y-111500000D01*
X154000000Y-86500000D02*
X155500000Y-88000000D01*
X154000000Y-82500000D02*
X154000000Y-86500000D01*
X151500000Y-87547651D02*
X148370493Y-90677158D01*
X151500000Y-79000000D02*
X151500000Y-87547651D01*
X153080000Y-77420000D02*
X151500000Y-79000000D01*
X154000000Y-77420000D02*
X153080000Y-77420000D01*
X142040000Y-75460000D02*
X144460000Y-75460000D01*
X139192000Y-91186000D02*
X139192000Y-78308000D01*
X131392000Y-98986000D02*
X139192000Y-91186000D01*
X128341000Y-98986000D02*
X131392000Y-98986000D01*
X144460000Y-75460000D02*
X147275000Y-78275000D01*
X147275000Y-78275000D02*
X148000000Y-78275000D01*
X139192000Y-78308000D02*
X142040000Y-75460000D01*
X126129000Y-106934000D02*
X122936000Y-106934000D01*
X128341000Y-109146000D02*
X126129000Y-106934000D01*
X122950000Y-112000000D02*
X122936000Y-112014000D01*
X126115000Y-112000000D02*
X122950000Y-112000000D01*
X128341000Y-114226000D02*
X126115000Y-112000000D01*
X122936000Y-119634000D02*
X143510000Y-119634000D01*
X143510000Y-119634000D02*
X150622000Y-112522000D01*
X150622000Y-100330000D02*
X148082000Y-97790000D01*
X128341000Y-93906000D02*
X125000000Y-90565000D01*
X125000000Y-88000000D02*
X123524000Y-86524000D01*
X125000000Y-90565000D02*
X125000000Y-88000000D01*
X123524000Y-86524000D02*
X123524000Y-75220000D01*
X123524000Y-75220000D02*
X122762000Y-74458000D01*
X122762000Y-74458000D02*
X118444000Y-74458000D01*
X118444000Y-74458000D02*
X116666000Y-76236000D01*
X127942000Y-93906000D02*
X128341000Y-93906000D01*
X126500000Y-89525000D02*
X126500000Y-87000000D01*
X128341000Y-91366000D02*
X126500000Y-89525000D01*
X125000000Y-85500000D02*
X125000000Y-74664000D01*
X125000000Y-74664000D02*
X123778000Y-73442000D01*
X126500000Y-87000000D02*
X125000000Y-85500000D01*
X123778000Y-73442000D02*
X113872000Y-73442000D01*
X126129000Y-104394000D02*
X122936000Y-104394000D01*
X128341000Y-106606000D02*
X126129000Y-104394000D01*
X128341000Y-106609000D02*
X128341000Y-106606000D01*
X128341000Y-104066000D02*
X126129000Y-101854000D01*
X126129000Y-101854000D02*
X122936000Y-101854000D01*
X148087651Y-90960000D02*
X147960000Y-90960000D01*
X122000000Y-76236000D02*
X120264000Y-76236000D01*
X119000000Y-90000000D02*
X125446000Y-96446000D01*
X125446000Y-96446000D02*
X128341000Y-96446000D01*
X120264000Y-76236000D02*
X119000000Y-77500000D01*
X119000000Y-77500000D02*
X119000000Y-90000000D01*
X125500000Y-109500000D02*
X125474000Y-109474000D01*
X128341000Y-111686000D02*
X126155000Y-109500000D01*
X126155000Y-109500000D02*
X125500000Y-109500000D01*
X125474000Y-109474000D02*
X122936000Y-109474000D01*
X121636000Y-118364000D02*
X121666000Y-118364000D01*
X128341000Y-86286000D02*
X128341000Y-86177000D01*
X125476000Y-117094000D02*
X140713000Y-117094000D01*
X122936000Y-114554000D02*
X125476000Y-117094000D01*
X140713000Y-117094000D02*
X143581000Y-114226000D01*
X116666000Y-83856000D02*
X116666000Y-87920000D01*
X122000000Y-87920000D02*
X122000000Y-83856000D01*
X148082000Y-100330000D02*
X145796000Y-102616000D01*
X148082000Y-100870000D02*
X148082000Y-100330000D01*
X145796000Y-104391000D02*
X143581000Y-106606000D01*
X145796000Y-102616000D02*
X145796000Y-104391000D01*
X113872000Y-73442000D02*
X111078000Y-76236000D01*
X111078000Y-83856000D02*
X111078000Y-87920000D01*
G04 #@! TA.AperFunction,Conductor*
G36*
X149641273Y-100339929D02*
G01*
X149885181Y-100583837D01*
X149918666Y-100645160D01*
X149921500Y-100671518D01*
X149921500Y-112180481D01*
X149901815Y-112247520D01*
X149885181Y-112268162D01*
X143256162Y-118897181D01*
X143194839Y-118930666D01*
X143168481Y-118933500D01*
X124410499Y-118933500D01*
X124343460Y-118913815D01*
X124297705Y-118861011D01*
X124286499Y-118809500D01*
X124286499Y-118736129D01*
X124286498Y-118736123D01*
X124286497Y-118736116D01*
X124280091Y-118676517D01*
X124229796Y-118541669D01*
X124229795Y-118541668D01*
X124229793Y-118541664D01*
X124143547Y-118426455D01*
X124143544Y-118426452D01*
X124028335Y-118340206D01*
X124028328Y-118340202D01*
X123896401Y-118290997D01*
X123840467Y-118249126D01*
X123816050Y-118183662D01*
X123830902Y-118115389D01*
X123852053Y-118087133D01*
X123974108Y-117965078D01*
X124109600Y-117771578D01*
X124209429Y-117557492D01*
X124209432Y-117557486D01*
X124266636Y-117344000D01*
X123369012Y-117344000D01*
X123401925Y-117286993D01*
X123436000Y-117159826D01*
X123436000Y-117028174D01*
X123401925Y-116901007D01*
X123369012Y-116844000D01*
X124183982Y-116844000D01*
X124251021Y-116863685D01*
X124271660Y-116880317D01*
X124931886Y-117540542D01*
X124985344Y-117594000D01*
X125029459Y-117638115D01*
X125144182Y-117714771D01*
X125144186Y-117714773D01*
X125144189Y-117714775D01*
X125218866Y-117745707D01*
X125218867Y-117745707D01*
X125218869Y-117745709D01*
X125271666Y-117767578D01*
X125271671Y-117767580D01*
X125271680Y-117767581D01*
X125271681Y-117767582D01*
X125298545Y-117772925D01*
X125298551Y-117772926D01*
X125298591Y-117772934D01*
X125388937Y-117790905D01*
X125407006Y-117794500D01*
X125407007Y-117794500D01*
X140781996Y-117794500D01*
X140890457Y-117772925D01*
X140917328Y-117767580D01*
X140981069Y-117741177D01*
X141044807Y-117714777D01*
X141044808Y-117714776D01*
X141044811Y-117714775D01*
X141159543Y-117638114D01*
X143250629Y-115547025D01*
X143311950Y-115513542D01*
X143349116Y-115511180D01*
X143354303Y-115511633D01*
X143354308Y-115511635D01*
X143557015Y-115529369D01*
X143580999Y-115531468D01*
X143581000Y-115531468D01*
X143581002Y-115531468D01*
X143637673Y-115526509D01*
X143807692Y-115511635D01*
X144027496Y-115452739D01*
X144233734Y-115356568D01*
X144420139Y-115226047D01*
X144581047Y-115065139D01*
X144711568Y-114878734D01*
X144807739Y-114672496D01*
X144866635Y-114452692D01*
X144886468Y-114226000D01*
X144866635Y-113999308D01*
X144807739Y-113779504D01*
X144711568Y-113573266D01*
X144581047Y-113386861D01*
X144581045Y-113386858D01*
X144420141Y-113225954D01*
X144233734Y-113095432D01*
X144233728Y-113095429D01*
X144175725Y-113068382D01*
X144123285Y-113022210D01*
X144104133Y-112955017D01*
X144124348Y-112888135D01*
X144175725Y-112843618D01*
X144233734Y-112816568D01*
X144420139Y-112686047D01*
X144581047Y-112525139D01*
X144711568Y-112338734D01*
X144807739Y-112132496D01*
X144866635Y-111912692D01*
X144886468Y-111686000D01*
X144882911Y-111645349D01*
X144880801Y-111621230D01*
X144866635Y-111459308D01*
X144807739Y-111239504D01*
X144711568Y-111033266D01*
X144581047Y-110846861D01*
X144581045Y-110846858D01*
X144420141Y-110685954D01*
X144233734Y-110555432D01*
X144233728Y-110555429D01*
X144175725Y-110528382D01*
X144123285Y-110482210D01*
X144104133Y-110415017D01*
X144124348Y-110348135D01*
X144175725Y-110303618D01*
X144233734Y-110276568D01*
X144420139Y-110146047D01*
X144581047Y-109985139D01*
X144711568Y-109798734D01*
X144807739Y-109592496D01*
X144866635Y-109372692D01*
X144886468Y-109146000D01*
X144866635Y-108919308D01*
X144807739Y-108699504D01*
X144711568Y-108493266D01*
X144581047Y-108306861D01*
X144581045Y-108306858D01*
X144420141Y-108145954D01*
X144233734Y-108015432D01*
X144233728Y-108015429D01*
X144175725Y-107988382D01*
X144123285Y-107942210D01*
X144104133Y-107875017D01*
X144124348Y-107808135D01*
X144175725Y-107763618D01*
X144233734Y-107736568D01*
X144420139Y-107606047D01*
X144581047Y-107445139D01*
X144711568Y-107258734D01*
X144807739Y-107052496D01*
X144866635Y-106832692D01*
X144886468Y-106606000D01*
X144866635Y-106379308D01*
X144866633Y-106379303D01*
X144866180Y-106374117D01*
X144879946Y-106305617D01*
X144902024Y-106275631D01*
X146340114Y-104837543D01*
X146416775Y-104722811D01*
X146469580Y-104595328D01*
X146478389Y-104551040D01*
X146496500Y-104459996D01*
X146496500Y-103866098D01*
X146516185Y-103799059D01*
X146568989Y-103753304D01*
X146638147Y-103743360D01*
X146701703Y-103772385D01*
X146736682Y-103822765D01*
X146788645Y-103962086D01*
X146788649Y-103962093D01*
X146874809Y-104077187D01*
X146874812Y-104077190D01*
X146989906Y-104163350D01*
X146989913Y-104163354D01*
X147124620Y-104213596D01*
X147124627Y-104213598D01*
X147184155Y-104219999D01*
X147184172Y-104220000D01*
X147832000Y-104220000D01*
X147832000Y-103303012D01*
X147889007Y-103335925D01*
X148016174Y-103370000D01*
X148147826Y-103370000D01*
X148274993Y-103335925D01*
X148332000Y-103303012D01*
X148332000Y-104220000D01*
X148979828Y-104220000D01*
X148979844Y-104219999D01*
X149039372Y-104213598D01*
X149039379Y-104213596D01*
X149174086Y-104163354D01*
X149174093Y-104163350D01*
X149289187Y-104077190D01*
X149289190Y-104077187D01*
X149375350Y-103962093D01*
X149375354Y-103962086D01*
X149425596Y-103827379D01*
X149425598Y-103827372D01*
X149431999Y-103767844D01*
X149432000Y-103767827D01*
X149432000Y-103120000D01*
X148515012Y-103120000D01*
X148547925Y-103062993D01*
X148582000Y-102935826D01*
X148582000Y-102804174D01*
X148547925Y-102677007D01*
X148515012Y-102620000D01*
X149432000Y-102620000D01*
X149432000Y-101972172D01*
X149431999Y-101972155D01*
X149425598Y-101912627D01*
X149425596Y-101912620D01*
X149375354Y-101777913D01*
X149375350Y-101777906D01*
X149289190Y-101662812D01*
X149289187Y-101662809D01*
X149174093Y-101576649D01*
X149174088Y-101576646D01*
X149042528Y-101527577D01*
X148986595Y-101485705D01*
X148962178Y-101420241D01*
X148977030Y-101351968D01*
X148998175Y-101323720D01*
X149120495Y-101201401D01*
X149256035Y-101007830D01*
X149355903Y-100793663D01*
X149417063Y-100565408D01*
X149430064Y-100416801D01*
X149455516Y-100351734D01*
X149512107Y-100310755D01*
X149581869Y-100306877D01*
X149641273Y-100339929D01*
G37*
G04 #@! TD.AperFunction*
G04 #@! TA.AperFunction,Conductor*
G36*
X164999008Y-68513923D02*
G01*
X165044763Y-68566727D01*
X165055969Y-68618238D01*
X165055969Y-124733403D01*
X165036284Y-124800442D01*
X164983480Y-124846197D01*
X164931969Y-124857403D01*
X104803343Y-124857403D01*
X104736304Y-124837718D01*
X104690549Y-124784914D01*
X104679343Y-124733403D01*
X104679343Y-120878711D01*
X106149500Y-120878711D01*
X106149500Y-121121288D01*
X106180520Y-121356917D01*
X106181162Y-121361789D01*
X106209065Y-121465925D01*
X106243947Y-121596104D01*
X106308380Y-121751659D01*
X106336776Y-121820212D01*
X106458064Y-122030289D01*
X106458066Y-122030292D01*
X106458067Y-122030293D01*
X106605733Y-122222736D01*
X106605739Y-122222743D01*
X106777256Y-122394260D01*
X106777262Y-122394265D01*
X106969711Y-122541936D01*
X107179788Y-122663224D01*
X107403900Y-122756054D01*
X107638211Y-122818838D01*
X107818586Y-122842584D01*
X107878711Y-122850500D01*
X107878712Y-122850500D01*
X108121289Y-122850500D01*
X108169388Y-122844167D01*
X108361789Y-122818838D01*
X108596100Y-122756054D01*
X108820212Y-122663224D01*
X109030289Y-122541936D01*
X109222738Y-122394265D01*
X109394265Y-122222738D01*
X109541936Y-122030289D01*
X109663224Y-121820212D01*
X109756054Y-121596100D01*
X109818838Y-121361789D01*
X109850500Y-121121288D01*
X109850500Y-120878712D01*
X109818838Y-120638211D01*
X109756054Y-120403900D01*
X109663224Y-120179788D01*
X109541936Y-119969711D01*
X109394265Y-119777262D01*
X109394260Y-119777256D01*
X109222743Y-119605739D01*
X109222736Y-119605733D01*
X109030293Y-119458067D01*
X109030292Y-119458066D01*
X109030289Y-119458064D01*
X108820212Y-119336776D01*
X108820205Y-119336773D01*
X108596104Y-119243947D01*
X108478944Y-119212554D01*
X108361789Y-119181162D01*
X108361788Y-119181161D01*
X108361785Y-119181161D01*
X108121289Y-119149500D01*
X108121288Y-119149500D01*
X107878712Y-119149500D01*
X107878711Y-119149500D01*
X107638214Y-119181161D01*
X107403895Y-119243947D01*
X107179794Y-119336773D01*
X107179785Y-119336777D01*
X106969706Y-119458067D01*
X106777263Y-119605733D01*
X106777256Y-119605739D01*
X106605739Y-119777256D01*
X106605733Y-119777263D01*
X106458067Y-119969706D01*
X106336777Y-120179785D01*
X106336773Y-120179794D01*
X106243947Y-120403895D01*
X106181161Y-120638214D01*
X106149500Y-120878711D01*
X104679343Y-120878711D01*
X104679343Y-96632155D01*
X109178000Y-96632155D01*
X109178000Y-97830000D01*
X110423879Y-97830000D01*
X110404901Y-97875818D01*
X110378000Y-98011056D01*
X110378000Y-98148944D01*
X110404901Y-98284182D01*
X110423879Y-98330000D01*
X109178000Y-98330000D01*
X109178000Y-99527844D01*
X109184401Y-99587372D01*
X109184403Y-99587379D01*
X109234645Y-99722086D01*
X109234649Y-99722093D01*
X109320809Y-99837187D01*
X109320812Y-99837190D01*
X109435906Y-99923350D01*
X109435913Y-99923354D01*
X109570620Y-99973596D01*
X109570627Y-99973598D01*
X109630155Y-99979999D01*
X109630172Y-99980000D01*
X110828000Y-99980000D01*
X110828000Y-98734120D01*
X110873818Y-98753099D01*
X111009056Y-98780000D01*
X111146944Y-98780000D01*
X111282182Y-98753099D01*
X111328000Y-98734120D01*
X111328000Y-99980000D01*
X112525828Y-99980000D01*
X112525844Y-99979999D01*
X112585372Y-99973598D01*
X112585379Y-99973596D01*
X112720086Y-99923354D01*
X112720093Y-99923350D01*
X112835187Y-99837190D01*
X112835190Y-99837187D01*
X112921350Y-99722093D01*
X112921354Y-99722086D01*
X112971596Y-99587379D01*
X112971598Y-99587372D01*
X112977999Y-99527844D01*
X112978000Y-99527827D01*
X112978000Y-98330000D01*
X111732121Y-98330000D01*
X111751099Y-98284182D01*
X111778000Y-98148944D01*
X111778000Y-98011056D01*
X111751099Y-97875818D01*
X111732121Y-97830000D01*
X112978000Y-97830000D01*
X112978000Y-96632172D01*
X112977999Y-96632155D01*
X114766000Y-96632155D01*
X114766000Y-97830000D01*
X116011879Y-97830000D01*
X115992901Y-97875818D01*
X115966000Y-98011056D01*
X115966000Y-98148944D01*
X115992901Y-98284182D01*
X116011879Y-98330000D01*
X114766000Y-98330000D01*
X114766000Y-99527844D01*
X114772401Y-99587372D01*
X114772403Y-99587379D01*
X114822645Y-99722086D01*
X114822649Y-99722093D01*
X114908809Y-99837187D01*
X114908812Y-99837190D01*
X115023906Y-99923350D01*
X115023913Y-99923354D01*
X115158620Y-99973596D01*
X115158627Y-99973598D01*
X115218155Y-99979999D01*
X115218172Y-99980000D01*
X116416000Y-99980000D01*
X116416000Y-98734120D01*
X116461818Y-98753099D01*
X116597056Y-98780000D01*
X116734944Y-98780000D01*
X116870182Y-98753099D01*
X116916000Y-98734120D01*
X116916000Y-99980000D01*
X118113828Y-99980000D01*
X118113844Y-99979999D01*
X118173372Y-99973598D01*
X118173379Y-99973596D01*
X118308086Y-99923354D01*
X118308093Y-99923350D01*
X118423187Y-99837190D01*
X118423190Y-99837187D01*
X118509350Y-99722093D01*
X118509354Y-99722086D01*
X118559596Y-99587379D01*
X118559598Y-99587372D01*
X118565999Y-99527844D01*
X118566000Y-99527827D01*
X118566000Y-98330000D01*
X117320121Y-98330000D01*
X117339099Y-98284182D01*
X117366000Y-98148944D01*
X117366000Y-98011056D01*
X117339099Y-97875818D01*
X117320121Y-97830000D01*
X118566000Y-97830000D01*
X118566000Y-96632172D01*
X118565999Y-96632155D01*
X120100000Y-96632155D01*
X120100000Y-97830000D01*
X121345879Y-97830000D01*
X121326901Y-97875818D01*
X121300000Y-98011056D01*
X121300000Y-98148944D01*
X121326901Y-98284182D01*
X121345879Y-98330000D01*
X120100000Y-98330000D01*
X120100000Y-99527844D01*
X120106401Y-99587372D01*
X120106403Y-99587379D01*
X120156645Y-99722086D01*
X120156649Y-99722093D01*
X120242809Y-99837187D01*
X120242812Y-99837190D01*
X120357906Y-99923350D01*
X120357913Y-99923354D01*
X120492620Y-99973596D01*
X120492627Y-99973598D01*
X120552155Y-99979999D01*
X120552172Y-99980000D01*
X121750000Y-99980000D01*
X121750000Y-98734120D01*
X121795818Y-98753099D01*
X121931056Y-98780000D01*
X122068944Y-98780000D01*
X122204182Y-98753099D01*
X122250000Y-98734120D01*
X122250000Y-99980000D01*
X123447828Y-99980000D01*
X123447844Y-99979999D01*
X123507372Y-99973598D01*
X123507379Y-99973596D01*
X123642086Y-99923354D01*
X123642093Y-99923350D01*
X123757187Y-99837190D01*
X123757190Y-99837187D01*
X123843350Y-99722093D01*
X123843354Y-99722086D01*
X123893596Y-99587379D01*
X123893598Y-99587372D01*
X123899999Y-99527844D01*
X123900000Y-99527827D01*
X123900000Y-98330000D01*
X122654121Y-98330000D01*
X122673099Y-98284182D01*
X122700000Y-98148944D01*
X122700000Y-98011056D01*
X122673099Y-97875818D01*
X122654121Y-97830000D01*
X123900000Y-97830000D01*
X123900000Y-96632172D01*
X123899999Y-96632155D01*
X123893598Y-96572627D01*
X123893596Y-96572620D01*
X123843354Y-96437913D01*
X123843350Y-96437906D01*
X123757190Y-96322812D01*
X123757187Y-96322809D01*
X123642093Y-96236649D01*
X123642086Y-96236645D01*
X123507379Y-96186403D01*
X123507372Y-96186401D01*
X123447844Y-96180000D01*
X122250000Y-96180000D01*
X122250000Y-97425879D01*
X122204182Y-97406901D01*
X122068944Y-97380000D01*
X121931056Y-97380000D01*
X121795818Y-97406901D01*
X121750000Y-97425879D01*
X121750000Y-96180000D01*
X120552155Y-96180000D01*
X120492627Y-96186401D01*
X120492620Y-96186403D01*
X120357913Y-96236645D01*
X120357906Y-96236649D01*
X120242812Y-96322809D01*
X120242809Y-96322812D01*
X120156649Y-96437906D01*
X120156645Y-96437913D01*
X120106403Y-96572620D01*
X120106401Y-96572627D01*
X120100000Y-96632155D01*
X118565999Y-96632155D01*
X118559598Y-96572627D01*
X118559596Y-96572620D01*
X118509354Y-96437913D01*
X118509350Y-96437906D01*
X118423190Y-96322812D01*
X118423187Y-96322809D01*
X118308093Y-96236649D01*
X118308086Y-96236645D01*
X118173379Y-96186403D01*
X118173372Y-96186401D01*
X118113844Y-96180000D01*
X116916000Y-96180000D01*
X116916000Y-97425879D01*
X116870182Y-97406901D01*
X116734944Y-97380000D01*
X116597056Y-97380000D01*
X116461818Y-97406901D01*
X116416000Y-97425879D01*
X116416000Y-96180000D01*
X115218155Y-96180000D01*
X115158627Y-96186401D01*
X115158620Y-96186403D01*
X115023913Y-96236645D01*
X115023906Y-96236649D01*
X114908812Y-96322809D01*
X114908809Y-96322812D01*
X114822649Y-96437906D01*
X114822645Y-96437913D01*
X114772403Y-96572620D01*
X114772401Y-96572627D01*
X114766000Y-96632155D01*
X112977999Y-96632155D01*
X112971598Y-96572627D01*
X112971596Y-96572620D01*
X112921354Y-96437913D01*
X112921350Y-96437906D01*
X112835190Y-96322812D01*
X112835187Y-96322809D01*
X112720093Y-96236649D01*
X112720086Y-96236645D01*
X112585379Y-96186403D01*
X112585372Y-96186401D01*
X112525844Y-96180000D01*
X111328000Y-96180000D01*
X111328000Y-97425879D01*
X111282182Y-97406901D01*
X111146944Y-97380000D01*
X111009056Y-97380000D01*
X110873818Y-97406901D01*
X110828000Y-97425879D01*
X110828000Y-96180000D01*
X109630155Y-96180000D01*
X109570627Y-96186401D01*
X109570620Y-96186403D01*
X109435913Y-96236645D01*
X109435906Y-96236649D01*
X109320812Y-96322809D01*
X109320809Y-96322812D01*
X109234649Y-96437906D01*
X109234645Y-96437913D01*
X109184403Y-96572620D01*
X109184401Y-96572627D01*
X109178000Y-96632155D01*
X104679343Y-96632155D01*
X104679343Y-87919998D01*
X109172645Y-87919998D01*
X109172645Y-87920001D01*
X109192039Y-88191160D01*
X109192040Y-88191167D01*
X109249823Y-88456793D01*
X109249825Y-88456801D01*
X109326330Y-88661920D01*
X109344830Y-88711519D01*
X109475109Y-88950107D01*
X109475110Y-88950108D01*
X109475113Y-88950113D01*
X109638029Y-89167742D01*
X109638033Y-89167746D01*
X109638038Y-89167752D01*
X109830247Y-89359961D01*
X109830253Y-89359966D01*
X109830258Y-89359971D01*
X110047887Y-89522887D01*
X110047891Y-89522889D01*
X110047892Y-89522890D01*
X110286481Y-89653169D01*
X110286480Y-89653169D01*
X110286484Y-89653170D01*
X110286487Y-89653172D01*
X110541199Y-89748175D01*
X110806840Y-89805961D01*
X111058605Y-89823967D01*
X111077999Y-89825355D01*
X111078000Y-89825355D01*
X111078001Y-89825355D01*
X111096100Y-89824060D01*
X111349160Y-89805961D01*
X111614801Y-89748175D01*
X111869513Y-89653172D01*
X111869517Y-89653169D01*
X111869519Y-89653169D01*
X112082600Y-89536818D01*
X112108113Y-89522887D01*
X112325742Y-89359971D01*
X112517971Y-89167742D01*
X112680887Y-88950113D01*
X112811172Y-88711513D01*
X112906175Y-88456801D01*
X112963961Y-88191160D01*
X112983355Y-87920000D01*
X112963961Y-87648840D01*
X112906175Y-87383199D01*
X112811172Y-87128487D01*
X112811170Y-87128484D01*
X112811169Y-87128480D01*
X112680890Y-86889892D01*
X112680889Y-86889891D01*
X112680887Y-86889887D01*
X112517971Y-86672258D01*
X112517966Y-86672253D01*
X112517961Y-86672247D01*
X112325752Y-86480038D01*
X112325746Y-86480033D01*
X112325742Y-86480029D01*
X112108113Y-86317113D01*
X112108108Y-86317110D01*
X112108107Y-86317109D01*
X111869519Y-86186831D01*
X111869501Y-86186822D01*
X111859160Y-86182965D01*
X111803229Y-86141091D01*
X111778815Y-86075625D01*
X111778500Y-86066786D01*
X111778500Y-84896634D01*
X111798185Y-84829595D01*
X111818962Y-84804997D01*
X111968979Y-84668238D01*
X112031733Y-84585139D01*
X112103058Y-84490689D01*
X112202229Y-84291528D01*
X112263115Y-84077536D01*
X112283643Y-83856000D01*
X112279099Y-83806967D01*
X112263115Y-83634464D01*
X112263114Y-83634462D01*
X112255666Y-83608286D01*
X112202229Y-83420472D01*
X112202224Y-83420461D01*
X112103061Y-83221316D01*
X112103056Y-83221308D01*
X111968979Y-83043761D01*
X111804562Y-82893876D01*
X111804560Y-82893874D01*
X111615404Y-82776754D01*
X111615398Y-82776752D01*
X111407940Y-82696382D01*
X111189243Y-82655500D01*
X110966757Y-82655500D01*
X110748060Y-82696382D01*
X110657991Y-82731275D01*
X110540601Y-82776752D01*
X110540595Y-82776754D01*
X110351439Y-82893874D01*
X110351437Y-82893876D01*
X110187020Y-83043761D01*
X110052943Y-83221308D01*
X110052938Y-83221316D01*
X109953775Y-83420461D01*
X109953769Y-83420476D01*
X109892885Y-83634462D01*
X109892884Y-83634464D01*
X109872357Y-83855999D01*
X109872357Y-83856000D01*
X109892884Y-84077535D01*
X109892885Y-84077537D01*
X109953769Y-84291523D01*
X109953775Y-84291538D01*
X110052938Y-84490683D01*
X110052943Y-84490691D01*
X110187020Y-84668238D01*
X110337038Y-84804997D01*
X110373320Y-84864708D01*
X110377500Y-84896634D01*
X110377500Y-86066786D01*
X110357815Y-86133825D01*
X110305011Y-86179580D01*
X110296840Y-86182965D01*
X110286498Y-86186822D01*
X110286480Y-86186831D01*
X110047892Y-86317109D01*
X110047891Y-86317110D01*
X109830259Y-86480028D01*
X109830247Y-86480038D01*
X109638038Y-86672247D01*
X109638028Y-86672259D01*
X109475110Y-86889891D01*
X109475109Y-86889892D01*
X109344830Y-87128480D01*
X109322024Y-87189627D01*
X109249825Y-87383199D01*
X109249824Y-87383202D01*
X109249823Y-87383206D01*
X109192040Y-87648832D01*
X109192039Y-87648839D01*
X109172645Y-87919998D01*
X104679343Y-87919998D01*
X104679343Y-76235999D01*
X109872357Y-76235999D01*
X109872357Y-76236000D01*
X109892884Y-76457535D01*
X109892885Y-76457537D01*
X109953769Y-76671523D01*
X109953775Y-76671538D01*
X110052938Y-76870683D01*
X110052943Y-76870691D01*
X110187020Y-77048238D01*
X110351437Y-77198123D01*
X110351439Y-77198125D01*
X110540595Y-77315245D01*
X110540596Y-77315245D01*
X110540599Y-77315247D01*
X110748060Y-77395618D01*
X110966757Y-77436500D01*
X110966759Y-77436500D01*
X111189241Y-77436500D01*
X111189243Y-77436500D01*
X111407940Y-77395618D01*
X111615401Y-77315247D01*
X111804562Y-77198124D01*
X111968981Y-77048236D01*
X112103058Y-76870689D01*
X112202229Y-76671528D01*
X112263115Y-76457536D01*
X112283643Y-76236000D01*
X112270781Y-76097203D01*
X112284196Y-76028637D01*
X112306568Y-75998087D01*
X114125838Y-74178819D01*
X114187161Y-74145334D01*
X114213519Y-74142500D01*
X117469481Y-74142500D01*
X117536520Y-74162185D01*
X117582275Y-74214989D01*
X117592219Y-74284147D01*
X117563194Y-74347703D01*
X117557162Y-74354181D01*
X116906531Y-75004810D01*
X116845208Y-75038295D01*
X116796070Y-75039019D01*
X116788968Y-75037691D01*
X116777243Y-75035500D01*
X116554757Y-75035500D01*
X116336060Y-75076382D01*
X116204864Y-75127207D01*
X116128601Y-75156752D01*
X116128595Y-75156754D01*
X115939439Y-75273874D01*
X115939437Y-75273876D01*
X115775020Y-75423761D01*
X115640943Y-75601308D01*
X115640938Y-75601316D01*
X115541775Y-75800461D01*
X115541769Y-75800476D01*
X115480885Y-76014462D01*
X115480884Y-76014464D01*
X115460357Y-76235999D01*
X115460357Y-76236000D01*
X115480884Y-76457535D01*
X115480885Y-76457537D01*
X115541769Y-76671523D01*
X115541775Y-76671538D01*
X115640938Y-76870683D01*
X115640943Y-76870691D01*
X115775020Y-77048238D01*
X115939437Y-77198123D01*
X115939439Y-77198125D01*
X116128595Y-77315245D01*
X116128596Y-77315245D01*
X116128599Y-77315247D01*
X116336060Y-77395618D01*
X116554757Y-77436500D01*
X116554759Y-77436500D01*
X116777241Y-77436500D01*
X116777243Y-77436500D01*
X116995940Y-77395618D01*
X117203401Y-77315247D01*
X117392562Y-77198124D01*
X117556981Y-77048236D01*
X117691058Y-76870689D01*
X117790229Y-76671528D01*
X117851115Y-76457536D01*
X117871643Y-76236000D01*
X117858781Y-76097203D01*
X117872196Y-76028637D01*
X117894568Y-75998087D01*
X118697838Y-75194819D01*
X118759161Y-75161334D01*
X118785519Y-75158500D01*
X121079919Y-75158500D01*
X121146958Y-75178185D01*
X121192713Y-75230989D01*
X121202657Y-75300147D01*
X121173632Y-75363703D01*
X121163457Y-75374137D01*
X121109020Y-75423762D01*
X121061849Y-75486227D01*
X121005740Y-75527863D01*
X120962895Y-75535500D01*
X120195004Y-75535500D01*
X120059677Y-75562418D01*
X120059667Y-75562421D01*
X119932192Y-75615222D01*
X119817454Y-75691887D01*
X118455887Y-77053454D01*
X118379222Y-77168192D01*
X118326421Y-77295667D01*
X118326418Y-77295677D01*
X118299500Y-77431004D01*
X118299500Y-86566424D01*
X118279815Y-86633463D01*
X118227011Y-86679218D01*
X118157853Y-86689162D01*
X118094297Y-86660137D01*
X118087819Y-86654105D01*
X117913752Y-86480038D01*
X117913746Y-86480033D01*
X117913742Y-86480029D01*
X117696113Y-86317113D01*
X117696108Y-86317110D01*
X117696107Y-86317109D01*
X117457519Y-86186831D01*
X117457501Y-86186822D01*
X117447160Y-86182965D01*
X117391229Y-86141091D01*
X117366815Y-86075625D01*
X117366500Y-86066786D01*
X117366500Y-84896634D01*
X117386185Y-84829595D01*
X117406962Y-84804997D01*
X117556979Y-84668238D01*
X117619733Y-84585139D01*
X117691058Y-84490689D01*
X117790229Y-84291528D01*
X117851115Y-84077536D01*
X117871643Y-83856000D01*
X117867099Y-83806967D01*
X117851115Y-83634464D01*
X117851114Y-83634462D01*
X117843666Y-83608286D01*
X117790229Y-83420472D01*
X117790224Y-83420461D01*
X117691061Y-83221316D01*
X117691056Y-83221308D01*
X117556979Y-83043761D01*
X117392562Y-82893876D01*
X117392560Y-82893874D01*
X117203404Y-82776754D01*
X117203398Y-82776752D01*
X116995940Y-82696382D01*
X116777243Y-82655500D01*
X116554757Y-82655500D01*
X116336060Y-82696382D01*
X116245991Y-82731275D01*
X116128601Y-82776752D01*
X116128595Y-82776754D01*
X115939439Y-82893874D01*
X115939437Y-82893876D01*
X115775020Y-83043761D01*
X115640943Y-83221308D01*
X115640938Y-83221316D01*
X115541775Y-83420461D01*
X115541769Y-83420476D01*
X115480885Y-83634462D01*
X115480884Y-83634464D01*
X115460357Y-83855999D01*
X115460357Y-83856000D01*
X115480884Y-84077535D01*
X115480885Y-84077537D01*
X115541769Y-84291523D01*
X115541775Y-84291538D01*
X115640938Y-84490683D01*
X115640943Y-84490691D01*
X115775020Y-84668238D01*
X115925038Y-84804997D01*
X115961320Y-84864708D01*
X115965500Y-84896634D01*
X115965500Y-86066786D01*
X115945815Y-86133825D01*
X115893011Y-86179580D01*
X115884840Y-86182965D01*
X115874498Y-86186822D01*
X115874480Y-86186831D01*
X115635892Y-86317109D01*
X115635891Y-86317110D01*
X115418259Y-86480028D01*
X115418247Y-86480038D01*
X115226038Y-86672247D01*
X115226028Y-86672259D01*
X115063110Y-86889891D01*
X115063109Y-86889892D01*
X114932830Y-87128480D01*
X114910024Y-87189627D01*
X114837825Y-87383199D01*
X114837824Y-87383202D01*
X114837823Y-87383206D01*
X114780040Y-87648832D01*
X114780039Y-87648839D01*
X114760645Y-87919998D01*
X114760645Y-87920001D01*
X114780039Y-88191160D01*
X114780040Y-88191167D01*
X114837823Y-88456793D01*
X114837825Y-88456801D01*
X114914330Y-88661920D01*
X114932830Y-88711519D01*
X115063109Y-88950107D01*
X115063110Y-88950108D01*
X115063113Y-88950113D01*
X115226029Y-89167742D01*
X115226033Y-89167746D01*
X115226038Y-89167752D01*
X115418247Y-89359961D01*
X115418253Y-89359966D01*
X115418258Y-89359971D01*
X115635887Y-89522887D01*
X115635891Y-89522889D01*
X115635892Y-89522890D01*
X115874481Y-89653169D01*
X115874480Y-89653169D01*
X115874484Y-89653170D01*
X115874487Y-89653172D01*
X116129199Y-89748175D01*
X116394840Y-89805961D01*
X116646605Y-89823967D01*
X116665999Y-89825355D01*
X116666000Y-89825355D01*
X116666001Y-89825355D01*
X116684100Y-89824060D01*
X116937160Y-89805961D01*
X117202801Y-89748175D01*
X117457513Y-89653172D01*
X117457517Y-89653169D01*
X117457519Y-89653169D01*
X117670600Y-89536818D01*
X117696113Y-89522887D01*
X117913742Y-89359971D01*
X118000137Y-89273576D01*
X118087819Y-89185895D01*
X118149142Y-89152410D01*
X118218834Y-89157394D01*
X118274767Y-89199266D01*
X118299184Y-89264730D01*
X118299500Y-89273576D01*
X118299500Y-89931006D01*
X118299500Y-90068994D01*
X118299500Y-90068996D01*
X118299499Y-90068996D01*
X118326418Y-90204322D01*
X118326421Y-90204332D01*
X118379222Y-90331807D01*
X118455887Y-90446545D01*
X124999454Y-96990112D01*
X125114192Y-97066777D01*
X125223780Y-97112169D01*
X125241672Y-97119580D01*
X125241676Y-97119580D01*
X125241677Y-97119581D01*
X125377003Y-97146500D01*
X125377006Y-97146500D01*
X125377007Y-97146500D01*
X127179327Y-97146500D01*
X127246366Y-97166185D01*
X127280902Y-97199377D01*
X127340954Y-97285141D01*
X127501858Y-97446045D01*
X127501861Y-97446047D01*
X127688266Y-97576568D01*
X127746275Y-97603618D01*
X127798714Y-97649791D01*
X127817866Y-97716984D01*
X127797650Y-97783865D01*
X127746275Y-97828382D01*
X127688267Y-97855431D01*
X127688265Y-97855432D01*
X127501858Y-97985954D01*
X127340954Y-98146858D01*
X127210432Y-98333265D01*
X127210431Y-98333267D01*
X127114261Y-98539502D01*
X127114258Y-98539511D01*
X127055366Y-98759302D01*
X127055364Y-98759313D01*
X127035532Y-98985998D01*
X127035532Y-98986001D01*
X127055364Y-99212686D01*
X127055366Y-99212697D01*
X127114258Y-99432488D01*
X127114261Y-99432497D01*
X127210431Y-99638732D01*
X127210432Y-99638734D01*
X127340954Y-99825141D01*
X127501858Y-99986045D01*
X127501861Y-99986047D01*
X127688266Y-100116568D01*
X127746275Y-100143618D01*
X127798714Y-100189791D01*
X127817866Y-100256984D01*
X127797650Y-100323865D01*
X127746275Y-100368382D01*
X127688267Y-100395431D01*
X127688265Y-100395432D01*
X127501858Y-100525954D01*
X127340954Y-100686858D01*
X127210432Y-100873265D01*
X127210431Y-100873267D01*
X127114261Y-101079502D01*
X127114258Y-101079511D01*
X127055366Y-101299302D01*
X127055364Y-101299312D01*
X127039088Y-101485348D01*
X127013635Y-101550416D01*
X126957044Y-101591395D01*
X126887282Y-101595273D01*
X126827879Y-101562221D01*
X126575545Y-101309887D01*
X126460807Y-101233222D01*
X126333332Y-101180421D01*
X126333322Y-101180418D01*
X126197996Y-101153500D01*
X126197994Y-101153500D01*
X126197993Y-101153500D01*
X124158711Y-101153500D01*
X124091672Y-101133815D01*
X124057136Y-101100623D01*
X124042348Y-101079504D01*
X123974495Y-100982599D01*
X123974494Y-100982597D01*
X123807402Y-100815506D01*
X123807395Y-100815501D01*
X123613834Y-100679967D01*
X123613830Y-100679965D01*
X123552512Y-100651372D01*
X123399663Y-100580097D01*
X123399659Y-100580096D01*
X123399655Y-100580094D01*
X123171413Y-100518938D01*
X123171403Y-100518936D01*
X122936001Y-100498341D01*
X122935999Y-100498341D01*
X122700596Y-100518936D01*
X122700586Y-100518938D01*
X122472344Y-100580094D01*
X122472335Y-100580098D01*
X122258171Y-100679964D01*
X122258169Y-100679965D01*
X122064597Y-100815505D01*
X121897505Y-100982597D01*
X121761965Y-101176169D01*
X121761964Y-101176171D01*
X121662098Y-101390335D01*
X121662094Y-101390344D01*
X121600938Y-101618586D01*
X121600936Y-101618596D01*
X121580341Y-101853999D01*
X121580341Y-101854000D01*
X121600936Y-102089403D01*
X121600938Y-102089413D01*
X121662094Y-102317655D01*
X121662096Y-102317659D01*
X121662097Y-102317663D01*
X121705937Y-102411677D01*
X121761965Y-102531830D01*
X121761967Y-102531834D01*
X121897501Y-102725395D01*
X121897506Y-102725402D01*
X122064597Y-102892493D01*
X122064603Y-102892498D01*
X122250158Y-103022425D01*
X122293783Y-103077002D01*
X122300977Y-103146500D01*
X122269454Y-103208855D01*
X122250158Y-103225575D01*
X122064597Y-103355505D01*
X121897505Y-103522597D01*
X121761965Y-103716169D01*
X121761964Y-103716171D01*
X121662098Y-103930335D01*
X121662094Y-103930344D01*
X121600938Y-104158586D01*
X121600936Y-104158596D01*
X121580341Y-104393999D01*
X121580341Y-104394000D01*
X121600936Y-104629403D01*
X121600938Y-104629413D01*
X121662094Y-104857655D01*
X121662096Y-104857659D01*
X121662097Y-104857663D01*
X121759267Y-105066045D01*
X121761965Y-105071830D01*
X121761967Y-105071834D01*
X121897501Y-105265395D01*
X121897506Y-105265402D01*
X122064597Y-105432493D01*
X122064603Y-105432498D01*
X122250158Y-105562425D01*
X122293783Y-105617002D01*
X122300977Y-105686500D01*
X122269454Y-105748855D01*
X122250158Y-105765575D01*
X122064597Y-105895505D01*
X121897505Y-106062597D01*
X121761965Y-106256169D01*
X121761964Y-106256171D01*
X121662098Y-106470335D01*
X121662094Y-106470344D01*
X121600938Y-106698586D01*
X121600936Y-106698596D01*
X121580341Y-106933999D01*
X121580341Y-106934000D01*
X121600936Y-107169403D01*
X121600938Y-107169413D01*
X121662094Y-107397655D01*
X121662096Y-107397659D01*
X121662097Y-107397663D01*
X121710051Y-107500500D01*
X121761965Y-107611830D01*
X121761967Y-107611834D01*
X121897501Y-107805395D01*
X121897506Y-107805402D01*
X122064597Y-107972493D01*
X122064603Y-107972498D01*
X122250158Y-108102425D01*
X122293783Y-108157002D01*
X122300977Y-108226500D01*
X122269454Y-108288855D01*
X122250158Y-108305575D01*
X122064597Y-108435505D01*
X121897505Y-108602597D01*
X121761965Y-108796169D01*
X121761964Y-108796171D01*
X121662098Y-109010335D01*
X121662094Y-109010344D01*
X121600938Y-109238586D01*
X121600936Y-109238596D01*
X121580341Y-109473999D01*
X121580341Y-109474000D01*
X121600936Y-109709403D01*
X121600938Y-109709413D01*
X121662094Y-109937655D01*
X121662096Y-109937659D01*
X121662097Y-109937663D01*
X121759267Y-110146045D01*
X121761965Y-110151830D01*
X121761967Y-110151834D01*
X121897501Y-110345395D01*
X121897506Y-110345402D01*
X122064597Y-110512493D01*
X122064603Y-110512498D01*
X122250158Y-110642425D01*
X122293783Y-110697002D01*
X122300977Y-110766500D01*
X122269454Y-110828855D01*
X122250158Y-110845575D01*
X122064597Y-110975505D01*
X121897505Y-111142597D01*
X121761965Y-111336169D01*
X121761964Y-111336171D01*
X121662098Y-111550335D01*
X121662094Y-111550344D01*
X121600938Y-111778586D01*
X121600936Y-111778596D01*
X121580341Y-112013999D01*
X121580341Y-112014000D01*
X121600936Y-112249403D01*
X121600938Y-112249413D01*
X121662094Y-112477655D01*
X121662096Y-112477659D01*
X121662097Y-112477663D01*
X121714945Y-112590996D01*
X121761965Y-112691830D01*
X121761967Y-112691834D01*
X121849309Y-112816570D01*
X121897501Y-112885396D01*
X121897506Y-112885402D01*
X122064597Y-113052493D01*
X122064603Y-113052498D01*
X122250158Y-113182425D01*
X122293783Y-113237002D01*
X122300977Y-113306500D01*
X122269454Y-113368855D01*
X122250158Y-113385575D01*
X122064597Y-113515505D01*
X121897505Y-113682597D01*
X121761965Y-113876169D01*
X121761964Y-113876171D01*
X121662098Y-114090335D01*
X121662094Y-114090344D01*
X121600938Y-114318586D01*
X121600936Y-114318596D01*
X121580341Y-114553999D01*
X121580341Y-114554000D01*
X121600936Y-114789403D01*
X121600938Y-114789413D01*
X121662094Y-115017655D01*
X121662096Y-115017659D01*
X121662097Y-115017663D01*
X121759267Y-115226045D01*
X121761965Y-115231830D01*
X121761967Y-115231834D01*
X121897501Y-115425395D01*
X121897506Y-115425402D01*
X122064597Y-115592493D01*
X122064603Y-115592498D01*
X122250594Y-115722730D01*
X122294219Y-115777307D01*
X122301413Y-115846805D01*
X122269890Y-115909160D01*
X122250595Y-115925880D01*
X122064922Y-116055890D01*
X122064920Y-116055891D01*
X121897891Y-116222920D01*
X121897886Y-116222926D01*
X121762400Y-116416420D01*
X121762399Y-116416422D01*
X121662570Y-116630507D01*
X121662567Y-116630513D01*
X121605364Y-116843999D01*
X121605364Y-116844000D01*
X122502988Y-116844000D01*
X122470075Y-116901007D01*
X122436000Y-117028174D01*
X122436000Y-117159826D01*
X122470075Y-117286993D01*
X122502988Y-117344000D01*
X121605364Y-117344000D01*
X121662567Y-117557486D01*
X121662570Y-117557492D01*
X121762399Y-117771578D01*
X121897894Y-117965082D01*
X122019946Y-118087134D01*
X122053431Y-118148457D01*
X122048447Y-118218149D01*
X122006575Y-118274082D01*
X121975598Y-118290997D01*
X121843671Y-118340202D01*
X121843664Y-118340206D01*
X121728455Y-118426452D01*
X121728452Y-118426455D01*
X121642206Y-118541664D01*
X121642202Y-118541671D01*
X121591908Y-118676517D01*
X121585501Y-118736116D01*
X121585501Y-118736123D01*
X121585500Y-118736135D01*
X121585500Y-120531870D01*
X121585501Y-120531876D01*
X121591908Y-120591483D01*
X121642202Y-120726328D01*
X121642206Y-120726335D01*
X121728452Y-120841544D01*
X121728455Y-120841547D01*
X121843664Y-120927793D01*
X121843671Y-120927797D01*
X121978517Y-120978091D01*
X121978516Y-120978091D01*
X121985444Y-120978835D01*
X122038127Y-120984500D01*
X123833872Y-120984499D01*
X123893483Y-120978091D01*
X124028331Y-120927796D01*
X124143546Y-120841546D01*
X124229796Y-120726331D01*
X124280091Y-120591483D01*
X124286500Y-120531873D01*
X124286500Y-120458500D01*
X124306185Y-120391461D01*
X124358989Y-120345706D01*
X124410500Y-120334500D01*
X143168481Y-120334500D01*
X143235520Y-120354185D01*
X143256162Y-120370819D01*
X143825453Y-120940111D01*
X143825454Y-120940112D01*
X143940192Y-121016777D01*
X144058609Y-121065826D01*
X144067672Y-121069580D01*
X144067676Y-121069580D01*
X144067677Y-121069581D01*
X144203003Y-121096500D01*
X144203006Y-121096500D01*
X144203007Y-121096500D01*
X146097289Y-121096500D01*
X146164328Y-121116185D01*
X146198864Y-121149377D01*
X146281505Y-121267402D01*
X146367586Y-121353482D01*
X146448599Y-121434495D01*
X146526035Y-121488716D01*
X146642165Y-121570032D01*
X146642167Y-121570033D01*
X146642170Y-121570035D01*
X146856337Y-121669903D01*
X147084592Y-121731063D01*
X147261034Y-121746500D01*
X147319999Y-121751659D01*
X147320000Y-121751659D01*
X147320001Y-121751659D01*
X147378966Y-121746500D01*
X147555408Y-121731063D01*
X147783663Y-121669903D01*
X147997830Y-121570035D01*
X148191401Y-121434495D01*
X148313329Y-121312566D01*
X148374648Y-121279084D01*
X148444340Y-121284068D01*
X148500274Y-121325939D01*
X148517189Y-121356917D01*
X148566202Y-121488328D01*
X148566206Y-121488335D01*
X148652452Y-121603544D01*
X148652455Y-121603547D01*
X148767664Y-121689793D01*
X148767671Y-121689797D01*
X148902517Y-121740091D01*
X148902516Y-121740091D01*
X148909444Y-121740835D01*
X148962127Y-121746500D01*
X150757872Y-121746499D01*
X150817483Y-121740091D01*
X150952331Y-121689796D01*
X151067546Y-121603546D01*
X151153796Y-121488331D01*
X151204091Y-121353483D01*
X151210500Y-121293873D01*
X151210500Y-120750000D01*
X153773460Y-120750000D01*
X154824488Y-120750000D01*
X154791575Y-120807007D01*
X154757500Y-120934174D01*
X154757500Y-121065826D01*
X154791575Y-121192993D01*
X154824488Y-121250000D01*
X153773460Y-121250000D01*
X153833911Y-121488716D01*
X153933767Y-121716367D01*
X154069732Y-121924478D01*
X154238092Y-122107364D01*
X154238102Y-122107373D01*
X154434262Y-122260051D01*
X154434271Y-122260057D01*
X154652885Y-122378364D01*
X154652896Y-122378369D01*
X154888007Y-122459083D01*
X155007499Y-122479023D01*
X155007500Y-122479022D01*
X155007500Y-121433012D01*
X155064507Y-121465925D01*
X155191674Y-121500000D01*
X155323326Y-121500000D01*
X155450493Y-121465925D01*
X155507500Y-121433012D01*
X155507500Y-122479023D01*
X155626992Y-122459083D01*
X155862103Y-122378369D01*
X155862114Y-122378364D01*
X156080728Y-122260057D01*
X156080737Y-122260051D01*
X156276897Y-122107373D01*
X156276907Y-122107364D01*
X156445267Y-121924478D01*
X156581232Y-121716367D01*
X156681088Y-121488716D01*
X156741540Y-121250000D01*
X155690512Y-121250000D01*
X155723425Y-121192993D01*
X155757500Y-121065826D01*
X155757500Y-120934174D01*
X155742638Y-120878711D01*
X159649500Y-120878711D01*
X159649500Y-121121288D01*
X159680520Y-121356917D01*
X159681162Y-121361789D01*
X159709065Y-121465925D01*
X159743947Y-121596104D01*
X159808380Y-121751659D01*
X159836776Y-121820212D01*
X159958064Y-122030289D01*
X159958066Y-122030292D01*
X159958067Y-122030293D01*
X160105733Y-122222736D01*
X160105739Y-122222743D01*
X160277256Y-122394260D01*
X160277262Y-122394265D01*
X160469711Y-122541936D01*
X160679788Y-122663224D01*
X160903900Y-122756054D01*
X161138211Y-122818838D01*
X161318586Y-122842584D01*
X161378711Y-122850500D01*
X161378712Y-122850500D01*
X161621289Y-122850500D01*
X161669388Y-122844167D01*
X161861789Y-122818838D01*
X162096100Y-122756054D01*
X162320212Y-122663224D01*
X162530289Y-122541936D01*
X162722738Y-122394265D01*
X162894265Y-122222738D01*
X163041936Y-122030289D01*
X163163224Y-121820212D01*
X163256054Y-121596100D01*
X163318838Y-121361789D01*
X163350500Y-121121288D01*
X163350500Y-120878712D01*
X163318838Y-120638211D01*
X163256054Y-120403900D01*
X163163224Y-120179788D01*
X163041936Y-119969711D01*
X162894265Y-119777262D01*
X162894260Y-119777256D01*
X162722743Y-119605739D01*
X162722736Y-119605733D01*
X162530293Y-119458067D01*
X162530292Y-119458066D01*
X162530289Y-119458064D01*
X162320212Y-119336776D01*
X162320205Y-119336773D01*
X162096104Y-119243947D01*
X161978944Y-119212554D01*
X161861789Y-119181162D01*
X161861788Y-119181161D01*
X161861785Y-119181161D01*
X161621289Y-119149500D01*
X161621288Y-119149500D01*
X161378712Y-119149500D01*
X161378711Y-119149500D01*
X161138214Y-119181161D01*
X160903895Y-119243947D01*
X160679794Y-119336773D01*
X160679785Y-119336777D01*
X160469706Y-119458067D01*
X160277263Y-119605733D01*
X160277256Y-119605739D01*
X160105739Y-119777256D01*
X160105733Y-119777263D01*
X159958067Y-119969706D01*
X159836777Y-120179785D01*
X159836773Y-120179794D01*
X159743947Y-120403895D01*
X159681161Y-120638214D01*
X159649500Y-120878711D01*
X155742638Y-120878711D01*
X155723425Y-120807007D01*
X155690512Y-120750000D01*
X156741540Y-120750000D01*
X156681088Y-120511283D01*
X156581232Y-120283632D01*
X156445267Y-120075521D01*
X156276907Y-119892635D01*
X156276897Y-119892626D01*
X156080737Y-119739948D01*
X156080728Y-119739942D01*
X155862114Y-119621635D01*
X155862103Y-119621630D01*
X155626992Y-119540916D01*
X155507500Y-119520976D01*
X155507500Y-120566988D01*
X155450493Y-120534075D01*
X155323326Y-120500000D01*
X155191674Y-120500000D01*
X155064507Y-120534075D01*
X155007500Y-120566988D01*
X155007500Y-119520976D01*
X155007499Y-119520976D01*
X154888007Y-119540916D01*
X154652896Y-119621630D01*
X154652885Y-119621635D01*
X154434271Y-119739942D01*
X154434262Y-119739948D01*
X154238102Y-119892626D01*
X154238092Y-119892635D01*
X154069732Y-120075521D01*
X153933767Y-120283632D01*
X153833911Y-120511283D01*
X153773460Y-120750000D01*
X151210500Y-120750000D01*
X151210499Y-119498128D01*
X151204091Y-119438517D01*
X151202810Y-119435083D01*
X151153797Y-119303671D01*
X151153793Y-119303664D01*
X151067547Y-119188455D01*
X151067544Y-119188452D01*
X150952335Y-119102206D01*
X150952328Y-119102202D01*
X150817482Y-119051908D01*
X150817483Y-119051908D01*
X150757883Y-119045501D01*
X150757881Y-119045500D01*
X150757873Y-119045500D01*
X150757865Y-119045500D01*
X150684500Y-119045500D01*
X150617461Y-119025815D01*
X150571706Y-118973011D01*
X150560500Y-118921500D01*
X150560500Y-118481519D01*
X150580185Y-118414480D01*
X150596819Y-118393838D01*
X160544112Y-108446545D01*
X160544114Y-108446543D01*
X160620775Y-108331811D01*
X160673580Y-108204328D01*
X160700500Y-108068993D01*
X160700500Y-107931006D01*
X160700500Y-92431007D01*
X160700500Y-92431004D01*
X160676529Y-92310500D01*
X160676529Y-92310499D01*
X160673580Y-92295672D01*
X160620775Y-92168189D01*
X160544114Y-92053457D01*
X160544112Y-92053454D01*
X157036818Y-88546160D01*
X157003333Y-88484837D01*
X157000499Y-88458479D01*
X157000499Y-86952129D01*
X157000498Y-86952123D01*
X156999898Y-86946545D01*
X156994091Y-86892517D01*
X156974876Y-86841000D01*
X156943797Y-86757671D01*
X156943793Y-86757664D01*
X156857547Y-86642455D01*
X156857544Y-86642452D01*
X156742335Y-86556206D01*
X156742328Y-86556202D01*
X156607482Y-86505908D01*
X156607483Y-86505908D01*
X156547883Y-86499501D01*
X156547881Y-86499500D01*
X156547873Y-86499500D01*
X156547865Y-86499500D01*
X155041519Y-86499500D01*
X154974480Y-86479815D01*
X154953838Y-86463181D01*
X154736819Y-86246162D01*
X154703334Y-86184839D01*
X154700500Y-86158481D01*
X154700500Y-83874006D01*
X154720185Y-83806967D01*
X154768204Y-83763522D01*
X154809038Y-83742717D01*
X154994066Y-83608286D01*
X155155786Y-83446566D01*
X155290217Y-83261538D01*
X155394048Y-83057758D01*
X155444766Y-82901664D01*
X155464721Y-82840249D01*
X155464721Y-82840248D01*
X155464722Y-82840245D01*
X155500500Y-82614354D01*
X155500500Y-82385646D01*
X155464722Y-82159755D01*
X155464721Y-82159751D01*
X155464721Y-82159750D01*
X155394049Y-81942244D01*
X155394048Y-81942242D01*
X155290217Y-81738462D01*
X155155786Y-81553434D01*
X154994066Y-81391714D01*
X154909134Y-81330007D01*
X154866470Y-81274678D01*
X154860491Y-81205064D01*
X154893097Y-81143269D01*
X154909137Y-81129371D01*
X154993739Y-81067905D01*
X155155402Y-80906242D01*
X155289788Y-80721276D01*
X155393582Y-80517570D01*
X155464234Y-80300128D01*
X155478509Y-80210000D01*
X154490748Y-80210000D01*
X154512518Y-80172292D01*
X154550000Y-80032409D01*
X154550000Y-79887591D01*
X154512518Y-79747708D01*
X154490748Y-79710000D01*
X155478509Y-79710000D01*
X155464234Y-79619871D01*
X155393582Y-79402429D01*
X155289788Y-79198723D01*
X155156988Y-79015940D01*
X155133508Y-78950133D01*
X155149333Y-78882079D01*
X155199439Y-78833384D01*
X155213966Y-78826875D01*
X155242331Y-78816296D01*
X155357546Y-78730046D01*
X155443796Y-78614831D01*
X155494091Y-78479983D01*
X155500500Y-78420373D01*
X155500499Y-76419628D01*
X155494091Y-76360017D01*
X155447835Y-76235999D01*
X155443797Y-76225171D01*
X155443793Y-76225164D01*
X155357547Y-76109955D01*
X155357544Y-76109952D01*
X155242335Y-76023706D01*
X155242328Y-76023702D01*
X155107482Y-75973408D01*
X155107483Y-75973408D01*
X155047883Y-75967001D01*
X155047881Y-75967000D01*
X155047873Y-75967000D01*
X155047864Y-75967000D01*
X152952129Y-75967000D01*
X152952123Y-75967001D01*
X152892516Y-75973408D01*
X152757671Y-76023702D01*
X152757664Y-76023706D01*
X152642455Y-76109952D01*
X152642452Y-76109955D01*
X152556206Y-76225164D01*
X152556202Y-76225171D01*
X152505908Y-76360017D01*
X152500258Y-76412578D01*
X152499501Y-76419623D01*
X152499500Y-76419635D01*
X152499500Y-76958480D01*
X152479815Y-77025519D01*
X152463181Y-77046161D01*
X150955888Y-78553453D01*
X150955887Y-78553454D01*
X150879222Y-78668192D01*
X150826421Y-78795667D01*
X150826420Y-78795671D01*
X150826420Y-78795672D01*
X150811039Y-78872999D01*
X150811039Y-78873000D01*
X150799500Y-78931005D01*
X150799500Y-87206131D01*
X150779815Y-87273170D01*
X150763181Y-87293812D01*
X148483811Y-89573181D01*
X148422488Y-89606666D01*
X148396130Y-89609500D01*
X147189780Y-89609500D01*
X147189774Y-89609501D01*
X147130167Y-89615908D01*
X146995322Y-89666202D01*
X146995315Y-89666206D01*
X146880106Y-89752452D01*
X146880103Y-89752455D01*
X146793857Y-89867664D01*
X146793853Y-89867671D01*
X146743559Y-90002517D01*
X146737152Y-90062116D01*
X146737151Y-90062135D01*
X146737151Y-91857870D01*
X146737152Y-91857876D01*
X146743559Y-91917483D01*
X146793853Y-92052328D01*
X146793857Y-92052335D01*
X146880103Y-92167544D01*
X146880106Y-92167547D01*
X146995315Y-92253793D01*
X146995322Y-92253797D01*
X147027719Y-92265880D01*
X147127249Y-92303002D01*
X147183182Y-92344873D01*
X147207600Y-92410337D01*
X147192749Y-92478610D01*
X147171598Y-92506865D01*
X147049537Y-92628926D01*
X146914051Y-92822420D01*
X146914050Y-92822422D01*
X146814221Y-93036507D01*
X146814218Y-93036513D01*
X146757015Y-93249999D01*
X146757015Y-93250000D01*
X147654639Y-93250000D01*
X147621726Y-93307007D01*
X147587651Y-93434174D01*
X147587651Y-93565826D01*
X147621726Y-93692993D01*
X147654639Y-93750000D01*
X146757015Y-93750000D01*
X146814218Y-93963486D01*
X146814221Y-93963492D01*
X146914050Y-94177578D01*
X147049545Y-94371082D01*
X147216568Y-94538105D01*
X147410072Y-94673600D01*
X147624158Y-94773429D01*
X147624167Y-94773433D01*
X147837651Y-94830634D01*
X147837651Y-93933012D01*
X147894658Y-93965925D01*
X148021825Y-94000000D01*
X148153477Y-94000000D01*
X148280644Y-93965925D01*
X148337651Y-93933012D01*
X148337651Y-94830633D01*
X148551134Y-94773433D01*
X148551143Y-94773429D01*
X148765229Y-94673600D01*
X148958733Y-94538105D01*
X149125756Y-94371082D01*
X149261251Y-94177578D01*
X149361080Y-93963492D01*
X149361083Y-93963486D01*
X149418287Y-93750000D01*
X148520663Y-93750000D01*
X148553576Y-93692993D01*
X148587651Y-93565826D01*
X148587651Y-93434174D01*
X148553576Y-93307007D01*
X148520663Y-93250000D01*
X149335632Y-93250000D01*
X149402671Y-93269685D01*
X149423313Y-93286319D01*
X151763181Y-95626187D01*
X151796666Y-95687510D01*
X151799500Y-95713868D01*
X151799500Y-103173506D01*
X151799500Y-103311494D01*
X151799500Y-103311496D01*
X151799499Y-103311496D01*
X151826418Y-103446822D01*
X151826421Y-103446832D01*
X151879222Y-103574307D01*
X151955887Y-103689045D01*
X151955888Y-103689046D01*
X153720681Y-105453838D01*
X153754166Y-105515161D01*
X153757000Y-105541519D01*
X153757000Y-107047870D01*
X153757001Y-107047876D01*
X153763408Y-107107483D01*
X153813702Y-107242328D01*
X153813706Y-107242335D01*
X153899952Y-107357544D01*
X153899955Y-107357547D01*
X154015164Y-107443793D01*
X154015171Y-107443797D01*
X154150017Y-107494091D01*
X154150016Y-107494091D01*
X154156944Y-107494835D01*
X154209627Y-107500500D01*
X156305372Y-107500499D01*
X156364983Y-107494091D01*
X156499831Y-107443796D01*
X156615046Y-107357546D01*
X156701296Y-107242331D01*
X156751591Y-107107483D01*
X156758000Y-107047873D01*
X156757999Y-104952128D01*
X156751591Y-104892517D01*
X156738591Y-104857663D01*
X156701297Y-104757671D01*
X156701293Y-104757664D01*
X156615047Y-104642455D01*
X156615044Y-104642452D01*
X156499835Y-104556206D01*
X156499828Y-104556202D01*
X156364982Y-104505908D01*
X156364984Y-104505908D01*
X156347501Y-104504029D01*
X156282950Y-104477290D01*
X156243103Y-104419897D01*
X156240610Y-104350072D01*
X156276264Y-104289984D01*
X156301743Y-104271684D01*
X156323228Y-104260057D01*
X156323237Y-104260051D01*
X156519397Y-104107373D01*
X156519407Y-104107364D01*
X156687767Y-103924478D01*
X156823732Y-103716367D01*
X156923588Y-103488716D01*
X156984040Y-103250000D01*
X155933012Y-103250000D01*
X155965925Y-103192993D01*
X156000000Y-103065826D01*
X156000000Y-102934174D01*
X155965925Y-102807007D01*
X155933012Y-102750000D01*
X156984040Y-102750000D01*
X156923588Y-102511283D01*
X156823732Y-102283632D01*
X156687767Y-102075521D01*
X156519407Y-101892635D01*
X156519397Y-101892626D01*
X156323237Y-101739948D01*
X156323228Y-101739942D01*
X156104614Y-101621635D01*
X156104603Y-101621630D01*
X155869492Y-101540916D01*
X155750000Y-101520976D01*
X155750000Y-102566988D01*
X155692993Y-102534075D01*
X155565826Y-102500000D01*
X155434174Y-102500000D01*
X155307007Y-102534075D01*
X155250000Y-102566988D01*
X155250000Y-101520976D01*
X155249999Y-101520976D01*
X155130507Y-101540916D01*
X154895396Y-101621630D01*
X154895385Y-101621635D01*
X154676771Y-101739942D01*
X154676762Y-101739948D01*
X154480602Y-101892626D01*
X154480592Y-101892635D01*
X154312232Y-102075521D01*
X154176267Y-102283632D01*
X154076411Y-102511283D01*
X154015960Y-102750000D01*
X155066988Y-102750000D01*
X155034075Y-102807007D01*
X155000000Y-102934174D01*
X155000000Y-103065826D01*
X155034075Y-103192993D01*
X155066988Y-103250000D01*
X154015960Y-103250000D01*
X154076411Y-103488716D01*
X154076414Y-103488725D01*
X154077046Y-103490165D01*
X154077127Y-103490802D01*
X154078075Y-103493561D01*
X154077507Y-103493755D01*
X154085946Y-103559465D01*
X154055966Y-103622576D01*
X153996624Y-103659459D01*
X153926763Y-103658406D01*
X153875807Y-103627650D01*
X153236819Y-102988662D01*
X153203334Y-102927339D01*
X153200500Y-102900981D01*
X153200500Y-95303353D01*
X153173581Y-95168026D01*
X153173580Y-95168025D01*
X153173580Y-95168021D01*
X153158966Y-95132739D01*
X153120776Y-95040540D01*
X153118123Y-95036570D01*
X153096142Y-95003672D01*
X153096142Y-95003671D01*
X153096140Y-95003670D01*
X153044114Y-94925806D01*
X153044111Y-94925802D01*
X149474469Y-91356160D01*
X149440984Y-91294837D01*
X149438150Y-91268479D01*
X149438150Y-90651519D01*
X149457835Y-90584480D01*
X149474469Y-90563838D01*
X150748144Y-89290164D01*
X152044114Y-87994194D01*
X152120775Y-87879462D01*
X152173580Y-87751980D01*
X152184828Y-87695432D01*
X152194096Y-87648839D01*
X152200500Y-87616646D01*
X152200500Y-79341518D01*
X152220185Y-79274479D01*
X152236819Y-79253837D01*
X152432818Y-79057838D01*
X152640643Y-78850012D01*
X152701964Y-78816529D01*
X152771650Y-78821511D01*
X152781032Y-78825009D01*
X152786020Y-78826870D01*
X152841956Y-78868739D01*
X152866376Y-78934202D01*
X152851527Y-79002476D01*
X152843010Y-79015939D01*
X152710213Y-79198719D01*
X152606417Y-79402429D01*
X152535765Y-79619871D01*
X152521491Y-79710000D01*
X153509252Y-79710000D01*
X153487482Y-79747708D01*
X153450000Y-79887591D01*
X153450000Y-80032409D01*
X153487482Y-80172292D01*
X153509252Y-80210000D01*
X152521491Y-80210000D01*
X152535765Y-80300128D01*
X152606417Y-80517570D01*
X152710211Y-80721276D01*
X152844597Y-80906242D01*
X153006257Y-81067902D01*
X153006263Y-81067907D01*
X153090863Y-81129372D01*
X153133529Y-81184701D01*
X153139508Y-81254315D01*
X153106903Y-81316110D01*
X153090864Y-81330007D01*
X153005940Y-81391709D01*
X153005931Y-81391716D01*
X152844216Y-81553431D01*
X152844216Y-81553432D01*
X152844214Y-81553434D01*
X152799310Y-81615239D01*
X152709783Y-81738461D01*
X152605950Y-81942244D01*
X152535278Y-82159750D01*
X152535278Y-82159753D01*
X152535278Y-82159755D01*
X152499500Y-82385646D01*
X152499500Y-82614354D01*
X152502340Y-82632287D01*
X152535278Y-82840246D01*
X152535278Y-82840249D01*
X152605950Y-83057755D01*
X152625496Y-83096116D01*
X152709783Y-83261538D01*
X152844214Y-83446566D01*
X153005934Y-83608286D01*
X153190962Y-83742717D01*
X153231795Y-83763522D01*
X153282590Y-83811494D01*
X153299500Y-83874006D01*
X153299500Y-86431006D01*
X153299500Y-86568994D01*
X153299500Y-86568996D01*
X153299499Y-86568996D01*
X153326418Y-86704322D01*
X153326421Y-86704332D01*
X153379222Y-86831807D01*
X153455887Y-86946545D01*
X153455888Y-86946546D01*
X153963181Y-87453837D01*
X153996666Y-87515160D01*
X153999500Y-87541518D01*
X153999500Y-89047870D01*
X153999501Y-89047876D01*
X154005908Y-89107483D01*
X154056202Y-89242328D01*
X154056206Y-89242335D01*
X154142452Y-89357544D01*
X154142455Y-89357547D01*
X154257664Y-89443793D01*
X154257671Y-89443797D01*
X154392517Y-89494091D01*
X154392516Y-89494091D01*
X154399444Y-89494835D01*
X154452127Y-89500500D01*
X155958480Y-89500499D01*
X156025519Y-89520184D01*
X156046161Y-89536818D01*
X159263181Y-92753838D01*
X159296666Y-92815161D01*
X159299500Y-92841519D01*
X159299500Y-107658481D01*
X159279815Y-107725520D01*
X159263181Y-107746162D01*
X149315887Y-117693455D01*
X149315883Y-117693459D01*
X149301644Y-117714772D01*
X149301643Y-117714774D01*
X149239228Y-117808183D01*
X149239221Y-117808195D01*
X149186421Y-117935667D01*
X149186418Y-117935677D01*
X149159500Y-118071004D01*
X149159500Y-118921500D01*
X149139815Y-118988539D01*
X149087011Y-119034294D01*
X149035502Y-119045500D01*
X148962130Y-119045500D01*
X148962123Y-119045501D01*
X148902516Y-119051908D01*
X148767671Y-119102202D01*
X148767664Y-119102206D01*
X148652455Y-119188452D01*
X148652452Y-119188455D01*
X148566206Y-119303664D01*
X148566203Y-119303669D01*
X148517189Y-119435083D01*
X148475317Y-119491016D01*
X148409853Y-119515433D01*
X148341580Y-119500581D01*
X148313326Y-119479430D01*
X148191402Y-119357506D01*
X148191395Y-119357501D01*
X147997834Y-119221967D01*
X147997830Y-119221965D01*
X147997828Y-119221964D01*
X147783663Y-119122097D01*
X147783659Y-119122096D01*
X147783655Y-119122094D01*
X147555413Y-119060938D01*
X147555403Y-119060936D01*
X147320001Y-119040341D01*
X147319999Y-119040341D01*
X147084596Y-119060936D01*
X147084586Y-119060938D01*
X146856344Y-119122094D01*
X146856335Y-119122098D01*
X146642171Y-119221964D01*
X146642169Y-119221965D01*
X146448597Y-119357505D01*
X146281506Y-119524596D01*
X146198864Y-119642623D01*
X146144287Y-119686248D01*
X146097289Y-119695500D01*
X144738519Y-119695500D01*
X144671480Y-119675815D01*
X144625725Y-119623011D01*
X144615781Y-119553853D01*
X144644806Y-119490297D01*
X144650838Y-119483819D01*
X151166112Y-112968545D01*
X151166114Y-112968543D01*
X151242775Y-112853811D01*
X151295580Y-112726328D01*
X151322500Y-112590994D01*
X151322500Y-112453006D01*
X151322500Y-111431007D01*
X151322500Y-100261007D01*
X151322500Y-100261004D01*
X151295581Y-100125677D01*
X151295580Y-100125676D01*
X151295580Y-100125672D01*
X151282704Y-100094586D01*
X151242778Y-99998195D01*
X151242771Y-99998182D01*
X151166115Y-99883459D01*
X151119843Y-99837187D01*
X151068542Y-99785886D01*
X150268654Y-98985998D01*
X149444651Y-98161994D01*
X149411166Y-98100671D01*
X149412558Y-98042217D01*
X149417063Y-98025408D01*
X149437659Y-97790000D01*
X149436977Y-97782210D01*
X149418986Y-97576570D01*
X149417063Y-97554592D01*
X149355903Y-97326337D01*
X149256035Y-97112171D01*
X149246627Y-97098734D01*
X149120494Y-96918597D01*
X148953402Y-96751506D01*
X148953395Y-96751501D01*
X148759834Y-96615967D01*
X148759830Y-96615965D01*
X148545663Y-96516097D01*
X148545659Y-96516096D01*
X148545655Y-96516094D01*
X148317413Y-96454938D01*
X148317403Y-96454936D01*
X148082001Y-96434341D01*
X148081999Y-96434341D01*
X147846597Y-96454936D01*
X147846593Y-96454936D01*
X147846592Y-96454937D01*
X147846587Y-96454938D01*
X147846584Y-96454939D01*
X147829778Y-96459442D01*
X147759928Y-96457778D01*
X147710005Y-96427348D01*
X146236819Y-94954162D01*
X146203334Y-94892839D01*
X146200500Y-94866481D01*
X146200500Y-88136006D01*
X146193047Y-88098542D01*
X146193047Y-88098539D01*
X146173581Y-88000679D01*
X146173580Y-88000672D01*
X146167858Y-87986858D01*
X146120777Y-87873192D01*
X146044112Y-87758454D01*
X146044111Y-87758453D01*
X144902027Y-86616370D01*
X144868542Y-86555047D01*
X144866180Y-86517881D01*
X144866633Y-86512697D01*
X144866635Y-86512692D01*
X144886468Y-86286000D01*
X144886292Y-86283993D01*
X144877792Y-86186831D01*
X144866635Y-86059308D01*
X144807739Y-85839504D01*
X144711568Y-85633266D01*
X144581047Y-85446861D01*
X144581045Y-85446858D01*
X144420141Y-85285954D01*
X144233734Y-85155432D01*
X144233728Y-85155429D01*
X144175725Y-85128382D01*
X144123285Y-85082210D01*
X144104133Y-85015017D01*
X144124348Y-84948135D01*
X144175725Y-84903618D01*
X144233734Y-84876568D01*
X144420139Y-84746047D01*
X144581047Y-84585139D01*
X144711568Y-84398734D01*
X144807739Y-84192496D01*
X144866635Y-83972692D01*
X144886468Y-83746000D01*
X144886180Y-83742713D01*
X144876710Y-83634462D01*
X144866635Y-83519308D01*
X144807739Y-83299504D01*
X144711568Y-83093266D01*
X144581047Y-82906861D01*
X144581045Y-82906858D01*
X144420141Y-82745954D01*
X144233734Y-82615432D01*
X144233728Y-82615429D01*
X144175725Y-82588382D01*
X144123285Y-82542210D01*
X144104133Y-82475017D01*
X144124348Y-82408135D01*
X144175725Y-82363618D01*
X144233734Y-82336568D01*
X144420139Y-82206047D01*
X144581047Y-82045139D01*
X144711568Y-81858734D01*
X144807739Y-81652496D01*
X144866635Y-81432692D01*
X144886468Y-81206000D01*
X144866635Y-80979308D01*
X144807739Y-80759504D01*
X144711568Y-80553266D01*
X144581047Y-80366861D01*
X144581045Y-80366858D01*
X144420141Y-80205954D01*
X144233734Y-80075432D01*
X144233728Y-80075429D01*
X144175725Y-80048382D01*
X144123285Y-80002210D01*
X144104133Y-79935017D01*
X144124348Y-79868135D01*
X144175725Y-79823618D01*
X144233734Y-79796568D01*
X144420139Y-79666047D01*
X144581047Y-79505139D01*
X144711568Y-79318734D01*
X144807739Y-79112496D01*
X144866635Y-78892692D01*
X144886468Y-78666000D01*
X144886467Y-78665995D01*
X144886531Y-78665271D01*
X144911983Y-78600202D01*
X144968574Y-78559223D01*
X145038336Y-78555345D01*
X145097740Y-78588397D01*
X145567181Y-79057838D01*
X145600666Y-79119161D01*
X145603500Y-79145519D01*
X145603500Y-80227006D01*
X145603500Y-80364994D01*
X145603500Y-80364996D01*
X145603499Y-80364996D01*
X145630418Y-80500322D01*
X145630421Y-80500332D01*
X145683222Y-80627807D01*
X145759887Y-80742545D01*
X145759888Y-80742546D01*
X147332962Y-82315618D01*
X147366447Y-82376941D01*
X147369281Y-82403299D01*
X147369281Y-82519493D01*
X147349596Y-82586532D01*
X147296792Y-82632287D01*
X147245283Y-82643493D01*
X147171911Y-82643493D01*
X147171904Y-82643494D01*
X147112297Y-82649901D01*
X146977452Y-82700195D01*
X146977445Y-82700199D01*
X146862236Y-82786445D01*
X146862233Y-82786448D01*
X146775987Y-82901657D01*
X146775983Y-82901664D01*
X146725689Y-83036510D01*
X146719588Y-83093265D01*
X146719282Y-83096116D01*
X146719281Y-83096128D01*
X146719281Y-84891863D01*
X146719282Y-84891869D01*
X146725689Y-84951476D01*
X146775983Y-85086321D01*
X146775987Y-85086328D01*
X146862233Y-85201537D01*
X146862236Y-85201540D01*
X146977445Y-85287786D01*
X146977452Y-85287790D01*
X146977455Y-85287791D01*
X147109379Y-85336995D01*
X147165312Y-85378866D01*
X147189730Y-85444330D01*
X147174879Y-85512603D01*
X147153728Y-85540858D01*
X147031667Y-85662919D01*
X146896181Y-85856413D01*
X146896180Y-85856415D01*
X146796351Y-86070500D01*
X146796348Y-86070506D01*
X146739145Y-86283992D01*
X146739145Y-86283993D01*
X147636769Y-86283993D01*
X147603856Y-86341000D01*
X147569781Y-86468167D01*
X147569781Y-86599819D01*
X147603856Y-86726986D01*
X147636769Y-86783993D01*
X146739145Y-86783993D01*
X146796348Y-86997479D01*
X146796351Y-86997485D01*
X146896180Y-87211571D01*
X147031675Y-87405075D01*
X147198698Y-87572098D01*
X147392202Y-87707593D01*
X147606288Y-87807422D01*
X147606297Y-87807426D01*
X147819781Y-87864627D01*
X147819781Y-86967005D01*
X147876788Y-86999918D01*
X148003955Y-87033993D01*
X148135607Y-87033993D01*
X148262774Y-86999918D01*
X148319781Y-86967005D01*
X148319781Y-87864626D01*
X148533264Y-87807426D01*
X148533273Y-87807422D01*
X148747359Y-87707593D01*
X148940863Y-87572098D01*
X149107886Y-87405075D01*
X149243381Y-87211571D01*
X149343210Y-86997485D01*
X149343213Y-86997479D01*
X149400417Y-86783993D01*
X148502793Y-86783993D01*
X148535706Y-86726986D01*
X148569781Y-86599819D01*
X148569781Y-86468167D01*
X148535706Y-86341000D01*
X148502793Y-86283993D01*
X149400417Y-86283993D01*
X149400416Y-86283992D01*
X149343213Y-86070506D01*
X149343210Y-86070500D01*
X149243381Y-85856415D01*
X149243380Y-85856413D01*
X149107894Y-85662919D01*
X149107889Y-85662913D01*
X148985834Y-85540858D01*
X148952349Y-85479535D01*
X148957333Y-85409843D01*
X148999205Y-85353910D01*
X149030181Y-85336995D01*
X149162112Y-85287789D01*
X149277327Y-85201539D01*
X149363577Y-85086324D01*
X149413872Y-84951476D01*
X149420281Y-84891866D01*
X149420280Y-83096121D01*
X149413872Y-83036510D01*
X149363577Y-82901662D01*
X149363576Y-82901661D01*
X149363574Y-82901657D01*
X149277328Y-82786448D01*
X149277325Y-82786445D01*
X149162116Y-82700199D01*
X149162109Y-82700195D01*
X149027263Y-82649901D01*
X149027264Y-82649901D01*
X148967664Y-82643494D01*
X148967662Y-82643493D01*
X148967654Y-82643493D01*
X148967646Y-82643493D01*
X148894281Y-82643493D01*
X148827242Y-82623808D01*
X148781487Y-82571004D01*
X148770281Y-82519493D01*
X148770281Y-81992785D01*
X148770280Y-81992783D01*
X148743362Y-81857459D01*
X148743361Y-81857455D01*
X148743361Y-81857453D01*
X148737698Y-81843782D01*
X148694073Y-81738462D01*
X148690556Y-81729970D01*
X148613895Y-81615239D01*
X148516323Y-81517667D01*
X147040819Y-80042162D01*
X147007334Y-79980839D01*
X147004500Y-79954481D01*
X147004500Y-79749499D01*
X147024185Y-79682460D01*
X147076989Y-79636705D01*
X147128495Y-79625499D01*
X148897872Y-79625499D01*
X148957483Y-79619091D01*
X149092331Y-79568796D01*
X149207546Y-79482546D01*
X149293796Y-79367331D01*
X149344091Y-79232483D01*
X149350500Y-79172873D01*
X149350499Y-77377128D01*
X149344091Y-77317517D01*
X149343244Y-77315247D01*
X149293797Y-77182671D01*
X149293793Y-77182664D01*
X149207547Y-77067455D01*
X149207544Y-77067452D01*
X149092335Y-76981206D01*
X149092328Y-76981202D01*
X148960401Y-76931997D01*
X148904467Y-76890126D01*
X148880050Y-76824662D01*
X148894902Y-76756389D01*
X148916053Y-76728133D01*
X149038108Y-76606078D01*
X149173600Y-76412578D01*
X149273429Y-76198492D01*
X149273432Y-76198486D01*
X149330636Y-75985000D01*
X148433012Y-75985000D01*
X148465925Y-75927993D01*
X148500000Y-75800826D01*
X148500000Y-75669174D01*
X148465925Y-75542007D01*
X148433012Y-75485000D01*
X149330636Y-75485000D01*
X149330635Y-75484999D01*
X149273432Y-75271513D01*
X149273429Y-75271507D01*
X149173600Y-75057422D01*
X149173599Y-75057420D01*
X149038113Y-74863926D01*
X149038108Y-74863920D01*
X148871082Y-74696894D01*
X148677578Y-74561399D01*
X148463492Y-74461570D01*
X148463486Y-74461567D01*
X148250000Y-74404364D01*
X148250000Y-75301988D01*
X148192993Y-75269075D01*
X148065826Y-75235000D01*
X147934174Y-75235000D01*
X147807007Y-75269075D01*
X147750000Y-75301988D01*
X147750000Y-74404364D01*
X147749999Y-74404364D01*
X147536513Y-74461567D01*
X147536507Y-74461570D01*
X147322422Y-74561399D01*
X147322420Y-74561400D01*
X147128926Y-74696886D01*
X147128920Y-74696891D01*
X146961891Y-74863920D01*
X146961886Y-74863926D01*
X146826400Y-75057420D01*
X146826399Y-75057422D01*
X146726570Y-75271507D01*
X146726567Y-75271513D01*
X146669364Y-75484999D01*
X146669364Y-75485000D01*
X147566988Y-75485000D01*
X147534075Y-75542007D01*
X147500000Y-75669174D01*
X147500000Y-75800826D01*
X147534075Y-75927993D01*
X147566988Y-75985000D01*
X146669364Y-75985000D01*
X146726567Y-76198486D01*
X146726570Y-76198492D01*
X146826399Y-76412578D01*
X146961894Y-76606082D01*
X147083946Y-76728134D01*
X147117431Y-76789457D01*
X147112447Y-76859149D01*
X147070575Y-76915082D01*
X147039595Y-76931998D01*
X147029084Y-76935918D01*
X146959392Y-76940900D01*
X146898073Y-76907416D01*
X144906546Y-74915888D01*
X144906545Y-74915887D01*
X144791807Y-74839222D01*
X144664332Y-74786421D01*
X144664322Y-74786418D01*
X144528996Y-74759500D01*
X144528994Y-74759500D01*
X144528993Y-74759500D01*
X141971007Y-74759500D01*
X141971003Y-74759500D01*
X141862590Y-74781065D01*
X141862589Y-74781065D01*
X141835681Y-74786418D01*
X141835671Y-74786420D01*
X141708190Y-74839224D01*
X141593454Y-74915887D01*
X138647887Y-77861454D01*
X138571222Y-77976192D01*
X138518421Y-78103667D01*
X138518418Y-78103679D01*
X138499160Y-78200498D01*
X138499160Y-78200501D01*
X138491500Y-78239006D01*
X138491500Y-90844481D01*
X138471815Y-90911520D01*
X138455181Y-90932162D01*
X131138162Y-98249181D01*
X131076839Y-98282666D01*
X131050481Y-98285500D01*
X129502673Y-98285500D01*
X129435634Y-98265815D01*
X129401098Y-98232623D01*
X129341045Y-98146858D01*
X129180141Y-97985954D01*
X128993734Y-97855432D01*
X128993728Y-97855429D01*
X128935725Y-97828382D01*
X128883285Y-97782210D01*
X128864133Y-97715017D01*
X128884348Y-97648135D01*
X128935725Y-97603618D01*
X128993734Y-97576568D01*
X129180139Y-97446047D01*
X129341047Y-97285139D01*
X129471568Y-97098734D01*
X129567739Y-96892496D01*
X129626635Y-96672692D01*
X129646468Y-96446000D01*
X129645760Y-96437913D01*
X129628152Y-96236649D01*
X129626635Y-96219308D01*
X129567739Y-95999504D01*
X129471568Y-95793266D01*
X129341047Y-95606861D01*
X129341045Y-95606858D01*
X129180141Y-95445954D01*
X128993734Y-95315432D01*
X128993728Y-95315429D01*
X128935725Y-95288382D01*
X128883285Y-95242210D01*
X128864133Y-95175017D01*
X128884348Y-95108135D01*
X128935725Y-95063618D01*
X128993734Y-95036568D01*
X129180139Y-94906047D01*
X129341047Y-94745139D01*
X129471568Y-94558734D01*
X129567739Y-94352496D01*
X129626635Y-94132692D01*
X129646468Y-93906000D01*
X129626635Y-93679308D01*
X129567739Y-93459504D01*
X129471568Y-93253266D01*
X129343727Y-93070689D01*
X129341045Y-93066858D01*
X129180141Y-92905954D01*
X128993734Y-92775432D01*
X128993728Y-92775429D01*
X128935725Y-92748382D01*
X128883285Y-92702210D01*
X128864133Y-92635017D01*
X128884348Y-92568135D01*
X128935725Y-92523618D01*
X128993734Y-92496568D01*
X129180139Y-92366047D01*
X129341047Y-92205139D01*
X129471568Y-92018734D01*
X129567739Y-91812496D01*
X129626635Y-91592692D01*
X129646468Y-91366000D01*
X129642911Y-91325349D01*
X129626635Y-91139313D01*
X129626635Y-91139308D01*
X129567739Y-90919504D01*
X129471568Y-90713266D01*
X129343727Y-90530689D01*
X129341045Y-90526858D01*
X129180141Y-90365954D01*
X128993734Y-90235432D01*
X128993728Y-90235429D01*
X128935725Y-90208382D01*
X128883285Y-90162210D01*
X128864133Y-90095017D01*
X128884348Y-90028135D01*
X128935725Y-89983618D01*
X128993734Y-89956568D01*
X129180139Y-89826047D01*
X129341047Y-89665139D01*
X129471568Y-89478734D01*
X129567739Y-89272496D01*
X129626635Y-89052692D01*
X129646468Y-88826000D01*
X129626635Y-88599308D01*
X129567739Y-88379504D01*
X129471568Y-88173266D01*
X129350722Y-88000679D01*
X129341045Y-87986858D01*
X129180141Y-87825954D01*
X129083744Y-87758457D01*
X128993734Y-87695432D01*
X128935132Y-87668105D01*
X128882694Y-87621934D01*
X128863542Y-87554740D01*
X128883758Y-87487859D01*
X128935134Y-87443341D01*
X128993484Y-87416132D01*
X129179820Y-87285657D01*
X129340657Y-87124820D01*
X129471134Y-86938482D01*
X129567265Y-86732326D01*
X129567269Y-86732317D01*
X129619872Y-86536000D01*
X128774012Y-86536000D01*
X128806925Y-86478993D01*
X128841000Y-86351826D01*
X128841000Y-86220174D01*
X128806925Y-86093007D01*
X128774012Y-86036000D01*
X129619872Y-86036000D01*
X129619872Y-86035999D01*
X129567269Y-85839682D01*
X129567265Y-85839673D01*
X129471134Y-85633517D01*
X129340657Y-85447179D01*
X129179820Y-85286342D01*
X128993482Y-85155865D01*
X128935133Y-85128657D01*
X128882694Y-85082484D01*
X128863542Y-85015291D01*
X128883758Y-84948410D01*
X128935129Y-84903895D01*
X128993734Y-84876568D01*
X129180139Y-84746047D01*
X129341047Y-84585139D01*
X129471568Y-84398734D01*
X129567739Y-84192496D01*
X129626635Y-83972692D01*
X129646468Y-83746000D01*
X129646180Y-83742713D01*
X129636710Y-83634462D01*
X129626635Y-83519308D01*
X129567739Y-83299504D01*
X129471568Y-83093266D01*
X129341047Y-82906861D01*
X129341045Y-82906858D01*
X129180141Y-82745954D01*
X128993734Y-82615432D01*
X128993728Y-82615429D01*
X128935725Y-82588382D01*
X128883285Y-82542210D01*
X128864133Y-82475017D01*
X128884348Y-82408135D01*
X128935725Y-82363618D01*
X128993734Y-82336568D01*
X129180139Y-82206047D01*
X129341047Y-82045139D01*
X129471568Y-81858734D01*
X129567739Y-81652496D01*
X129626635Y-81432692D01*
X129646468Y-81206000D01*
X129626635Y-80979308D01*
X129567739Y-80759504D01*
X129471568Y-80553266D01*
X129341047Y-80366861D01*
X129341045Y-80366858D01*
X129180143Y-80205956D01*
X129155536Y-80188726D01*
X129111912Y-80134149D01*
X129104719Y-80064650D01*
X129136241Y-80002296D01*
X129196471Y-79966882D01*
X129213404Y-79963861D01*
X129248483Y-79960091D01*
X129383331Y-79909796D01*
X129498546Y-79823546D01*
X129584796Y-79708331D01*
X129635091Y-79573483D01*
X129641500Y-79513873D01*
X129641499Y-77818128D01*
X129635091Y-77758517D01*
X129584796Y-77623669D01*
X129584795Y-77623668D01*
X129584793Y-77623664D01*
X129498547Y-77508455D01*
X129498544Y-77508452D01*
X129383335Y-77422206D01*
X129383328Y-77422202D01*
X129248482Y-77371908D01*
X129248483Y-77371908D01*
X129188883Y-77365501D01*
X129188881Y-77365500D01*
X129188873Y-77365500D01*
X129188864Y-77365500D01*
X127493129Y-77365500D01*
X127493123Y-77365501D01*
X127433516Y-77371908D01*
X127298671Y-77422202D01*
X127298664Y-77422206D01*
X127183455Y-77508452D01*
X127183452Y-77508455D01*
X127097206Y-77623664D01*
X127097202Y-77623671D01*
X127046908Y-77758517D01*
X127043507Y-77790157D01*
X127040501Y-77818123D01*
X127040500Y-77818135D01*
X127040500Y-79513870D01*
X127040501Y-79513876D01*
X127046908Y-79573483D01*
X127097202Y-79708328D01*
X127097206Y-79708335D01*
X127183452Y-79823544D01*
X127183455Y-79823547D01*
X127298664Y-79909793D01*
X127298671Y-79909797D01*
X127343618Y-79926561D01*
X127433517Y-79960091D01*
X127468596Y-79963862D01*
X127533144Y-79990599D01*
X127572993Y-80047991D01*
X127575488Y-80117816D01*
X127539836Y-80177905D01*
X127526464Y-80188725D01*
X127501858Y-80205954D01*
X127340954Y-80366858D01*
X127210432Y-80553265D01*
X127210431Y-80553267D01*
X127114261Y-80759502D01*
X127114258Y-80759511D01*
X127055366Y-80979302D01*
X127055364Y-80979313D01*
X127035532Y-81205998D01*
X127035532Y-81206001D01*
X127055364Y-81432686D01*
X127055366Y-81432697D01*
X127114258Y-81652488D01*
X127114261Y-81652497D01*
X127210431Y-81858732D01*
X127210432Y-81858734D01*
X127340954Y-82045141D01*
X127501858Y-82206045D01*
X127501861Y-82206047D01*
X127688266Y-82336568D01*
X127721225Y-82351937D01*
X127746275Y-82363618D01*
X127798714Y-82409791D01*
X127817866Y-82476984D01*
X127797650Y-82543865D01*
X127746275Y-82588382D01*
X127688267Y-82615431D01*
X127688265Y-82615432D01*
X127501858Y-82745954D01*
X127340954Y-82906858D01*
X127210432Y-83093265D01*
X127210431Y-83093267D01*
X127114261Y-83299502D01*
X127114258Y-83299511D01*
X127055366Y-83519302D01*
X127055364Y-83519313D01*
X127035532Y-83745998D01*
X127035532Y-83746001D01*
X127055364Y-83972686D01*
X127055366Y-83972697D01*
X127114258Y-84192488D01*
X127114261Y-84192497D01*
X127210431Y-84398732D01*
X127210432Y-84398734D01*
X127340954Y-84585141D01*
X127501858Y-84746045D01*
X127501861Y-84746047D01*
X127688266Y-84876568D01*
X127746865Y-84903893D01*
X127799305Y-84950065D01*
X127818457Y-85017258D01*
X127798242Y-85084139D01*
X127746867Y-85128657D01*
X127688515Y-85155867D01*
X127502179Y-85286342D01*
X127341342Y-85447179D01*
X127210865Y-85633517D01*
X127114734Y-85839673D01*
X127114730Y-85839682D01*
X127062127Y-86035999D01*
X127062128Y-86036000D01*
X127907988Y-86036000D01*
X127875075Y-86093007D01*
X127841000Y-86220174D01*
X127841000Y-86351826D01*
X127875075Y-86478993D01*
X127907988Y-86536000D01*
X127078018Y-86536000D01*
X127010979Y-86516315D01*
X126990337Y-86499681D01*
X126946542Y-86455886D01*
X125736819Y-85246162D01*
X125703334Y-85184839D01*
X125700500Y-85158481D01*
X125700500Y-74595006D01*
X125690835Y-74546421D01*
X125690835Y-74546420D01*
X125673580Y-74459672D01*
X125650671Y-74404364D01*
X125620777Y-74332192D01*
X125544112Y-74217454D01*
X124224545Y-72897887D01*
X124109807Y-72821222D01*
X123982332Y-72768421D01*
X123982322Y-72768418D01*
X123846996Y-72741500D01*
X123846994Y-72741500D01*
X123846993Y-72741500D01*
X113940994Y-72741500D01*
X113803006Y-72741500D01*
X113803004Y-72741500D01*
X113667677Y-72768418D01*
X113667667Y-72768421D01*
X113540192Y-72821222D01*
X113425454Y-72897887D01*
X111318531Y-75004810D01*
X111257208Y-75038295D01*
X111208070Y-75039019D01*
X111200968Y-75037691D01*
X111189243Y-75035500D01*
X110966757Y-75035500D01*
X110748060Y-75076382D01*
X110616864Y-75127207D01*
X110540601Y-75156752D01*
X110540595Y-75156754D01*
X110351439Y-75273874D01*
X110351437Y-75273876D01*
X110187020Y-75423761D01*
X110052943Y-75601308D01*
X110052938Y-75601316D01*
X109953775Y-75800461D01*
X109953769Y-75800476D01*
X109892885Y-76014462D01*
X109892884Y-76014464D01*
X109872357Y-76235999D01*
X104679343Y-76235999D01*
X104679343Y-71878711D01*
X106149500Y-71878711D01*
X106149500Y-72121288D01*
X106181161Y-72361785D01*
X106243947Y-72596104D01*
X106336773Y-72820205D01*
X106336776Y-72820212D01*
X106458064Y-73030289D01*
X106458066Y-73030292D01*
X106458067Y-73030293D01*
X106605733Y-73222736D01*
X106605739Y-73222743D01*
X106777256Y-73394260D01*
X106777262Y-73394265D01*
X106969711Y-73541936D01*
X107179788Y-73663224D01*
X107403900Y-73756054D01*
X107638211Y-73818838D01*
X107818586Y-73842584D01*
X107878711Y-73850500D01*
X107878712Y-73850500D01*
X108121289Y-73850500D01*
X108169388Y-73844167D01*
X108361789Y-73818838D01*
X108596100Y-73756054D01*
X108820212Y-73663224D01*
X109030289Y-73541936D01*
X109222738Y-73394265D01*
X109394265Y-73222738D01*
X109541936Y-73030289D01*
X109663224Y-72820212D01*
X109756054Y-72596100D01*
X109818838Y-72361789D01*
X109850500Y-72121288D01*
X109850500Y-71878712D01*
X109850500Y-71878711D01*
X159649500Y-71878711D01*
X159649500Y-72121288D01*
X159681161Y-72361785D01*
X159743947Y-72596104D01*
X159836773Y-72820205D01*
X159836776Y-72820212D01*
X159958064Y-73030289D01*
X159958066Y-73030292D01*
X159958067Y-73030293D01*
X160105733Y-73222736D01*
X160105739Y-73222743D01*
X160277256Y-73394260D01*
X160277262Y-73394265D01*
X160469711Y-73541936D01*
X160679788Y-73663224D01*
X160903900Y-73756054D01*
X161138211Y-73818838D01*
X161318586Y-73842584D01*
X161378711Y-73850500D01*
X161378712Y-73850500D01*
X161621289Y-73850500D01*
X161669388Y-73844167D01*
X161861789Y-73818838D01*
X162096100Y-73756054D01*
X162320212Y-73663224D01*
X162530289Y-73541936D01*
X162722738Y-73394265D01*
X162894265Y-73222738D01*
X163041936Y-73030289D01*
X163163224Y-72820212D01*
X163256054Y-72596100D01*
X163318838Y-72361789D01*
X163350500Y-72121288D01*
X163350500Y-71878712D01*
X163318838Y-71638211D01*
X163256054Y-71403900D01*
X163163224Y-71179788D01*
X163041936Y-70969711D01*
X162894265Y-70777262D01*
X162894260Y-70777256D01*
X162722743Y-70605739D01*
X162722736Y-70605733D01*
X162530293Y-70458067D01*
X162530292Y-70458066D01*
X162530289Y-70458064D01*
X162320212Y-70336776D01*
X162320205Y-70336773D01*
X162096104Y-70243947D01*
X161861785Y-70181161D01*
X161621289Y-70149500D01*
X161621288Y-70149500D01*
X161378712Y-70149500D01*
X161378711Y-70149500D01*
X161138214Y-70181161D01*
X160903895Y-70243947D01*
X160679794Y-70336773D01*
X160679785Y-70336777D01*
X160469706Y-70458067D01*
X160277263Y-70605733D01*
X160277256Y-70605739D01*
X160105739Y-70777256D01*
X160105733Y-70777263D01*
X159958067Y-70969706D01*
X159836777Y-71179785D01*
X159836773Y-71179794D01*
X159743947Y-71403895D01*
X159681161Y-71638214D01*
X159649500Y-71878711D01*
X109850500Y-71878711D01*
X109818838Y-71638211D01*
X109756054Y-71403900D01*
X109663224Y-71179788D01*
X109541936Y-70969711D01*
X109394265Y-70777262D01*
X109394260Y-70777256D01*
X109222743Y-70605739D01*
X109222736Y-70605733D01*
X109030293Y-70458067D01*
X109030292Y-70458066D01*
X109030289Y-70458064D01*
X108820212Y-70336776D01*
X108820205Y-70336773D01*
X108596104Y-70243947D01*
X108361785Y-70181161D01*
X108121289Y-70149500D01*
X108121288Y-70149500D01*
X107878712Y-70149500D01*
X107878711Y-70149500D01*
X107638214Y-70181161D01*
X107403895Y-70243947D01*
X107179794Y-70336773D01*
X107179785Y-70336777D01*
X106969706Y-70458067D01*
X106777263Y-70605733D01*
X106777256Y-70605739D01*
X106605739Y-70777256D01*
X106605733Y-70777263D01*
X106458067Y-70969706D01*
X106336777Y-71179785D01*
X106336773Y-71179794D01*
X106243947Y-71403895D01*
X106181161Y-71638214D01*
X106149500Y-71878711D01*
X104679343Y-71878711D01*
X104679343Y-68618238D01*
X104699028Y-68551199D01*
X104751832Y-68505444D01*
X104803343Y-68494238D01*
X164931969Y-68494238D01*
X164999008Y-68513923D01*
G37*
G04 #@! TD.AperFunction*
M02*
