<?xml version="1.0" encoding="UTF-8" standalone="no"?>
<!-- Created with Inkscape (http://www.inkscape.org/) -->

<svg
   width="210mm"
   height="297mm"
   viewBox="0 0 210 297"
   version="1.1"
   id="svg6827"
   inkscape:version="1.2.2 (732a01da63, 2022-12-09)"
   sodipodi:docname="pipboy_logo.svg"
   xmlns:inkscape="http://www.inkscape.org/namespaces/inkscape"
   xmlns:sodipodi="http://sodipodi.sourceforge.net/DTD/sodipodi-0.dtd"
   xmlns="http://www.w3.org/2000/svg"
   xmlns:svg="http://www.w3.org/2000/svg">
  <sodipodi:namedview
     id="namedview6829"
     pagecolor="#505050"
     bordercolor="#eeeeee"
     borderopacity="1"
     inkscape:showpageshadow="0"
     inkscape:pageopacity="0"
     inkscape:pagecheckerboard="0"
     inkscape:deskcolor="#505050"
     inkscape:document-units="mm"
     showgrid="false"
     inkscape:zoom="0.76167929"
     inkscape:cx="131.9453"
     inkscape:cy="345.28968"
     inkscape:window-width="1920"
     inkscape:window-height="1009"
     inkscape:window-x="-8"
     inkscape:window-y="53"
     inkscape:window-maximized="1"
     inkscape:current-layer="layer1" />
  <defs
     id="defs6824" />
  <g
     inkscape:label="Layer 1"
     inkscape:groupmode="layer"
     id="layer1">
    <g
       id="g82000"
       transform="matrix(0.41378207,0,0,0.41378207,-330.12299,-131.74552)"
       style="fill:#000000">
      <path
         id="path79224"
         style="opacity:1;fill:#000000;fill-opacity:1;stroke:none;stroke-width:0.4;stroke-linecap:round;stroke-linejoin:round;stroke-dasharray:none;stroke-opacity:1"
         d="m 1011.0835,323.29086 c -3.8456,0 -7.8524,0.0151 -8.4972,0.0765 -1.2891,0.12282 -1.2283,1.5968 -1.2283,1.5968 h -4.42144 c -0.55266,0 -0.30663,-0.6756 -0.79788,-1.16685 -0.49126,-0.49125 -23.08903,-0.18448 -23.08903,-0.18448 -1.96501,0.2456 -3.50004,1.47381 -3.50004,1.47381 0,0 -4.60543,5.21998 -4.97386,6.38669 -0.36843,1.16673 2.02623,1.53479 2.02623,1.53479 0,0 20.93986,-0.12279 22.41362,0 1.47378,0.12282 5.09633,-4.05247 5.09633,-4.05247 0,0 1.04422,-1.78083 1.28984,-1.47381 0.24563,0.30704 7.49153,0.24546 7.49153,0.24546 0,0 2.5175,-1.6582 2.8246,-1.5968 0.307,0.0614 4.053,6.20221 4.053,6.20221 l -11.05305,5.34231 h 8.78085 l 24.5629,-11.6055 5.0968,0.061 2.3332,-2.76314 -17.1323,-0.0615 -1.8423,2.64066 2.8862,0.18397 -7.3691,3.62304 -1.9647,-3.62304 2.8861,-0.12247 1.6578,-2.70216 c 0,0 -3.6842,-0.015 -7.5298,-0.015 z m -25.86198,2.08928 c 2.34592,0.0108 4.20859,0.10556 4.16253,0.38189 -0.12282,0.73689 -4.2989,4.97402 -4.60592,5.09684 -0.30705,0.12281 -12.40372,-9e-5 -12.64935,-0.0615 -0.24562,-0.0614 3.92999,-5.21932 3.92999,-5.21932 0,0 5.25288,-0.21591 9.16275,-0.19792 z" />
      <path
         id="path79218"
         style="opacity:1;fill:#000000;fill-opacity:1;stroke:none;stroke-width:0.4;stroke-linecap:round;stroke-linejoin:round;stroke-dasharray:none;stroke-opacity:1"
         d="m 933.0738,318.39349 -1.53531,2.08772 4.60592,-0.12299 c -0.24564,0.18423 -8.59689,10.74663 -8.59689,10.74663 l -5.09685,0.12248 -1.71927,2.02675 c 0,0 35.61559,-0.0614 36.10684,-0.36846 0.49125,-0.30705 3.68447,-1.65826 4.72839,-3.07061 1.04391,-1.41237 2.82486,-3.07029 1.90376,-3.56154 -0.92109,-0.49125 -1.28984,-0.49144 -1.28984,-0.49144 0,0 1.65797,-0.4296 2.14922,-0.55242 0.49125,-0.1228 3.86878,-2.5179 4.05298,-4.11448 0.18423,-1.59655 -0.98251,-2.02642 -2.14922,-2.14922 -1.16673,-0.12282 -33.15973,-0.55242 -33.15973,-0.55242 z m 19.31251,2.04173 c 4.37522,0 8.81171,0.0463 9.05733,0.23048 0.49125,0.36846 -1.71944,2.45603 -1.84226,2.70164 -0.12279,0.24564 -1.28934,1.28933 -1.65778,1.28933 -0.36845,0 -17.74673,-0.18397 -17.74673,-0.18397 l 3.50057,-3.99149 c 0,0 4.31366,-0.046 8.68887,-0.046 z m -5.34231,6.44767 c 4.37522,0 8.81171,0.0463 9.05733,0.23048 0.49125,0.36846 -1.71944,2.45603 -1.84226,2.70164 -0.12279,0.24564 -1.28934,1.28984 -1.65778,1.28984 -0.36845,0 -17.74672,-0.18448 -17.74672,-0.18448 l 3.50056,-3.99149 c 0,0 4.31365,-0.046 8.68887,-0.046 z" />
      <path
         id="path79212"
         style="opacity:1;fill:#000000;fill-opacity:1;stroke:none;stroke-width:0.4;stroke-linecap:round;stroke-linejoin:round;stroke-dasharray:none;stroke-opacity:1"
         d="m 864.7281,323.12188 -1.41232,2.21072 4.23747,0.061 -8.04447,9.64127 -3.99149,-0.18449 -1.35082,2.27221 11.11456,0.0615 2.94763,-4.11448 11.11457,0.18449 c 0,0 7.6756,-0.24584 8.4739,-0.49145 0.79828,-0.24564 1.04386,-0.55293 1.04386,-0.55293 l 0.49144,1.04438 6.26319,-0.24598 3.13211,-1.96474 c 0,0 -1.59684,0.18406 -3.07062,0.24546 -1.47375,0.0614 -3.2544,-0.73704 -3.50004,-1.5353 -0.24561,-0.7983 2.76348,-4.05259 2.64066,-5.21932 -0.12282,-1.16673 -3.19345,-1.16686 -3.80752,-1.16686 -0.61405,0 -26.28211,-0.24546 -26.28211,-0.24546 z m 15.92099,2.02055 c 4.97681,0.006 7.06049,0.51232 7.10654,0.74259 0.0614,0.30705 -3.86854,4.85139 -4.6054,5.21983 -0.7369,0.36843 -13.01833,-0.30747 -13.01833,-0.30747 l 4.54443,-5.46478 c 2.33345,-0.13817 4.31382,-0.19209 5.97276,-0.19017 z" />
      <path
         id="path79150"
         style="opacity:1;fill:#000000;fill-opacity:1;stroke:none;stroke-width:0.4;stroke-linecap:round;stroke-linejoin:round;stroke-dasharray:none;stroke-opacity:1"
         d="m 831.60505,318.4741 c -8.16899,0 -22.01984,0.10335 -22.01984,0.10335 l -1.41232,1.96526 4.58215,0.16536 -8.24962,10.24692 -5.21054,0.0873 -1.47639,2.17092 12.24473,-0.17363 5.29735,-6.33966 15.80523,0.17363 c 0,0 7.12081,-0.26034 7.81555,-0.60772 0.69474,-0.34734 4.86319,-3.73423 5.12372,-5.12372 0.26054,-1.38945 0.69486,-1.56315 -0.43409,-1.82366 -1.12894,-0.26053 -3.56682,-0.67919 -6.51433,-0.80201 -0.73687,-0.0307 -2.8286,-0.0424 -5.5516,-0.0424 z m -11.27373,2.1301 c 0,0 15.90413,-3.4e-4 16.39538,0.12248 0.49125,0.12282 0,0.67592 0,0.67592 0,0 -2.02605,2.39471 -2.27169,2.76314 -0.24561,0.36846 -1.28984,0.49093 -1.28984,0.49093 l -15.96544,0.0615 z" />
      <path
         style="opacity:1;fill:#000000;fill-opacity:1;stroke:none;stroke-width:0.410191;stroke-linecap:round;stroke-linejoin:round;stroke-dasharray:none;stroke-opacity:1"
         d="m 849.35005,325.44699 -4.34501,-0.18892 1.7632,-1.9521 11.58669,0.12595 -6.29711,7.43059 10.20133,0.31485 -1.44833,1.95209 -22.22882,0.063 1.13973,-2.19614 4.53391,0.12595 z"
         id="path79154"
         sodipodi:nodetypes="ccccccccccc" />
      <ellipse
         style="opacity:1;fill:#000000;fill-opacity:1;stroke:none;stroke-width:0.803317;stroke-linecap:round;stroke-linejoin:round;stroke-dasharray:none;stroke-opacity:1"
         id="path79156"
         cx="1232.8486"
         cy="447.33923"
         rx="4.2495923"
         ry="2.449672"
         transform="matrix(0.99800488,0.06313678,-0.83850224,0.54489815,0,0)"
         inkscape:transform-center-x="4.1699971"
         inkscape:transform-center-y="-1.3568605" />
      <path
         style="opacity:1;fill:#000000;fill-opacity:1;stroke:none;stroke-width:0.4;stroke-linecap:round;stroke-linejoin:round;stroke-dasharray:none;stroke-opacity:1"
         d="m 902.30919,325.94645 -1.35096,1.84219 22.10639,0.0614 1.65798,-1.84219 z"
         id="path79216" />
    </g>
  </g>
</svg>
