  0
SECTION
  2
HEADER
  9
$ACADVER
  1
AC1014
  9
$HANDSEED
  5
FFFF
  9
$INSUNITS
 70
     4
  9
$MEASUREMENT
 70
     1
  0
ENDSEC
  0
SECTION
  2
TABLES
  0
TABLE
  2
VPORT
  5
8
330
0
100
AcDbSymbolTable
 70
     4
  0
VPORT
  5
2E
330
8
100
AcDbSymbolTableRecord
100
AcDbViewportTableRecord
  2
*ACTIVE
 70
     0
 10
0.0
 20
0.0
 11
1.0
 21
1.0
 12
210.0
 22
148.5
 13
0.0
 23
0.0
 14
10.0
 24
10.0
 15
10.0
 25
10.0
 16
0.0
 26
0.0
 36
1.0
 17
0.0
 27
0.0
 37
0.0
 40
341.0
 41
1.24
 42
50.0
 43
0.0
 44
0.0
 50
0.0
 51
0.0
 71
     0
 72
   100
 73
     1
 74
     3
 75
     0
 76
     0
 77
     0
 78
     0
  0
ENDTAB
  0
TABLE
  2
LTYPE
  5
5
330
0
100
AcDbSymbolTable
 70
     1
  0
LTYPE
  5
14
330
5
100
AcDbSymbolTableRecord
100
AcDbLinetypeTableRecord
  2
BYBLOCK
 70
     0
  3

 72
    65
 73
     0
 40
0.0
  0
LTYPE
  5
15
330
5
100
AcDbSymbolTableRecord
100
AcDbLinetypeTableRecord
  2
BYLAYER
 70
     0
  3

 72
    65
 73
     0
 40
0.0
  0
LTYPE
  5
16
330
5
100
AcDbSymbolTableRecord
100
AcDbLinetypeTableRecord
  2
CONTINUOUS
 70
     0
  3
Solid line
 72
    65
 73
     0
 40
0.0
  0
ENDTAB
  0
TABLE
  2
LAYER
  5
2
100
AcDbSymbolTable
 70
2
  0
LAYER
  5
50
100
AcDbSymbolTableRecord
100
AcDbLayerTableRecord
  2
0
 70
0
  6
CONTINUOUS
  0
LAYER
  5
51
100
AcDbSymbolTableRecord
100
AcDbLayerTableRecord
  2
Layer_1
 70
0
  6
CONTINUOUS
  0
ENDTAB
  0
TABLE
  2
STYLE
  5
3
330
0
100
AcDbSymbolTable
 70
     1
  0
STYLE
  5
11
330
3
100
AcDbSymbolTableRecord
100
AcDbTextStyleTableRecord
  2
STANDARD
 70
     0
 40
0.0
 41
1.0
 50
0.0
 71
     0
 42
2.5
  3
txt
  4

  0
ENDTAB
  0
TABLE
  2
VIEW
  5
6
330
0
100
AcDbSymbolTable
 70
     0
  0
ENDTAB
  0
TABLE
  2
UCS
  5
7
330
0
100
AcDbSymbolTable
 70
     0
  0
ENDTAB
  0
TABLE
  2
APPID
  5
9
330
0
100
AcDbSymbolTable
 70
     2
  0
APPID
  5
12
330
9
100
AcDbSymbolTableRecord
100
AcDbRegAppTableRecord
  2
ACAD
 70
     0
  0
ENDTAB
  0
TABLE
  2
DIMSTYLE
  5
A
330
0
100
AcDbSymbolTable
 70
     1
  0
DIMSTYLE
105
27
330
A
100
AcDbSymbolTableRecord
100
AcDbDimStyleTableRecord
  2
ISO-25
 70
     0
  3

  4

  5

  6

  7

 40
1.0
 41
2.5
 42
0.625
 43
3.75
 44
1.25
 45
0.0
 46
0.0
 47
0.0
 48
0.0
140
2.5
141
2.5
142
0.0
143
0.03937007874016
144
1.0
145
0.0
146
1.0
147
0.625
 71
     0
 72
     0
 73
     0
 74
     0
 75
     0
 76
     0
 77
     1
 78
     8
170
     0
171
     3
172
     1
173
     0
174
     0
175
     0
176
     0
177
     0
178
     0
270
     2
271
     2
272
     2
273
     2
274
     3
340
11
275
     0
280
     0
281
     0
282
     0
283
     0
284
     8
285
     0
286
     0
287
     3
288
     0
  0
ENDTAB
  0
TABLE
  2
BLOCK_RECORD
  5
1
330
0
100
AcDbSymbolTable
 70
     1
  0
BLOCK_RECORD
  5
1F
330
1
100
AcDbSymbolTableRecord
100
AcDbBlockTableRecord
  2
*MODEL_SPACE
  0
BLOCK_RECORD
  5
1B
330
1
100
AcDbSymbolTableRecord
100
AcDbBlockTableRecord
  2
*PAPER_SPACE
  0
ENDTAB
  0
ENDSEC
  0
SECTION
  2
BLOCKS
  0
BLOCK
  5
20
330
1F
100
AcDbEntity
  8
0
100
AcDbBlockBegin
  2
*MODEL_SPACE
 70
     0
 10
0.0
 20
0.0
 30
0.0
  3
*MODEL_SPACE
  1

  0
ENDBLK
  5
21
330
1F
100
AcDbEntity
  8
0
100
AcDbBlockEnd
  0
BLOCK
  5
1C
330
1B
100
AcDbEntity
 67
     1
  8
0
100
AcDbBlockBegin
  2
*PAPER_SPACE
  1

  0
ENDBLK
  5
1D
330
1B
100
AcDbEntity
 67
     1
  8
0
100
AcDbBlockEnd
  0
ENDSEC
  0
SECTION
  2
ENTITIES
  0
SPLINE
  5
100
100
AcDbEntity
  8
Layer_1
 62
7
100
AcDbSpline
 70
8
 71
3
 72
8
 73
4
 74
0
 40
0
 40
0
 40
0
 40
0
 40
1
 40
1
 40
1
 40
1
 10
17.649031
 20
296.594712
 30
0.0
 10
17.330783
 20
296.594712
 30
0.0
 10
16.999194
 20
296.593463
 30
0.0
 10
16.945833
 20
296.588381
 30
0.0
  0
SPLINE
  5
101
100
AcDbEntity
  8
Layer_1
 62
7
100
AcDbSpline
 70
8
 71
3
 72
8
 73
4
 74
0
 40
0
 40
0
 40
0
 40
0
 40
1
 40
1
 40
1
 40
1
 10
16.945833
 20
296.588381
 30
0.0
 10
16.839152
 20
296.578217
 30
0.0
 10
16.844183
 20
296.456236
 30
0.0
 10
16.844183
 20
296.456236
 30
0.0
  0
SPLINE
  5
102
100
AcDbEntity
  8
Layer_1
 62
7
100
AcDbSpline
 70
8
 71
3
 72
8
 73
4
 74
0
 40
0
 40
0
 40
0
 40
0
 40
1
 40
1
 40
1
 40
1
 10
16.478281
 20
296.456236
 30
0.0
 10
16.432545
 20
296.456236
 30
0.0
 10
16.452905
 20
296.512146
 30
0.0
 10
16.412251
 20
296.552800
 30
0.0
  0
SPLINE
  5
103
100
AcDbEntity
  8
Layer_1
 62
7
100
AcDbSpline
 70
8
 71
3
 72
8
 73
4
 74
0
 40
0
 40
0
 40
0
 40
0
 40
1
 40
1
 40
1
 40
1
 10
16.412251
 20
296.552800
 30
0.0
 10
16.371596
 20
296.593454
 30
0.0
 10
14.501486
 20
296.568067
 30
0.0
 10
14.501486
 20
296.568067
 30
0.0
  0
SPLINE
  5
104
100
AcDbEntity
  8
Layer_1
 62
7
100
AcDbSpline
 70
8
 71
3
 72
8
 73
4
 74
0
 40
0
 40
0
 40
0
 40
0
 40
1
 40
1
 40
1
 40
1
 10
14.501486
 20
296.568067
 30
0.0
 10
14.338869
 20
296.547742
 30
0.0
 10
14.211835
 20
296.446100
 30
0.0
 10
14.211835
 20
296.446100
 30
0.0
  0
SPLINE
  5
105
100
AcDbEntity
  8
Layer_1
 62
7
100
AcDbSpline
 70
8
 71
3
 72
8
 73
4
 74
0
 40
0
 40
0
 40
0
 40
0
 40
1
 40
1
 40
1
 40
1
 10
14.211835
 20
296.446100
 30
0.0
 10
14.211835
 20
296.446100
 30
0.0
 10
13.830707
 20
296.014113
 30
0.0
 10
13.800217
 20
295.917561
 30
0.0
  0
SPLINE
  5
106
100
AcDbEntity
  8
Layer_1
 62
7
100
AcDbSpline
 70
8
 71
3
 72
8
 73
4
 74
0
 40
0
 40
0
 40
0
 40
0
 40
1
 40
1
 40
1
 40
1
 10
13.800217
 20
295.917561
 30
0.0
 10
13.769727
 20
295.821006
 30
0.0
 10
13.967900
 20
295.790547
 30
0.0
 10
13.967900
 20
295.790547
 30
0.0
  0
SPLINE
  5
107
100
AcDbEntity
  8
Layer_1
 62
7
100
AcDbSpline
 70
8
 71
3
 72
8
 73
4
 74
0
 40
0
 40
0
 40
0
 40
0
 40
1
 40
1
 40
1
 40
1
 10
13.967900
 20
295.790547
 30
0.0
 10
13.967900
 20
295.790547
 30
0.0
 10
15.700808
 20
295.800708
 30
0.0
 10
15.822771
 20
295.790547
 30
0.0
  0
SPLINE
  5
108
100
AcDbEntity
  8
Layer_1
 62
7
100
AcDbSpline
 70
8
 71
3
 72
8
 73
4
 74
0
 40
0
 40
0
 40
0
 40
0
 40
1
 40
1
 40
1
 40
1
 10
15.822771
 20
295.790547
 30
0.0
 10
15.944735
 20
295.780383
 30
0.0
 10
16.244525
 20
296.125915
 30
0.0
 10
16.244525
 20
296.125915
 30
0.0
  0
SPLINE
  5
109
100
AcDbEntity
  8
Layer_1
 62
7
100
AcDbSpline
 70
8
 71
3
 72
8
 73
4
 74
0
 40
0
 40
0
 40
0
 40
0
 40
1
 40
1
 40
1
 40
1
 10
16.244525
 20
296.125915
 30
0.0
 10
16.244525
 20
296.125915
 30
0.0
 10
16.330940
 20
296.273290
 30
0.0
 10
16.351267
 20
296.247882
 30
0.0
  0
SPLINE
  5
10a
100
AcDbEntity
  8
Layer_1
 62
7
100
AcDbSpline
 70
8
 71
3
 72
8
 73
4
 74
0
 40
0
 40
0
 40
0
 40
0
 40
1
 40
1
 40
1
 40
1
 10
16.351267
 20
296.247882
 30
0.0
 10
16.371594
 20
296.222472
 30
0.0
 10
16.971239
 20
296.227568
 30
0.0
 10
16.971239
 20
296.227568
 30
0.0
  0
SPLINE
  5
10b
100
AcDbEntity
  8
Layer_1
 62
7
100
AcDbSpline
 70
8
 71
3
 72
8
 73
4
 74
0
 40
0
 40
0
 40
0
 40
0
 40
1
 40
1
 40
1
 40
1
 10
16.971239
 20
296.227568
 30
0.0
 10
16.971239
 20
296.227568
 30
0.0
 10
17.179578
 20
296.364795
 30
0.0
 10
17.204993
 20
296.359714
 30
0.0
  0
SPLINE
  5
10c
100
AcDbEntity
  8
Layer_1
 62
7
100
AcDbSpline
 70
8
 71
3
 72
8
 73
4
 74
0
 40
0
 40
0
 40
0
 40
0
 40
1
 40
1
 40
1
 40
1
 10
17.204993
 20
296.359714
 30
0.0
 10
17.230399
 20
296.354633
 30
0.0
 10
17.540405
 20
295.846441
 30
0.0
 10
17.540405
 20
295.846441
 30
0.0
  0
LWPOLYLINE
  5
10d
100
AcDbEntity
  8
Layer_1
 62
7
100
AcDbPolyline
 90
2
 70
0
 10
16.844183
 20
296.456236
 30
0.0
 10
16.478281
 20
296.456236
 30
0.0
  0
SPLINE
  5
10e
100
AcDbEntity
  8
Layer_1
 62
7
100
AcDbSpline
 70
8
 71
3
 72
8
 73
4
 74
0
 40
0
 40
0
 40
0
 40
0
 40
1
 40
1
 40
1
 40
1
 10
18.272170
 20
296.593469
 30
0.0
 10
18.272170
 20
296.593469
 30
0.0
 10
17.967279
 20
296.594711
 30
0.0
 10
17.649031
 20
296.594711
 30
0.0
  0
LWPOLYLINE
  5
10f
100
AcDbEntity
  8
Layer_1
 62
7
100
AcDbPolyline
 90
13
 70
0
 10
17.540405
 20
295.846441
 30
0.0
 10
16.625694
 20
295.404331
 30
0.0
 10
17.352365
 20
295.404331
 30
0.0
 10
19.385103
 20
296.364760
 30
0.0
 10
19.806895
 20
296.359712
 30
0.0
 10
19.999983
 20
296.588380
 30
0.0
 10
18.582175
 20
296.593469
 30
0.0
 10
18.429713
 20
296.374938
 30
0.0
 10
18.668565
 20
296.359713
 30
0.0
 10
18.058724
 20
296.059883
 30
0.0
 10
17.896133
 20
296.359713
 30
0.0
 10
18.134976
 20
296.369848
 30
0.0
 10
18.272170
 20
296.593469
 30
0.0
  0
SPLINE
  5
110
100
AcDbEntity
  8
Layer_1
 62
7
100
AcDbSpline
 70
8
 71
3
 72
8
 73
4
 74
0
 40
0
 40
0
 40
0
 40
0
 40
1
 40
1
 40
1
 40
1
 10
15.508786
 20
296.421811
 30
0.0
 10
15.702926
 20
296.420917
 30
0.0
 10
15.857074
 20
296.413075
 30
0.0
 10
15.853262
 20
296.390207
 30
0.0
  0
SPLINE
  5
111
100
AcDbEntity
  8
Layer_1
 62
7
100
AcDbSpline
 70
8
 71
3
 72
8
 73
4
 74
0
 40
0
 40
0
 40
0
 40
0
 40
1
 40
1
 40
1
 40
1
 10
15.853262
 20
296.390207
 30
0.0
 10
15.843098
 20
296.329225
 30
0.0
 10
15.497501
 20
295.978575
 30
0.0
 10
15.472093
 20
295.968411
 30
0.0
  0
SPLINE
  5
112
100
AcDbEntity
  8
Layer_1
 62
7
100
AcDbSpline
 70
8
 71
3
 72
8
 73
4
 74
0
 40
0
 40
0
 40
0
 40
0
 40
1
 40
1
 40
1
 40
1
 10
15.472093
 20
295.968411
 30
0.0
 10
15.446682
 20
295.958248
 30
0.0
 10
14.445606
 20
295.968418
 30
0.0
 10
14.425278
 20
295.973501
 30
0.0
  0
SPLINE
  5
113
100
AcDbEntity
  8
Layer_1
 62
7
100
AcDbSpline
 70
8
 71
3
 72
8
 73
4
 74
0
 40
0
 40
0
 40
0
 40
0
 40
1
 40
1
 40
1
 40
1
 10
14.425278
 20
295.973501
 30
0.0
 10
14.404952
 20
295.978582
 30
0.0
 10
14.750510
 20
296.405433
 30
0.0
 10
14.750510
 20
296.405433
 30
0.0
  0
SPLINE
  5
114
100
AcDbEntity
  8
Layer_1
 62
7
100
AcDbSpline
 70
8
 71
3
 72
8
 73
4
 74
0
 40
0
 40
0
 40
0
 40
0
 40
1
 40
1
 40
1
 40
1
 10
14.750510
 20
296.405433
 30
0.0
 10
14.750510
 20
296.405433
 30
0.0
 10
15.185219
 20
296.423301
 30
0.0
 10
15.508786
 20
296.421812
 30
0.0
  0
LWPOLYLINE
  5
115
100
AcDbEntity
  8
Layer_1
 62
7
100
AcDbPolyline
 90
1
 70
1
 10
17.649031
 20
296.594711
 30
0.0
  0
LWPOLYLINE
  5
116
100
AcDbEntity
  8
Layer_1
 62
7
100
AcDbPolyline
 90
1
 70
1
 10
15.508786
 20
296.421812
 30
0.0
  0
SPLINE
  5
117
100
AcDbEntity
  8
Layer_1
 62
7
100
AcDbSpline
 70
8
 71
3
 72
8
 73
4
 74
0
 40
0
 40
0
 40
0
 40
0
 40
1
 40
1
 40
1
 40
1
 10
11.447341
 20
296.837407
 30
0.0
 10
11.427013
 20
296.822161
 30
0.0
 10
10.735894
 20
295.948055
 30
0.0
 10
10.735894
 20
295.948055
 30
0.0
  0
LWPOLYLINE
  5
118
100
AcDbEntity
  8
Layer_1
 62
7
100
AcDbPolyline
 90
3
 70
0
 10
11.193229
 20
297.000001
 30
0.0
 10
11.066172
 20
296.827229
 30
0.0
 10
11.447341
 20
296.837407
 30
0.0
  0
SPLINE
  5
119
100
AcDbEntity
  8
Layer_1
 62
7
100
AcDbSpline
 70
8
 71
3
 72
8
 73
4
 74
0
 40
0
 40
0
 40
0
 40
0
 40
1
 40
1
 40
1
 40
1
 10
10.171816
 20
295.770192
 30
0.0
 10
10.171816
 20
295.770192
 30
0.0
 10
13.119234
 20
295.775273
 30
0.0
 10
13.159888
 20
295.800684
 30
0.0
  0
SPLINE
  5
11a
100
AcDbEntity
  8
Layer_1
 62
7
100
AcDbSpline
 70
8
 71
3
 72
8
 73
4
 74
0
 40
0
 40
0
 40
0
 40
0
 40
1
 40
1
 40
1
 40
1
 10
13.159888
 20
295.800684
 30
0.0
 10
13.200542
 20
295.826095
 30
0.0
 10
13.464802
 20
295.937916
 30
0.0
 10
13.551193
 20
296.054797
 30
0.0
  0
SPLINE
  5
11b
100
AcDbEntity
  8
Layer_1
 62
7
100
AcDbSpline
 70
8
 71
3
 72
8
 73
4
 74
0
 40
0
 40
0
 40
0
 40
0
 40
1
 40
1
 40
1
 40
1
 10
13.551193
 20
296.054797
 30
0.0
 10
13.637583
 20
296.171680
 30
0.0
 10
13.784968
 20
296.308883
 30
0.0
 10
13.708741
 20
296.349537
 30
0.0
  0
SPLINE
  5
11c
100
AcDbEntity
  8
Layer_1
 62
7
100
AcDbSpline
 70
8
 71
3
 72
8
 73
4
 74
0
 40
0
 40
0
 40
0
 40
0
 40
1
 40
1
 40
1
 40
1
 10
13.708741
 20
296.349537
 30
0.0
 10
13.632515
 20
296.390191
 30
0.0
 10
13.601998
 20
296.390207
 30
0.0
 10
13.601998
 20
296.390207
 30
0.0
  0
SPLINE
  5
11d
100
AcDbEntity
  8
Layer_1
 62
7
100
AcDbSpline
 70
8
 71
3
 72
8
 73
4
 74
0
 40
0
 40
0
 40
0
 40
0
 40
1
 40
1
 40
1
 40
1
 10
13.601998
 20
296.390207
 30
0.0
 10
13.601998
 20
296.390207
 30
0.0
 10
13.739206
 20
296.425759
 30
0.0
 10
13.779860
 20
296.435923
 30
0.0
  0
SPLINE
  5
11e
100
AcDbEntity
  8
Layer_1
 62
7
100
AcDbSpline
 70
8
 71
3
 72
8
 73
4
 74
0
 40
0
 40
0
 40
0
 40
0
 40
1
 40
1
 40
1
 40
1
 10
13.779860
 20
296.435923
 30
0.0
 10
13.820514
 20
296.446086
 30
0.0
 10
14.100026
 20
296.644296
 30
0.0
 10
14.115270
 20
296.776423
 30
0.0
  0
SPLINE
  5
11f
100
AcDbEntity
  8
Layer_1
 62
7
100
AcDbSpline
 70
8
 71
3
 72
8
 73
4
 74
0
 40
0
 40
0
 40
0
 40
0
 40
1
 40
1
 40
1
 40
1
 10
14.115270
 20
296.776423
 30
0.0
 10
14.130516
 20
296.908548
 30
0.0
 10
14.033961
 20
296.944122
 30
0.0
 10
13.937409
 20
296.954285
 30
0.0
  0
SPLINE
  5
120
100
AcDbEntity
  8
Layer_1
 62
7
100
AcDbSpline
 70
8
 71
3
 72
8
 73
4
 74
0
 40
0
 40
0
 40
0
 40
0
 40
1
 40
1
 40
1
 40
1
 10
13.937409
 20
296.954285
 30
0.0
 10
13.840854
 20
296.964449
 30
0.0
 10
11.193229
 20
297.000001
 30
0.0
 10
11.193229
 20
297.000001
 30
0.0
  0
LWPOLYLINE
  5
121
100
AcDbEntity
  8
Layer_1
 62
7
100
AcDbPolyline
 90
3
 70
0
 10
10.735894
 20
295.948055
 30
0.0
 10
10.314097
 20
295.937919
 30
0.0
 10
10.171816
 20
295.770192
 30
0.0
  0
SPLINE
  5
122
100
AcDbEntity
  8
Layer_1
 62
7
100
AcDbSpline
 70
8
 71
3
 72
8
 73
4
 74
0
 40
0
 40
0
 40
0
 40
0
 40
1
 40
1
 40
1
 40
1
 10
12.791462
 20
296.831035
 30
0.0
 10
13.153540
 20
296.831035
 30
0.0
 10
13.520688
 20
296.827203
 30
0.0
 10
13.541014
 20
296.811961
 30
0.0
  0
SPLINE
  5
123
100
AcDbEntity
  8
Layer_1
 62
7
100
AcDbSpline
 70
8
 71
3
 72
8
 73
4
 74
0
 40
0
 40
0
 40
0
 40
0
 40
1
 40
1
 40
1
 40
1
 10
13.541014
 20
296.811961
 30
0.0
 10
13.581669
 20
296.781469
 30
0.0
 10
13.398720
 20
296.608709
 30
0.0
 10
13.388556
 20
296.588383
 30
0.0
  0
SPLINE
  5
124
100
AcDbEntity
  8
Layer_1
 62
7
100
AcDbSpline
 70
8
 71
3
 72
8
 73
4
 74
0
 40
0
 40
0
 40
0
 40
0
 40
1
 40
1
 40
1
 40
1
 10
13.388556
 20
296.588383
 30
0.0
 10
13.378394
 20
296.568055
 30
0.0
 10
13.281855
 20
296.481683
 30
0.0
 10
13.251364
 20
296.481683
 30
0.0
  0
SPLINE
  5
125
100
AcDbEntity
  8
Layer_1
 62
7
100
AcDbSpline
 70
8
 71
3
 72
8
 73
4
 74
0
 40
0
 40
0
 40
0
 40
0
 40
1
 40
1
 40
1
 40
1
 10
13.251364
 20
296.481683
 30
0.0
 10
13.220872
 20
296.481683
 30
0.0
 10
11.782708
 20
296.496907
 30
0.0
 10
11.782708
 20
296.496907
 30
0.0
  0
LWPOLYLINE
  5
126
100
AcDbEntity
  8
Layer_1
 62
7
100
AcDbPolyline
 90
1
 70
1
 10
11.193229
 20
297.000001
 30
0.0
  0
SPLINE
  5
127
100
AcDbEntity
  8
Layer_1
 62
7
100
AcDbSpline
 70
8
 71
3
 72
8
 73
4
 74
0
 40
0
 40
0
 40
0
 40
0
 40
1
 40
1
 40
1
 40
1
 10
12.072403
 20
296.827229
 30
0.0
 10
12.072403
 20
296.827229
 30
0.0
 10
12.429386
 20
296.831036
 30
0.0
 10
12.791462
 20
296.831036
 30
0.0
  0
LWPOLYLINE
  5
128
100
AcDbEntity
  8
Layer_1
 62
7
100
AcDbPolyline
 90
2
 70
0
 10
11.782708
 20
296.496907
 30
0.0
 10
12.072403
 20
296.827229
 30
0.0
  0
SPLINE
  5
129
100
AcDbEntity
  8
Layer_1
 62
7
100
AcDbSpline
 70
8
 71
3
 72
8
 73
4
 74
0
 40
0
 40
0
 40
0
 40
0
 40
1
 40
1
 40
1
 40
1
 10
12.349352
 20
296.297449
 30
0.0
 10
12.711430
 20
296.297449
 30
0.0
 10
13.078577
 20
296.293617
 30
0.0
 10
13.098904
 20
296.278375
 30
0.0
  0
SPLINE
  5
12a
100
AcDbEntity
  8
Layer_1
 62
7
100
AcDbSpline
 70
8
 71
3
 72
8
 73
4
 74
0
 40
0
 40
0
 40
0
 40
0
 40
1
 40
1
 40
1
 40
1
 10
13.098904
 20
296.278375
 30
0.0
 10
13.139558
 20
296.247883
 30
0.0
 10
12.956609
 20
296.075123
 30
0.0
 10
12.946445
 20
296.054797
 30
0.0
  0
SPLINE
  5
12b
100
AcDbEntity
  8
Layer_1
 62
7
100
AcDbSpline
 70
8
 71
3
 72
8
 73
4
 74
0
 40
0
 40
0
 40
0
 40
0
 40
1
 40
1
 40
1
 40
1
 10
12.946445
 20
296.054797
 30
0.0
 10
12.936284
 20
296.034469
 30
0.0
 10
12.839744
 20
295.948055
 30
0.0
 10
12.809253
 20
295.948055
 30
0.0
  0
SPLINE
  5
12c
100
AcDbEntity
  8
Layer_1
 62
7
100
AcDbSpline
 70
8
 71
3
 72
8
 73
4
 74
0
 40
0
 40
0
 40
0
 40
0
 40
1
 40
1
 40
1
 40
1
 10
12.809253
 20
295.948055
 30
0.0
 10
12.778762
 20
295.948055
 30
0.0
 10
11.340599
 20
295.963321
 30
0.0
 10
11.340599
 20
295.963321
 30
0.0
  0
LWPOLYLINE
  5
12d
100
AcDbEntity
  8
Layer_1
 62
7
100
AcDbPolyline
 90
1
 70
1
 10
12.791462
 20
296.831036
 30
0.0
  0
SPLINE
  5
12e
100
AcDbEntity
  8
Layer_1
 62
7
100
AcDbSpline
 70
8
 71
3
 72
8
 73
4
 74
0
 40
0
 40
0
 40
0
 40
0
 40
1
 40
1
 40
1
 40
1
 10
11.630292
 20
296.293643
 30
0.0
 10
11.630292
 20
296.293643
 30
0.0
 10
11.987275
 20
296.297450
 30
0.0
 10
12.349352
 20
296.297450
 30
0.0
  0
LWPOLYLINE
  5
12f
100
AcDbEntity
  8
Layer_1
 62
7
100
AcDbPolyline
 90
2
 70
0
 10
11.340599
 20
295.963321
 30
0.0
 10
11.630292
 20
296.293643
 30
0.0
  0
LWPOLYLINE
  5
130
100
AcDbEntity
  8
Layer_1
 62
7
100
AcDbPolyline
 90
1
 70
1
 10
12.349352
 20
296.297450
 30
0.0
  0
SPLINE
  5
131
100
AcDbEntity
  8
Layer_1
 62
7
100
AcDbSpline
 70
8
 71
3
 72
8
 73
4
 74
0
 40
0
 40
0
 40
0
 40
0
 40
1
 40
1
 40
1
 40
1
 10
6.746680
 20
295.770190
 30
0.0
 10
6.746680
 20
295.770190
 30
0.0
 10
7.381885
 20
295.790535
 30
0.0
 10
7.447950
 20
295.810861
 30
0.0
  0
SPLINE
  5
132
100
AcDbEntity
  8
Layer_1
 62
7
100
AcDbSpline
 70
8
 71
3
 72
8
 73
4
 74
0
 40
0
 40
0
 40
0
 40
0
 40
1
 40
1
 40
1
 40
1
 10
7.447950
 20
295.810861
 30
0.0
 10
7.514012
 20
295.831189
 30
0.0
 10
7.534336
 20
295.856620
 30
0.0
 10
7.534336
 20
295.856620
 30
0.0
  0
LWPOLYLINE
  5
133
100
AcDbEntity
  8
Layer_1
 62
7
100
AcDbPolyline
 90
9
 70
0
 10
5.537185
 20
296.608696
 30
0.0
 10
5.420306
 20
296.425745
 30
0.0
 10
5.770984
 20
296.420697
 30
0.0
 10
5.105252
 20
295.622820
 30
0.0
 10
4.774931
 20
295.638088
 30
0.0
 10
4.663142
 20
295.450048
 30
0.0
 10
5.582943
 20
295.444959
 30
0.0
 10
5.826878
 20
295.785458
 30
0.0
 10
6.746680
 20
295.770190
 30
0.0
  0
SPLINE
  5
134
100
AcDbEntity
  8
Layer_1
 62
7
100
AcDbSpline
 70
8
 71
3
 72
8
 73
4
 74
0
 40
0
 40
0
 40
0
 40
0
 40
1
 40
1
 40
1
 40
1
 10
8.352527
 20
295.953142
 30
0.0
 10
8.352527
 20
295.953142
 30
0.0
 10
8.220378
 20
295.937909
 30
0.0
 10
8.098413
 20
295.932828
 30
0.0
  0
SPLINE
  5
135
100
AcDbEntity
  8
Layer_1
 62
7
100
AcDbSpline
 70
8
 71
3
 72
8
 73
4
 74
0
 40
0
 40
0
 40
0
 40
0
 40
1
 40
1
 40
1
 40
1
 10
8.098413
 20
295.932828
 30
0.0
 10
7.976451
 20
295.927747
 30
0.0
 10
7.829091
 20
295.993823
 30
0.0
 10
7.808762
 20
296.059884
 30
0.0
  0
SPLINE
  5
136
100
AcDbEntity
  8
Layer_1
 62
7
100
AcDbSpline
 70
8
 71
3
 72
8
 73
4
 74
0
 40
0
 40
0
 40
0
 40
0
 40
1
 40
1
 40
1
 40
1
 10
7.808762
 20
296.059884
 30
0.0
 10
7.788437
 20
296.125949
 30
0.0
 10
8.037458
 20
296.395262
 30
0.0
 10
8.027294
 20
296.491816
 30
0.0
  0
SPLINE
  5
137
100
AcDbEntity
  8
Layer_1
 62
7
100
AcDbSpline
 70
8
 71
3
 72
8
 73
4
 74
0
 40
0
 40
0
 40
0
 40
0
 40
1
 40
1
 40
1
 40
1
 10
8.027294
 20
296.491816
 30
0.0
 10
8.017130
 20
296.588371
 30
0.0
 10
7.763016
 20
296.588381
 30
0.0
 10
7.712197
 20
296.588381
 30
0.0
  0
SPLINE
  5
138
100
AcDbEntity
  8
Layer_1
 62
7
100
AcDbSpline
 70
8
 71
3
 72
8
 73
4
 74
0
 40
0
 40
0
 40
0
 40
0
 40
1
 40
1
 40
1
 40
1
 10
7.712197
 20
296.588381
 30
0.0
 10
7.661381
 20
296.588381
 30
0.0
 10
5.537185
 20
296.608695
 30
0.0
 10
5.537185
 20
296.608695
 30
0.0
  0
LWPOLYLINE
  5
139
100
AcDbEntity
  8
Layer_1
 62
7
100
AcDbPolyline
 90
4
 70
0
 10
7.534336
 20
295.856620
 30
0.0
 10
7.575005
 20
295.770190
 30
0.0
 10
8.093324
 20
295.790547
 30
0.0
 10
8.352527
 20
295.953142
 30
0.0
  0
SPLINE
  5
13a
100
AcDbEntity
  8
Layer_1
 62
7
100
AcDbSpline
 70
8
 71
3
 72
8
 73
4
 74
0
 40
0
 40
0
 40
0
 40
0
 40
1
 40
1
 40
1
 40
1
 10
6.854748
 20
296.441483
 30
0.0
 10
7.266611
 20
296.440986
 30
0.0
 10
7.439049
 20
296.399085
 30
0.0
 10
7.442860
 20
296.380029
 30
0.0
  0
SPLINE
  5
13b
100
AcDbEntity
  8
Layer_1
 62
7
100
AcDbSpline
 70
8
 71
3
 72
8
 73
4
 74
0
 40
0
 40
0
 40
0
 40
0
 40
1
 40
1
 40
1
 40
1
 10
7.442860
 20
296.380029
 30
0.0
 10
7.447941
 20
296.354619
 30
0.0
 10
7.122714
 20
295.978545
 30
0.0
 10
7.061734
 20
295.948055
 30
0.0
  0
SPLINE
  5
13c
100
AcDbEntity
  8
Layer_1
 62
7
100
AcDbSpline
 70
8
 71
3
 72
8
 73
4
 74
0
 40
0
 40
0
 40
0
 40
0
 40
1
 40
1
 40
1
 40
1
 10
7.061734
 20
295.948055
 30
0.0
 10
7.000751
 20
295.917565
 30
0.0
 10
5.984384
 20
295.973500
 30
0.0
 10
5.984384
 20
295.973500
 30
0.0
  0
LWPOLYLINE
  5
13d
100
AcDbEntity
  8
Layer_1
 62
7
100
AcDbPolyline
 90
1
 70
1
 10
5.537185
 20
296.608695
 30
0.0
  0
SPLINE
  5
13e
100
AcDbEntity
  8
Layer_1
 62
7
100
AcDbSpline
 70
8
 71
3
 72
8
 73
4
 74
0
 40
0
 40
0
 40
0
 40
0
 40
1
 40
1
 40
1
 40
1
 10
6.360464
 20
296.425745
 30
0.0
 10
6.553572
 20
296.437180
 30
0.0
 10
6.717460
 20
296.441642
 30
0.0
 10
6.854748
 20
296.441483
 30
0.0
  0
LWPOLYLINE
  5
13f
100
AcDbEntity
  8
Layer_1
 62
7
100
AcDbPolyline
 90
2
 70
0
 10
5.984384
 20
295.973500
 30
0.0
 10
6.360464
 20
296.425745
 30
0.0
  0
SPLINE
  5
140
100
AcDbEntity
  8
Layer_1
 62
7
100
AcDbSpline
 70
8
 71
3
 72
8
 73
4
 74
0
 40
0
 40
0
 40
0
 40
0
 40
1
 40
1
 40
1
 40
1
 10
2.796040
 20
296.993330
 30
0.0
 10
2.120004
 20
296.993330
 30
0.0
 10
0.973757
 20
296.984777
 30
0.0
 10
0.973757
 20
296.984777
 30
0.0
  0
LWPOLYLINE
  5
141
100
AcDbEntity
  8
Layer_1
 62
7
100
AcDbPolyline
 90
1
 70
1
 10
6.854748
 20
296.441483
 30
0.0
  0
SPLINE
  5
142
100
AcDbEntity
  8
Layer_1
 62
7
100
AcDbSpline
 70
8
 71
3
 72
8
 73
4
 74
0
 40
0
 40
0
 40
0
 40
0
 40
1
 40
1
 40
1
 40
1
 10
2.759689
 20
296.298222
 30
0.0
 10
2.759689
 20
296.298222
 30
0.0
 10
3.348982
 20
296.319767
 30
0.0
 10
3.406476
 20
296.348514
 30
0.0
  0
SPLINE
  5
143
100
AcDbEntity
  8
Layer_1
 62
7
100
AcDbSpline
 70
8
 71
3
 72
8
 73
4
 74
0
 40
0
 40
0
 40
0
 40
0
 40
1
 40
1
 40
1
 40
1
 10
3.406476
 20
296.348514
 30
0.0
 10
3.463970
 20
296.377259
 30
0.0
 10
3.808936
 20
296.657546
 30
0.0
 10
3.830497
 20
296.772535
 30
0.0
  0
SPLINE
  5
144
100
AcDbEntity
  8
Layer_1
 62
7
100
AcDbSpline
 70
8
 71
3
 72
8
 73
4
 74
0
 40
0
 40
0
 40
0
 40
0
 40
1
 40
1
 40
1
 40
1
 10
3.830497
 20
296.772535
 30
0.0
 10
3.852058
 20
296.887521
 30
0.0
 10
3.888001
 20
296.901896
 30
0.0
 10
3.794573
 20
296.923455
 30
0.0
  0
SPLINE
  5
145
100
AcDbEntity
  8
Layer_1
 62
7
100
AcDbSpline
 70
8
 71
3
 72
8
 73
4
 74
0
 40
0
 40
0
 40
0
 40
0
 40
1
 40
1
 40
1
 40
1
 10
3.794573
 20
296.923455
 30
0.0
 10
3.701146
 20
296.945015
 30
0.0
 10
3.499396
 20
296.979662
 30
0.0
 10
3.255471
 20
296.989826
 30
0.0
  0
SPLINE
  5
146
100
AcDbEntity
  8
Layer_1
 62
7
100
AcDbSpline
 70
8
 71
3
 72
8
 73
4
 74
0
 40
0
 40
0
 40
0
 40
0
 40
1
 40
1
 40
1
 40
1
 10
3.255471
 20
296.989826
 30
0.0
 10
3.194490
 20
296.992367
 30
0.0
 10
3.021386
 20
296.993335
 30
0.0
 10
2.796040
 20
296.993335
 30
0.0
  0
LWPOLYLINE
  5
147
100
AcDbEntity
  8
Layer_1
 62
7
100
AcDbPolyline
 90
9
 70
0
 10
0.973757
 20
296.984777
 30
0.0
 10
0.856879
 20
296.822139
 30
0.0
 10
1.236081
 20
296.808455
 30
0.0
 10
0.553372
 20
295.960456
 30
0.0
 10
0.122167
 20
295.953232
 30
0.0
 10
-0.000014
 20
295.773574
 30
0.0
 10
1.013316
 20
295.787943
 30
0.0
 10
1.451705
 20
296.312591
 30
0.0
 10
2.759689
 20
296.298222
 30
0.0
  0
SPLINE
  5
148
100
AcDbEntity
  8
Layer_1
 62
7
100
AcDbSpline
 70
8
 71
3
 72
8
 73
4
 74
0
 40
0
 40
0
 40
0
 40
0
 40
1
 40
1
 40
1
 40
1
 10
1.863067
 20
296.817051
 30
0.0
 10
1.863067
 20
296.817051
 30
0.0
 10
3.179235
 20
296.817079
 30
0.0
 10
3.219889
 20
296.806915
 30
0.0
  0
SPLINE
  5
149
100
AcDbEntity
  8
Layer_1
 62
7
100
AcDbSpline
 70
8
 71
3
 72
8
 73
4
 74
0
 40
0
 40
0
 40
0
 40
0
 40
1
 40
1
 40
1
 40
1
 10
3.219889
 20
296.806915
 30
0.0
 10
3.260544
 20
296.796750
 30
0.0
 10
3.219889
 20
296.750978
 30
0.0
 10
3.219889
 20
296.750978
 30
0.0
  0
SPLINE
  5
14a
100
AcDbEntity
  8
Layer_1
 62
7
100
AcDbSpline
 70
8
 71
3
 72
8
 73
4
 74
0
 40
0
 40
0
 40
0
 40
0
 40
1
 40
1
 40
1
 40
1
 10
3.219889
 20
296.750978
 30
0.0
 10
3.219889
 20
296.750978
 30
0.0
 10
3.052221
 20
296.552800
 30
0.0
 10
3.031893
 20
296.522310
 30
0.0
  0
SPLINE
  5
14b
100
AcDbEntity
  8
Layer_1
 62
7
100
AcDbSpline
 70
8
 71
3
 72
8
 73
4
 74
0
 40
0
 40
0
 40
0
 40
0
 40
1
 40
1
 40
1
 40
1
 10
3.031893
 20
296.522310
 30
0.0
 10
3.011567
 20
296.491818
 30
0.0
 10
2.925150
 20
296.481683
 30
0.0
 10
2.925150
 20
296.481683
 30
0.0
  0
LWPOLYLINE
  5
14c
100
AcDbEntity
  8
Layer_1
 62
7
100
AcDbPolyline
 90
1
 70
1
 10
2.796040
 20
296.993335
 30
0.0
  0
LWPOLYLINE
  5
14d
100
AcDbEntity
  8
Layer_1
 62
7
100
AcDbPolyline
 90
3
 70
0
 10
2.925150
 20
296.481683
 30
0.0
 10
1.603908
 20
296.476593
 30
0.0
 10
1.863067
 20
296.817051
 30
0.0
  0
SPLINE
  5
14e
100
AcDbEntity
  8
Layer_1
 62
7
100
AcDbSpline
 70
8
 71
3
 72
8
 73
4
 74
0
 40
0
 40
0
 40
0
 40
0
 40
1
 40
1
 40
1
 40
1
 10
4.926436
 20
296.845735
 30
0.0
 10
4.784478
 20
296.854716
 30
0.0
 10
4.615083
 20
296.835898
 30
0.0
 10
4.497238
 20
296.798057
 30
0.0
  0
SPLINE
  5
14f
100
AcDbEntity
  8
Layer_1
 62
7
100
AcDbSpline
 70
8
 71
3
 72
8
 73
4
 74
0
 40
0
 40
0
 40
0
 40
0
 40
1
 40
1
 40
1
 40
1
 10
4.497238
 20
296.798057
 30
0.0
 10
4.379394
 20
296.760216
 30
0.0
 10
4.336308
 20
296.710803
 30
0.0
 10
4.388072
 20
296.672860
 30
0.0
  0
SPLINE
  5
150
100
AcDbEntity
  8
Layer_1
 62
7
100
AcDbSpline
 70
8
 71
3
 72
8
 73
4
 74
0
 40
0
 40
0
 40
0
 40
0
 40
1
 40
1
 40
1
 40
1
 10
4.388072
 20
296.672860
 30
0.0
 10
4.439836
 20
296.634917
 30
0.0
 10
4.576255
 20
296.615916
 30
0.0
 10
4.733717
 20
296.624716
 30
0.0
  0
SPLINE
  5
151
100
AcDbEntity
  8
Layer_1
 62
7
100
AcDbSpline
 70
8
 71
3
 72
8
 73
4
 74
0
 40
0
 40
0
 40
0
 40
0
 40
1
 40
1
 40
1
 40
1
 10
4.733717
 20
296.624716
 30
0.0
 10
4.891180
 20
296.633517
 30
0.0
 10
5.038676
 20
296.668387
 30
0.0
 10
5.107429
 20
296.713066
 30
0.0
  0
SPLINE
  5
152
100
AcDbEntity
  8
Layer_1
 62
7
100
AcDbSpline
 70
8
 71
3
 72
8
 73
4
 74
0
 40
0
 40
0
 40
0
 40
0
 40
1
 40
1
 40
1
 40
1
 10
5.107429
 20
296.713066
 30
0.0
 10
5.152513
 20
296.742363
 30
0.0
 10
5.158771
 20
296.772800
 30
0.0
 10
5.124828
 20
296.797680
 30
0.0
  0
SPLINE
  5
153
100
AcDbEntity
  8
Layer_1
 62
7
100
AcDbSpline
 70
8
 71
3
 72
8
 73
4
 74
0
 40
0
 40
0
 40
0
 40
0
 40
1
 40
1
 40
1
 40
1
 10
5.124828
 20
296.797680
 30
0.0
 10
5.090886
 20
296.822560
 30
0.0
 10
5.019522
 20
296.839846
 30
0.0
 10
4.926436
 20
296.845735
 30
0.0
  0
LWPOLYLINE
  5
154
100
AcDbEntity
  8
Layer_1
 62
7
100
AcDbPolyline
 90
10
 70
1
 10
4.264552
 20
296.416279
 30
0.0
 10
3.904975
 20
296.431913
 30
0.0
 10
4.050891
 20
296.593462
 30
0.0
 10
5.009764
 20
296.583039
 30
0.0
 10
4.488638
 20
295.968110
 30
0.0
 10
5.332863
 20
295.942054
 30
0.0
 10
5.213005
 20
295.780506
 30
0.0
 10
3.373427
 20
295.775292
 30
0.0
 10
3.467747
 20
295.957037
 30
0.0
 10
3.842957
 20
295.946614
 30
0.0
  0
LWPOLYLINE
  5
155
100
AcDbEntity
  8
Layer_1
 62
7
100
AcDbPolyline
 90
1
 70
1
 10
4.926436
 20
296.845735
 30
0.0
  0
LWPOLYLINE
  5
156
100
AcDbEntity
  8
Layer_1
 62
7
100
AcDbPolyline
 90
4
 70
1
 10
8.647260
 20
296.374945
 30
0.0
 10
8.535460
 20
296.222492
 30
0.0
 10
10.364905
 20
296.217411
 30
0.0
 10
10.502113
 20
296.369864
 30
0.0
  0
SPLINE
  5
157
100
AcDbEntity
  8
Layer_1
 62
7
100
AcDbSpline
 70
8
 71
3
 72
8
 73
4
 74
0
 40
0
 40
0
 40
0
 40
0
 40
1
 40
1
 40
1
 40
1
 10
9.329368
 20
286.114192
 30
0.0
 10
9.337688
 20
286.127822
 30
0.0
 10
9.365931
 20
286.149692
 30
0.0
 10
9.392139
 20
286.162782
 30
0.0
  0
SPLINE
  5
158
100
AcDbEntity
  8
Layer_1
 62
7
100
AcDbSpline
 70
8
 71
3
 72
8
 73
4
 74
0
 40
0
 40
0
 40
0
 40
0
 40
1
 40
1
 40
1
 40
1
 10
9.392139
 20
286.162782
 30
0.0
 10
9.516951
 20
286.225122
 30
0.0
 10
9.625523
 20
286.271498
 30
0.0
 10
9.646643
 20
286.271498
 30
0.0
  0
SPLINE
  5
159
100
AcDbEntity
  8
Layer_1
 62
7
100
AcDbSpline
 70
8
 71
3
 72
8
 73
4
 74
0
 40
0
 40
0
 40
0
 40
0
 40
1
 40
1
 40
1
 40
1
 10
9.646643
 20
286.271498
 30
0.0
 10
9.675264
 20
286.271498
 30
0.0
 10
9.675435
 20
286.276198
 30
0.0
 10
9.648673
 20
286.327988
 30
0.0
  0
SPLINE
  5
15a
100
AcDbEntity
  8
Layer_1
 62
7
100
AcDbSpline
 70
8
 71
3
 72
8
 73
4
 74
0
 40
0
 40
0
 40
0
 40
0
 40
1
 40
1
 40
1
 40
1
 10
9.648673
 20
286.327988
 30
0.0
 10
9.622129
 20
286.379318
 30
0.0
 10
9.627077
 20
286.380008
 30
0.0
 10
9.542750
 20
286.313348
 30
0.0
  0
SPLINE
  5
15b
100
AcDbEntity
  8
Layer_1
 62
7
100
AcDbSpline
 70
8
 71
3
 72
8
 73
4
 74
0
 40
0
 40
0
 40
0
 40
0
 40
1
 40
1
 40
1
 40
1
 10
9.542750
 20
286.313348
 30
0.0
 10
9.503926
 20
286.282658
 30
0.0
 10
9.461019
 20
286.257548
 30
0.0
 10
9.447397
 20
286.257548
 30
0.0
  0
SPLINE
  5
15c
100
AcDbEntity
  8
Layer_1
 62
7
100
AcDbSpline
 70
8
 71
3
 72
8
 73
4
 74
0
 40
0
 40
0
 40
0
 40
0
 40
1
 40
1
 40
1
 40
1
 10
9.447397
 20
286.257548
 30
0.0
 10
9.433770
 20
286.257548
 30
0.0
 10
9.406585
 20
286.244918
 30
0.0
 10
9.386969
 20
286.229498
 30
0.0
  0
LWPOLYLINE
  5
15d
100
AcDbEntity
  8
Layer_1
 62
7
100
AcDbPolyline
 90
5
 70
0
 10
9.455545
 20
285.954462
 30
0.0
 10
9.373652
 20
285.985542
 30
0.0
 10
9.343952
 20
286.037472
 30
0.0
 10
9.314253
 20
286.089402
 30
0.0
 10
9.329368
 20
286.114192
 30
0.0
  0
SPLINE
  5
15e
100
AcDbEntity
  8
Layer_1
 62
7
100
AcDbSpline
 70
8
 71
3
 72
8
 73
4
 74
0
 40
0
 40
0
 40
0
 40
0
 40
1
 40
1
 40
1
 40
1
 10
9.047566
 20
286.275108
 30
0.0
 10
8.938591
 20
286.388630
 30
0.0
 10
8.819059
 20
286.531096
 30
0.0
 10
8.819059
 20
286.547478
 30
0.0
  0
SPLINE
  5
15f
100
AcDbEntity
  8
Layer_1
 62
7
100
AcDbSpline
 70
8
 71
3
 72
8
 73
4
 74
0
 40
0
 40
0
 40
0
 40
0
 40
1
 40
1
 40
1
 40
1
 10
8.819059
 20
286.547478
 30
0.0
 10
8.819059
 20
286.555578
 30
0.0
 10
8.804206
 20
286.580038
 30
0.0
 10
8.786059
 20
286.601728
 30
0.0
  0
SPLINE
  5
160
100
AcDbEntity
  8
Layer_1
 62
7
100
AcDbSpline
 70
8
 71
3
 72
8
 73
4
 74
0
 40
0
 40
0
 40
0
 40
0
 40
1
 40
1
 40
1
 40
1
 10
8.786059
 20
286.601728
 30
0.0
 10
8.737256
 20
286.660038
 30
0.0
 10
8.684803
 20
286.772332
 30
0.0
 10
8.674205
 20
286.841185
 30
0.0
  0
LWPOLYLINE
  5
161
100
AcDbEntity
  8
Layer_1
 62
7
100
AcDbPolyline
 90
7
 70
0
 10
9.386969
 20
286.229498
 30
0.0
 10
9.351306
 20
286.201448
 30
0.0
 10
9.277693
 20
286.187488
 30
0.0
 10
9.204080
 20
286.173528
 30
0.0
 10
9.160915
 20
286.187768
 30
0.0
 10
9.117751
 20
286.202008
 30
0.0
 10
9.047566
 20
286.275108
 30
0.0
  0
SPLINE
  5
162
100
AcDbEntity
  8
Layer_1
 62
7
100
AcDbSpline
 70
8
 71
3
 72
8
 73
4
 74
0
 40
0
 40
0
 40
0
 40
0
 40
1
 40
1
 40
1
 40
1
 10
9.271421
 20
286.818730
 30
0.0
 10
9.317989
 20
286.774770
 30
0.0
 10
9.360560
 20
286.727910
 30
0.0
 10
9.366018
 20
286.714615
 30
0.0
  0
LWPOLYLINE
  5
163
100
AcDbEntity
  8
Layer_1
 62
7
100
AcDbPolyline
 90
11
 70
0
 10
8.674205
 20
286.841185
 30
0.0
 10
8.664875
 20
286.901715
 30
0.0
 10
8.693262
 20
286.947645
 30
0.0
 10
8.721649
 20
286.993575
 30
0.0
 10
8.763844
 20
287.011051
 30
0.0
 10
8.806039
 20
287.028530
 30
0.0
 10
8.875354
 20
287.020320
 30
0.0
 10
8.944670
 20
287.012110
 30
0.0
 10
9.065710
 20
286.955390
 30
0.0
 10
9.186750
 20
286.898670
 30
0.0
 10
9.271421
 20
286.818730
 30
0.0
  0
SPLINE
  5
164
100
AcDbEntity
  8
Layer_1
 62
7
100
AcDbSpline
 70
8
 71
3
 72
8
 73
4
 74
0
 40
0
 40
0
 40
0
 40
0
 40
1
 40
1
 40
1
 40
1
 10
9.418867
 20
286.739395
 30
0.0
 10
9.418867
 20
286.757305
 30
0.0
 10
9.425147
 20
286.775835
 30
0.0
 10
9.432815
 20
286.780575
 30
0.0
  0
SPLINE
  5
165
100
AcDbEntity
  8
Layer_1
 62
7
100
AcDbSpline
 70
8
 71
3
 72
8
 73
4
 74
0
 40
0
 40
0
 40
0
 40
0
 40
1
 40
1
 40
1
 40
1
 10
9.432815
 20
286.780575
 30
0.0
 10
9.440485
 20
286.785275
 30
0.0
 10
9.446763
 20
286.797885
 30
0.0
 10
9.446763
 20
286.808505
 30
0.0
  0
LWPOLYLINE
  5
166
100
AcDbEntity
  8
Layer_1
 62
7
100
AcDbPolyline
 90
5
 70
0
 10
9.366018
 20
286.714615
 30
0.0
 10
9.375948
 20
286.690435
 30
0.0
 10
9.397408
 20
286.698635
 30
0.0
 10
9.418867
 20
286.706835
 30
0.0
 10
9.418867
 20
286.739395
 30
0.0
  0
SPLINE
  5
167
100
AcDbEntity
  8
Layer_1
 62
7
100
AcDbSpline
 70
8
 71
3
 72
8
 73
4
 74
0
 40
0
 40
0
 40
0
 40
0
 40
1
 40
1
 40
1
 40
1
 10
9.363689
 20
286.919585
 30
0.0
 10
9.364011
 20
286.942865
 30
0.0
 10
9.372699
 20
286.983885
 30
0.0
 10
9.382968
 20
287.010734
 30
0.0
  0
SPLINE
  5
168
100
AcDbEntity
  8
Layer_1
 62
7
100
AcDbSpline
 70
8
 71
3
 72
8
 73
4
 74
0
 40
0
 40
0
 40
0
 40
0
 40
1
 40
1
 40
1
 40
1
 10
9.382968
 20
287.010734
 30
0.0
 10
9.466552
 20
287.229420
 30
0.0
 10
9.486952
 20
287.299804
 30
0.0
 10
9.522464
 20
287.492041
 30
0.0
  0
SPLINE
  5
169
100
AcDbEntity
  8
Layer_1
 62
7
100
AcDbSpline
 70
8
 71
3
 72
8
 73
4
 74
0
 40
0
 40
0
 40
0
 40
0
 40
1
 40
1
 40
1
 40
1
 10
9.522464
 20
287.492041
 30
0.0
 10
9.535211
 20
287.561092
 30
0.0
 10
9.554791
 20
287.665289
 30
0.0
 10
9.565959
 20
287.723594
 30
0.0
  0
SPLINE
  5
16a
100
AcDbEntity
  8
Layer_1
 62
7
100
AcDbSpline
 70
8
 71
3
 72
8
 73
4
 74
0
 40
0
 40
0
 40
0
 40
0
 40
1
 40
1
 40
1
 40
1
 10
9.565959
 20
287.723594
 30
0.0
 10
9.577119
 20
287.781899
 30
0.0
 10
9.586679
 20
287.860364
 30
0.0
 10
9.587190
 20
287.897959
 30
0.0
  0
SPLINE
  5
16b
100
AcDbEntity
  8
Layer_1
 62
7
100
AcDbSpline
 70
8
 71
3
 72
8
 73
4
 74
0
 40
0
 40
0
 40
0
 40
0
 40
1
 40
1
 40
1
 40
1
 10
9.587190
 20
287.897959
 30
0.0
 10
9.587719
 20
287.935554
 30
0.0
 10
9.595820
 20
288.024811
 30
0.0
 10
9.605217
 20
288.096309
 30
0.0
  0
LWPOLYLINE
  5
16c
100
AcDbEntity
  8
Layer_1
 62
7
100
AcDbPolyline
 90
5
 70
0
 10
9.446763
 20
286.808505
 30
0.0
 10
9.446763
 20
286.827815
 30
0.0
 10
9.404915
 20
286.852535
 30
0.0
 10
9.363067
 20
286.877255
 30
0.0
 10
9.363689
 20
286.919585
 30
0.0
  0
SPLINE
  5
16d
100
AcDbEntity
  8
Layer_1
 62
7
100
AcDbSpline
 70
8
 71
3
 72
8
 73
4
 74
0
 40
0
 40
0
 40
0
 40
0
 40
1
 40
1
 40
1
 40
1
 10
9.609024
 20
288.234514
 30
0.0
 10
9.601714
 20
288.239024
 30
0.0
 10
9.572529
 20
288.241824
 30
0.0
 10
9.544157
 20
288.240704
 30
0.0
  0
LWPOLYLINE
  5
16e
100
AcDbEntity
  8
Layer_1
 62
7
100
AcDbPolyline
 90
3
 70
0
 10
9.605217
 20
288.096309
 30
0.0
 10
9.622317
 20
288.226304
 30
0.0
 10
9.609024
 20
288.234514
 30
0.0
  0
SPLINE
  5
16f
100
AcDbEntity
  8
Layer_1
 62
7
100
AcDbSpline
 70
8
 71
3
 72
8
 73
4
 74
0
 40
0
 40
0
 40
0
 40
0
 40
1
 40
1
 40
1
 40
1
 10
9.431323
 20
288.304754
 30
0.0
 10
9.372964
 20
288.367715
 30
0.0
 10
9.223591
 20
288.593976
 30
0.0
 10
9.223591
 20
288.619432
 30
0.0
  0
SPLINE
  5
170
100
AcDbEntity
  8
Layer_1
 62
7
100
AcDbSpline
 70
8
 71
3
 72
8
 73
4
 74
0
 40
0
 40
0
 40
0
 40
0
 40
1
 40
1
 40
1
 40
1
 10
9.223591
 20
288.619432
 30
0.0
 10
9.223591
 20
288.626061
 30
0.0
 10
9.211044
 20
288.647445
 30
0.0
 10
9.195692
 20
288.666951
 30
0.0
  0
SPLINE
  5
171
100
AcDbEntity
  8
Layer_1
 62
7
100
AcDbSpline
 70
8
 71
3
 72
8
 73
4
 74
0
 40
0
 40
0
 40
0
 40
0
 40
1
 40
1
 40
1
 40
1
 10
9.195692
 20
288.666951
 30
0.0
 10
9.180347
 20
288.686460
 30
0.0
 10
9.167793
 20
288.716008
 30
0.0
 10
9.167793
 20
288.732620
 30
0.0
  0
SPLINE
  5
172
100
AcDbEntity
  8
Layer_1
 62
7
100
AcDbSpline
 70
8
 71
3
 72
8
 73
4
 74
0
 40
0
 40
0
 40
0
 40
0
 40
1
 40
1
 40
1
 40
1
 10
9.167793
 20
288.732620
 30
0.0
 10
9.167793
 20
288.749233
 30
0.0
 10
9.161503
 20
288.769123
 30
0.0
 10
9.153798
 20
288.776821
 30
0.0
  0
SPLINE
  5
173
100
AcDbEntity
  8
Layer_1
 62
7
100
AcDbSpline
 70
8
 71
3
 72
8
 73
4
 74
0
 40
0
 40
0
 40
0
 40
0
 40
1
 40
1
 40
1
 40
1
 10
9.153798
 20
288.776821
 30
0.0
 10
9.133345
 20
288.797275
 30
0.0
 10
9.098050
 20
288.942305
 30
0.0
 10
9.098050
 20
289.005897
 30
0.0
  0
LWPOLYLINE
  5
174
100
AcDbEntity
  8
Layer_1
 62
7
100
AcDbPolyline
 90
3
 70
0
 10
9.544157
 20
288.240704
 30
0.0
 10
9.492590
 20
288.238674
 30
0.0
 10
9.431323
 20
288.304754
 30
0.0
  0
SPLINE
  5
175
100
AcDbEntity
  8
Layer_1
 62
7
100
AcDbSpline
 70
8
 71
3
 72
8
 73
4
 74
0
 40
0
 40
0
 40
0
 40
0
 40
1
 40
1
 40
1
 40
1
 10
9.202668
 20
289.400981
 30
0.0
 10
9.248701
 20
289.394791
 30
0.0
 10
9.319007
 20
289.389594
 30
0.0
 10
9.358905
 20
289.389421
 30
0.0
  0
LWPOLYLINE
  5
176
100
AcDbEntity
  8
Layer_1
 62
7
100
AcDbPolyline
 90
11
 70
0
 10
9.098050
 20
289.005897
 30
0.0
 10
9.098050
 20
289.060690
 30
0.0
 10
9.133162
 20
289.083695
 30
0.0
 10
9.168273
 20
289.106700
 30
0.0
 10
9.119998
 20
289.165613
 30
0.0
 10
9.071723
 20
289.224526
 30
0.0
 10
9.068363
 20
289.298161
 30
0.0
 10
9.065003
 20
289.371796
 30
0.0
 10
9.091988
 20
289.392015
 30
0.0
 10
9.118973
 20
289.412234
 30
0.0
 10
9.202668
 20
289.400981
 30
0.0
  0
SPLINE
  5
177
100
AcDbEntity
  8
Layer_1
 62
7
100
AcDbSpline
 70
8
 71
3
 72
8
 73
4
 74
0
 40
0
 40
0
 40
0
 40
0
 40
1
 40
1
 40
1
 40
1
 10
9.449472
 20
289.539051
 30
0.0
 10
9.443940
 20
289.681874
 30
0.0
 10
9.425864
 20
289.703967
 30
0.0
 10
9.425864
 20
289.567940
 30
0.0
  0
LWPOLYLINE
  5
178
100
AcDbEntity
  8
Layer_1
 62
7
100
AcDbPolyline
 90
5
 70
0
 10
9.358905
 20
289.389421
 30
0.0
 10
9.431448
 20
289.389099
 30
0.0
 10
9.442835
 20
289.403047
 30
0.0
 10
9.454222
 20
289.416995
 30
0.0
 10
9.449472
 20
289.539051
 30
0.0
  0
SPLINE
  5
179
100
AcDbEntity
  8
Layer_1
 62
7
100
AcDbSpline
 70
8
 71
3
 72
8
 73
4
 74
0
 40
0
 40
0
 40
0
 40
0
 40
1
 40
1
 40
1
 40
1
 10
9.181754
 20
289.456425
 30
0.0
 10
9.181754
 20
289.466598
 30
0.0
 10
9.165466
 20
289.490134
 30
0.0
 10
9.145555
 20
289.508734
 30
0.0
  0
SPLINE
  5
17a
100
AcDbEntity
  8
Layer_1
 62
7
100
AcDbSpline
 70
8
 71
3
 72
8
 73
4
 74
0
 40
0
 40
0
 40
0
 40
0
 40
1
 40
1
 40
1
 40
1
 10
9.145555
 20
289.508734
 30
0.0
 10
9.090258
 20
289.560393
 30
0.0
 10
9.070663
 20
289.609018
 30
0.0
 10
9.055091
 20
289.733208
 30
0.0
  0
SPLINE
  5
17b
100
AcDbEntity
  8
Layer_1
 62
7
100
AcDbSpline
 70
8
 71
3
 72
8
 73
4
 74
0
 40
0
 40
0
 40
0
 40
0
 40
1
 40
1
 40
1
 40
1
 10
9.055091
 20
289.733208
 30
0.0
 10
9.047251
 20
289.795781
 30
0.0
 10
9.034872
 20
289.858102
 30
0.0
 10
9.027595
 20
289.871699
 30
0.0
  0
SPLINE
  5
17c
100
AcDbEntity
  8
Layer_1
 62
7
100
AcDbSpline
 70
8
 71
3
 72
8
 73
4
 74
0
 40
0
 40
0
 40
0
 40
0
 40
1
 40
1
 40
1
 40
1
 10
9.027595
 20
289.871699
 30
0.0
 10
9.020315
 20
289.885295
 30
0.0
 10
9.014168
 20
289.910958
 30
0.0
 10
9.013923
 20
289.928723
 30
0.0
  0
SPLINE
  5
17d
100
AcDbEntity
  8
Layer_1
 62
7
100
AcDbSpline
 70
8
 71
3
 72
8
 73
4
 74
0
 40
0
 40
0
 40
0
 40
0
 40
1
 40
1
 40
1
 40
1
 10
9.013923
 20
289.928723
 30
0.0
 10
9.013647
 20
289.946491
 30
0.0
 10
9.004273
 20
289.973211
 30
0.0
 10
8.993000
 20
289.988103
 30
0.0
  0
LWPOLYLINE
  5
17e
100
AcDbEntity
  8
Layer_1
 62
7
100
AcDbPolyline
 90
7
 70
0
 10
9.425864
 20
289.567940
 30
0.0
 10
9.425864
 20
289.474811
 30
0.0
 10
9.407432
 20
289.456372
 30
0.0
 10
9.389000
 20
289.437933
 30
0.0
 10
9.285377
 20
289.437933
 30
0.0
 10
9.181754
 20
289.437933
 30
0.0
 10
9.181754
 20
289.456425
 30
0.0
  0
SPLINE
  5
17f
100
AcDbEntity
  8
Layer_1
 62
7
100
AcDbSpline
 70
8
 71
3
 72
8
 73
4
 74
0
 40
0
 40
0
 40
0
 40
0
 40
1
 40
1
 40
1
 40
1
 10
8.856651
 20
289.836856
 30
0.0
 10
8.816236
 20
289.797729
 30
0.0
 10
8.727664
 20
289.691159
 30
0.0
 10
8.659811
 20
289.600043
 30
0.0
  0
LWPOLYLINE
  5
180
100
AcDbEntity
  8
Layer_1
 62
7
100
AcDbPolyline
 90
19
 70
0
 10
8.993000
 20
289.988103
 30
0.0
 10
8.972520
 20
290.015179
 30
0.0
 10
8.972520
 20
290.068748
 30
0.0
 10
8.972520
 20
290.122317
 30
0.0
 10
8.953600
 20
290.129567
 30
0.0
 10
8.934676
 20
290.136817
 30
0.0
 10
8.925386
 20
290.257770
 30
0.0
 10
8.916096
 20
290.378723
 30
0.0
 10
8.902469
 20
290.392350
 30
0.0
 10
8.888842
 20
290.405977
 30
0.0
 10
8.874878
 20
290.392013
 30
0.0
 10
8.860914
 20
290.378049
 30
0.0
 10
8.874831
 20
290.268235
 30
0.0
 10
8.888748
 20
290.158417
 30
0.0
 10
8.918479
 20
290.130718
 30
0.0
 10
8.948210
 20
290.103019
 30
0.0
 10
8.939160
 20
290.005514
 30
0.0
 10
8.930110
 20
289.908009
 30
0.0
 10
8.856651
 20
289.836856
 30
0.0
  0
SPLINE
  5
181
100
AcDbEntity
  8
Layer_1
 62
7
100
AcDbSpline
 70
8
 71
3
 72
8
 73
4
 74
0
 40
0
 40
0
 40
0
 40
0
 40
1
 40
1
 40
1
 40
1
 10
8.322849
 20
289.478080
 30
0.0
 10
8.302172
 20
289.494344
 30
0.0
 10
8.279376
 20
289.507652
 30
0.0
 10
8.272190
 20
289.507652
 30
0.0
  0
SPLINE
  5
182
100
AcDbEntity
  8
Layer_1
 62
7
100
AcDbSpline
 70
8
 71
3
 72
8
 73
4
 74
0
 40
0
 40
0
 40
0
 40
0
 40
1
 40
1
 40
1
 40
1
 10
8.272190
 20
289.507652
 30
0.0
 10
8.250679
 20
289.507652
 30
0.0
 10
8.226705
 20
289.538581
 30
0.0
 10
8.191087
 20
289.612272
 30
0.0
  0
LWPOLYLINE
  5
183
100
AcDbEntity
  8
Layer_1
 62
7
100
AcDbPolyline
 90
5
 70
0
 10
8.659811
 20
289.600043
 30
0.0
 10
8.536445
 20
289.434378
 30
0.0
 10
8.448445
 20
289.441458
 30
0.0
 10
8.360444
 20
289.448508
 30
0.0
 10
8.322849
 20
289.478080
 30
0.0
  0
SPLINE
  5
184
100
AcDbEntity
  8
Layer_1
 62
7
100
AcDbSpline
 70
8
 71
3
 72
8
 73
4
 74
0
 40
0
 40
0
 40
0
 40
0
 40
1
 40
1
 40
1
 40
1
 10
8.180915
 20
289.929714
 30
0.0
 10
8.194342
 20
289.950218
 30
0.0
 10
8.205326
 20
289.977607
 30
0.0
 10
8.205326
 20
289.990579
 30
0.0
  0
SPLINE
  5
185
100
AcDbEntity
  8
Layer_1
 62
7
100
AcDbSpline
 70
8
 71
3
 72
8
 73
4
 74
0
 40
0
 40
0
 40
0
 40
0
 40
1
 40
1
 40
1
 40
1
 10
8.205326
 20
289.990579
 30
0.0
 10
8.205326
 20
290.003539
 30
0.0
 10
8.221019
 20
290.034738
 30
0.0
 10
8.240201
 20
290.059886
 30
0.0
  0
SPLINE
  5
186
100
AcDbEntity
  8
Layer_1
 62
7
100
AcDbSpline
 70
8
 71
3
 72
8
 73
4
 74
0
 40
0
 40
0
 40
0
 40
0
 40
1
 40
1
 40
1
 40
1
 10
8.240201
 20
290.059886
 30
0.0
 10
8.259381
 20
290.085033
 30
0.0
 10
8.275076
 20
290.112557
 30
0.0
 10
8.275076
 20
290.121053
 30
0.0
  0
SPLINE
  5
187
100
AcDbEntity
  8
Layer_1
 62
7
100
AcDbSpline
 70
8
 71
3
 72
8
 73
4
 74
0
 40
0
 40
0
 40
0
 40
0
 40
1
 40
1
 40
1
 40
1
 10
8.275076
 20
290.121053
 30
0.0
 10
8.275076
 20
290.129563
 30
0.0
 10
8.286463
 20
290.153504
 30
0.0
 10
8.300396
 20
290.174293
 30
0.0
  0
SPLINE
  5
188
100
AcDbEntity
  8
Layer_1
 62
7
100
AcDbSpline
 70
8
 71
3
 72
8
 73
4
 74
0
 40
0
 40
0
 40
0
 40
0
 40
1
 40
1
 40
1
 40
1
 10
8.300396
 20
290.174293
 30
0.0
 10
8.314329
 20
290.195078
 30
0.0
 10
8.338344
 20
290.230920
 30
0.0
 10
8.353776
 20
290.253936
 30
0.0
  0
SPLINE
  5
189
100
AcDbEntity
  8
Layer_1
 62
7
100
AcDbSpline
 70
8
 71
3
 72
8
 73
4
 74
0
 40
0
 40
0
 40
0
 40
0
 40
1
 40
1
 40
1
 40
1
 10
8.353776
 20
290.253936
 30
0.0
 10
8.369209
 20
290.276951
 30
0.0
 10
8.405100
 20
290.337556
 30
0.0
 10
8.433532
 20
290.388613
 30
0.0
  0
SPLINE
  5
18a
100
AcDbEntity
  8
Layer_1
 62
7
100
AcDbSpline
 70
8
 71
3
 72
8
 73
4
 74
0
 40
0
 40
0
 40
0
 40
0
 40
1
 40
1
 40
1
 40
1
 10
8.433532
 20
290.388613
 30
0.0
 10
8.461964
 20
290.439669
 30
0.0
 10
8.494437
 20
290.489085
 30
0.0
 10
8.505695
 20
290.498426
 30
0.0
  0
SPLINE
  5
18b
100
AcDbEntity
  8
Layer_1
 62
7
100
AcDbSpline
 70
8
 71
3
 72
8
 73
4
 74
0
 40
0
 40
0
 40
0
 40
0
 40
1
 40
1
 40
1
 40
1
 10
8.505695
 20
290.498426
 30
0.0
 10
8.516962
 20
290.507776
 30
0.0
 10
8.526162
 20
290.523289
 30
0.0
 10
8.526162
 20
290.532918
 30
0.0
  0
SPLINE
  5
18c
100
AcDbEntity
  8
Layer_1
 62
7
100
AcDbSpline
 70
8
 71
3
 72
8
 73
4
 74
0
 40
0
 40
0
 40
0
 40
0
 40
1
 40
1
 40
1
 40
1
 10
8.526162
 20
290.532918
 30
0.0
 10
8.526162
 20
290.542558
 30
0.0
 10
8.536429
 20
290.558949
 30
0.0
 10
8.548985
 20
290.569366
 30
0.0
  0
SPLINE
  5
18d
100
AcDbEntity
  8
Layer_1
 62
7
100
AcDbSpline
 70
8
 71
3
 72
8
 73
4
 74
0
 40
0
 40
0
 40
0
 40
0
 40
1
 40
1
 40
1
 40
1
 10
8.548985
 20
290.569366
 30
0.0
 10
8.561532
 20
290.579779
 30
0.0
 10
8.587244
 20
290.612761
 30
0.0
 10
8.606112
 20
290.642651
 30
0.0
  0
SPLINE
  5
18e
100
AcDbEntity
  8
Layer_1
 62
7
100
AcDbSpline
 70
8
 71
3
 72
8
 73
4
 74
0
 40
0
 40
0
 40
0
 40
0
 40
1
 40
1
 40
1
 40
1
 10
8.606112
 20
290.642651
 30
0.0
 10
8.624981
 20
290.672542
 30
0.0
 10
8.668584
 20
290.732266
 30
0.0
 10
8.703009
 20
290.775373
 30
0.0
  0
SPLINE
  5
18f
100
AcDbEntity
  8
Layer_1
 62
7
100
AcDbSpline
 70
8
 71
3
 72
8
 73
4
 74
0
 40
0
 40
0
 40
0
 40
0
 40
1
 40
1
 40
1
 40
1
 10
8.703009
 20
290.775373
 30
0.0
 10
8.737433
 20
290.818480
 30
0.0
 10
8.785481
 20
290.878690
 30
0.0
 10
8.809785
 20
290.909172
 30
0.0
  0
SPLINE
  5
190
100
AcDbEntity
  8
Layer_1
 62
7
100
AcDbSpline
 70
8
 71
3
 72
8
 73
4
 74
0
 40
0
 40
0
 40
0
 40
0
 40
1
 40
1
 40
1
 40
1
 10
8.809785
 20
290.909172
 30
0.0
 10
8.990078
 20
291.135319
 30
0.0
 10
9.077508
 20
291.175399
 30
0.0
 10
9.191880
 20
291.084335
 30
0.0
  0
SPLINE
  5
191
100
AcDbEntity
  8
Layer_1
 62
7
100
AcDbSpline
 70
8
 71
3
 72
8
 73
4
 74
0
 40
0
 40
0
 40
0
 40
0
 40
1
 40
1
 40
1
 40
1
 10
9.191880
 20
291.084335
 30
0.0
 10
9.230131
 20
291.053880
 30
0.0
 10
9.277715
 20
291.022770
 30
0.0
 10
9.297622
 20
291.015200
 30
0.0
  0
LWPOLYLINE
  5
192
100
AcDbEntity
  8
Layer_1
 62
7
100
AcDbPolyline
 90
5
 70
0
 10
8.191087
 20
289.612272
 30
0.0
 10
8.157379
 20
289.682017
 30
0.0
 10
8.156941
 20
289.787226
 30
0.0
 10
8.156504
 20
289.892434
 30
0.0
 10
8.180915
 20
289.929714
 30
0.0
  0
SPLINE
  5
193
100
AcDbEntity
  8
Layer_1
 62
7
100
AcDbSpline
 70
8
 71
3
 72
8
 73
4
 74
0
 40
0
 40
0
 40
0
 40
0
 40
1
 40
1
 40
1
 40
1
 10
9.363861
 20
290.700310
 30
0.0
 10
9.362571
 20
290.646605
 30
0.0
 10
9.359381
 20
290.560106
 30
0.0
 10
9.356711
 20
290.508087
 30
0.0
  0
LWPOLYLINE
  5
194
100
AcDbEntity
  8
Layer_1
 62
7
100
AcDbPolyline
 90
7
 70
0
 10
9.297622
 20
291.015200
 30
0.0
 10
9.333822
 20
291.001436
 30
0.0
 10
9.370798
 20
290.923271
 30
0.0
 10
9.407777
 20
290.845108
 30
0.0
 10
9.386984
 20
290.821531
 30
0.0
 10
9.366191
 20
290.797954
 30
0.0
 10
9.363861
 20
290.700310
 30
0.0
  0
SPLINE
  5
195
100
AcDbEntity
  8
Layer_1
 62
7
100
AcDbSpline
 70
8
 71
3
 72
8
 73
4
 74
0
 40
0
 40
0
 40
0
 40
0
 40
1
 40
1
 40
1
 40
1
 10
9.334497
 20
290.345939
 30
0.0
 10
9.342847
 20
290.330347
 30
0.0
 10
9.349906
 20
290.300128
 30
0.0
 10
9.350200
 20
290.278788
 30
0.0
  0
SPLINE
  5
196
100
AcDbEntity
  8
Layer_1
 62
7
100
AcDbSpline
 70
8
 71
3
 72
8
 73
4
 74
0
 40
0
 40
0
 40
0
 40
0
 40
1
 40
1
 40
1
 40
1
 10
9.350200
 20
290.278788
 30
0.0
 10
9.353120
 20
290.064798
 30
0.0
 10
9.382272
 20
289.664851
 30
0.0
 10
9.390648
 20
289.723868
 30
0.0
  0
SPLINE
  5
197
100
AcDbEntity
  8
Layer_1
 62
7
100
AcDbSpline
 70
8
 71
3
 72
8
 73
4
 74
0
 40
0
 40
0
 40
0
 40
0
 40
1
 40
1
 40
1
 40
1
 10
9.390648
 20
289.723868
 30
0.0
 10
9.392848
 20
289.739213
 30
0.0
 10
9.395677
 20
289.946358
 30
0.0
 10
9.397018
 20
290.184190
 30
0.0
  0
LWPOLYLINE
  5
198
100
AcDbEntity
  8
Layer_1
 62
7
100
AcDbPolyline
 90
5
 70
0
 10
9.356711
 20
290.508087
 30
0.0
 10
9.351871
 20
290.413510
 30
0.0
 10
9.335596
 20
290.393899
 30
0.0
 10
9.319321
 20
290.374288
 30
0.0
 10
9.334497
 20
290.345939
 30
0.0
  0
SPLINE
  5
199
100
AcDbEntity
  8
Layer_1
 62
7
100
AcDbSpline
 70
8
 71
3
 72
8
 73
4
 74
0
 40
0
 40
0
 40
0
 40
0
 40
1
 40
1
 40
1
 40
1
 10
9.423879
 20
290.672411
 30
0.0
 10
9.437322
 20
290.703099
 30
0.0
 10
9.454106
 20
290.773715
 30
0.0
 10
9.461168
 20
290.829334
 30
0.0
  0
LWPOLYLINE
  5
19a
100
AcDbEntity
  8
Layer_1
 62
7
100
AcDbPolyline
 90
3
 70
0
 10
9.397018
 20
290.184190
 30
0.0
 10
9.399427
 20
290.616615
 30
0.0
 10
9.423879
 20
290.672411
 30
0.0
  0
SPLINE
  5
19b
100
AcDbEntity
  8
Layer_1
 62
7
100
AcDbSpline
 70
8
 71
3
 72
8
 73
4
 74
0
 40
0
 40
0
 40
0
 40
0
 40
1
 40
1
 40
1
 40
1
 10
9.459845
 20
290.967688
 30
0.0
 10
9.442187
 20
291.014163
 30
0.0
 10
9.412247
 20
291.037623
 30
0.0
 10
9.347284
 20
291.055920
 30
0.0
  0
LWPOLYLINE
  5
19c
100
AcDbEntity
  8
Layer_1
 62
7
100
AcDbPolyline
 90
3
 70
0
 10
9.461168
 20
290.829334
 30
0.0
 10
9.474008
 20
290.930459
 30
0.0
 10
9.459845
 20
290.967688
 30
0.0
  0
SPLINE
  5
19d
100
AcDbEntity
  8
Layer_1
 62
7
100
AcDbSpline
 70
8
 71
3
 72
8
 73
4
 74
0
 40
0
 40
0
 40
0
 40
0
 40
1
 40
1
 40
1
 40
1
 10
9.217011
 20
291.271100
 30
0.0
 10
9.230198
 20
291.298889
 30
0.0
 10
9.258446
 20
291.334059
 30
0.0
 10
9.279782
 20
291.349251
 30
0.0
  0
LWPOLYLINE
  5
19e
100
AcDbEntity
  8
Layer_1
 62
7
100
AcDbPolyline
 90
5
 70
0
 10
9.347284
 20
291.055920
 30
0.0
 10
9.296607
 20
291.070190
 30
0.0
 10
9.244822
 20
291.145381
 30
0.0
 10
9.193034
 20
291.220572
 30
0.0
 10
9.217011
 20
291.271100
 30
0.0
  0
SPLINE
  5
19f
100
AcDbEntity
  8
Layer_1
 62
7
100
AcDbSpline
 70
8
 71
3
 72
8
 73
4
 74
0
 40
0
 40
0
 40
0
 40
0
 40
1
 40
1
 40
1
 40
1
 10
9.379194
 20
291.376670
 30
0.0
 10
9.451333
 20
291.376394
 30
0.0
 10
9.463933
 20
291.369350
 30
0.0
 10
9.492798
 20
291.312987
 30
0.0
  0
LWPOLYLINE
  5
1a0
100
AcDbEntity
  8
Layer_1
 62
7
100
AcDbPolyline
 90
3
 70
0
 10
9.279782
 20
291.349251
 30
0.0
 10
9.318575
 20
291.376875
 30
0.0
 10
9.379194
 20
291.376670
 30
0.0
  0
SPLINE
  5
1a1
100
AcDbEntity
  8
Layer_1
 62
7
100
AcDbSpline
 70
8
 71
3
 72
8
 73
4
 74
0
 40
0
 40
0
 40
0
 40
0
 40
1
 40
1
 40
1
 40
1
 10
10.055797
 20
291.170332
 30
0.0
 10
10.095377
 20
291.184787
 30
0.0
 10
10.135047
 20
291.205379
 30
0.0
 10
10.143937
 20
291.216104
 30
0.0
  0
SPLINE
  5
1a2
100
AcDbEntity
  8
Layer_1
 62
7
100
AcDbSpline
 70
8
 71
3
 72
8
 73
4
 74
0
 40
0
 40
0
 40
0
 40
0
 40
1
 40
1
 40
1
 40
1
 10
10.143937
 20
291.216104
 30
0.0
 10
10.152837
 20
291.226824
 30
0.0
 10
10.177887
 20
291.239507
 30
0.0
 10
10.199607
 20
291.244276
 30
0.0
  0
LWPOLYLINE
  5
1a3
100
AcDbEntity
  8
Layer_1
 62
7
100
AcDbPolyline
 90
7
 70
0
 10
9.492798
 20
291.312987
 30
0.0
 10
9.514806
 20
291.270015
 30
0.0
 10
9.594710
 20
291.208367
 30
0.0
 10
9.674614
 20
291.146720
 30
0.0
 10
9.829223
 20
291.145390
 30
0.0
 10
9.983833
 20
291.144060
 30
0.0
 10
10.055797
 20
291.170332
 30
0.0
  0
SPLINE
  5
1a4
100
AcDbEntity
  8
Layer_1
 62
7
100
AcDbSpline
 70
8
 71
3
 72
8
 73
4
 74
0
 40
0
 40
0
 40
0
 40
0
 40
1
 40
1
 40
1
 40
1
 10
10.339359
 20
291.362735
 30
0.0
 10
10.394499
 20
291.423119
 30
0.0
 10
10.447333
 20
291.483074
 30
0.0
 10
10.456765
 20
291.495968
 30
0.0
  0
LWPOLYLINE
  5
1a5
100
AcDbEntity
  8
Layer_1
 62
7
100
AcDbPolyline
 90
3
 70
0
 10
10.199607
 20
291.244276
 30
0.0
 10
10.239097
 20
291.252946
 30
0.0
 10
10.339359
 20
291.362735
 30
0.0
  0
SPLINE
  5
1a6
100
AcDbEntity
  8
Layer_1
 62
7
100
AcDbSpline
 70
8
 71
3
 72
8
 73
4
 74
0
 40
0
 40
0
 40
0
 40
0
 40
1
 40
1
 40
1
 40
1
 10
10.538295
 20
291.467565
 30
0.0
 10
10.545095
 20
291.444550
 30
0.0
 10
10.550215
 20
291.398312
 30
0.0
 10
10.549575
 20
291.364816
 30
0.0
  0
LWPOLYLINE
  5
1a7
100
AcDbEntity
  8
Layer_1
 62
7
100
AcDbPolyline
 90
5
 70
0
 10
10.456765
 20
291.495968
 30
0.0
 10
10.473915
 20
291.519413
 30
0.0
 10
10.499895
 20
291.514413
 30
0.0
 10
10.525865
 20
291.509413
 30
0.0
 10
10.538295
 20
291.467565
 30
0.0
  0
SPLINE
  5
1a8
100
AcDbEntity
  8
Layer_1
 62
7
100
AcDbSpline
 70
8
 71
3
 72
8
 73
4
 74
0
 40
0
 40
0
 40
0
 40
0
 40
1
 40
1
 40
1
 40
1
 10
10.517265
 20
291.252057
 30
0.0
 10
10.500095
 20
291.223536
 30
0.0
 10
10.460475
 20
291.171265
 30
0.0
 10
10.429205
 20
291.135900
 30
0.0
  0
LWPOLYLINE
  5
1a9
100
AcDbEntity
  8
Layer_1
 62
7
100
AcDbPolyline
 90
3
 70
0
 10
10.549575
 20
291.364816
 30
0.0
 10
10.548475
 20
291.303913
 30
0.0
 10
10.517265
 20
291.252057
 30
0.0
  0
SPLINE
  5
1aa
100
AcDbEntity
  8
Layer_1
 62
7
100
AcDbSpline
 70
8
 71
3
 72
8
 73
4
 74
0
 40
0
 40
0
 40
0
 40
0
 40
1
 40
1
 40
1
 40
1
 10
10.276385
 20
291.035474
 30
0.0
 10
10.223595
 20
291.015606
 30
0.0
 10
10.168907
 20
290.987002
 30
0.0
 10
10.154847
 20
290.971910
 30
0.0
  0
LWPOLYLINE
  5
1ab
100
AcDbEntity
  8
Layer_1
 62
7
100
AcDbPolyline
 90
3
 70
0
 10
10.429205
 20
291.135900
 30
0.0
 10
10.372355
 20
291.071599
 30
0.0
 10
10.276385
 20
291.035474
 30
0.0
  0
SPLINE
  5
1ac
100
AcDbEntity
  8
Layer_1
 62
7
100
AcDbSpline
 70
8
 71
3
 72
8
 73
4
 74
0
 40
0
 40
0
 40
0
 40
0
 40
1
 40
1
 40
1
 40
1
 10
9.946942
 20
290.824656
 30
0.0
 10
9.932595
 20
290.779308
 30
0.0
 10
9.915322
 20
290.685710
 30
0.0
 10
9.908569
 20
290.616663
 30
0.0
  0
LWPOLYLINE
  5
1ad
100
AcDbEntity
  8
Layer_1
 62
7
100
AcDbPolyline
 90
7
 70
0
 10
10.154847
 20
290.971910
 30
0.0
 10
10.129287
 20
290.944469
 30
0.0
 10
10.076707
 20
290.944469
 30
0.0
 10
10.024127
 20
290.944469
 30
0.0
 10
9.998582
 20
290.925788
 30
0.0
 10
9.973035
 20
290.907107
 30
0.0
 10
9.946942
 20
290.824656
 30
0.0
  0
SPLINE
  5
1ae
100
AcDbEntity
  8
Layer_1
 62
7
100
AcDbSpline
 70
8
 71
3
 72
8
 73
4
 74
0
 40
0
 40
0
 40
0
 40
0
 40
1
 40
1
 40
1
 40
1
 10
9.902119
 20
290.288857
 30
0.0
 10
9.905329
 20
290.177612
 30
0.0
 10
9.911269
 20
290.071563
 30
0.0
 10
9.915319
 20
290.053191
 30
0.0
  0
LWPOLYLINE
  5
1af
100
AcDbEntity
  8
Layer_1
 62
7
100
AcDbPolyline
 90
3
 70
0
 10
9.908569
 20
290.616663
 30
0.0
 10
9.896289
 20
290.491120
 30
0.0
 10
9.902119
 20
290.288857
 30
0.0
  0
SPLINE
  5
1b0
100
AcDbEntity
  8
Layer_1
 62
7
100
AcDbSpline
 70
8
 71
3
 72
8
 73
4
 74
0
 40
0
 40
0
 40
0
 40
0
 40
1
 40
1
 40
1
 40
1
 10
9.950436
 20
290.290402
 30
0.0
 10
9.950222
 20
290.423801
 30
0.0
 10
9.949962
 20
290.545509
 30
0.0
 10
9.949778
 20
290.560853
 30
0.0
  0
SPLINE
  5
1b1
100
AcDbEntity
  8
Layer_1
 62
7
100
AcDbSpline
 70
8
 71
3
 72
8
 73
4
 74
0
 40
0
 40
0
 40
0
 40
0
 40
1
 40
1
 40
1
 40
1
 10
9.949778
 20
290.560853
 30
0.0
 10
9.949623
 20
290.576198
 30
0.0
 10
9.949736
 20
290.611814
 30
0.0
 10
9.950054
 20
290.640002
 30
0.0
  0
LWPOLYLINE
  5
1b2
100
AcDbEntity
  8
Layer_1
 62
7
100
AcDbPolyline
 90
5
 70
0
 10
9.915319
 20
290.053191
 30
0.0
 10
9.922709
 20
290.019787
 30
0.0
 10
9.936734
 20
290.033812
 30
0.0
 10
9.950759
 20
290.047837
 30
0.0
 10
9.950436
 20
290.290402
 30
0.0
  0
SPLINE
  5
1b3
100
AcDbEntity
  8
Layer_1
 62
7
100
AcDbSpline
 70
8
 71
3
 72
8
 73
4
 74
0
 40
0
 40
0
 40
0
 40
0
 40
1
 40
1
 40
1
 40
1
 10
9.969960
 20
290.707334
 30
0.0
 10
9.980613
 20
290.716184
 30
0.0
 10
9.999623
 20
290.754378
 30
0.0
 10
10.012192
 20
290.792222
 30
0.0
  0
LWPOLYLINE
  5
1b4
100
AcDbEntity
  8
Layer_1
 62
7
100
AcDbPolyline
 90
3
 70
0
 10
9.950054
 20
290.640002
 30
0.0
 10
9.950583
 20
290.691253
 30
0.0
 10
9.969960
 20
290.707334
 30
0.0
  0
SPLINE
  5
1b5
100
AcDbEntity
  8
Layer_1
 62
7
100
AcDbSpline
 70
8
 71
3
 72
8
 73
4
 74
0
 40
0
 40
0
 40
0
 40
0
 40
1
 40
1
 40
1
 40
1
 10
10.065272
 20
290.877289
 30
0.0
 10
10.081892
 20
290.886239
 30
0.0
 10
10.117462
 20
290.898308
 30
0.0
 10
10.144312
 20
290.904128
 30
0.0
  0
SPLINE
  5
1b6
100
AcDbEntity
  8
Layer_1
 62
7
100
AcDbSpline
 70
8
 71
3
 72
8
 73
4
 74
0
 40
0
 40
0
 40
0
 40
0
 40
1
 40
1
 40
1
 40
1
 10
10.144312
 20
290.904128
 30
0.0
 10
10.256418
 20
290.928419
 30
0.0
 10
10.300313
 20
290.943047
 30
0.0
 10
10.334435
 20
290.967473
 30
0.0
  0
SPLINE
  5
1b7
100
AcDbEntity
  8
Layer_1
 62
7
100
AcDbSpline
 70
8
 71
3
 72
8
 73
4
 74
0
 40
0
 40
0
 40
0
 40
0
 40
1
 40
1
 40
1
 40
1
 10
10.334435
 20
290.967473
 30
0.0
 10
10.354265
 20
290.981668
 30
0.0
 10
10.391805
 20
291.006297
 30
0.0
 10
10.417845
 20
291.022202
 30
0.0
  0
SPLINE
  5
1b8
100
AcDbEntity
  8
Layer_1
 62
7
100
AcDbSpline
 70
8
 71
3
 72
8
 73
4
 74
0
 40
0
 40
0
 40
0
 40
0
 40
1
 40
1
 40
1
 40
1
 10
10.417845
 20
291.022202
 30
0.0
 10
10.477095
 20
291.058378
 30
0.0
 10
10.538816
 20
291.130904
 30
0.0
 10
10.624722
 20
291.265291
 30
0.0
  0
SPLINE
  5
1b9
100
AcDbEntity
  8
Layer_1
 62
7
100
AcDbSpline
 70
8
 71
3
 72
8
 73
4
 74
0
 40
0
 40
0
 40
0
 40
0
 40
1
 40
1
 40
1
 40
1
 10
10.624722
 20
291.265291
 30
0.0
 10
10.661502
 20
291.322831
 30
0.0
 10
10.693042
 20
291.371562
 30
0.0
 10
10.694802
 20
291.373582
 30
0.0
  0
SPLINE
  5
1ba
100
AcDbEntity
  8
Layer_1
 62
7
100
AcDbSpline
 70
8
 71
3
 72
8
 73
4
 74
0
 40
0
 40
0
 40
0
 40
0
 40
1
 40
1
 40
1
 40
1
 10
10.694802
 20
291.373582
 30
0.0
 10
10.704302
 20
291.384502
 30
0.0
 10
10.799876
 20
291.331163
 30
0.0
 10
10.842832
 20
291.290945
 30
0.0
  0
SPLINE
  5
1bb
100
AcDbEntity
  8
Layer_1
 62
7
100
AcDbSpline
 70
8
 71
3
 72
8
 73
4
 74
0
 40
0
 40
0
 40
0
 40
0
 40
1
 40
1
 40
1
 40
1
 10
10.842832
 20
291.290945
 30
0.0
 10
10.870192
 20
291.265328
 30
0.0
 10
10.904682
 20
291.234290
 30
0.0
 10
10.919482
 20
291.221972
 30
0.0
  0
SPLINE
  5
1bc
100
AcDbEntity
  8
Layer_1
 62
7
100
AcDbSpline
 70
8
 71
3
 72
8
 73
4
 74
0
 40
0
 40
0
 40
0
 40
0
 40
1
 40
1
 40
1
 40
1
 10
10.919482
 20
291.221972
 30
0.0
 10
10.960512
 20
291.187823
 30
0.0
 10
11.188584
 20
290.937821
 30
0.0
 10
11.230331
 20
290.881233
 30
0.0
  0
SPLINE
  5
1bd
100
AcDbEntity
  8
Layer_1
 62
7
100
AcDbSpline
 70
8
 71
3
 72
8
 73
4
 74
0
 40
0
 40
0
 40
0
 40
0
 40
1
 40
1
 40
1
 40
1
 10
11.230331
 20
290.881233
 30
0.0
 10
11.250621
 20
290.853729
 30
0.0
 10
11.290911
 20
290.802800
 30
0.0
 10
11.319861
 20
290.768054
 30
0.0
  0
SPLINE
  5
1be
100
AcDbEntity
  8
Layer_1
 62
7
100
AcDbSpline
 70
8
 71
3
 72
8
 73
4
 74
0
 40
0
 40
0
 40
0
 40
0
 40
1
 40
1
 40
1
 40
1
 10
11.319861
 20
290.768054
 30
0.0
 10
11.348801
 20
290.733310
 30
0.0
 10
11.381631
 20
290.685031
 30
0.0
 10
11.392781
 20
290.660767
 30
0.0
  0
SPLINE
  5
1bf
100
AcDbEntity
  8
Layer_1
 62
7
100
AcDbSpline
 70
8
 71
3
 72
8
 73
4
 74
0
 40
0
 40
0
 40
0
 40
0
 40
1
 40
1
 40
1
 40
1
 10
11.392781
 20
290.660767
 30
0.0
 10
11.403951
 20
290.636506
 30
0.0
 10
11.446171
 20
290.563247
 30
0.0
 10
11.486611
 20
290.497973
 30
0.0
  0
SPLINE
  5
1c0
100
AcDbEntity
  8
Layer_1
 62
7
100
AcDbSpline
 70
8
 71
3
 72
8
 73
4
 74
0
 40
0
 40
0
 40
0
 40
0
 40
1
 40
1
 40
1
 40
1
 10
11.486611
 20
290.497973
 30
0.0
 10
11.571521
 20
290.360942
 30
0.0
 10
11.692673
 20
290.121225
 30
0.0
 10
11.692673
 20
290.090231
 30
0.0
  0
SPLINE
  5
1c1
100
AcDbEntity
  8
Layer_1
 62
7
100
AcDbSpline
 70
8
 71
3
 72
8
 73
4
 74
0
 40
0
 40
0
 40
0
 40
0
 40
1
 40
1
 40
1
 40
1
 10
11.692673
 20
290.090231
 30
0.0
 10
11.692673
 20
290.078603
 30
0.0
 10
11.702073
 20
290.061263
 30
0.0
 10
11.713593
 20
290.051714
 30
0.0
  0
LWPOLYLINE
  5
1c2
100
AcDbEntity
  8
Layer_1
 62
7
100
AcDbPolyline
 90
3
 70
0
 10
10.012192
 20
290.792222
 30
0.0
 10
10.035052
 20
290.861029
 30
0.0
 10
10.065272
 20
290.877289
 30
0.0
  0
SPLINE
  5
1c3
100
AcDbEntity
  8
Layer_1
 62
7
100
AcDbSpline
 70
8
 71
3
 72
8
 73
4
 74
0
 40
0
 40
0
 40
0
 40
0
 40
1
 40
1
 40
1
 40
1
 10
11.734513
 20
289.999340
 30
0.0
 10
11.734513
 20
289.980084
 30
0.0
 10
11.746403
 20
289.944760
 30
0.0
 10
11.760943
 20
289.920839
 30
0.0
  0
SPLINE
  5
1c4
100
AcDbEntity
  8
Layer_1
 62
7
100
AcDbSpline
 70
8
 71
3
 72
8
 73
4
 74
0
 40
0
 40
0
 40
0
 40
0
 40
1
 40
1
 40
1
 40
1
 10
11.760943
 20
289.920839
 30
0.0
 10
11.807663
 20
289.843974
 30
0.0
 10
11.929797
 20
289.494288
 30
0.0
 10
11.929797
 20
289.437401
 30
0.0
  0
SPLINE
  5
1c5
100
AcDbEntity
  8
Layer_1
 62
7
100
AcDbSpline
 70
8
 71
3
 72
8
 73
4
 74
0
 40
0
 40
0
 40
0
 40
0
 40
1
 40
1
 40
1
 40
1
 10
11.929797
 20
289.437401
 30
0.0
 10
11.929797
 20
289.421345
 30
0.0
 10
11.935997
 20
289.396674
 30
0.0
 10
11.943517
 20
289.382570
 30
0.0
  0
LWPOLYLINE
  5
1c6
100
AcDbEntity
  8
Layer_1
 62
7
100
AcDbPolyline
 90
3
 70
0
 10
11.713593
 20
290.051714
 30
0.0
 10
11.734513
 20
290.034347
 30
0.0
 10
11.734513
 20
289.999340
 30
0.0
  0
SPLINE
  5
1c7
100
AcDbEntity
  8
Layer_1
 62
7
100
AcDbSpline
 70
8
 71
3
 72
8
 73
4
 74
0
 40
0
 40
0
 40
0
 40
0
 40
1
 40
1
 40
1
 40
1
 10
11.942907
 20
289.275380
 30
0.0
 10
11.935107
 20
289.230528
 30
0.0
 10
11.918137
 20
289.173679
 30
0.0
 10
11.905387
 20
289.149049
 30
0.0
  0
SPLINE
  5
1c8
100
AcDbEntity
  8
Layer_1
 62
7
100
AcDbSpline
 70
8
 71
3
 72
8
 73
4
 74
0
 40
0
 40
0
 40
0
 40
0
 40
1
 40
1
 40
1
 40
1
 10
11.905387
 20
289.149049
 30
0.0
 10
11.873427
 20
289.087341
 30
0.0
 10
11.888837
 20
289.080389
 30
0.0
 10
11.962217
 20
289.123388
 30
0.0
  0
LWPOLYLINE
  5
1c9
100
AcDbEntity
  8
Layer_1
 62
7
100
AcDbPolyline
 90
3
 70
0
 10
11.943517
 20
289.382570
 30
0.0
 10
11.957237
 20
289.356927
 30
0.0
 10
11.942907
 20
289.275380
 30
0.0
  0
SPLINE
  5
1ca
100
AcDbEntity
  8
Layer_1
 62
7
100
AcDbSpline
 70
8
 71
3
 72
8
 73
4
 74
0
 40
0
 40
0
 40
0
 40
0
 40
1
 40
1
 40
1
 40
1
 10
12.047297
 20
289.100205
 30
0.0
 10
12.059697
 20
289.067308
 30
0.0
 10
12.074497
 20
288.990172
 30
0.0
 10
12.080157
 20
288.928797
 30
0.0
  0
LWPOLYLINE
  5
1cb
100
AcDbEntity
  8
Layer_1
 62
7
100
AcDbPolyline
 90
3
 70
0
 10
11.962217
 20
289.123388
 30
0.0
 10
12.024727
 20
289.160020
 30
0.0
 10
12.047297
 20
289.100205
 30
0.0
  0
SPLINE
  5
1cc
100
AcDbEntity
  8
Layer_1
 62
7
100
AcDbSpline
 70
8
 71
3
 72
8
 73
4
 74
0
 40
0
 40
0
 40
0
 40
0
 40
1
 40
1
 40
1
 40
1
 10
12.080507
 20
288.768380
 30
0.0
 10
12.075107
 20
288.741528
 30
0.0
 10
12.062857
 20
288.682616
 30
0.0
 10
12.053297
 20
288.637463
 30
0.0
  0
LWPOLYLINE
  5
1cd
100
AcDbEntity
  8
Layer_1
 62
7
100
AcDbPolyline
 90
3
 70
0
 10
12.080157
 20
288.928797
 30
0.0
 10
12.090407
 20
288.817203
 30
0.0
 10
12.080507
 20
288.768380
 30
0.0
  0
SPLINE
  5
1ce
100
AcDbEntity
  8
Layer_1
 62
7
100
AcDbSpline
 70
8
 71
3
 72
8
 73
4
 74
0
 40
0
 40
0
 40
0
 40
0
 40
1
 40
1
 40
1
 40
1
 10
11.875887
 20
288.419298
 30
0.0
 10
11.848657
 20
288.341179
 30
0.0
 10
11.789007
 20
288.306161
 30
0.0
 10
11.747369
 20
288.343842
 30
0.0
  0
LWPOLYLINE
  5
1cf
100
AcDbEntity
  8
Layer_1
 62
7
100
AcDbPolyline
 90
5
 70
0
 10
12.053297
 20
288.637463
 30
0.0
 10
12.035937
 20
288.555367
 30
0.0
 10
11.963467
 20
288.509004
 30
0.0
 10
11.890997
 20
288.462641
 30
0.0
 10
11.875887
 20
288.419298
 30
0.0
  0
SPLINE
  5
1d0
100
AcDbEntity
  8
Layer_1
 62
7
100
AcDbSpline
 70
8
 71
3
 72
8
 73
4
 74
0
 40
0
 40
0
 40
0
 40
0
 40
1
 40
1
 40
1
 40
1
 10
11.707389
 20
288.317630
 30
0.0
 10
11.698689
 20
288.291205
 30
0.0
 10
11.679569
 20
288.258758
 30
0.0
 10
11.664949
 20
288.245527
 30
0.0
  0
SPLINE
  5
1d1
100
AcDbEntity
  8
Layer_1
 62
7
100
AcDbSpline
 70
8
 71
3
 72
8
 73
4
 74
0
 40
0
 40
0
 40
0
 40
0
 40
1
 40
1
 40
1
 40
1
 10
11.664949
 20
288.245527
 30
0.0
 10
11.650329
 20
288.232300
 30
0.0
 10
11.634469
 20
288.203766
 30
0.0
 10
11.629719
 20
288.182127
 30
0.0
  0
LWPOLYLINE
  5
1d2
100
AcDbEntity
  8
Layer_1
 62
7
100
AcDbPolyline
 90
3
 70
0
 10
11.747369
 20
288.343842
 30
0.0
 10
11.723249
 20
288.365677
 30
0.0
 10
11.707389
 20
288.317630
 30
0.0
  0
SPLINE
  5
1d3
100
AcDbEntity
  8
Layer_1
 62
7
100
AcDbSpline
 70
8
 71
3
 72
8
 73
4
 74
0
 40
0
 40
0
 40
0
 40
0
 40
1
 40
1
 40
1
 40
1
 10
11.530399
 20
288.129727
 30
0.0
 10
11.525199
 20
288.138137
 30
0.0
 10
11.522799
 20
288.236627
 30
0.0
 10
11.525099
 20
288.348594
 30
0.0
  0
SPLINE
  5
1d4
100
AcDbEntity
  8
Layer_1
 62
7
100
AcDbSpline
 70
8
 71
3
 72
8
 73
4
 74
0
 40
0
 40
0
 40
0
 40
0
 40
1
 40
1
 40
1
 40
1
 10
11.525099
 20
288.348594
 30
0.0
 10
11.527399
 20
288.460559
 30
0.0
 10
11.529199
 20
288.569897
 30
0.0
 10
11.529199
 20
288.591568
 30
0.0
  0
LWPOLYLINE
  5
1d5
100
AcDbEntity
  8
Layer_1
 62
7
100
AcDbPolyline
 90
5
 70
0
 10
11.629719
 20
288.182127
 30
0.0
 10
11.621119
 20
288.142786
 30
0.0
 10
11.580459
 20
288.128607
 30
0.0
 10
11.539799
 20
288.114428
 30
0.0
 10
11.530399
 20
288.129727
 30
0.0
  0
SPLINE
  5
1d6
100
AcDbEntity
  8
Layer_1
 62
7
100
AcDbSpline
 70
8
 71
3
 72
8
 73
4
 74
0
 40
0
 40
0
 40
0
 40
0
 40
1
 40
1
 40
1
 40
1
 10
11.367455
 20
288.647131
 30
0.0
 10
11.233616
 20
288.624087
 30
0.0
 10
11.224800
 20
288.625879
 30
0.0
 10
11.237461
 20
288.673566
 30
0.0
  0
LWPOLYLINE
  5
1d7
100
AcDbEntity
  8
Layer_1
 62
7
100
AcDbPolyline
 90
5
 70
0
 10
11.529199
 20
288.591568
 30
0.0
 10
11.529146
 20
288.630968
 30
0.0
 10
11.509766
 20
288.649631
 30
0.0
 10
11.490376
 20
288.668294
 30
0.0
 10
11.367455
 20
288.647131
 30
0.0
  0
SPLINE
  5
1d8
100
AcDbEntity
  8
Layer_1
 62
7
100
AcDbSpline
 70
8
 71
3
 72
8
 73
4
 74
0
 40
0
 40
0
 40
0
 40
0
 40
1
 40
1
 40
1
 40
1
 10
11.471640
 20
288.977303
 30
0.0
 10
11.466340
 20
289.021652
 30
0.0
 10
11.318382
 20
289.326353
 30
0.0
 10
11.302104
 20
289.326353
 30
0.0
  0
SPLINE
  5
1d9
100
AcDbEntity
  8
Layer_1
 62
7
100
AcDbSpline
 70
8
 71
3
 72
8
 73
4
 74
0
 40
0
 40
0
 40
0
 40
0
 40
1
 40
1
 40
1
 40
1
 10
11.302104
 20
289.326353
 30
0.0
 10
11.295404
 20
289.326353
 30
0.0
 10
11.285574
 20
289.340393
 30
0.0
 10
11.280134
 20
289.357537
 30
0.0
  0
SPLINE
  5
1da
100
AcDbEntity
  8
Layer_1
 62
7
100
AcDbSpline
 70
8
 71
3
 72
8
 73
4
 74
0
 40
0
 40
0
 40
0
 40
0
 40
1
 40
1
 40
1
 40
1
 10
11.280134
 20
289.357537
 30
0.0
 10
11.262924
 20
289.411764
 30
0.0
 10
11.028093
 20
289.696774
 30
0.0
 10
10.975805
 20
289.726897
 30
0.0
  0
SPLINE
  5
1db
100
AcDbEntity
  8
Layer_1
 62
7
100
AcDbSpline
 70
8
 71
3
 72
8
 73
4
 74
0
 40
0
 40
0
 40
0
 40
0
 40
1
 40
1
 40
1
 40
1
 10
10.975805
 20
289.726897
 30
0.0
 10
10.932315
 20
289.751952
 30
0.0
 10
10.927605
 20
289.749445
 30
0.0
 10
10.917565
 20
289.695881
 30
0.0
  0
LWPOLYLINE
  5
1dc
100
AcDbEntity
  8
Layer_1
 62
7
100
AcDbPolyline
 90
5
 70
0
 10
11.237461
 20
288.673566
 30
0.0
 10
11.245961
 20
288.705602
 30
0.0
 10
11.360850
 20
288.823862
 30
0.0
 10
11.475740
 20
288.942122
 30
0.0
 10
11.471640
 20
288.977303
 30
0.0
  0
SPLINE
  5
1dd
100
AcDbEntity
  8
Layer_1
 62
7
100
AcDbSpline
 70
8
 71
3
 72
8
 73
4
 74
0
 40
0
 40
0
 40
0
 40
0
 40
1
 40
1
 40
1
 40
1
 10
10.788065
 20
289.515360
 30
0.0
 10
10.798425
 20
289.511800
 30
0.0
 10
10.825095
 20
289.507040
 30
0.0
 10
10.847345
 20
289.504800
 30
0.0
  0
LWPOLYLINE
  5
1de
100
AcDbEntity
  8
Layer_1
 62
7
100
AcDbPolyline
 90
5
 70
0
 10
10.917565
 20
289.695881
 30
0.0
 10
10.908365
 20
289.646936
 30
0.0
 10
10.838795
 20
289.584388
 30
0.0
 10
10.769225
 20
289.521840
 30
0.0
 10
10.788065
 20
289.515360
 30
0.0
  0
SPLINE
  5
1df
100
AcDbEntity
  8
Layer_1
 62
7
100
AcDbSpline
 70
8
 71
3
 72
8
 73
4
 74
0
 40
0
 40
0
 40
0
 40
0
 40
1
 40
1
 40
1
 40
1
 10
10.898025
 20
289.479796
 30
0.0
 10
10.903625
 20
289.468289
 30
0.0
 10
10.914895
 20
289.430347
 30
0.0
 10
10.923025
 20
289.395485
 30
0.0
  0
LWPOLYLINE
  5
1e0
100
AcDbEntity
  8
Layer_1
 62
7
100
AcDbPolyline
 90
3
 70
0
 10
10.847345
 20
289.504800
 30
0.0
 10
10.887785
 20
289.500720
 30
0.0
 10
10.898025
 20
289.479796
 30
0.0
  0
SPLINE
  5
1e1
100
AcDbEntity
  8
Layer_1
 62
7
100
AcDbSpline
 70
8
 71
3
 72
8
 73
4
 74
0
 40
0
 40
0
 40
0
 40
0
 40
1
 40
1
 40
1
 40
1
 10
10.857745
 20
289.173226
 30
0.0
 10
10.826005
 20
289.140515
 30
0.0
 10
10.800035
 20
289.108518
 30
0.0
 10
10.800035
 20
289.102118
 30
0.0
  0
SPLINE
  5
1e2
100
AcDbEntity
  8
Layer_1
 62
7
100
AcDbSpline
 70
8
 71
3
 72
8
 73
4
 74
0
 40
0
 40
0
 40
0
 40
0
 40
1
 40
1
 40
1
 40
1
 10
10.800035
 20
289.102118
 30
0.0
 10
10.800035
 20
289.095718
 30
0.0
 10
10.776495
 20
289.086203
 30
0.0
 10
10.747725
 20
289.080974
 30
0.0
  0
SPLINE
  5
1e3
100
AcDbEntity
  8
Layer_1
 62
7
100
AcDbSpline
 70
8
 71
3
 72
8
 73
4
 74
0
 40
0
 40
0
 40
0
 40
0
 40
1
 40
1
 40
1
 40
1
 10
10.747725
 20
289.080974
 30
0.0
 10
10.694055
 20
289.071214
 30
0.0
 10
10.572313
 20
289.016138
 30
0.0
 10
10.535001
 20
288.984731
 30
0.0
  0
LWPOLYLINE
  5
1e4
100
AcDbEntity
  8
Layer_1
 62
7
100
AcDbPolyline
 90
5
 70
0
 10
10.923025
 20
289.395485
 30
0.0
 10
10.937785
 20
289.332098
 30
0.0
 10
10.926625
 20
289.282397
 30
0.0
 10
10.915465
 20
289.232697
 30
0.0
 10
10.857745
 20
289.173226
 30
0.0
  0
SPLINE
  5
1e5
100
AcDbEntity
  8
Layer_1
 62
7
100
AcDbSpline
 70
8
 71
3
 72
8
 73
4
 74
0
 40
0
 40
0
 40
0
 40
0
 40
1
 40
1
 40
1
 40
1
 10
10.179300
 20
288.863312
 30
0.0
 10
10.256020
 20
288.871562
 30
0.0
 10
10.358822
 20
288.884380
 30
0.0
 10
10.407749
 20
288.891788
 30
0.0
  0
LWPOLYLINE
  5
1e6
100
AcDbEntity
  8
Layer_1
 62
7
100
AcDbPolyline
 90
13
 70
0
 10
10.535001
 20
288.984731
 30
0.0
 10
10.514081
 20
288.967122
 30
0.0
 10
10.414911
 20
288.960432
 30
0.0
 10
10.315751
 20
288.953742
 30
0.0
 10
10.268451
 20
288.929158
 30
0.0
 10
10.221151
 20
288.904573
 30
0.0
 10
9.963092
 20
288.897733
 30
0.0
 10
9.705033
 20
288.890893
 30
0.0
 10
9.693260
 20
288.879946
 30
0.0
 10
9.681487
 20
288.868999
 30
0.0
 10
9.860648
 20
288.858652
 30
0.0
 10
10.039808
 20
288.848305
 30
0.0
 10
10.179300
 20
288.863312
 30
0.0
  0
SPLINE
  5
1e7
100
AcDbEntity
  8
Layer_1
 62
7
100
AcDbSpline
 70
8
 71
3
 72
8
 73
4
 74
0
 40
0
 40
0
 40
0
 40
0
 40
1
 40
1
 40
1
 40
1
 10
10.533299
 20
288.932141
 30
0.0
 10
10.553419
 20
288.946918
 30
0.0
 10
10.590289
 20
288.963052
 30
0.0
 10
10.615219
 20
288.967977
 30
0.0
  0
SPLINE
  5
1e8
100
AcDbEntity
  8
Layer_1
 62
7
100
AcDbSpline
 70
8
 71
3
 72
8
 73
4
 74
0
 40
0
 40
0
 40
0
 40
0
 40
1
 40
1
 40
1
 40
1
 10
10.615219
 20
288.967977
 30
0.0
 10
10.674409
 20
288.979670
 30
0.0
 10
10.777707
 20
289.027026
 30
0.0
 10
10.806226
 20
289.055548
 30
0.0
  0
LWPOLYLINE
  5
1e9
100
AcDbEntity
  8
Layer_1
 62
7
100
AcDbPolyline
 90
3
 70
0
 10
10.407749
 20
288.891788
 30
0.0
 10
10.496709
 20
288.905260
 30
0.0
 10
10.533299
 20
288.932141
 30
0.0
  0
SPLINE
  5
1ea
100
AcDbEntity
  8
Layer_1
 62
7
100
AcDbSpline
 70
8
 71
3
 72
8
 73
4
 74
0
 40
0
 40
0
 40
0
 40
0
 40
1
 40
1
 40
1
 40
1
 10
10.877186
 20
289.079446
 30
0.0
 10
10.903826
 20
289.080206
 30
0.0
 10
10.931386
 20
289.074856
 30
0.0
 10
10.938436
 20
289.067579
 30
0.0
  0
LWPOLYLINE
  5
1eb
100
AcDbEntity
  8
Layer_1
 62
7
100
AcDbPolyline
 90
3
 70
0
 10
10.806226
 20
289.055548
 30
0.0
 10
10.828736
 20
289.078056
 30
0.0
 10
10.877186
 20
289.079446
 30
0.0
  0
SPLINE
  5
1ec
100
AcDbEntity
  8
Layer_1
 62
7
100
AcDbSpline
 70
8
 71
3
 72
8
 73
4
 74
0
 40
0
 40
0
 40
0
 40
0
 40
1
 40
1
 40
1
 40
1
 10
10.951746
 20
288.719572
 30
0.0
 10
10.944946
 20
288.673539
 30
0.0
 10
10.932886
 20
288.588798
 30
0.0
 10
10.924856
 20
288.531258
 30
0.0
  0
SPLINE
  5
1ed
100
AcDbEntity
  8
Layer_1
 62
7
100
AcDbSpline
 70
8
 71
3
 72
8
 73
4
 74
0
 40
0
 40
0
 40
0
 40
0
 40
1
 40
1
 40
1
 40
1
 10
10.924856
 20
288.531258
 30
0.0
 10
10.916756
 20
288.473717
 30
0.0
 10
10.900666
 20
288.382698
 30
0.0
 10
10.888976
 20
288.328995
 30
0.0
  0
SPLINE
  5
1ee
100
AcDbEntity
  8
Layer_1
 62
7
100
AcDbSpline
 70
8
 71
3
 72
8
 73
4
 74
0
 40
0
 40
0
 40
0
 40
0
 40
1
 40
1
 40
1
 40
1
 10
10.888976
 20
288.328995
 30
0.0
 10
10.877266
 20
288.275290
 30
0.0
 10
10.862396
 20
288.203104
 30
0.0
 10
10.855916
 20
288.168580
 30
0.0
  0
SPLINE
  5
1ef
100
AcDbEntity
  8
Layer_1
 62
7
100
AcDbSpline
 70
8
 71
3
 72
8
 73
4
 74
0
 40
0
 40
0
 40
0
 40
0
 40
1
 40
1
 40
1
 40
1
 10
10.855916
 20
288.168580
 30
0.0
 10
10.843606
 20
288.103092
 30
0.0
 10
10.793966
 20
287.899088
 30
0.0
 10
10.772746
 20
287.826825
 30
0.0
  0
SPLINE
  5
1f0
100
AcDbEntity
  8
Layer_1
 62
7
100
AcDbSpline
 70
8
 71
3
 72
8
 73
4
 74
0
 40
0
 40
0
 40
0
 40
0
 40
1
 40
1
 40
1
 40
1
 10
10.772746
 20
287.826825
 30
0.0
 10
10.765946
 20
287.803810
 30
0.0
 10
10.756366
 20
287.758942
 30
0.0
 10
10.751376
 20
287.727125
 30
0.0
  0
LWPOLYLINE
  5
1f1
100
AcDbEntity
  8
Layer_1
 62
7
100
AcDbPolyline
 90
5
 70
0
 10
10.938436
 20
289.067579
 30
0.0
 10
10.951236
 20
289.054352
 30
0.0
 10
10.957636
 20
288.928809
 30
0.0
 10
10.964036
 20
288.803267
 30
0.0
 10
10.951746
 20
288.719572
 30
0.0
  0
SPLINE
  5
1f2
100
AcDbEntity
  8
Layer_1
 62
7
100
AcDbSpline
 70
8
 71
3
 72
8
 73
4
 74
0
 40
0
 40
0
 40
0
 40
0
 40
1
 40
1
 40
1
 40
1
 10
10.778756
 20
287.690827
 30
0.0
 10
10.784056
 20
287.711831
 30
0.0
 10
10.794876
 20
287.736895
 30
0.0
 10
10.802876
 20
287.746527
 30
0.0
  0
LWPOLYLINE
  5
1f3
100
AcDbEntity
  8
Layer_1
 62
7
100
AcDbPolyline
 90
5
 70
0
 10
10.751376
 20
287.727125
 30
0.0
 10
10.742276
 20
287.669272
 30
0.0
 10
10.755716
 20
287.660962
 30
0.0
 10
10.769156
 20
287.652642
 30
0.0
 10
10.778756
 20
287.690827
 30
0.0
  0
SPLINE
  5
1f4
100
AcDbEntity
  8
Layer_1
 62
7
100
AcDbSpline
 70
8
 71
3
 72
8
 73
4
 74
0
 40
0
 40
0
 40
0
 40
0
 40
1
 40
1
 40
1
 40
1
 10
10.953486
 20
287.702542
 30
0.0
 10
11.043386
 20
287.614999
 30
0.0
 10
11.086210
 20
287.565709
 30
0.0
 10
11.106515
 20
287.526373
 30
0.0
  0
SPLINE
  5
1f5
100
AcDbEntity
  8
Layer_1
 62
7
100
AcDbSpline
 70
8
 71
3
 72
8
 73
4
 74
0
 40
0
 40
0
 40
0
 40
0
 40
1
 40
1
 40
1
 40
1
 10
11.106515
 20
287.526373
 30
0.0
 10
11.116315
 20
287.507441
 30
0.0
 10
11.138415
 20
287.476257
 30
0.0
 10
11.155695
 20
287.457078
 30
0.0
  0
SPLINE
  5
1f6
100
AcDbEntity
  8
Layer_1
 62
7
100
AcDbSpline
 70
8
 71
3
 72
8
 73
4
 74
0
 40
0
 40
0
 40
0
 40
0
 40
1
 40
1
 40
1
 40
1
 10
11.155695
 20
287.457078
 30
0.0
 10
11.172965
 20
287.437897
 30
0.0
 10
11.195735
 20
287.405425
 30
0.0
 10
11.206295
 20
287.384915
 30
0.0
  0
SPLINE
  5
1f7
100
AcDbEntity
  8
Layer_1
 62
7
100
AcDbSpline
 70
8
 71
3
 72
8
 73
4
 74
0
 40
0
 40
0
 40
0
 40
0
 40
1
 40
1
 40
1
 40
1
 10
11.206295
 20
287.384915
 30
0.0
 10
11.216885
 20
287.364407
 30
0.0
 10
11.246275
 20
287.311051
 30
0.0
 10
11.271675
 20
287.266347
 30
0.0
  0
SPLINE
  5
1f8
100
AcDbEntity
  8
Layer_1
 62
7
100
AcDbSpline
 70
8
 71
3
 72
8
 73
4
 74
0
 40
0
 40
0
 40
0
 40
0
 40
1
 40
1
 40
1
 40
1
 10
11.271675
 20
287.266347
 30
0.0
 10
11.297075
 20
287.221643
 30
0.0
 10
11.322805
 20
287.159068
 30
0.0
 10
11.328875
 20
287.127290
 30
0.0
  0
LWPOLYLINE
  5
1f9
100
AcDbEntity
  8
Layer_1
 62
7
100
AcDbPolyline
 90
5
 70
0
 10
10.802876
 20
287.746527
 30
0.0
 10
10.817406
 20
287.764040
 30
0.0
 10
10.854066
 20
287.763851
 30
0.0
 10
10.890716
 20
287.763662
 30
0.0
 10
10.953486
 20
287.702542
 30
0.0
  0
SPLINE
  5
1fa
100
AcDbEntity
  8
Layer_1
 62
7
100
AcDbSpline
 70
8
 71
3
 72
8
 73
4
 74
0
 40
0
 40
0
 40
0
 40
0
 40
1
 40
1
 40
1
 40
1
 10
11.306795
 20
286.990943
 30
0.0
 10
11.273465
 20
286.911903
 30
0.0
 10
11.263755
 20
286.898803
 30
0.0
 10
11.159279
 20
286.791921
 30
0.0
  0
LWPOLYLINE
  5
1fb
100
AcDbEntity
  8
Layer_1
 62
7
100
AcDbPolyline
 90
3
 70
0
 10
11.328875
 20
287.127290
 30
0.0
 10
11.339925
 20
287.069515
 30
0.0
 10
11.306795
 20
286.990943
 30
0.0
  0
SPLINE
  5
1fc
100
AcDbEntity
  8
Layer_1
 62
7
100
AcDbSpline
 70
8
 71
3
 72
8
 73
4
 74
0
 40
0
 40
0
 40
0
 40
0
 40
1
 40
1
 40
1
 40
1
 10
11.066369
 20
286.724561
 30
0.0
 10
11.046639
 20
286.719661
 30
0.0
 10
11.026619
 20
286.709251
 30
0.0
 10
11.021839
 20
286.701531
 30
0.0
  0
LWPOLYLINE
  5
1fd
100
AcDbEntity
  8
Layer_1
 62
7
100
AcDbPolyline
 90
3
 70
0
 10
11.159279
 20
286.791921
 30
0.0
 10
11.102229
 20
286.733561
 30
0.0
 10
11.066369
 20
286.724561
 30
0.0
  0
SPLINE
  5
1fe
100
AcDbEntity
  8
Layer_1
 62
7
100
AcDbSpline
 70
8
 71
3
 72
8
 73
4
 74
0
 40
0
 40
0
 40
0
 40
0
 40
1
 40
1
 40
1
 40
1
 10
10.637439
 20
286.778991
 30
0.0
 10
10.602079
 20
286.818291
 30
0.0
 10
10.558749
 20
286.873121
 30
0.0
 10
10.541169
 20
286.900860
 30
0.0
  0
LWPOLYLINE
  5
1ff
100
AcDbEntity
  8
Layer_1
 62
7
100
AcDbPolyline
 90
7
 70
0
 10
11.021839
 20
286.701531
 30
0.0
 10
11.013239
 20
286.687511
 30
0.0
 10
10.900339
 20
286.679811
 30
0.0
 10
10.787439
 20
286.672111
 30
0.0
 10
10.744599
 20
286.689851
 30
0.0
 10
10.701759
 20
286.707601
 30
0.0
 10
10.637439
 20
286.778991
 30
0.0
  0
SPLINE
  5
200
100
AcDbEntity
  8
Layer_1
 62
7
100
AcDbSpline
 70
8
 71
3
 72
8
 73
4
 74
0
 40
0
 40
0
 40
0
 40
0
 40
1
 40
1
 40
1
 40
1
 10
10.528529
 20
287.005484
 30
0.0
 10
10.539119
 20
287.035279
 30
0.0
 10
10.548119
 20
287.077444
 30
0.0
 10
10.548449
 20
287.099181
 30
0.0
  0
LWPOLYLINE
  5
201
100
AcDbEntity
  8
Layer_1
 62
7
100
AcDbPolyline
 90
3
 70
0
 10
10.541169
 20
286.900860
 30
0.0
 10
10.509219
 20
286.951310
 30
0.0
 10
10.528529
 20
287.005484
 30
0.0
  0
SPLINE
  5
202
100
AcDbEntity
  8
Layer_1
 62
7
100
AcDbSpline
 70
8
 71
3
 72
8
 73
4
 74
0
 40
0
 40
0
 40
0
 40
0
 40
1
 40
1
 40
1
 40
1
 10
10.531990
 20
287.133015
 30
0.0
 10
10.522590
 20
287.129885
 30
0.0
 10
10.510950
 20
287.107970
 30
0.0
 10
10.506120
 20
287.084318
 30
0.0
  0
SPLINE
  5
203
100
AcDbEntity
  8
Layer_1
 62
7
100
AcDbSpline
 70
8
 71
3
 72
8
 73
4
 74
0
 40
0
 40
0
 40
0
 40
0
 40
1
 40
1
 40
1
 40
1
 10
10.506120
 20
287.084318
 30
0.0
 10
10.501320
 20
287.060666
 30
0.0
 10
10.483860
 20
287.024195
 30
0.0
 10
10.467410
 20
287.003273
 30
0.0
  0
SPLINE
  5
204
100
AcDbEntity
  8
Layer_1
 62
7
100
AcDbSpline
 70
8
 71
3
 72
8
 73
4
 74
0
 40
0
 40
0
 40
0
 40
0
 40
1
 40
1
 40
1
 40
1
 10
10.467410
 20
287.003273
 30
0.0
 10
10.450950
 20
286.982350
 30
0.0
 10
10.437490
 20
286.958726
 30
0.0
 10
10.437490
 20
286.950775
 30
0.0
  0
SPLINE
  5
205
100
AcDbEntity
  8
Layer_1
 62
7
100
AcDbSpline
 70
8
 71
3
 72
8
 73
4
 74
0
 40
0
 40
0
 40
0
 40
0
 40
1
 40
1
 40
1
 40
1
 10
10.437490
 20
286.950775
 30
0.0
 10
10.437490
 20
286.942875
 30
0.0
 10
10.428890
 20
286.926405
 30
0.0
 10
10.418430
 20
286.914295
 30
0.0
  0
SPLINE
  5
206
100
AcDbEntity
  8
Layer_1
 62
7
100
AcDbSpline
 70
8
 71
3
 72
8
 73
4
 74
0
 40
0
 40
0
 40
0
 40
0
 40
1
 40
1
 40
1
 40
1
 10
10.418430
 20
286.914295
 30
0.0
 10
10.402170
 20
286.895515
 30
0.0
 10
10.363370
 20
286.824515
 30
0.0
 10
10.231106
 20
286.571441
 30
0.0
  0
SPLINE
  5
207
100
AcDbEntity
  8
Layer_1
 62
7
100
AcDbSpline
 70
8
 71
3
 72
8
 73
4
 74
0
 40
0
 40
0
 40
0
 40
0
 40
1
 40
1
 40
1
 40
1
 10
10.231106
 20
286.571441
 30
0.0
 10
10.160466
 20
286.436281
 30
0.0
 10
10.039463
 20
286.291146
 30
0.0
 10
9.986302
 20
286.277803
 30
0.0
  0
LWPOLYLINE
  5
208
100
AcDbEntity
  8
Layer_1
 62
7
100
AcDbPolyline
 90
3
 70
0
 10
10.548449
 20
287.099181
 30
0.0
 10
10.549070
 20
287.138705
 30
0.0
 10
10.531990
 20
287.133015
 30
0.0
  0
SPLINE
  5
209
100
AcDbEntity
  8
Layer_1
 62
7
100
AcDbSpline
 70
8
 71
3
 72
8
 73
4
 74
0
 40
0
 40
0
 40
0
 40
0
 40
1
 40
1
 40
1
 40
1
 10
9.941625
 20
286.224873
 30
0.0
 10
9.936515
 20
286.200653
 30
0.0
 10
9.920278
 20
286.161003
 30
0.0
 10
9.905554
 20
286.136743
 30
0.0
  0
LWPOLYLINE
  5
20a
100
AcDbEntity
  8
Layer_1
 62
7
100
AcDbPolyline
 90
3
 70
0
 10
9.986302
 20
286.277803
 30
0.0
 10
9.950915
 20
286.268903
 30
0.0
 10
9.941625
 20
286.224873
 30
0.0
  0
SPLINE
  5
20b
100
AcDbEntity
  8
Layer_1
 62
7
100
AcDbSpline
 70
8
 71
3
 72
8
 73
4
 74
0
 40
0
 40
0
 40
0
 40
0
 40
1
 40
1
 40
1
 40
1
 10
9.728858
 20
286.099713
 30
0.0
 10
9.721668
 20
286.090613
 30
0.0
 10
9.708382
 20
286.060183
 30
0.0
 10
9.699321
 20
286.032043
 30
0.0
  0
LWPOLYLINE
  5
20c
100
AcDbEntity
  8
Layer_1
 62
7
100
AcDbPolyline
 90
7
 70
0
 10
9.905554
 20
286.136743
 30
0.0
 10
9.878785
 20
286.092643
 30
0.0
 10
9.836776
 20
286.078003
 30
0.0
 10
9.794765
 20
286.063363
 30
0.0
 10
9.768338
 20
286.089793
 30
0.0
 10
9.741911
 20
286.116213
 30
0.0
 10
9.728858
 20
286.099713
 30
0.0
  0
SPLINE
  5
20d
100
AcDbEntity
  8
Layer_1
 62
7
100
AcDbSpline
 70
8
 71
3
 72
8
 73
4
 74
0
 40
0
 40
0
 40
0
 40
0
 40
1
 40
1
 40
1
 40
1
 10
9.648622
 20
285.958443
 30
0.0
 10
9.629795
 20
285.946113
 30
0.0
 10
9.597158
 20
285.933173
 30
0.0
 10
9.576093
 20
285.929703
 30
0.0
  0
LWPOLYLINE
  5
20e
100
AcDbEntity
  8
Layer_1
 62
7
100
AcDbPolyline
 90
3
 70
0
 10
9.699321
 20
286.032043
 30
0.0
 10
9.682850
 20
285.980873
 30
0.0
 10
9.648622
 20
285.958443
 30
0.0
  0
LWPOLYLINE
  5
20f
100
AcDbEntity
  8
Layer_1
 62
7
100
AcDbPolyline
 90
3
 70
0
 10
9.576093
 20
285.929703
 30
0.0
 10
9.537793
 20
285.923403
 30
0.0
 10
9.455545
 20
285.954462
 30
0.0
  0
SPLINE
  5
210
100
AcDbEntity
  8
Layer_1
 62
7
100
AcDbSpline
 70
8
 71
3
 72
8
 73
4
 74
0
 40
0
 40
0
 40
0
 40
0
 40
1
 40
1
 40
1
 40
1
 10
10.534546
 20
289.400239
 30
0.0
 10
10.589706
 20
289.404879
 30
0.0
 10
10.642151
 20
289.414432
 30
0.0
 10
10.651082
 20
289.421491
 30
0.0
  0
SPLINE
  5
211
100
AcDbEntity
  8
Layer_1
 62
7
100
AcDbSpline
 70
8
 71
3
 72
8
 73
4
 74
0
 40
0
 40
0
 40
0
 40
0
 40
1
 40
1
 40
1
 40
1
 10
10.651082
 20
289.421491
 30
0.0
 10
10.660082
 20
289.428541
 30
0.0
 10
10.691182
 20
289.442022
 30
0.0
 10
10.720352
 20
289.451422
 30
0.0
  0
LWPOLYLINE
  5
212
100
AcDbEntity
  8
Layer_1
 62
7
100
AcDbPolyline
 90
3
 70
0
 10
10.410288
 20
289.366106
 30
0.0
 10
10.434248
 20
289.391829
 30
0.0
 10
10.534546
 20
289.400239
 30
0.0
  0
SPLINE
  5
213
100
AcDbEntity
  8
Layer_1
 62
7
100
AcDbSpline
 70
8
 71
3
 72
8
 73
4
 74
0
 40
0
 40
0
 40
0
 40
0
 40
1
 40
1
 40
1
 40
1
 10
10.508302
 20
289.432750
 30
0.0
 10
10.459222
 20
289.427950
 30
0.0
 10
10.411302
 20
289.417589
 30
0.0
 10
10.401801
 20
289.409709
 30
0.0
  0
SPLINE
  5
214
100
AcDbEntity
  8
Layer_1
 62
7
100
AcDbSpline
 70
8
 71
3
 72
8
 73
4
 74
0
 40
0
 40
0
 40
0
 40
0
 40
1
 40
1
 40
1
 40
1
 10
10.401801
 20
289.409709
 30
0.0
 10
10.392401
 20
289.401839
 30
0.0
 10
10.341451
 20
289.392165
 30
0.0
 10
10.288774
 20
289.388229
 30
0.0
  0
SPLINE
  5
215
100
AcDbEntity
  8
Layer_1
 62
7
100
AcDbSpline
 70
8
 71
3
 72
8
 73
4
 74
0
 40
0
 40
0
 40
0
 40
0
 40
1
 40
1
 40
1
 40
1
 10
10.288774
 20
289.388229
 30
0.0
 10
10.236114
 20
289.384299
 30
0.0
 10
10.172513
 20
289.378559
 30
0.0
 10
10.147461
 20
289.375496
 30
0.0
  0
LWPOLYLINE
  5
216
100
AcDbEntity
  8
Layer_1
 62
7
100
AcDbPolyline
 90
9
 70
0
 10
10.720352
 20
289.451422
 30
0.0
 10
10.773382
 20
289.468510
 30
0.0
 10
10.767782
 20
289.484626
 30
0.0
 10
10.762082
 20
289.500742
 30
0.0
 10
10.702412
 20
289.499412
 30
0.0
 10
10.642742
 20
289.498082
 30
0.0
 10
10.620142
 20
289.469775
 30
0.0
 10
10.597542
 20
289.441470
 30
0.0
 10
10.508302
 20
289.432750
 30
0.0
  0
SPLINE
  5
217
100
AcDbEntity
  8
Layer_1
 62
7
100
AcDbSpline
 70
8
 71
3
 72
8
 73
4
 74
0
 40
0
 40
0
 40
0
 40
0
 40
1
 40
1
 40
1
 40
1
 10
10.026021
 20
289.424721
 30
0.0
 10
10.020521
 20
289.415801
 30
0.0
 10
10.019821
 20
289.393496
 30
0.0
 10
10.024421
 20
289.375152
 30
0.0
  0
LWPOLYLINE
  5
218
100
AcDbEntity
  8
Layer_1
 62
7
100
AcDbPolyline
 90
5
 70
0
 10
10.147461
 20
289.375496
 30
0.0
 10
10.101911
 20
289.369926
 30
0.0
 10
10.068981
 20
289.405431
 30
0.0
 10
10.036051
 20
289.440936
 30
0.0
 10
10.026021
 20
289.424721
 30
0.0
  0
SPLINE
  5
219
100
AcDbEntity
  8
Layer_1
 62
7
100
AcDbSpline
 70
8
 71
3
 72
8
 73
4
 74
0
 40
0
 40
0
 40
0
 40
0
 40
1
 40
1
 40
1
 40
1
 10
10.105971
 20
289.335807
 30
0.0
 10
10.146211
 20
289.332517
 30
0.0
 10
10.225746
 20
289.332207
 30
0.0
 10
10.282731
 20
289.335117
 30
0.0
  0
LWPOLYLINE
  5
21a
100
AcDbEntity
  8
Layer_1
 62
7
100
AcDbPolyline
 90
3
 70
0
 10
10.024421
 20
289.375152
 30
0.0
 10
10.032821
 20
289.341797
 30
0.0
 10
10.105971
 20
289.335807
 30
0.0
  0
LWPOLYLINE
  5
21b
100
AcDbEntity
  8
Layer_1
 62
7
100
AcDbPolyline
 90
4
 70
0
 10
10.282731
 20
289.335117
 30
0.0
 10
10.386341
 20
289.340407
 30
0.0
 10
10.410301
 20
289.366128
 30
0.0
 10
10.410288
 20
289.366106
 30
0.0
  0
SPLINE
  5
21c
100
AcDbEntity
  8
Layer_1
 62
7
100
AcDbSpline
 70
8
 71
3
 72
8
 73
4
 74
0
 40
0
 40
0
 40
0
 40
0
 40
1
 40
1
 40
1
 40
1
 10
10.506423
 20
286.129693
 30
0.0
 10
10.506147
 20
286.142483
 30
0.0
 10
10.497523
 20
286.167973
 30
0.0
 10
10.487423
 20
286.186333
 30
0.0
  0
LWPOLYLINE
  5
21d
100
AcDbEntity
  8
Layer_1
 62
7
100
AcDbPolyline
 90
3
 70
0
 10
10.545267
 20
286.091513
 30
0.0
 10
10.506907
 20
286.106443
 30
0.0
 10
10.506423
 20
286.129693
 30
0.0
  0
SPLINE
  5
21e
100
AcDbEntity
  8
Layer_1
 62
7
100
AcDbSpline
 70
8
 71
3
 72
8
 73
4
 74
0
 40
0
 40
0
 40
0
 40
0
 40
1
 40
1
 40
1
 40
1
 10
10.490713
 20
286.287833
 30
0.0
 10
10.502703
 20
286.325293
 30
0.0
 10
10.529393
 20
286.376183
 30
0.0
 10
10.550043
 20
286.400909
 30
0.0
  0
LWPOLYLINE
  5
21f
100
AcDbEntity
  8
Layer_1
 62
7
100
AcDbPolyline
 90
3
 70
0
 10
10.487423
 20
286.186333
 30
0.0
 10
10.468923
 20
286.219723
 30
0.0
 10
10.490713
 20
286.287833
 30
0.0
  0
SPLINE
  5
220
100
AcDbEntity
  8
Layer_1
 62
7
100
AcDbSpline
 70
8
 71
3
 72
8
 73
4
 74
0
 40
0
 40
0
 40
0
 40
0
 40
1
 40
1
 40
1
 40
1
 10
11.058033
 20
286.662330
 30
0.0
 10
11.073373
 20
286.675820
 30
0.0
 10
11.100053
 20
286.691130
 30
0.0
 10
11.117313
 20
286.696370
 30
0.0
  0
SPLINE
  5
221
100
AcDbEntity
  8
Layer_1
 62
7
100
AcDbSpline
 70
8
 71
3
 72
8
 73
4
 74
0
 40
0
 40
0
 40
0
 40
0
 40
1
 40
1
 40
1
 40
1
 10
11.117313
 20
286.696370
 30
0.0
 10
11.134573
 20
286.701570
 30
0.0
 10
11.148693
 20
286.711010
 30
0.0
 10
11.148693
 20
286.717270
 30
0.0
  0
SPLINE
  5
222
100
AcDbEntity
  8
Layer_1
 62
7
100
AcDbSpline
 70
8
 71
3
 72
8
 73
4
 74
0
 40
0
 40
0
 40
0
 40
0
 40
1
 40
1
 40
1
 40
1
 10
11.148693
 20
286.717270
 30
0.0
 10
11.148693
 20
286.723570
 30
0.0
 10
11.161703
 20
286.732060
 30
0.0
 10
11.177623
 20
286.736220
 30
0.0
  0
LWPOLYLINE
  5
223
100
AcDbEntity
  8
Layer_1
 62
7
100
AcDbPolyline
 90
15
 70
0
 10
10.550043
 20
286.400909
 30
0.0
 10
10.587583
 20
286.445869
 30
0.0
 10
10.676293
 20
286.446329
 30
0.0
 10
10.765003
 20
286.446790
 30
0.0
 10
10.769403
 20
286.460290
 30
0.0
 10
10.773803
 20
286.473790
 30
0.0
 10
10.706753
 20
286.488480
 30
0.0
 10
10.639703
 20
286.503170
 30
0.0
 10
10.635703
 20
286.523810
 30
0.0
 10
10.631703
 20
286.544450
 30
0.0
 10
10.672183
 20
286.583230
 30
0.0
 10
10.712653
 20
286.622010
 30
0.0
 10
10.871394
 20
286.629910
 30
0.0
 10
11.030133
 20
286.637810
 30
0.0
 10
11.058033
 20
286.662330
 30
0.0
  0
SPLINE
  5
224
100
AcDbEntity
  8
Layer_1
 62
7
100
AcDbSpline
 70
8
 71
3
 72
8
 73
4
 74
0
 40
0
 40
0
 40
0
 40
0
 40
1
 40
1
 40
1
 40
1
 10
11.394463
 20
286.857250
 30
0.0
 10
11.400263
 20
286.631413
 30
0.0
 10
11.178689
 20
286.317999
 30
0.0
 10
10.898197
 20
286.155022
 30
0.0
  0
LWPOLYLINE
  5
225
100
AcDbEntity
  8
Layer_1
 62
7
100
AcDbPolyline
 90
11
 70
0
 10
11.177623
 20
286.736220
 30
0.0
 10
11.206553
 20
286.743820
 30
0.0
 10
11.214153
 20
286.772760
 30
0.0
 10
11.221753
 20
286.801690
 30
0.0
 10
11.240383
 20
286.801690
 30
0.0
 10
11.259003
 20
286.801690
 30
0.0
 10
11.302733
 20
286.865250
 30
0.0
 10
11.346463
 20
286.928810
 30
0.0
 10
11.369663
 20
286.924310
 30
0.0
 10
11.392863
 20
286.919810
 30
0.0
 10
11.394463
 20
286.857250
 30
0.0
  0
LWPOLYLINE
  5
226
100
AcDbEntity
  8
Layer_1
 62
7
100
AcDbPolyline
 90
6
 70
0
 10
10.898197
 20
286.155022
 30
0.0
 10
10.782569
 20
286.087842
 30
0.0
 10
10.683189
 20
286.082242
 30
0.0
 10
10.583809
 20
286.076642
 30
0.0
 10
10.545449
 20
286.091572
 30
0.0
 10
10.545267
 20
286.091513
 30
0.0
  0
SPLINE
  5
227
100
AcDbEntity
  8
Layer_1
 62
7
100
AcDbSpline
 70
8
 71
3
 72
8
 73
4
 74
0
 40
0
 40
0
 40
0
 40
0
 40
1
 40
1
 40
1
 40
1
 10
8.053617
 20
288.754457
 30
0.0
 10
8.028182
 20
288.796653
 30
0.0
 10
7.988969
 20
288.878255
 30
0.0
 10
7.966475
 20
288.935795
 30
0.0
  0
LWPOLYLINE
  5
228
100
AcDbEntity
  8
Layer_1
 62
7
100
AcDbPolyline
 90
3
 70
0
 10
8.167044
 20
288.618452
 30
0.0
 10
8.099863
 20
288.677736
 30
0.0
 10
8.053617
 20
288.754457
 30
0.0
  0
SPLINE
  5
229
100
AcDbEntity
  8
Layer_1
 62
7
100
AcDbSpline
 70
8
 71
3
 72
8
 73
4
 74
0
 40
0
 40
0
 40
0
 40
0
 40
1
 40
1
 40
1
 40
1
 10
7.974553
 20
289.523764
 30
0.0
 10
7.994482
 20
289.567116
 30
0.0
 10
8.019946
 20
289.610188
 30
0.0
 10
8.031140
 20
289.619479
 30
0.0
  0
LWPOLYLINE
  5
22a
100
AcDbEntity
  8
Layer_1
 62
7
100
AcDbPolyline
 90
7
 70
0
 10
7.966475
 20
288.935795
 30
0.0
 10
7.925579
 20
289.040415
 30
0.0
 10
7.917579
 20
289.117136
 30
0.0
 10
7.909579
 20
289.193857
 30
0.0
 10
7.923942
 20
289.319400
 30
0.0
 10
7.938321
 20
289.444943
 30
0.0
 10
7.974553
 20
289.523764
 30
0.0
  0
SPLINE
  5
22b
100
AcDbEntity
  8
Layer_1
 62
7
100
AcDbSpline
 70
8
 71
3
 72
8
 73
4
 74
0
 40
0
 40
0
 40
0
 40
0
 40
1
 40
1
 40
1
 40
1
 10
8.337379
 20
289.307308
 30
0.0
 10
8.331929
 20
289.270992
 30
0.0
 10
8.319312
 20
289.233115
 30
0.0
 10
8.309332
 20
289.223135
 30
0.0
  0
SPLINE
  5
22c
100
AcDbEntity
  8
Layer_1
 62
7
100
AcDbSpline
 70
8
 71
3
 72
8
 73
4
 74
0
 40
0
 40
0
 40
0
 40
0
 40
1
 40
1
 40
1
 40
1
 10
8.309332
 20
289.223135
 30
0.0
 10
8.286765
 20
289.200568
 30
0.0
 10
8.285308
 20
289.190024
 30
0.0
 10
8.287352
 20
289.063987
 30
0.0
  0
LWPOLYLINE
  5
22d
100
AcDbEntity
  8
Layer_1
 62
7
100
AcDbPolyline
 90
13
 70
0
 10
8.031140
 20
289.619479
 30
0.0
 10
8.051495
 20
289.636371
 30
0.0
 10
8.087286
 20
289.627381
 30
0.0
 10
8.123077
 20
289.618391
 30
0.0
 10
8.151617
 20
289.570019
 30
0.0
 10
8.180156
 20
289.521647
 30
0.0
 10
8.206677
 20
289.521647
 30
0.0
 10
8.233197
 20
289.521647
 30
0.0
 10
8.233197
 20
289.498602
 30
0.0
 10
8.233197
 20
289.475557
 30
0.0
 10
8.290233
 20
289.424446
 30
0.0
 10
8.347269
 20
289.373337
 30
0.0
 10
8.337379
 20
289.307308
 30
0.0
  0
SPLINE
  5
22e
100
AcDbEntity
  8
Layer_1
 62
7
100
AcDbSpline
 70
8
 71
3
 72
8
 73
4
 74
0
 40
0
 40
0
 40
0
 40
0
 40
1
 40
1
 40
1
 40
1
 10
8.310500
 20
289.015217
 30
0.0
 10
8.305730
 20
289.034206
 30
0.0
 10
8.306030
 20
289.086876
 30
0.0
 10
8.311168
 20
289.132262
 30
0.0
  0
LWPOLYLINE
  5
22f
100
AcDbEntity
  8
Layer_1
 62
7
100
AcDbPolyline
 90
5
 70
0
 10
8.287352
 20
289.063987
 30
0.0
 10
8.289002
 20
288.962033
 30
0.0
 10
8.304086
 20
288.971363
 30
0.0
 10
8.319170
 20
288.980693
 30
0.0
 10
8.310500
 20
289.015217
 30
0.0
  0
SPLINE
  5
230
100
AcDbEntity
  8
Layer_1
 62
7
100
AcDbSpline
 70
8
 71
3
 72
8
 73
4
 74
0
 40
0
 40
0
 40
0
 40
0
 40
1
 40
1
 40
1
 40
1
 10
8.484077
 20
289.279099
 30
0.0
 10
8.483968
 20
289.255228
 30
0.0
 10
8.474477
 20
289.208703
 30
0.0
 10
8.462980
 20
289.175708
 30
0.0
  0
LWPOLYLINE
  5
231
100
AcDbEntity
  8
Layer_1
 62
7
100
AcDbPolyline
 90
9
 70
0
 10
8.311168
 20
289.132262
 30
0.0
 10
8.320498
 20
289.214785
 30
0.0
 10
8.340090
 20
289.214785
 30
0.0
 10
8.359682
 20
289.214785
 30
0.0
 10
8.387581
 20
289.262072
 30
0.0
 10
8.415480
 20
289.309359
 30
0.0
 10
8.449881
 20
289.315929
 30
0.0
 10
8.484282
 20
289.322499
 30
0.0
 10
8.484077
 20
289.279099
 30
0.0
  0
SPLINE
  5
232
100
AcDbEntity
  8
Layer_1
 62
7
100
AcDbSpline
 70
8
 71
3
 72
8
 73
4
 74
0
 40
0
 40
0
 40
0
 40
0
 40
1
 40
1
 40
1
 40
1
 10
8.479493
 20
289.050164
 30
0.0
 10
8.500068
 20
289.014109
 30
0.0
 10
8.524410
 20
288.975195
 30
0.0
 10
8.533590
 20
288.963687
 30
0.0
  0
SPLINE
  5
233
100
AcDbEntity
  8
Layer_1
 62
7
100
AcDbSpline
 70
8
 71
3
 72
8
 73
4
 74
0
 40
0
 40
0
 40
0
 40
0
 40
1
 40
1
 40
1
 40
1
 10
8.533590
 20
288.963687
 30
0.0
 10
8.542760
 20
288.952180
 30
0.0
 10
8.554558
 20
288.923932
 30
0.0
 10
8.559790
 20
288.900916
 30
0.0
  0
SPLINE
  5
234
100
AcDbEntity
  8
Layer_1
 62
7
100
AcDbSpline
 70
8
 71
3
 72
8
 73
4
 74
0
 40
0
 40
0
 40
0
 40
0
 40
1
 40
1
 40
1
 40
1
 10
8.559790
 20
288.900916
 30
0.0
 10
8.565000
 20
288.877899
 30
0.0
 10
8.572470
 20
288.848411
 30
0.0
 10
8.576325
 20
288.835383
 30
0.0
  0
LWPOLYLINE
  5
235
100
AcDbEntity
  8
Layer_1
 62
7
100
AcDbPolyline
 90
3
 70
0
 10
8.462980
 20
289.175708
 30
0.0
 10
8.442085
 20
289.115717
 30
0.0
 10
8.479493
 20
289.050164
 30
0.0
  0
SPLINE
  5
236
100
AcDbEntity
  8
Layer_1
 62
7
100
AcDbSpline
 70
8
 71
3
 72
8
 73
4
 74
0
 40
0
 40
0
 40
0
 40
0
 40
1
 40
1
 40
1
 40
1
 10
8.168974
 20
288.857044
 30
0.0
 10
8.146758
 20
288.883611
 30
0.0
 10
8.119510
 20
288.907511
 30
0.0
 10
8.108425
 20
288.910152
 30
0.0
  0
LWPOLYLINE
  5
237
100
AcDbEntity
  8
Layer_1
 62
7
100
AcDbPolyline
 90
14
 70
0
 10
8.576325
 20
288.835383
 30
0.0
 10
8.583335
 20
288.811696
 30
0.0
 10
8.541670
 20
288.790151
 30
0.0
 10
8.500005
 20
288.768604
 30
0.0
 10
8.495615
 20
288.723609
 30
0.0
 10
8.491245
 20
288.678614
 30
0.0
 10
8.437438
 20
288.665974
 30
0.0
 10
8.383631
 20
288.653334
 30
0.0
 10
8.355851
 20
288.606251
 30
0.0
 10
8.328072
 20
288.559168
 30
0.0
 10
8.281150
 20
288.559168
 30
0.0
 10
8.234222
 20
288.559168
 30
0.0
 10
8.167041
 20
288.618453
 30
0.0
 10
8.167044
 20
288.618452
 30
0.0
  0
SPLINE
  5
238
100
AcDbEntity
  8
Layer_1
 62
7
100
AcDbSpline
 70
8
 71
3
 72
8
 73
4
 74
0
 40
0
 40
0
 40
0
 40
0
 40
1
 40
1
 40
1
 40
1
 10
8.069321
 20
289.012555
 30
0.0
 10
8.058908
 20
289.066240
 30
0.0
 10
8.047316
 20
289.138408
 30
0.0
 10
8.043586
 20
289.172932
 30
0.0
  0
SPLINE
  5
239
100
AcDbEntity
  8
Layer_1
 62
7
100
AcDbSpline
 70
8
 71
3
 72
8
 73
4
 74
0
 40
0
 40
0
 40
0
 40
0
 40
1
 40
1
 40
1
 40
1
 10
8.043586
 20
289.172932
 30
0.0
 10
8.039856
 20
289.207456
 30
0.0
 10
8.033796
 20
289.249827
 30
0.0
 10
8.030113
 20
289.267089
 30
0.0
  0
LWPOLYLINE
  5
23a
100
AcDbEntity
  8
Layer_1
 62
7
100
AcDbPolyline
 90
3
 70
0
 10
8.108425
 20
288.910152
 30
0.0
 10
8.088272
 20
288.914952
 30
0.0
 10
8.069321
 20
289.012555
 30
0.0
  0
SPLINE
  5
23b
100
AcDbEntity
  8
Layer_1
 62
7
100
AcDbSpline
 70
8
 71
3
 72
8
 73
4
 74
0
 40
0
 40
0
 40
0
 40
0
 40
1
 40
1
 40
1
 40
1
 10
8.004256
 20
289.298476
 30
0.0
 10
7.975052
 20
289.298476
 30
0.0
 10
7.967811
 20
289.264025
 30
0.0
 10
7.977509
 20
289.171224
 30
0.0
  0
LWPOLYLINE
  5
23c
100
AcDbEntity
  8
Layer_1
 62
7
100
AcDbPolyline
 90
3
 70
0
 10
8.030113
 20
289.267089
 30
0.0
 10
8.023423
 20
289.298476
 30
0.0
 10
8.004256
 20
289.298476
 30
0.0
  0
SPLINE
  5
23d
100
AcDbEntity
  8
Layer_1
 62
7
100
AcDbSpline
 70
8
 71
3
 72
8
 73
4
 74
0
 40
0
 40
0
 40
0
 40
0
 40
1
 40
1
 40
1
 40
1
 10
8.023952
 20
289.040680
 30
0.0
 10
8.023952
 20
289.023279
 30
0.0
 10
8.027912
 20
288.989272
 30
0.0
 10
8.032742
 20
288.965107
 30
0.0
  0
LWPOLYLINE
  5
23e
100
AcDbEntity
  8
Layer_1
 62
7
100
AcDbPolyline
 90
5
 70
0
 10
7.977509
 20
289.171224
 30
0.0
 10
7.986339
 20
289.086737
 30
0.0
 10
8.005144
 20
289.079527
 30
0.0
 10
8.023952
 20
289.072317
 30
0.0
 10
8.023952
 20
289.040680
 30
0.0
  0
LWPOLYLINE
  5
23f
100
AcDbEntity
  8
Layer_1
 62
7
100
AcDbPolyline
 90
7
 70
0
 10
8.032742
 20
288.965107
 30
0.0
 10
8.041532
 20
288.921170
 30
0.0
 10
8.109384
 20
288.848899
 30
0.0
 10
8.177236
 20
288.776627
 30
0.0
 10
8.193299
 20
288.792690
 30
0.0
 10
8.209362
 20
288.808753
 30
0.0
 10
8.168974
 20
288.857044
 30
0.0
  0
SPLINE
  5
240
100
AcDbEntity
  8
Layer_1
 62
7
100
AcDbSpline
 70
8
 71
3
 72
8
 73
4
 74
0
 40
0
 40
0
 40
0
 40
0
 40
1
 40
1
 40
1
 40
1
 10
9.586118
 20
291.371838
 30
0.0
 10
9.532497
 20
291.376828
 30
0.0
 10
9.488626
 20
291.385679
 30
0.0
 10
9.488626
 20
291.391522
 30
0.0
  0
SPLINE
  5
241
100
AcDbEntity
  8
Layer_1
 62
7
100
AcDbSpline
 70
8
 71
3
 72
8
 73
4
 74
0
 40
0
 40
0
 40
0
 40
0
 40
1
 40
1
 40
1
 40
1
 10
9.488626
 20
291.391522
 30
0.0
 10
9.488626
 20
291.397352
 30
0.0
 10
9.459186
 20
291.419395
 30
0.0
 10
9.423202
 20
291.440482
 30
0.0
  0
SPLINE
  5
242
100
AcDbEntity
  8
Layer_1
 62
7
100
AcDbSpline
 70
8
 71
3
 72
8
 73
4
 74
0
 40
0
 40
0
 40
0
 40
0
 40
1
 40
1
 40
1
 40
1
 10
9.423202
 20
291.440482
 30
0.0
 10
9.387220
 20
291.461572
 30
0.0
 10
9.334917
 20
291.501399
 30
0.0
 10
9.306977
 20
291.528992
 30
0.0
  0
SPLINE
  5
243
100
AcDbEntity
  8
Layer_1
 62
7
100
AcDbSpline
 70
8
 71
3
 72
8
 73
4
 74
0
 40
0
 40
0
 40
0
 40
0
 40
1
 40
1
 40
1
 40
1
 10
9.306977
 20
291.528992
 30
0.0
 10
9.279036
 20
291.556584
 30
0.0
 10
9.237860
 20
291.595937
 30
0.0
 10
9.215471
 20
291.616441
 30
0.0
  0
SPLINE
  5
244
100
AcDbEntity
  8
Layer_1
 62
7
100
AcDbSpline
 70
8
 71
3
 72
8
 73
4
 74
0
 40
0
 40
0
 40
0
 40
0
 40
1
 40
1
 40
1
 40
1
 10
9.215471
 20
291.616441
 30
0.0
 10
9.156999
 20
291.670002
 30
0.0
 10
9.133101
 20
291.698310
 30
0.0
 10
9.099747
 20
291.753522
 30
0.0
  0
LWPOLYLINE
  5
245
100
AcDbEntity
  8
Layer_1
 62
7
100
AcDbPolyline
 90
3
 70
0
 10
9.819767
 20
291.315020
 30
0.0
 10
9.683610
 20
291.362785
 30
0.0
 10
9.586118
 20
291.371838
 30
0.0
  0
SPLINE
  5
246
100
AcDbEntity
  8
Layer_1
 62
7
100
AcDbSpline
 70
8
 71
3
 72
8
 73
4
 74
0
 40
0
 40
0
 40
0
 40
0
 40
1
 40
1
 40
1
 40
1
 10
9.092982
 20
291.908547
 30
0.0
 10
9.105529
 20
291.918960
 30
0.0
 10
9.127717
 20
291.955268
 30
0.0
 10
9.142269
 20
291.989215
 30
0.0
  0
LWPOLYLINE
  5
247
100
AcDbEntity
  8
Layer_1
 62
7
100
AcDbPolyline
 90
5
 70
0
 10
9.099747
 20
291.753522
 30
0.0
 10
9.070255
 20
291.802345
 30
0.0
 10
9.070202
 20
291.845972
 30
0.0
 10
9.070150
 20
291.889599
 30
0.0
 10
9.092982
 20
291.908547
 30
0.0
  0
SPLINE
  5
248
100
AcDbEntity
  8
Layer_1
 62
7
100
AcDbSpline
 70
8
 71
3
 72
8
 73
4
 74
0
 40
0
 40
0
 40
0
 40
0
 40
1
 40
1
 40
1
 40
1
 10
8.930663
 20
292.195565
 30
0.0
 10
8.930663
 20
292.214310
 30
0.0
 10
8.924863
 20
292.240493
 30
0.0
 10
8.917756
 20
292.253749
 30
0.0
  0
SPLINE
  5
249
100
AcDbEntity
  8
Layer_1
 62
7
100
AcDbSpline
 70
8
 71
3
 72
8
 73
4
 74
0
 40
0
 40
0
 40
0
 40
0
 40
1
 40
1
 40
1
 40
1
 10
8.917756
 20
292.253749
 30
0.0
 10
8.910666
 20
292.267002
 30
0.0
 10
8.903869
 20
292.327796
 30
0.0
 10
8.902672
 20
292.388838
 30
0.0
  0
LWPOLYLINE
  5
24a
100
AcDbEntity
  8
Layer_1
 62
7
100
AcDbPolyline
 90
9
 70
0
 10
9.142269
 20
291.989215
 30
0.0
 10
9.168724
 20
292.050936
 30
0.0
 10
9.131161
 20
292.090145
 30
0.0
 10
9.093595
 20
292.129354
 30
0.0
 10
9.034570
 20
292.126794
 30
0.0
 10
8.975545
 20
292.124234
 30
0.0
 10
8.953104
 20
292.142859
 30
0.0
 10
8.930663
 20
292.161484
 30
0.0
 10
8.930663
 20
292.195565
 30
0.0
  0
SPLINE
  5
24b
100
AcDbEntity
  8
Layer_1
 62
7
100
AcDbSpline
 70
8
 71
3
 72
8
 73
4
 74
0
 40
0
 40
0
 40
0
 40
0
 40
1
 40
1
 40
1
 40
1
 10
8.921967
 20
292.625361
 30
0.0
 10
8.954107
 20
292.813435
 30
0.0
 10
8.993368
 20
292.957655
 30
0.0
 10
9.022597
 20
292.995015
 30
0.0
  0
SPLINE
  5
24c
100
AcDbEntity
  8
Layer_1
 62
7
100
AcDbSpline
 70
8
 71
3
 72
8
 73
4
 74
0
 40
0
 40
0
 40
0
 40
0
 40
1
 40
1
 40
1
 40
1
 10
9.022597
 20
292.995015
 30
0.0
 10
9.031607
 20
293.006522
 30
0.0
 10
9.042885
 20
293.028492
 30
0.0
 10
9.047672
 20
293.043838
 30
0.0
  0
SPLINE
  5
24d
100
AcDbEntity
  8
Layer_1
 62
7
100
AcDbSpline
 70
8
 71
3
 72
8
 73
4
 74
0
 40
0
 40
0
 40
0
 40
0
 40
1
 40
1
 40
1
 40
1
 10
9.047672
 20
293.043838
 30
0.0
 10
9.060045
 20
293.083461
 30
0.0
 10
9.162527
 20
293.190304
 30
0.0
 10
9.188174
 20
293.190304
 30
0.0
  0
LWPOLYLINE
  5
24e
100
AcDbEntity
  8
Layer_1
 62
7
100
AcDbPolyline
 90
3
 70
0
 10
8.902672
 20
292.388838
 30
0.0
 10
8.900512
 20
292.499820
 30
0.0
 10
8.921967
 20
292.625361
 30
0.0
  0
SPLINE
  5
24f
100
AcDbEntity
  8
Layer_1
 62
7
100
AcDbSpline
 70
8
 71
3
 72
8
 73
4
 74
0
 40
0
 40
0
 40
0
 40
0
 40
1
 40
1
 40
1
 40
1
 10
9.173877
 20
293.217850
 30
0.0
 10
9.088902
 20
293.185543
 30
0.0
 10
8.944623
 20
293.208370
 30
0.0
 10
8.944623
 20
293.254114
 30
0.0
  0
SPLINE
  5
250
100
AcDbEntity
  8
Layer_1
 62
7
100
AcDbSpline
 70
8
 71
3
 72
8
 73
4
 74
0
 40
0
 40
0
 40
0
 40
0
 40
1
 40
1
 40
1
 40
1
 10
8.944623
 20
293.254114
 30
0.0
 10
8.944623
 20
293.265647
 30
0.0
 10
8.932076
 20
293.299711
 30
0.0
 10
8.916724
 20
293.329789
 30
0.0
  0
LWPOLYLINE
  5
251
100
AcDbEntity
  8
Layer_1
 62
7
100
AcDbPolyline
 90
5
 70
0
 10
9.188174
 20
293.190304
 30
0.0
 10
9.209658
 20
293.190304
 30
0.0
 10
9.209658
 20
293.210884
 30
0.0
 10
9.209658
 20
293.231461
 30
0.0
 10
9.173877
 20
293.217850
 30
0.0
  0
SPLINE
  5
252
100
AcDbEntity
  8
Layer_1
 62
7
100
AcDbSpline
 70
8
 71
3
 72
8
 73
4
 74
0
 40
0
 40
0
 40
0
 40
0
 40
1
 40
1
 40
1
 40
1
 10
8.964137
 20
293.558933
 30
0.0
 10
8.980256
 20
293.553343
 30
0.0
 10
9.034985
 20
293.546106
 30
0.0
 10
9.085761
 20
293.542828
 30
0.0
  0
LWPOLYLINE
  5
253
100
AcDbEntity
  8
Layer_1
 62
7
100
AcDbPolyline
 90
7
 70
0
 10
8.916724
 20
293.329789
 30
0.0
 10
8.888823
 20
293.384475
 30
0.0
 10
8.888823
 20
293.453781
 30
0.0
 10
8.888823
 20
293.523086
 30
0.0
 10
8.911826
 20
293.546090
 30
0.0
 10
8.934830
 20
293.569093
 30
0.0
 10
8.964137
 20
293.558933
 30
0.0
  0
SPLINE
  5
254
100
AcDbEntity
  8
Layer_1
 62
7
100
AcDbSpline
 70
8
 71
3
 72
8
 73
4
 74
0
 40
0
 40
0
 40
0
 40
0
 40
1
 40
1
 40
1
 40
1
 10
9.253152
 20
293.600503
 30
0.0
 10
9.294441
 20
293.635502
 30
0.0
 10
9.370491
 20
293.698942
 30
0.0
 10
9.422152
 20
293.741479
 30
0.0
  0
LWPOLYLINE
  5
255
100
AcDbEntity
  8
Layer_1
 62
7
100
AcDbPolyline
 90
3
 70
0
 10
9.085761
 20
293.542828
 30
0.0
 10
9.178080
 20
293.536868
 30
0.0
 10
9.253152
 20
293.600503
 30
0.0
  0
SPLINE
  5
256
100
AcDbEntity
  8
Layer_1
 62
7
100
AcDbSpline
 70
8
 71
3
 72
8
 73
4
 74
0
 40
0
 40
0
 40
0
 40
0
 40
1
 40
1
 40
1
 40
1
 10
9.818177
 20
293.898070
 30
0.0
 10
9.834782
 20
293.922937
 30
0.0
 10
9.875224
 20
293.965717
 30
0.0
 10
9.908050
 20
293.993142
 30
0.0
  0
LWPOLYLINE
  5
257
100
AcDbEntity
  8
Layer_1
 62
7
100
AcDbPolyline
 90
7
 70
0
 10
9.422152
 20
293.741479
 30
0.0
 10
9.516081
 20
293.818820
 30
0.0
 10
9.603493
 20
293.810590
 30
0.0
 10
9.690905
 20
293.802360
 30
0.0
 10
9.739450
 20
293.827615
 30
0.0
 10
9.787994
 20
293.852870
 30
0.0
 10
9.818177
 20
293.898070
 30
0.0
  0
SPLINE
  5
258
100
AcDbEntity
  8
Layer_1
 62
7
100
AcDbSpline
 70
8
 71
3
 72
8
 73
4
 74
0
 40
0
 40
0
 40
0
 40
0
 40
1
 40
1
 40
1
 40
1
 10
10.003689
 20
294.034046
 30
0.0
 10
10.023459
 20
294.029096
 30
0.0
 10
10.049769
 20
294.015953
 30
0.0
 10
10.062149
 20
294.004801
 30
0.0
  0
SPLINE
  5
259
100
AcDbEntity
  8
Layer_1
 62
7
100
AcDbSpline
 70
8
 71
3
 72
8
 73
4
 74
0
 40
0
 40
0
 40
0
 40
0
 40
1
 40
1
 40
1
 40
1
 10
10.062149
 20
294.004801
 30
0.0
 10
10.088249
 20
293.981289
 30
0.0
 10
10.284110
 20
293.896073
 30
0.0
 10
10.394111
 20
293.860371
 30
0.0
  0
SPLINE
  5
25a
100
AcDbEntity
  8
Layer_1
 62
7
100
AcDbSpline
 70
8
 71
3
 72
8
 73
4
 74
0
 40
0
 40
0
 40
0
 40
0
 40
1
 40
1
 40
1
 40
1
 10
10.394111
 20
293.860371
 30
0.0
 10
10.435631
 20
293.846898
 30
0.0
 10
10.481441
 20
293.824007
 30
0.0
 10
10.495904
 20
293.809504
 30
0.0
  0
SPLINE
  5
25b
100
AcDbEntity
  8
Layer_1
 62
7
100
AcDbSpline
 70
8
 71
3
 72
8
 73
4
 74
0
 40
0
 40
0
 40
0
 40
0
 40
1
 40
1
 40
1
 40
1
 10
10.495904
 20
293.809504
 30
0.0
 10
10.510374
 20
293.795003
 30
0.0
 10
10.584574
 20
293.719253
 30
0.0
 10
10.660806
 20
293.641171
 30
0.0
  0
LWPOLYLINE
  5
25c
100
AcDbEntity
  8
Layer_1
 62
7
100
AcDbPolyline
 90
3
 70
0
 10
9.908050
 20
293.993142
 30
0.0
 10
9.967735
 20
294.043006
 30
0.0
 10
10.003689
 20
294.034046
 30
0.0
  0
SPLINE
  5
25d
100
AcDbEntity
  8
Layer_1
 62
7
100
AcDbSpline
 70
8
 71
3
 72
8
 73
4
 74
0
 40
0
 40
0
 40
0
 40
0
 40
1
 40
1
 40
1
 40
1
 10
10.838932
 20
293.431932
 30
0.0
 10
10.860672
 20
293.394935
 30
0.0
 10
10.889822
 20
293.330138
 30
0.0
 10
10.903692
 20
293.287942
 30
0.0
  0
SPLINE
  5
25e
100
AcDbEntity
  8
Layer_1
 62
7
100
AcDbSpline
 70
8
 71
3
 72
8
 73
4
 74
0
 40
0
 40
0
 40
0
 40
0
 40
1
 40
1
 40
1
 40
1
 10
10.903692
 20
293.287942
 30
0.0
 10
10.917562
 20
293.245745
 30
0.0
 10
10.933672
 20
293.198410
 30
0.0
 10
10.939482
 20
293.182751
 30
0.0
  0
SPLINE
  5
25f
100
AcDbEntity
  8
Layer_1
 62
7
100
AcDbSpline
 70
8
 71
3
 72
8
 73
4
 74
0
 40
0
 40
0
 40
0
 40
0
 40
1
 40
1
 40
1
 40
1
 10
10.939482
 20
293.182751
 30
0.0
 10
10.962992
 20
293.119372
 30
0.0
 10
10.926672
 20
292.843652
 30
0.0
 10
10.890882
 20
292.813955
 30
0.0
  0
LWPOLYLINE
  5
260
100
AcDbEntity
  8
Layer_1
 62
7
100
AcDbPolyline
 90
3
 70
0
 10
10.660806
 20
293.641171
 30
0.0
 10
10.799402
 20
293.499204
 30
0.0
 10
10.838932
 20
293.431932
 30
0.0
  0
SPLINE
  5
261
100
AcDbEntity
  8
Layer_1
 62
7
100
AcDbSpline
 70
8
 71
3
 72
8
 73
4
 74
0
 40
0
 40
0
 40
0
 40
0
 40
1
 40
1
 40
1
 40
1
 10
10.724352
 20
292.875288
 30
0.0
 10
10.720052
 20
292.891264
 30
0.0
 10
10.716452
 20
292.917674
 30
0.0
 10
10.716452
 20
292.933976
 30
0.0
  0
LWPOLYLINE
  5
262
100
AcDbEntity
  8
Layer_1
 62
7
100
AcDbPolyline
 90
5
 70
0
 10
10.890882
 20
292.813955
 30
0.0
 10
10.874812
 20
292.800619
 30
0.0
 10
10.803482
 20
292.823430
 30
0.0
 10
10.732152
 20
292.846240
 30
0.0
 10
10.724352
 20
292.875288
 30
0.0
  0
SPLINE
  5
263
100
AcDbEntity
  8
Layer_1
 62
7
100
AcDbSpline
 70
8
 71
3
 72
8
 73
4
 74
0
 40
0
 40
0
 40
0
 40
0
 40
1
 40
1
 40
1
 40
1
 10
10.632547
 20
293.009278
 30
0.0
 10
10.632547
 20
293.044759
 30
0.0
 10
10.667187
 20
293.114164
 30
0.0
 10
10.711237
 20
293.166933
 30
0.0
  0
LWPOLYLINE
  5
264
100
AcDbEntity
  8
Layer_1
 62
7
100
AcDbPolyline
 90
5
 70
0
 10
10.716452
 20
292.933976
 30
0.0
 10
10.716247
 20
292.963617
 30
0.0
 10
10.674397
 20
292.971977
 30
0.0
 10
10.632547
 20
292.980338
 30
0.0
 10
10.632547
 20
293.009278
 30
0.0
  0
SPLINE
  5
265
100
AcDbEntity
  8
Layer_1
 62
7
100
AcDbSpline
 70
8
 71
3
 72
8
 73
4
 74
0
 40
0
 40
0
 40
0
 40
0
 40
1
 40
1
 40
1
 40
1
 10
10.609047
 20
293.419806
 30
0.0
 10
10.587457
 20
293.415086
 30
0.0
 10
10.552237
 20
293.404554
 30
0.0
 10
10.530797
 20
293.396435
 30
0.0
  0
LWPOLYLINE
  5
266
100
AcDbEntity
  8
Layer_1
 62
7
100
AcDbPolyline
 90
7
 70
0
 10
10.711237
 20
293.166933
 30
0.0
 10
10.744157
 20
293.206365
 30
0.0
 10
10.744157
 20
293.269461
 30
0.0
 10
10.744157
 20
293.332557
 30
0.0
 10
10.696237
 20
293.380476
 30
0.0
 10
10.648317
 20
293.428396
 30
0.0
 10
10.609047
 20
293.419806
 30
0.0
  0
SPLINE
  5
267
100
AcDbEntity
  8
Layer_1
 62
7
100
AcDbSpline
 70
8
 71
3
 72
8
 73
4
 74
0
 40
0
 40
0
 40
0
 40
0
 40
1
 40
1
 40
1
 40
1
 10
10.555977
 20
293.025020
 30
0.0
 10
10.561577
 20
292.997005
 30
0.0
 10
10.565777
 20
292.956903
 30
0.0
 10
10.565177
 20
292.935904
 30
0.0
  0
LWPOLYLINE
  5
268
100
AcDbEntity
  8
Layer_1
 62
7
100
AcDbPolyline
 90
11
 70
0
 10
10.530797
 20
293.396435
 30
0.0
 10
10.491807
 20
293.381674
 30
0.0
 10
10.545807
 20
293.357497
 30
0.0
 10
10.599807
 20
293.333320
 30
0.0
 10
10.617257
 20
293.291189
 30
0.0
 10
10.634707
 20
293.249060
 30
0.0
 10
10.625207
 20
293.185433
 30
0.0
 10
10.615707
 20
293.121805
 30
0.0
 10
10.580717
 20
293.098882
 30
0.0
 10
10.545727
 20
293.075959
 30
0.0
 10
10.555977
 20
293.025020
 30
0.0
  0
SPLINE
  5
269
100
AcDbEntity
  8
Layer_1
 62
7
100
AcDbSpline
 70
8
 71
3
 72
8
 73
4
 74
0
 40
0
 40
0
 40
0
 40
0
 40
1
 40
1
 40
1
 40
1
 10
10.597797
 20
292.804757
 30
0.0
 10
10.574697
 20
292.795887
 30
0.0
 10
10.568817
 20
292.757865
 30
0.0
 10
10.590597
 20
292.757865
 30
0.0
  0
SPLINE
  5
26a
100
AcDbEntity
  8
Layer_1
 62
7
100
AcDbSpline
 70
8
 71
3
 72
8
 73
4
 74
0
 40
0
 40
0
 40
0
 40
0
 40
1
 40
1
 40
1
 40
1
 10
10.590597
 20
292.757865
 30
0.0
 10
10.598097
 20
292.757865
 30
0.0
 10
10.608577
 20
292.740602
 30
0.0
 10
10.613827
 20
292.719505
 30
0.0
  0
SPLINE
  5
26b
100
AcDbEntity
  8
Layer_1
 62
7
100
AcDbSpline
 70
8
 71
3
 72
8
 73
4
 74
0
 40
0
 40
0
 40
0
 40
0
 40
1
 40
1
 40
1
 40
1
 10
10.613827
 20
292.719505
 30
0.0
 10
10.624077
 20
292.678457
 30
0.0
 10
10.648637
 20
292.653240
 30
0.0
 10
10.698967
 20
292.632190
 30
0.0
  0
LWPOLYLINE
  5
26c
100
AcDbEntity
  8
Layer_1
 62
7
100
AcDbPolyline
 90
7
 70
0
 10
10.565177
 20
292.935904
 30
0.0
 10
10.564077
 20
292.897727
 30
0.0
 10
10.591397
 20
292.883103
 30
0.0
 10
10.618717
 20
292.868479
 30
0.0
 10
10.618717
 20
292.840634
 30
0.0
 10
10.618717
 20
292.812787
 30
0.0
 10
10.597797
 20
292.804757
 30
0.0
  0
SPLINE
  5
26d
100
AcDbEntity
  8
Layer_1
 62
7
100
AcDbSpline
 70
8
 71
3
 72
8
 73
4
 74
0
 40
0
 40
0
 40
0
 40
0
 40
1
 40
1
 40
1
 40
1
 10
10.683197
 20
292.032082
 30
0.0
 10
10.651597
 20
292.024122
 30
0.0
 10
10.612167
 20
292.011933
 30
0.0
 10
10.595567
 20
292.004989
 30
0.0
  0
LWPOLYLINE
  5
26e
100
AcDbEntity
  8
Layer_1
 62
7
100
AcDbPolyline
 90
15
 70
0
 10
10.698967
 20
292.632190
 30
0.0
 10
10.730357
 20
292.619070
 30
0.0
 10
10.730357
 20
292.577571
 30
0.0
 10
10.730357
 20
292.536071
 30
0.0
 10
10.754487
 20
292.522568
 30
0.0
 10
10.778617
 20
292.509064
 30
0.0
 10
10.780817
 20
292.443729
 30
0.0
 10
10.783017
 20
292.378394
 30
0.0
 10
10.812487
 20
292.338537
 30
0.0
 10
10.841947
 20
292.298681
 30
0.0
 10
10.841947
 20
292.237633
 30
0.0
 10
10.841947
 20
292.176585
 30
0.0
 10
10.791297
 20
292.111569
 30
0.0
 10
10.740647
 20
292.046553
 30
0.0
 10
10.683197
 20
292.032082
 30
0.0
  0
SPLINE
  5
26f
100
AcDbEntity
  8
Layer_1
 62
7
100
AcDbSpline
 70
8
 71
3
 72
8
 73
4
 74
0
 40
0
 40
0
 40
0
 40
0
 40
1
 40
1
 40
1
 40
1
 10
10.555387
 20
291.960126
 30
0.0
 10
10.549887
 20
291.942397
 30
0.0
 10
10.528907
 20
291.908394
 30
0.0
 10
10.508847
 20
291.884569
 30
0.0
  0
SPLINE
  5
270
100
AcDbEntity
  8
Layer_1
 62
7
100
AcDbSpline
 70
8
 71
3
 72
8
 73
4
 74
0
 40
0
 40
0
 40
0
 40
0
 40
1
 40
1
 40
1
 40
1
 10
10.508847
 20
291.884569
 30
0.0
 10
10.488787
 20
291.860741
 30
0.0
 10
10.459817
 20
291.823469
 30
0.0
 10
10.444467
 20
291.801738
 30
0.0
  0
SPLINE
  5
271
100
AcDbEntity
  8
Layer_1
 62
7
100
AcDbSpline
 70
8
 71
3
 72
8
 73
4
 74
0
 40
0
 40
0
 40
0
 40
0
 40
1
 40
1
 40
1
 40
1
 10
10.444467
 20
291.801738
 30
0.0
 10
10.429127
 20
291.780007
 30
0.0
 10
10.398697
 20
291.746147
 30
0.0
 10
10.376857
 20
291.726491
 30
0.0
  0
SPLINE
  5
272
100
AcDbEntity
  8
Layer_1
 62
7
100
AcDbSpline
 70
8
 71
3
 72
8
 73
4
 74
0
 40
0
 40
0
 40
0
 40
0
 40
1
 40
1
 40
1
 40
1
 10
10.376857
 20
291.726491
 30
0.0
 10
10.355017
 20
291.706836
 30
0.0
 10
10.318367
 20
291.662948
 30
0.0
 10
10.295437
 20
291.628964
 30
0.0
  0
LWPOLYLINE
  5
273
100
AcDbEntity
  8
Layer_1
 62
7
100
AcDbPolyline
 90
3
 70
0
 10
10.595567
 20
292.004989
 30
0.0
 10
10.565387
 20
291.992362
 30
0.0
 10
10.555387
 20
291.960126
 30
0.0
  0
SPLINE
  5
274
100
AcDbEntity
  8
Layer_1
 62
7
100
AcDbSpline
 70
8
 71
3
 72
8
 73
4
 74
0
 40
0
 40
0
 40
0
 40
0
 40
1
 40
1
 40
1
 40
1
 10
10.221277
 20
291.369926
 30
0.0
 10
10.205927
 20
291.362256
 30
0.0
 10
10.158097
 20
291.335577
 30
0.0
 10
10.114959
 20
291.310642
 30
0.0
  0
LWPOLYLINE
  5
275
100
AcDbEntity
  8
Layer_1
 62
7
100
AcDbPolyline
 90
7
 70
0
 10
10.295437
 20
291.628964
 30
0.0
 10
10.253717
 20
291.567173
 30
0.0
 10
10.285137
 20
291.543477
 30
0.0
 10
10.316557
 20
291.519780
 30
0.0
 10
10.282867
 20
291.451827
 30
0.0
 10
10.249177
 20
291.383874
 30
0.0
 10
10.221277
 20
291.369926
 30
0.0
  0
SPLINE
  5
276
100
AcDbEntity
  8
Layer_1
 62
7
100
AcDbSpline
 70
8
 71
3
 72
8
 73
4
 74
0
 40
0
 40
0
 40
0
 40
0
 40
1
 40
1
 40
1
 40
1
 10
9.996220
 20
291.266289
 30
0.0
 10
9.974092
 20
291.266815
 30
0.0
 10
9.894755
 20
291.288755
 30
0.0
 10
9.819869
 20
291.315024
 30
0.0
  0
LWPOLYLINE
  5
277
100
AcDbEntity
  8
Layer_1
 62
7
100
AcDbPolyline
 90
3
 70
0
 10
10.114959
 20
291.310642
 30
0.0
 10
10.036369
 20
291.265322
 30
0.0
 10
9.996220
 20
291.266289
 30
0.0
  0
SPLINE
  5
278
100
AcDbEntity
  8
Layer_1
 62
7
100
AcDbSpline
 70
8
 71
3
 72
8
 73
4
 74
0
 40
0
 40
0
 40
0
 40
0
 40
1
 40
1
 40
1
 40
1
 10
9.708771
 20
291.837768
 30
0.0
 10
9.732612
 20
291.856649
 30
0.0
 10
9.752466
 20
291.877630
 30
0.0
 10
9.752888
 20
291.884392
 30
0.0
  0
LWPOLYLINE
  5
279
100
AcDbEntity
  8
Layer_1
 62
7
100
AcDbPolyline
 90
2
 70
0
 10
9.819869
 20
291.315024
 30
0.0
 10
9.819767
 20
291.315020
 30
0.0
  0
SPLINE
  5
27a
100
AcDbEntity
  8
Layer_1
 62
7
100
AcDbSpline
 70
8
 71
3
 72
8
 73
4
 74
0
 40
0
 40
0
 40
0
 40
0
 40
1
 40
1
 40
1
 40
1
 10
9.645565
 20
291.886593
 30
0.0
 10
9.497503
 20
291.872768
 30
0.0
 10
9.450510
 20
291.872568
 30
0.0
 10
9.374331
 20
291.885513
 30
0.0
  0
SPLINE
  5
27b
100
AcDbEntity
  8
Layer_1
 62
7
100
AcDbSpline
 70
8
 71
3
 72
8
 73
4
 74
0
 40
0
 40
0
 40
0
 40
0
 40
1
 40
1
 40
1
 40
1
 10
9.374331
 20
291.885513
 30
0.0
 10
9.338315
 20
291.891622
 30
0.0
 10
9.298344
 20
291.892592
 30
0.0
 10
9.285511
 20
291.887662
 30
0.0
  0
LWPOLYLINE
  5
27c
100
AcDbEntity
  8
Layer_1
 62
7
100
AcDbPolyline
 90
3
 70
0
 10
9.752888
 20
291.884392
 30
0.0
 10
9.753670
 20
291.896685
 30
0.0
 10
9.645565
 20
291.886593
 30
0.0
  0
SPLINE
  5
27d
100
AcDbEntity
  8
Layer_1
 62
7
100
AcDbSpline
 70
8
 71
3
 72
8
 73
4
 74
0
 40
0
 40
0
 40
0
 40
0
 40
1
 40
1
 40
1
 40
1
 10
9.299059
 20
291.849691
 30
0.0
 10
9.319347
 20
291.833731
 30
0.0
 10
9.353038
 20
291.815176
 30
0.0
 10
9.373931
 20
291.808453
 30
0.0
  0
LWPOLYLINE
  5
27e
100
AcDbEntity
  8
Layer_1
 62
7
100
AcDbPolyline
 90
3
 70
0
 10
9.285511
 20
291.887662
 30
0.0
 10
9.262175
 20
291.878702
 30
0.0
 10
9.299059
 20
291.849691
 30
0.0
  0
SPLINE
  5
27f
100
AcDbEntity
  8
Layer_1
 62
7
100
AcDbSpline
 70
8
 71
3
 72
8
 73
4
 74
0
 40
0
 40
0
 40
0
 40
0
 40
1
 40
1
 40
1
 40
1
 10
10.060054
 20
291.961850
 30
0.0
 10
10.067954
 20
291.976689
 30
0.0
 10
10.074494
 20
292.012289
 30
0.0
 10
10.074494
 20
292.040958
 30
0.0
  0
LWPOLYLINE
  5
280
100
AcDbEntity
  8
Layer_1
 62
7
100
AcDbPolyline
 90
6
 70
0
 10
9.373931
 20
291.808453
 30
0.0
 10
9.411918
 20
291.796226
 30
0.0
 10
9.538677
 20
291.799826
 30
0.0
 10
9.665434
 20
291.803456
 30
0.0
 10
9.708782
 20
291.837784
 30
0.0
 10
9.708771
 20
291.837768
 30
0.0
  0
SPLINE
  5
281
100
AcDbEntity
  8
Layer_1
 62
7
100
AcDbSpline
 70
8
 71
3
 72
8
 73
4
 74
0
 40
0
 40
0
 40
0
 40
0
 40
1
 40
1
 40
1
 40
1
 10
10.051404
 20
292.118594
 30
0.0
 10
10.038714
 20
292.132619
 30
0.0
 10
10.020724
 20
292.144103
 30
0.0
 10
10.011434
 20
292.144103
 30
0.0
  0
SPLINE
  5
282
100
AcDbEntity
  8
Layer_1
 62
7
100
AcDbSpline
 70
8
 71
3
 72
8
 73
4
 74
0
 40
0
 40
0
 40
0
 40
0
 40
1
 40
1
 40
1
 40
1
 10
10.011434
 20
292.144103
 30
0.0
 10
10.002134
 20
292.144103
 30
0.0
 10
9.978540
 20
292.156703
 30
0.0
 10
9.958968
 20
292.172095
 30
0.0
  0
LWPOLYLINE
  5
283
100
AcDbEntity
  8
Layer_1
 62
7
100
AcDbPolyline
 90
3
 70
0
 10
10.074494
 20
292.040958
 30
0.0
 10
10.074494
 20
292.093085
 30
0.0
 10
10.051404
 20
292.118594
 30
0.0
  0
SPLINE
  5
284
100
AcDbEntity
  8
Layer_1
 62
7
100
AcDbSpline
 70
8
 71
3
 72
8
 73
4
 74
0
 40
0
 40
0
 40
0
 40
0
 40
1
 40
1
 40
1
 40
1
 10
9.837350
 20
292.088054
 30
0.0
 10
9.837350
 20
292.073753
 30
0.0
 10
9.844270
 20
292.057777
 30
0.0
 10
9.852725
 20
292.052550
 30
0.0
  0
SPLINE
  5
285
100
AcDbEntity
  8
Layer_1
 62
7
100
AcDbSpline
 70
8
 71
3
 72
8
 73
4
 74
0
 40
0
 40
0
 40
0
 40
0
 40
1
 40
1
 40
1
 40
1
 10
9.852725
 20
292.052550
 30
0.0
 10
9.861175
 20
292.047340
 30
0.0
 10
9.877140
 20
292.021406
 30
0.0
 10
9.888193
 20
291.994953
 30
0.0
  0
LWPOLYLINE
  5
286
100
AcDbEntity
  8
Layer_1
 62
7
100
AcDbPolyline
 90
5
 70
0
 10
9.958968
 20
292.172095
 30
0.0
 10
9.923380
 20
292.200087
 30
0.0
 10
9.880365
 20
292.157072
 30
0.0
 10
9.837350
 20
292.114057
 30
0.0
 10
9.837350
 20
292.088054
 30
0.0
  0
SPLINE
  5
287
100
AcDbEntity
  8
Layer_1
 62
7
100
AcDbSpline
 70
8
 71
3
 72
8
 73
4
 74
0
 40
0
 40
0
 40
0
 40
0
 40
1
 40
1
 40
1
 40
1
 10
10.004742
 20
291.948997
 30
0.0
 10
10.034732
 20
291.929345
 30
0.0
 10
10.043782
 20
291.931448
 30
0.0
 10
10.060052
 20
291.961837
 30
0.0
  0
LWPOLYLINE
  5
288
100
AcDbEntity
  8
Layer_1
 62
7
100
AcDbPolyline
 90
5
 70
0
 10
9.888193
 20
291.994953
 30
0.0
 10
9.908290
 20
291.946856
 30
0.0
 10
9.946054
 20
291.954786
 30
0.0
 10
9.983819
 20
291.962716
 30
0.0
 10
10.004742
 20
291.948997
 30
0.0
  0
LWPOLYLINE
  5
289
100
AcDbEntity
  8
Layer_1
 62
7
100
AcDbPolyline
 90
1
 70
1
 10
10.060052
 20
291.961837
 30
0.0
  0
SPLINE
  5
28a
100
AcDbEntity
  8
Layer_1
 62
7
100
AcDbSpline
 70
8
 71
3
 72
8
 73
4
 74
0
 40
0
 40
0
 40
0
 40
0
 40
1
 40
1
 40
1
 40
1
 10
9.521952
 20
292.624365
 30
0.0
 10
9.509525
 20
292.656760
 30
0.0
 10
9.490345
 20
292.650989
 30
0.0
 10
9.480535
 20
292.611912
 30
0.0
  0
LWPOLYLINE
  5
28b
100
AcDbEntity
  8
Layer_1
 62
7
100
AcDbPolyline
 90
5
 70
0
 10
9.463328
 20
292.357554
 30
0.0
 10
9.458958
 20
292.451514
 30
0.0
 10
9.494659
 20
292.526984
 30
0.0
 10
9.530362
 20
292.602453
 30
0.0
 10
9.521952
 20
292.624365
 30
0.0
  0
LWPOLYLINE
  5
28c
100
AcDbEntity
  8
Layer_1
 62
7
100
AcDbPolyline
 90
13
 70
0
 10
9.480535
 20
292.611912
 30
0.0
 10
9.471905
 20
292.577540
 30
0.0
 10
9.446462
 20
292.569459
 30
0.0
 10
9.421019
 20
292.561379
 30
0.0
 10
9.378103
 20
292.494501
 30
0.0
 10
9.335188
 20
292.427621
 30
0.0
 10
9.335188
 20
292.390966
 30
0.0
 10
9.335188
 20
292.354311
 30
0.0
 10
9.379040
 20
292.304368
 30
0.0
 10
9.422891
 20
292.254424
 30
0.0
 10
9.445299
 20
292.259013
 30
0.0
 10
9.467706
 20
292.263603
 30
0.0
 10
9.463328
 20
292.357554
 30
0.0
  0
SPLINE
  5
28d
100
AcDbEntity
  8
Layer_1
 62
7
100
AcDbSpline
 70
8
 71
3
 72
8
 73
4
 74
0
 40
0
 40
0
 40
0
 40
0
 40
1
 40
1
 40
1
 40
1
 10
10.034940
 20
292.709573
 30
0.0
 10
10.026240
 20
292.728893
 30
0.0
 10
10.008460
 20
292.748724
 30
0.0
 10
9.995657
 20
292.753634
 30
0.0
  0
LWPOLYLINE
  5
28e
100
AcDbEntity
  8
Layer_1
 62
7
100
AcDbPolyline
 90
3
 70
0
 10
10.025730
 20
292.618510
 30
0.0
 10
10.050950
 20
292.674441
 30
0.0
 10
10.034940
 20
292.709573
 30
0.0
  0
SPLINE
  5
28f
100
AcDbEntity
  8
Layer_1
 62
7
100
AcDbSpline
 70
8
 71
3
 72
8
 73
4
 74
0
 40
0
 40
0
 40
0
 40
0
 40
1
 40
1
 40
1
 40
1
 10
9.929053
 20
292.584500
 30
0.0
 10
9.941120
 20
292.572433
 30
0.0
 10
9.962126
 20
292.562579
 30
0.0
 10
9.975757
 20
292.562579
 30
0.0
  0
LWPOLYLINE
  5
290
100
AcDbEntity
  8
Layer_1
 62
7
100
AcDbPolyline
 90
7
 70
0
 10
9.995657
 20
292.753634
 30
0.0
 10
9.972382
 20
292.762564
 30
0.0
 10
9.939810
 20
292.721856
 30
0.0
 10
9.907238
 20
292.681148
 30
0.0
 10
9.907185
 20
292.643784
 30
0.0
 10
9.907133
 20
292.606420
 30
0.0
 10
9.929053
 20
292.584500
 30
0.0
  0
LWPOLYLINE
  5
291
100
AcDbEntity
  8
Layer_1
 62
7
100
AcDbPolyline
 90
4
 70
0
 10
9.975757
 20
292.562579
 30
0.0
 10
10.000542
 20
292.562579
 30
0.0
 10
10.025752
 20
292.618511
 30
0.0
 10
10.025730
 20
292.618510
 30
0.0
  0
SPLINE
  5
292
100
AcDbEntity
  8
Layer_1
 62
7
100
AcDbSpline
 70
8
 71
3
 72
8
 73
4
 74
0
 40
0
 40
0
 40
0
 40
0
 40
1
 40
1
 40
1
 40
1
 10
9.259951
 20
292.719047
 30
0.0
 10
9.249167
 20
292.772989
 30
0.0
 10
9.227572
 20
292.799714
 30
0.0
 10
9.194778
 20
292.799714
 30
0.0
  0
LWPOLYLINE
  5
293
100
AcDbEntity
  8
Layer_1
 62
7
100
AcDbPolyline
 90
3
 70
0
 10
9.238162
 20
292.633195
 30
0.0
 10
9.268581
 20
292.675912
 30
0.0
 10
9.259951
 20
292.719047
 30
0.0
  0
SPLINE
  5
294
100
AcDbEntity
  8
Layer_1
 62
7
100
AcDbSpline
 70
8
 71
3
 72
8
 73
4
 74
0
 40
0
 40
0
 40
0
 40
0
 40
1
 40
1
 40
1
 40
1
 10
9.156280
 20
292.622759
 30
0.0
 10
9.195368
 20
292.581151
 30
0.0
 10
9.201681
 20
292.581958
 30
0.0
 10
9.238163
 20
292.633199
 30
0.0
  0
LWPOLYLINE
  5
295
100
AcDbEntity
  8
Layer_1
 62
7
100
AcDbPolyline
 90
7
 70
0
 10
9.194778
 20
292.799714
 30
0.0
 10
9.169379
 20
292.799714
 30
0.0
 10
9.147664
 20
292.768713
 30
0.0
 10
9.125949
 20
292.737710
 30
0.0
 10
9.125949
 20
292.696377
 30
0.0
 10
9.125949
 20
292.655044
 30
0.0
 10
9.156280
 20
292.622759
 30
0.0
  0
LWPOLYLINE
  5
296
100
AcDbEntity
  8
Layer_1
 62
7
100
AcDbPolyline
 90
1
 70
1
 10
9.238163
 20
292.633199
 30
0.0
  0
SPLINE
  5
297
100
AcDbEntity
  8
Layer_1
 62
7
100
AcDbSpline
 70
8
 71
3
 72
8
 73
4
 74
0
 40
0
 40
0
 40
0
 40
0
 40
1
 40
1
 40
1
 40
1
 10
10.130289
 20
293.006543
 30
0.0
 10
10.130289
 20
293.019796
 30
0.0
 10
10.120489
 20
293.044595
 30
0.0
 10
10.108569
 20
293.061647
 30
0.0
  0
LWPOLYLINE
  5
298
100
AcDbEntity
  8
Layer_1
 62
7
100
AcDbPolyline
 90
3
 70
0
 10
10.154700
 20
292.968222
 30
0.0
 10
10.130289
 20
292.982442
 30
0.0
 10
10.130289
 20
293.006543
 30
0.0
  0
SPLINE
  5
299
100
AcDbEntity
  8
Layer_1
 62
7
100
AcDbSpline
 70
8
 71
3
 72
8
 73
4
 74
0
 40
0
 40
0
 40
0
 40
0
 40
1
 40
1
 40
1
 40
1
 10
9.999117
 20
293.062476
 30
0.0
 10
9.967213
 20
293.016928
 30
0.0
 10
10.043586
 20
292.957553
 30
0.0
 10
10.137235
 20
292.955100
 30
0.0
  0
LWPOLYLINE
  5
29a
100
AcDbEntity
  8
Layer_1
 62
7
100
AcDbPolyline
 90
5
 70
0
 10
10.108569
 20
293.061647
 30
0.0
 10
10.086849
 20
293.092648
 30
0.0
 10
10.053539
 20
293.092648
 30
0.0
 10
10.020249
 20
293.092648
 30
0.0
 10
9.999117
 20
293.062476
 30
0.0
  0
SPLINE
  5
29b
100
AcDbEntity
  8
Layer_1
 62
7
100
AcDbSpline
 70
8
 71
3
 72
8
 73
4
 74
0
 40
0
 40
0
 40
0
 40
0
 40
1
 40
1
 40
1
 40
1
 10
10.394161
 20
293.380395
 30
0.0
 10
10.397361
 20
293.383245
 30
0.0
 10
10.367941
 20
293.385585
 30
0.0
 10
10.328811
 20
293.385585
 30
0.0
  0
SPLINE
  5
29c
100
AcDbEntity
  8
Layer_1
 62
7
100
AcDbSpline
 70
8
 71
3
 72
8
 73
4
 74
0
 40
0
 40
0
 40
0
 40
0
 40
1
 40
1
 40
1
 40
1
 10
10.328811
 20
293.385585
 30
0.0
 10
10.289671
 20
293.385585
 30
0.0
 10
10.242351
 20
293.391415
 30
0.0
 10
10.223635
 20
293.398518
 30
0.0
  0
LWPOLYLINE
  5
29d
100
AcDbEntity
  8
Layer_1
 62
7
100
AcDbPolyline
 90
4
 70
0
 10
10.137235
 20
292.955100
 30
0.0
 10
10.179085
 20
292.954020
 30
0.0
 10
10.154675
 20
292.968244
 30
0.0
 10
10.154700
 20
292.968222
 30
0.0
  0
SPLINE
  5
29e
100
AcDbEntity
  8
Layer_1
 62
7
100
AcDbSpline
 70
8
 71
3
 72
8
 73
4
 74
0
 40
0
 40
0
 40
0
 40
0
 40
1
 40
1
 40
1
 40
1
 10
9.882788
 20
293.577290
 30
0.0
 10
9.869300
 20
293.565183
 30
0.0
 10
9.830459
 20
293.544203
 30
0.0
 10
9.796464
 20
293.530662
 30
0.0
  0
SPLINE
  5
29f
100
AcDbEntity
  8
Layer_1
 62
7
100
AcDbSpline
 70
8
 71
3
 72
8
 73
4
 74
0
 40
0
 40
0
 40
0
 40
0
 40
1
 40
1
 40
1
 40
1
 10
9.796464
 20
293.530662
 30
0.0
 10
9.762471
 20
293.517127
 30
0.0
 10
9.723237
 20
293.494625
 30
0.0
 10
9.709283
 20
293.480670
 30
0.0
  0
LWPOLYLINE
  5
2a0
100
AcDbEntity
  8
Layer_1
 62
7
100
AcDbPolyline
 90
9
 70
0
 10
10.223635
 20
293.398518
 30
0.0
 10
10.189615
 20
293.411451
 30
0.0
 10
10.159045
 20
293.460912
 30
0.0
 10
10.128475
 20
293.510373
 30
0.0
 10
10.065205
 20
293.553076
 30
0.0
 10
10.001925
 20
293.595779
 30
0.0
 10
9.954614
 20
293.597539
 30
0.0
 10
9.907303
 20
293.599299
 30
0.0
 10
9.882788
 20
293.577290
 30
0.0
  0
SPLINE
  5
2a1
100
AcDbEntity
  8
Layer_1
 62
7
100
AcDbSpline
 70
8
 71
3
 72
8
 73
4
 74
0
 40
0
 40
0
 40
0
 40
0
 40
1
 40
1
 40
1
 40
1
 10
9.652523
 20
293.455407
 30
0.0
 10
9.635273
 20
293.455454
 30
0.0
 10
9.602318
 20
293.467977
 30
0.0
 10
9.579302
 20
293.483211
 30
0.0
  0
LWPOLYLINE
  5
2a2
100
AcDbEntity
  8
Layer_1
 62
7
100
AcDbPolyline
 90
3
 70
0
 10
9.709283
 20
293.480670
 30
0.0
 10
9.683908
 20
293.455298
 30
0.0
 10
9.652523
 20
293.455407
 30
0.0
  0
SPLINE
  5
2a3
100
AcDbEntity
  8
Layer_1
 62
7
100
AcDbSpline
 70
8
 71
3
 72
8
 73
4
 74
0
 40
0
 40
0
 40
0
 40
0
 40
1
 40
1
 40
1
 40
1
 10
9.446781
 20
293.497194
 30
0.0
 10
9.446781
 20
293.489524
 30
0.0
 10
9.458368
 20
293.483246
 30
0.0
 10
9.472517
 20
293.483246
 30
0.0
  0
SPLINE
  5
2a4
100
AcDbEntity
  8
Layer_1
 62
7
100
AcDbSpline
 70
8
 71
3
 72
8
 73
4
 74
0
 40
0
 40
0
 40
0
 40
0
 40
1
 40
1
 40
1
 40
1
 10
9.472517
 20
293.483246
 30
0.0
 10
9.486665
 20
293.483246
 30
0.0
 10
9.510212
 20
293.469926
 30
0.0
 10
9.524826
 20
293.453649
 30
0.0
  0
LWPOLYLINE
  5
2a5
100
AcDbEntity
  8
Layer_1
 62
7
100
AcDbPolyline
 90
5
 70
0
 10
9.579302
 20
293.483211
 30
0.0
 10
9.537450
 20
293.510924
 30
0.0
 10
9.492116
 20
293.511033
 30
0.0
 10
9.446781
 20
293.511142
 30
0.0
 10
9.446781
 20
293.497194
 30
0.0
  0
SPLINE
  5
2a6
100
AcDbEntity
  8
Layer_1
 62
7
100
AcDbSpline
 70
8
 71
3
 72
8
 73
4
 74
0
 40
0
 40
0
 40
0
 40
0
 40
1
 40
1
 40
1
 40
1
 10
10.276071
 20
293.365732
 30
0.0
 10
10.337831
 20
293.370942
 30
0.0
 10
10.390960
 20
293.377545
 30
0.0
 10
10.394155
 20
293.380401
 30
0.0
  0
LWPOLYLINE
  5
2a7
100
AcDbEntity
  8
Layer_1
 62
7
100
AcDbPolyline
 90
9
 70
0
 10
9.524826
 20
293.453649
 30
0.0
 10
9.551398
 20
293.424050
 30
0.0
 10
9.753661
 20
293.431100
 30
0.0
 10
9.955924
 20
293.438150
 30
0.0
 10
10.035164
 20
293.424493
 30
0.0
 10
10.114404
 20
293.410836
 30
0.0
 10
10.139104
 20
293.383544
 30
0.0
 10
10.163804
 20
293.356252
 30
0.0
 10
10.276071
 20
293.365732
 30
0.0
  0
LWPOLYLINE
  5
2a8
100
AcDbEntity
  8
Layer_1
 62
7
100
AcDbPolyline
 90
1
 70
1
 10
10.394155
 20
293.380401
 30
0.0
  0
ENDSEC
  0
SECTION
  2
OBJECTS
  0
DICTIONARY
  5
C
330
0
100
AcDbDictionary
  3
ACAD_GROUP
350
D
  3
ACAD_MLINESTYLE
350
17
  0
DICTIONARY
  5
D
330
C
100
AcDbDictionary
  0
DICTIONARY
  5
1A
330
C
100
AcDbDictionary
  0
DICTIONARY
  5
17
330
C
100
AcDbDictionary
  3
STANDARD
350
18
  0
DICTIONARY
  5
19
330
C
100
AcDbDictionary
  0
ENDSEC
  0
EOF
